<svg xmlns="http://www.w3.org/2000/svg" xmlns:xlink="http://www.w3.org/1999/xlink" width="500" zoomAndPan="magnify" viewBox="0 0 375 374.999991" height="500" preserveAspectRatio="xMidYMid meet" version="1.0"><defs><clipPath id="47cad25423"><path d="M 98.949219 110 L 275.949219 110 L 275.949219 265.222656 L 98.949219 265.222656 Z M 98.949219 110 " clip-rule="nonzero"/></clipPath><clipPath id="1958bed9e7"><path d="M 23.472656 126.203125 L 74.472656 126.203125 L 74.472656 240.203125 L 23.472656 240.203125 Z M 23.472656 126.203125 " clip-rule="nonzero"/></clipPath><clipPath id="a2fa9438cb"><path d="M 312.160156 126.203125 L 362.832031 126.203125 L 362.832031 240.203125 L 312.160156 240.203125 Z M 312.160156 126.203125 " clip-rule="nonzero"/></clipPath></defs><g clip-path="url(#47cad25423)"><path fill="#000000" d="M 107.242188 187.609375 L 147.335938 227.777344 L 143.183594 231.9375 L 98.949219 187.609375 L 143.199219 143.277344 L 147.355469 147.441406 Z M 201.285156 110.019531 L 206.8125 111.414062 L 173.617188 265.175781 L 168.089844 263.785156 Z M 231.699219 143.277344 L 275.949219 187.609375 L 231.699219 231.9375 L 227.546875 227.777344 L 267.644531 187.609375 L 227.546875 147.441406 Z M 231.699219 143.277344 " fill-opacity="1" fill-rule="nonzero"/></g><g clip-path="url(#1958bed9e7)"><path fill="#000000" d="M 56.695312 153.523438 C 56.644531 153.480469 56.613281 153.421875 56.605469 153.347656 C 56.574219 153.117188 56.5625 152.882812 56.554688 152.648438 C 55.992188 150.035156 54.984375 147.527344 54.484375 144.90625 C 53.691406 140.710938 54.058594 136.007812 55.339844 131.953125 C 55.769531 130.589844 56.144531 129.230469 56.6875 127.898438 C 56.769531 127.6875 56.871094 127.300781 56.992188 126.964844 C 57.09375 126.691406 57.226562 126.457031 57.371094 126.324219 C 57.460938 126.242188 57.542969 126.253906 57.605469 126.253906 C 57.683594 126.261719 57.746094 126.304688 57.796875 126.386719 C 57.816406 126.414062 57.839844 126.464844 57.839844 126.539062 C 57.839844 126.578125 57.828125 126.648438 57.828125 126.691406 C 57.816406 126.945312 57.808594 127.199219 57.796875 127.453125 C 57.765625 128.070312 57.777344 128.703125 57.828125 129.320312 C 57.992188 131.121094 58.164062 132.980469 58.59375 134.738281 C 59.488281 138.464844 59.457031 142.457031 58.601562 146.195312 C 58.203125 147.914062 57.492188 149.46875 57.207031 151.132812 L 57.207031 151.144531 C 57.480469 153.09375 57.664062 155.066406 57.714844 157.046875 C 57.757812 158.90625 57.675781 160.765625 57.410156 162.613281 C 57.320312 163.285156 57.195312 163.945312 57.054688 164.605469 C 57.59375 163.660156 58.164062 162.746094 58.753906 161.871094 C 59.53125 160.734375 60.285156 159.496094 61.261719 158.511719 C 62.863281 156.894531 64.707031 155.738281 66.550781 154.457031 C 67.335938 153.917969 68.214844 153.511719 69.019531 153.003906 C 69.90625 152.445312 70.75 151.792969 71.648438 151.234375 C 72.199219 150.890625 72.726562 150.523438 73.269531 150.167969 C 73.433594 150.058594 73.585938 149.957031 73.738281 149.832031 C 73.796875 149.78125 73.878906 149.660156 73.941406 149.609375 C 74.003906 149.558594 74.0625 149.527344 74.105469 149.519531 C 74.195312 149.5 74.265625 149.519531 74.328125 149.570312 C 74.378906 149.609375 74.441406 149.671875 74.449219 149.792969 C 74.472656 149.984375 74.390625 150.21875 74.257812 150.464844 C 74.105469 150.738281 73.878906 151.03125 73.769531 151.214844 C 73.136719 152.324219 72.574219 153.472656 71.894531 154.546875 C 70.046875 157.441406 67.917969 160.136719 64.902344 161.914062 C 63.097656 162.980469 61.203125 163.609375 59.550781 164.535156 C 58.0625 165.367188 56.777344 166.445312 55.972656 168.324219 C 54.996094 170.984375 53.667969 173.375 52.160156 175.800781 C 49.449219 180.160156 46.117188 184.640625 43.132812 191.152344 C 42.082031 193.4375 41.246094 195.765625 40.613281 198.113281 C 40.65625 198.042969 40.695312 197.96875 40.734375 197.898438 C 41.988281 195.804688 44.058594 193.03125 46.085938 191.640625 C 48.492188 190.003906 52.203125 188.765625 54.863281 187.414062 C 55.941406 186.867188 56.878906 186.175781 57.816406 185.421875 C 58.023438 185.261719 58.285156 184.976562 58.5625 184.742188 C 58.777344 184.558594 59 184.417969 59.203125 184.355469 C 59.335938 184.316406 59.417969 184.355469 59.46875 184.386719 C 59.550781 184.4375 59.601562 184.519531 59.589844 184.652344 C 59.589844 184.691406 59.570312 184.753906 59.53125 184.8125 C 59.480469 184.882812 59.367188 185.007812 59.324219 185.078125 C 59.195312 185.28125 59.0625 185.472656 58.9375 185.675781 C 58.5625 186.277344 58.265625 186.925781 57.929688 187.546875 C 57.796875 187.789062 57.65625 188.035156 57.523438 188.269531 C 57.554688 188.320312 57.554688 188.390625 57.5 188.429688 C 57.421875 188.511719 57.347656 188.59375 57.265625 188.675781 C 56.695312 189.578125 56.085938 190.421875 55.402344 191.246094 C 55.433594 191.296875 55.433594 191.367188 55.382812 191.40625 C 55.035156 191.78125 54.679688 192.148438 54.300781 192.484375 C 54.179688 192.617188 54.046875 192.757812 53.914062 192.890625 C 51.4375 195.492188 48.503906 196.914062 45.324219 198.46875 C 44.222656 199.007812 43.039062 199.484375 42 200.132812 C 41 200.765625 40.144531 201.546875 39.65625 202.714844 C 39.613281 202.816406 39.574219 202.929688 39.542969 203.03125 C 38.667969 208.710938 38.820312 214.519531 39.726562 220.363281 C 40.074219 215.617188 43.070312 210.488281 45.945312 207.09375 C 46.003906 207.023438 46.066406 206.953125 46.128906 206.878906 C 47.28125 205.519531 48.582031 204.390625 50.042969 203.363281 C 50.132812 203.292969 50.277344 203.152344 50.429688 203.039062 C 50.5625 202.9375 50.695312 202.847656 50.816406 202.816406 C 50.929688 202.785156 51.03125 202.785156 51.121094 202.828125 C 51.214844 202.867188 51.304688 202.9375 51.367188 203.070312 C 52.089844 204.738281 51.691406 207.195312 50.734375 209.714844 C 49.328125 213.433594 46.730469 217.285156 44.964844 218.859375 C 44.152344 219.589844 42.988281 220.128906 41.988281 220.789062 C 41.175781 221.328125 40.472656 221.945312 40.207031 222.863281 C 41.417969 227.972656 44.527344 235.886719 47.585938 239.167969 C 47.738281 239.332031 47.726562 239.585938 47.566406 239.738281 C 47.433594 239.859375 47.25 239.878906 47.097656 239.796875 C 47.074219 239.816406 47.046875 239.816406 47.023438 239.828125 C 47.054688 239.859375 47.074219 239.890625 47.105469 239.917969 C 47.15625 239.980469 47.148438 240.0625 47.097656 240.113281 C 47.035156 240.164062 46.953125 240.152344 46.902344 240.101562 C 46.554688 239.714844 46.261719 239.300781 45.964844 238.875 C 45.933594 238.832031 45.933594 238.773438 45.964844 238.730469 C 45.75 238.445312 45.535156 238.152344 45.351562 237.855469 C 45.3125 237.796875 45.332031 237.703125 45.394531 237.675781 C 45.402344 237.675781 45.402344 237.664062 45.414062 237.664062 C 44.253906 235.875 43.121094 233.601562 42.144531 231.242188 C 42.082031 231.214844 42.03125 231.152344 42.011719 231.082031 C 41.898438 230.714844 41.785156 230.359375 41.652344 230.015625 C 41.613281 229.921875 41.582031 229.820312 41.542969 229.730469 C 41.335938 229.222656 41.113281 228.722656 40.859375 228.234375 C 40.429688 227.992188 39.941406 227.859375 39.453125 227.757812 C 38.902344 227.648438 38.351562 227.554688 37.832031 227.382812 C 33.722656 226.011719 30.554688 224.367188 27.761719 220.941406 C 27.445312 220.546875 25.753906 218.117188 25.355469 216.96875 C 25.265625 216.714844 25.234375 216.5 25.265625 216.371094 C 25.285156 216.246094 25.347656 216.167969 25.429688 216.105469 C 25.5625 216.003906 25.753906 215.953125 26.007812 215.953125 C 26.292969 215.953125 26.671875 216.035156 27.097656 216.15625 C 28.648438 216.625 30.828125 217.78125 31.308594 218.066406 C 34.785156 220.148438 38.085938 222.851562 40.328125 226.234375 L 40.320312 226.214844 C 40.082031 225.472656 39.859375 224.722656 39.667969 223.957031 C 39.503906 223.339844 39.351562 222.710938 39.21875 222.078125 C 39.175781 221.875 39.136719 221.671875 39.09375 221.460938 C 39.074219 221.359375 39.066406 221.257812 39.042969 221.144531 C 39.023438 221.023438 39.003906 220.902344 38.984375 220.777344 C 38.921875 220.394531 38.859375 220.007812 38.808594 219.632812 C 38.6875 218.746094 38.574219 217.851562 38.484375 216.957031 C 38.441406 216.523438 38.402344 216.085938 38.363281 215.660156 C 38.332031 215.535156 38.300781 215.414062 38.269531 215.28125 C 38.25 215.28125 38.238281 215.273438 38.21875 215.261719 C 31.207031 212.03125 25.601562 206.117188 24.296875 198.355469 C 24.226562 197.910156 23.65625 195.015625 23.511719 193.640625 C 23.472656 193.234375 23.480469 192.953125 23.523438 192.839844 C 23.574219 192.699219 23.664062 192.636719 23.765625 192.617188 C 23.847656 192.597656 23.941406 192.597656 24.042969 192.65625 C 24.113281 192.699219 24.203125 192.769531 24.296875 192.859375 C 24.386719 192.953125 24.480469 193.0625 24.550781 193.113281 C 25.03125 193.46875 25.480469 193.84375 25.988281 194.140625 C 27.597656 195.074219 28.902344 196.03125 30.175781 197.390625 C 34.824219 202.371094 38.199219 212.9375 38.199219 212.9375 C 37.972656 206.820312 38.699219 200.785156 40.707031 194.941406 C 40.707031 194.933594 40.707031 194.933594 40.707031 194.921875 C 40.714844 193.105469 40.023438 191.335938 39.105469 189.640625 C 38.167969 187.914062 37.007812 186.257812 36.089844 184.730469 C 34.476562 182.050781 33.449219 179.105469 33.113281 175.996094 C 32.929688 174.269531 32.96875 172.5625 33.132812 170.824219 C 33.183594 170.304688 33.246094 169.796875 33.304688 169.28125 C 33.328125 169.066406 33.355469 168.851562 33.386719 168.640625 C 33.386719 168.628906 33.378906 168.476562 33.378906 168.414062 C 33.386719 168.335938 33.410156 168.285156 33.4375 168.242188 C 33.480469 168.183594 33.539062 168.140625 33.601562 168.132812 C 33.664062 168.109375 33.746094 168.109375 33.835938 168.160156 C 33.949219 168.234375 34.0625 168.375 34.152344 168.566406 C 34.285156 168.871094 34.375 169.332031 34.46875 169.523438 C 34.875 170.40625 35.394531 171.320312 35.957031 172.125 C 37.007812 173.609375 38.046875 174.878906 38.707031 176.59375 C 40.214844 180.535156 40.03125 184.539062 40.398438 188.664062 C 40.542969 190.289062 40.960938 191.855469 41.257812 193.460938 C 41.601562 192.546875 41.988281 191.640625 42.398438 190.738281 C 44.558594 186.023438 46.902344 182.363281 49.0625 179.054688 C 49.0625 179.023438 49.0625 178.980469 49.074219 178.953125 C 49.664062 176.746094 49.316406 174.652344 48.625 172.613281 C 47.921875 170.527344 46.863281 168.507812 46.046875 166.503906 C 44.894531 163.671875 44.722656 160.023438 45.425781 157.078125 C 45.636719 156.183594 46.054688 154.4375 46.566406 153.632812 C 46.585938 153.5625 46.597656 153.5 46.617188 153.429688 C 46.636719 153.359375 46.707031 153.320312 46.78125 153.328125 C 46.851562 153.347656 46.890625 153.421875 46.882812 153.492188 C 46.941406 153.5 46.992188 153.542969 47.046875 153.601562 C 47.066406 153.632812 47.097656 153.683594 47.105469 153.765625 C 47.117188 153.835938 47.105469 153.980469 47.125 154.050781 C 47.167969 154.261719 47.238281 154.464844 47.289062 154.667969 C 47.453125 155.28125 47.6875 155.839844 47.933594 156.417969 C 48.664062 158.164062 49.777344 159.699219 50.183594 161.578125 C 50.917969 165.011719 50.042969 168.273438 49.796875 171.6875 C 49.652344 173.679688 50.050781 175.640625 49.992188 177.621094 C 50.5 176.839844 51 176.066406 51.46875 175.304688 C 55.503906 168.820312 58.175781 162.625 56.269531 150.382812 Z M 40.082031 227.179688 C 40.082031 227.179688 40.074219 227.191406 40.074219 227.191406 C 40.09375 227.199219 40.105469 227.199219 40.125 227.210938 Z M 27.589844 219.742188 C 27.882812 220.167969 28.128906 220.503906 28.21875 220.636719 C 30.941406 223.96875 34.039062 225.5625 38.035156 226.90625 C 38.1875 226.957031 38.351562 226.996094 38.515625 227.039062 C 38.269531 226.9375 38.023438 226.824219 37.789062 226.710938 C 36.953125 226.335938 36.121094 225.980469 35.3125 225.535156 C 33 224.253906 30.59375 222.789062 28.667969 220.960938 C 28.273438 220.585938 27.933594 220.148438 27.589844 219.742188 Z M 26.917969 218.085938 C 27.515625 218.765625 28.191406 219.398438 28.871094 219.988281 C 30.460938 221.367188 32.183594 222.535156 33.9375 223.714844 C 35.621094 224.84375 37.425781 226.113281 39.339844 226.90625 C 38.808594 226.621094 38.300781 226.253906 37.789062 225.960938 C 36.925781 225.453125 36.046875 224.976562 35.210938 224.40625 C 34.132812 223.664062 33.113281 222.800781 32.082031 221.996094 C 30.851562 221.042969 29.636719 220.046875 28.382812 219.113281 C 27.90625 218.777344 27.375 218.460938 26.917969 218.085938 Z M 39.839844 226.488281 C 37.636719 223.21875 34.425781 220.605469 31.042969 218.574219 C 30.585938 218.300781 28.464844 217.171875 26.957031 216.714844 C 26.601562 216.601562 26.273438 216.53125 26.03125 216.53125 C 26.007812 216.53125 25.988281 216.53125 25.96875 216.53125 C 26.265625 216.613281 26.539062 216.765625 26.835938 216.867188 C 27.160156 216.980469 27.515625 217.039062 27.84375 217.171875 C 28.742188 217.546875 29.554688 218.167969 30.382812 218.675781 C 31.011719 219.070312 31.675781 219.417969 32.277344 219.84375 C 33.296875 220.566406 34.222656 221.410156 35.171875 222.222656 C 36.222656 223.125 37.292969 224.007812 38.320312 224.953125 C 38.851562 225.453125 39.328125 225.980469 39.839844 226.488281 Z M 26.039062 216.835938 C 26.089844 216.898438 26.152344 216.957031 26.203125 217.007812 C 26.703125 217.3125 27.242188 217.558594 27.742188 217.863281 C 28.242188 218.167969 28.699219 218.535156 29.1875 218.859375 C 29.71875 219.214844 30.28125 219.527344 30.800781 219.894531 C 31.941406 220.707031 33.011719 221.640625 34.121094 222.496094 C 35.792969 223.777344 37.503906 225.027344 39.226562 226.246094 C 38.871094 225.878906 38.515625 225.503906 38.136719 225.15625 C 37.117188 224.222656 36.046875 223.339844 35 222.433594 C 34.0625 221.632812 33.144531 220.789062 32.125 220.078125 C 31.523438 219.652344 30.859375 219.304688 30.238281 218.917969 C 29.433594 218.410156 28.628906 217.800781 27.742188 217.4375 C 27.425781 217.304688 27.078125 217.242188 26.753906 217.132812 C 26.507812 217.050781 26.273438 216.929688 26.039062 216.835938 Z M 26.886719 217.699219 C 27.386719 218.148438 28.007812 218.503906 28.546875 218.898438 C 29.800781 219.835938 31.011719 220.828125 32.246094 221.785156 C 33.277344 222.585938 34.285156 223.449219 35.363281 224.183594 C 36.191406 224.742188 37.058594 225.21875 37.921875 225.714844 C 38.1875 225.867188 38.441406 226.042969 38.707031 226.203125 C 37.097656 225.066406 35.507812 223.898438 33.949219 222.710938 C 32.835938 221.867188 31.777344 220.941406 30.625 220.128906 C 30.105469 219.761719 29.554688 219.449219 29.027344 219.09375 C 28.546875 218.765625 28.089844 218.402344 27.589844 218.105469 C 27.363281 217.964844 27.121094 217.832031 26.886719 217.699219 Z M 26.925781 218.511719 C 27.171875 218.828125 27.425781 219.144531 27.691406 219.4375 C 28.078125 219.886719 28.433594 220.363281 28.863281 220.769531 C 30.769531 222.578125 33.152344 224.03125 35.445312 225.300781 C 36.007812 225.605469 36.578125 225.867188 37.148438 226.132812 C 35.976562 225.453125 34.84375 224.679688 33.773438 223.957031 C 32.023438 222.78125 30.289062 221.589844 28.691406 220.210938 C 28.078125 219.671875 27.476562 219.113281 26.925781 218.511719 Z M 50.460938 204.066406 C 49.625 205.195312 48.972656 206.535156 48.1875 207.652344 C 45.230469 211.878906 42.582031 216.378906 40.683594 221.183594 C 43.039062 217.628906 45.097656 213.808594 47.257812 210.140625 C 48.453125 208.121094 49.785156 206.292969 50.460938 204.066406 Z M 46.871094 206.941406 C 46.78125 207.042969 46.679688 207.15625 46.585938 207.265625 C 46.523438 207.335938 46.464844 207.410156 46.402344 207.480469 C 43.488281 210.914062 40.429688 216.175781 40.289062 220.953125 C 40.726562 219.285156 41.449219 217.710938 42.070312 216.09375 C 43.285156 212.996094 44.75 209.675781 46.871094 206.941406 Z M 50.929688 203.476562 C 50.90625 203.496094 50.898438 203.507812 50.878906 203.527344 C 50.277344 206.058594 48.796875 208.046875 47.484375 210.273438 C 45.546875 213.554688 43.703125 216.957031 41.644531 220.179688 C 44.609375 216.523438 47.585938 212.609375 49.339844 208.261719 C 49.992188 206.699219 50.703125 205.164062 50.929688 203.476562 Z M 50.132812 204.046875 C 46.269531 206.980469 44.027344 211.808594 42.335938 216.195312 C 41.828125 217.519531 41.246094 218.808594 40.808594 220.148438 C 42.683594 215.667969 45.191406 211.460938 47.960938 207.488281 C 48.714844 206.414062 49.347656 205.144531 50.132812 204.046875 Z M 51.214844 205.855469 C 51 206.820312 50.601562 207.792969 50.316406 208.617188 C 49.46875 211.136719 46.667969 215.667969 44.78125 217.660156 C 44.089844 218.382812 43.386719 219.070312 42.703125 219.785156 C 43.40625 219.375 44.109375 218.980469 44.648438 218.492188 C 46.363281 216.949219 48.898438 213.179688 50.277344 209.550781 C 50.753906 208.261719 51.101562 206.992188 51.214844 205.855469 Z M 51.070312 204.25 C 50.765625 205.671875 50.152344 207.011719 49.601562 208.375 C 47.941406 212.476562 45.210938 216.207031 42.40625 219.679688 C 43.121094 218.941406 43.855469 218.230469 44.566406 217.476562 C 46.433594 215.515625 49.207031 211.035156 50.042969 208.535156 C 50.285156 207.816406 50.621094 206.992188 50.847656 206.148438 C 51.03125 205.507812 51.132812 204.859375 51.070312 204.25 Z M 37.914062 214.53125 C 37.914062 214.53125 37.914062 214.539062 37.914062 214.539062 L 37.945312 214.550781 Z M 25.144531 199.625 C 25.285156 200.234375 25.457031 200.824219 25.664062 201.414062 C 27.363281 204.746094 30.777344 208.160156 33.070312 210.507812 C 34.519531 211.980469 35.652344 213.445312 37.554688 214.277344 C 33.898438 211.847656 31.53125 208.078125 28.832031 204.714844 C 27.464844 203.039062 26.070312 201.484375 25.144531 199.625 Z M 24.441406 195.917969 C 24.632812 197.027344 24.835938 198.070312 24.878906 198.316406 L 24.878906 198.324219 C 25.734375 200.722656 27.425781 202.542969 29.046875 204.542969 C 31.523438 207.613281 33.703125 211.027344 36.851562 213.433594 C 35.597656 212.164062 34.335938 210.875 33.234375 209.492188 C 31.195312 206.929688 29.574219 204.054688 27.804688 201.304688 C 26.519531 199.3125 25.296875 197.839844 24.441406 195.917969 Z M 25.714844 194.648438 C 27.925781 197.207031 29.371094 200.359375 31.042969 203.292969 C 33.0625 206.851562 35.363281 210.140625 37.789062 213.421875 C 37.761719 213.300781 37.71875 213.179688 37.679688 213.046875 C 37.371094 212.742188 37.085938 212.367188 36.824219 211.949219 C 36.140625 210.875 35.578125 209.5625 35.070312 208.769531 C 33.410156 206.199219 31.796875 203.648438 30.382812 200.9375 C 29.382812 199.007812 28.609375 197.117188 27.160156 195.550781 C 26.710938 195.246094 26.242188 194.953125 25.753906 194.667969 C 25.734375 194.660156 25.722656 194.660156 25.714844 194.648438 Z M 24.550781 193.835938 C 28.128906 200.0625 31.390625 206.453125 36.191406 211.847656 C 36.609375 212.316406 36.976562 212.824219 37.363281 213.3125 C 35.007812 210.109375 32.777344 206.890625 30.800781 203.425781 C 28.933594 200.144531 27.355469 196.617188 24.675781 193.925781 C 24.632812 193.894531 24.59375 193.867188 24.550781 193.835938 Z M 26.304688 203.058594 C 28.128906 207.164062 31.289062 210.539062 35.121094 212.988281 C 34.347656 212.296875 33.652344 211.503906 32.867188 210.699219 C 30.910156 208.6875 28.140625 205.914062 26.304688 203.058594 Z M 24.082031 193.570312 C 24.101562 193.753906 24.125 193.96875 24.152344 194.210938 C 24.175781 194.332031 24.183594 194.457031 24.203125 194.578125 C 25.03125 197.148438 26.476562 198.773438 28.015625 201.160156 C 29.78125 203.902344 31.402344 206.769531 33.429688 209.328125 C 34.417969 210.570312 35.539062 211.726562 36.660156 212.875 C 36.433594 212.589844 36.210938 212.304688 35.964844 212.03125 C 30.910156 206.320312 27.546875 199.503906 23.714844 192.941406 Z M 28.058594 196.210938 C 29.105469 197.613281 29.789062 199.199219 30.625 200.824219 C 32.03125 203.539062 33.644531 206.078125 35.292969 208.636719 C 35.804688 209.429688 36.363281 210.742188 37.046875 211.816406 C 37.167969 212.011719 37.292969 212.195312 37.425781 212.367188 C 36.609375 210.527344 35.589844 208.789062 34.683594 207.003906 C 32.898438 203.4375 31.167969 199.902344 28.71875 196.761719 C 28.507812 196.566406 28.28125 196.386719 28.058594 196.210938 Z M 29.953125 197.96875 C 31.898438 200.765625 33.386719 203.800781 34.9375 206.859375 C 35.589844 208.140625 36.292969 209.398438 36.945312 210.691406 C 35.386719 206.058594 33.183594 201.496094 29.953125 197.96875 Z M 57.390625 186.945312 C 55.617188 188.378906 53.414062 189.210938 51.476562 190.390625 C 47.878906 192.566406 44.648438 195.320312 42.019531 198.601562 C 41.519531 199.230469 40.898438 199.828125 40.378906 200.480469 C 40.359375 200.519531 40.328125 200.550781 40.308594 200.589844 C 40.398438 200.488281 40.492188 200.398438 40.582031 200.296875 C 41.265625 199.554688 41.980469 198.855469 42.691406 198.144531 C 45.527344 195.339844 48.582031 192.941406 51.925781 190.757812 C 53.71875 189.578125 55.871094 188.53125 57.390625 186.945312 Z M 47.933594 191.195312 C 47.390625 191.476562 46.882812 191.78125 46.421875 192.089844 C 44.457031 193.4375 42.449219 196.132812 41.226562 198.171875 C 40.917969 198.679688 40.613281 199.210938 40.328125 199.769531 C 40.890625 198.875 41.542969 198.03125 42.152344 197.199219 C 43.761719 195.035156 45.699219 192.871094 47.933594 191.195312 Z M 55.046875 190.867188 C 54.320312 191.519531 53.566406 192.140625 52.792969 192.71875 C 50.867188 194.171875 48.65625 195.339844 46.597656 196.589844 C 45.3125 197.371094 44.070312 198.171875 42.867188 199.078125 C 43.527344 198.722656 44.191406 198.367188 44.832031 197.96875 C 46.382812 197.003906 47.859375 195.917969 49.441406 195.003906 C 50.511719 194.382812 51.683594 193.957031 52.761719 193.328125 C 53.039062 193.074219 53.304688 192.820312 53.566406 192.535156 C 54.085938 191.984375 54.585938 191.425781 55.046875 190.867188 Z M 56.769531 188.5 C 56.523438 188.777344 56.269531 189.039062 56.003906 189.261719 C 55.21875 189.953125 54.320312 190.542969 53.484375 191.171875 C 51.007812 193.0625 48.429688 194.78125 45.832031 196.496094 C 44.8125 197.179688 43.855469 197.898438 42.925781 198.671875 C 44.070312 197.839844 45.230469 197.085938 46.445312 196.34375 C 48.503906 195.09375 50.695312 193.925781 52.621094 192.484375 C 53.824219 191.578125 54.972656 190.585938 56.066406 189.527344 C 56.308594 189.203125 56.542969 188.855469 56.769531 188.5 Z M 57.289062 187.425781 C 55.78125 188.855469 53.773438 189.863281 52.078125 190.96875 C 48.757812 193.144531 45.710938 195.523438 42.898438 198.324219 C 42.816406 198.40625 42.734375 198.488281 42.652344 198.558594 C 43.621094 197.746094 44.621094 196.984375 45.691406 196.273438 C 48.277344 194.546875 50.855469 192.839844 53.332031 190.960938 C 54.160156 190.332031 55.054688 189.75 55.832031 189.058594 C 56.339844 188.601562 56.839844 188.035156 57.289062 187.425781 Z M 51.507812 189.539062 C 50.898438 189.800781 50.277344 190.066406 49.675781 190.339844 C 46.789062 192.089844 44.34375 194.730469 42.398438 197.351562 C 42.265625 197.535156 42.132812 197.707031 41.988281 197.890625 C 42.070312 197.789062 42.144531 197.695312 42.222656 197.605469 C 44.761719 194.457031 48.023438 191.671875 51.507812 189.539062 Z M 51.816406 194.128906 C 51.0625 194.496094 50.296875 194.820312 49.574219 195.238281 C 48.257812 195.988281 47.015625 196.875 45.75 197.695312 C 47.921875 196.628906 49.96875 195.59375 51.816406 194.128906 Z M 58.03125 185.992188 C 57.378906 186.511719 56.71875 186.996094 56.015625 187.425781 C 56.015625 187.425781 56.023438 187.433594 56.023438 187.433594 C 56.054688 187.507812 56.035156 187.585938 55.960938 187.617188 C 54.71875 188.246094 53.425781 188.714844 52.222656 189.425781 C 49.480469 191.03125 46.863281 193.0625 44.597656 195.359375 C 46.636719 193.367188 48.910156 191.621094 51.355469 190.148438 C 53.507812 188.847656 55.992188 187.964844 57.839844 186.195312 C 57.898438 186.132812 57.960938 186.0625 58.03125 185.992188 Z M 33.988281 169.828125 C 34.050781 170.316406 34.132812 170.804688 34.273438 171.269531 C 34.476562 171.929688 34.84375 172.519531 35.007812 173.191406 C 35.945312 177.113281 36.933594 181.066406 38.199219 184.894531 C 38.574219 186.054688 39.023438 187.179688 39.484375 188.308594 C 39.542969 188.460938 39.613281 188.625 39.6875 188.777344 C 39.421875 188.003906 39.308594 187.179688 39.117188 186.398438 C 38.707031 184.742188 38.269531 183.105469 37.863281 181.449219 C 37.191406 178.71875 36.515625 175.945312 35.570312 173.292969 C 35.203125 172.265625 34.652344 171.269531 34.203125 170.273438 C 34.121094 170.113281 34.0625 169.96875 33.988281 169.828125 Z M 35.578125 172.589844 C 35.660156 172.792969 35.742188 172.988281 35.8125 173.191406 C 36.761719 175.851562 37.433594 178.636719 38.117188 181.378906 C 38.523438 183.035156 38.960938 184.671875 39.371094 186.328125 C 39.472656 186.722656 39.542969 187.140625 39.636719 187.546875 C 39.523438 186.734375 39.433594 185.921875 39.277344 185.117188 C 38.890625 183.097656 38.332031 181.105469 37.921875 179.082031 C 37.585938 177.40625 37.371094 175.40625 36.507812 173.871094 C 36.199219 173.445312 35.894531 173.027344 35.578125 172.589844 Z M 33.753906 176.511719 C 34.132812 179.359375 35.109375 182.050781 36.589844 184.519531 C 37.148438 185.453125 37.789062 186.417969 38.421875 187.425781 C 38.167969 186.855469 37.914062 186.285156 37.648438 185.726562 C 36.78125 183.960938 35.945312 182.191406 35.171875 180.375 C 34.621094 179.105469 34.121094 177.824219 33.753906 176.511719 Z M 33.773438 170.285156 L 33.753906 170.449219 C 33.746094 170.882812 33.753906 171.332031 33.796875 171.769531 C 33.898438 172.785156 34.222656 173.710938 34.46875 174.683594 C 34.792969 175.933594 35.058594 177.214844 35.457031 178.453125 C 35.792969 179.488281 36.242188 180.476562 36.589844 181.511719 C 37.148438 183.207031 37.78125 184.875 38.472656 186.511719 C 38.28125 186.003906 38.105469 185.496094 37.933594 184.976562 C 36.667969 181.136719 35.679688 177.171875 34.734375 173.25 C 34.570312 172.589844 34.203125 172.003906 34.007812 171.351562 C 33.898438 170.996094 33.824219 170.628906 33.773438 170.265625 Z M 37.332031 175.101562 C 37.75 176.382812 37.945312 177.78125 38.1875 179.023438 C 38.597656 181.042969 39.15625 183.035156 39.542969 185.058594 C 39.59375 185.3125 39.636719 185.566406 39.675781 185.828125 C 39.511719 182.792969 39.351562 179.816406 38.21875 176.867188 C 37.972656 176.230469 37.667969 175.648438 37.332031 175.101562 Z M 33.601562 172.378906 C 33.570312 173.097656 33.5625 173.820312 33.582031 174.542969 C 33.90625 176.523438 34.609375 178.402344 35.417969 180.273438 C 36.058594 181.765625 36.730469 183.21875 37.433594 184.679688 C 37.035156 183.664062 36.667969 182.640625 36.324219 181.59375 C 35.976562 180.566406 35.527344 179.570312 35.191406 178.535156 C 34.792969 177.296875 34.519531 176.015625 34.203125 174.753906 C 34 173.953125 33.746094 173.179688 33.601562 172.378906 Z M 45.609375 159.738281 C 45.453125 161.984375 45.769531 164.382812 46.574219 166.363281 C 47.199219 167.898438 47.960938 169.441406 48.605469 171.015625 C 48.542969 170.773438 48.472656 170.539062 48.390625 170.316406 C 47.238281 167.117188 45.882812 163.722656 45.636719 160.296875 C 45.628906 160.117188 45.617188 159.921875 45.609375 159.738281 Z M 48.707031 159.210938 C 48.847656 160.125 48.839844 161.070312 48.859375 162.015625 C 48.878906 163.273438 48.980469 164.554688 48.921875 165.816406 C 48.890625 166.515625 48.839844 167.238281 48.820312 167.949219 C 48.929688 168.78125 49.042969 169.625 49.164062 170.457031 C 49.164062 170.449219 49.164062 170.425781 49.164062 170.417969 C 49.15625 169.003906 49.367188 167.625 49.460938 166.222656 C 49.601562 164.179688 49.582031 162.046875 49.105469 160.042969 C 48.972656 159.757812 48.839844 159.484375 48.707031 159.210938 Z M 49.675781 161.78125 C 49.847656 163.265625 49.828125 164.769531 49.726562 166.230469 C 49.632812 167.523438 49.449219 168.800781 49.429688 170.09375 C 49.757812 167.320312 50.277344 164.605469 49.675781 161.78125 Z M 46.1875 156.398438 C 46.117188 156.671875 46.054688 156.914062 46.003906 157.136719 C 45.882812 158.175781 45.832031 159.210938 45.902344 160.289062 C 46.148438 163.640625 47.453125 166.953125 48.59375 170.09375 C 48.574219 169.929688 48.5625 169.765625 48.554688 169.59375 C 48.402344 168.921875 48.226562 168.253906 48.0625 167.582031 C 47.574219 165.621094 46.890625 163.679688 46.546875 161.679688 C 46.261719 159.941406 46.085938 158.15625 46.1875 156.398438 Z M 46.636719 154.894531 L 46.628906 154.921875 C 46.28125 157.136719 46.445312 159.425781 46.820312 161.628906 C 47.15625 163.621094 47.839844 165.550781 48.328125 167.511719 C 48.390625 167.777344 48.460938 168.039062 48.53125 168.304688 C 48.53125 168.191406 48.53125 168.082031 48.542969 167.96875 C 48.1875 165.335938 47.851562 162.707031 47.460938 160.085938 C 47.339844 159.273438 47.25 158.449219 47.105469 157.636719 C 46.933594 156.730469 46.71875 155.808594 46.648438 154.871094 Z M 46.984375 155.503906 C 47.085938 156.203125 47.238281 156.894531 47.359375 157.585938 C 47.515625 158.398438 47.605469 159.222656 47.726562 160.042969 C 48.042969 162.167969 48.320312 164.300781 48.605469 166.425781 C 48.613281 166.210938 48.625 166.007812 48.636719 165.792969 C 48.695312 164.546875 48.59375 163.265625 48.574219 162.003906 C 48.554688 160.726562 48.582031 159.425781 48.1875 158.226562 C 47.921875 157.71875 47.667969 157.210938 47.441406 156.679688 C 47.289062 156.296875 47.125 155.910156 46.984375 155.503906 Z M 57.746094 164.960938 C 57.726562 164.980469 57.714844 164.992188 57.695312 165.011719 C 57.613281 165.113281 57.53125 165.226562 57.449219 165.328125 C 57.441406 165.335938 57.429688 165.347656 57.421875 165.359375 C 57.410156 165.378906 57.398438 165.398438 57.390625 165.410156 C 57.53125 165.277344 57.675781 165.15625 57.828125 165.03125 C 57.808594 165.023438 57.789062 165.011719 57.765625 165.003906 C 57.757812 164.992188 57.746094 164.980469 57.746094 164.960938 Z M 65.574219 155.808594 C 64.199219 156.742188 62.863281 157.699219 61.671875 158.894531 C 60.722656 159.863281 59.976562 161.070312 59.222656 162.179688 C 58.746094 162.890625 58.277344 163.628906 57.828125 164.382812 L 57.859375 164.339844 C 58.296875 163.792969 58.753906 163.265625 59.214844 162.738281 C 59.5 162.390625 59.796875 162.046875 60.082031 161.699219 C 61.445312 160.054688 62.667969 158.4375 64.238281 156.976562 C 64.667969 156.589844 65.113281 156.195312 65.574219 155.808594 Z M 72.117188 153.144531 C 70.40625 155.644531 68.222656 157.789062 65.765625 159.585938 C 64.238281 160.695312 62.660156 161.78125 61.089844 162.839844 C 60.550781 163.195312 60 163.558594 59.488281 163.964844 C 59.765625 163.8125 60.050781 163.671875 60.335938 163.539062 C 60.601562 163.375 60.863281 163.214844 61.128906 163.050781 C 63.238281 161.820312 65.226562 160.378906 67.121094 158.855469 C 68.140625 158.03125 69.253906 157.25 70.109375 156.253906 C 70.578125 155.605469 71.027344 154.933594 71.464844 154.261719 C 71.6875 153.886719 71.902344 153.523438 72.117188 153.144531 Z M 71.117188 154.050781 C 69.140625 156.164062 66.726562 157.859375 64.339844 159.578125 C 62.894531 160.613281 61.527344 161.820312 60.203125 163.011719 C 60 163.195312 59.796875 163.367188 59.582031 163.550781 C 60.019531 163.222656 60.476562 162.917969 60.9375 162.613281 C 62.507812 161.566406 64.085938 160.480469 65.613281 159.375 C 67.683594 157.851562 69.558594 156.070312 71.117188 154.050781 Z M 72.371094 152.109375 C 71.710938 152.707031 71.015625 153.257812 70.332031 153.835938 C 68.558594 155.339844 66.835938 156.863281 65.011719 158.308594 C 63.757812 159.300781 62.476562 160.328125 61.324219 161.4375 C 60.710938 162.023438 60.121094 162.625 59.519531 163.222656 C 59.683594 163.082031 59.847656 162.941406 60.007812 162.796875 C 61.34375 161.609375 62.710938 160.390625 64.175781 159.34375 C 67.175781 157.210938 70.222656 155.085938 72.371094 152.109375 Z M 72.832031 151.308594 C 72.167969 151.683594 71.496094 152.046875 70.863281 152.496094 C 68.785156 154 66.929688 155.777344 65.011719 157.472656 C 63.078125 159.179688 61.160156 160.980469 59.4375 162.917969 L 59.40625 162.960938 C 59.976562 162.382812 60.558594 161.800781 61.140625 161.234375 C 62.300781 160.117188 63.597656 159.089844 64.851562 158.082031 C 66.675781 156.640625 68.386719 155.117188 70.160156 153.613281 C 71.058594 152.871094 71.996094 152.140625 72.832031 151.308594 Z M 68.894531 157.777344 C 68.367188 158.214844 67.816406 158.632812 67.285156 159.058594 C 65.726562 160.308594 64.105469 161.507812 62.414062 162.574219 C 63.160156 162.238281 63.914062 161.871094 64.644531 161.4375 C 66.308594 160.460938 67.683594 159.199219 68.894531 157.777344 Z M 68.734375 153.816406 C 68.5 153.949219 68.265625 154.082031 68.03125 154.210938 C 66.808594 155.136719 65.523438 156.164062 64.433594 157.179688 C 63.445312 158.105469 62.585938 159.097656 61.75 160.117188 C 62.75 159.140625 63.789062 158.195312 64.839844 157.269531 C 66.132812 156.121094 67.410156 154.933594 68.734375 153.816406 Z M 58.492188 137.105469 C 58.5 138.464844 58.417969 139.835938 58.257812 141.199219 C 58.011719 143.261719 57.675781 145.273438 57.296875 147.335938 C 57.136719 148.21875 56.972656 149.121094 56.910156 150.027344 C 57.257812 148.726562 57.765625 147.445312 58.082031 146.066406 C 58.753906 143.167969 58.910156 140.089844 58.492188 137.105469 Z M 55.046875 135.457031 C 54.496094 138.546875 54.453125 141.808594 55.023438 144.804688 C 55.300781 146.238281 55.71875 147.628906 56.136719 149.03125 C 55.933594 147.710938 55.769531 146.390625 55.605469 145.070312 C 55.21875 141.839844 54.863281 138.65625 55.046875 135.457031 Z M 55.574219 133.132812 C 55.574219 133.140625 55.566406 133.152344 55.566406 133.160156 C 54.964844 137.144531 55.402344 141.046875 55.882812 145.039062 C 56.035156 146.308594 56.195312 147.566406 56.390625 148.839844 C 56.402344 148.695312 56.421875 148.554688 56.441406 148.421875 C 56.308594 147.234375 56.117188 146.035156 56.003906 144.855469 C 55.726562 141.96875 55.636719 139.085938 55.566406 136.179688 C 55.535156 135.070312 55.515625 134.097656 55.574219 133.132812 Z M 58.042969 134.746094 C 58.050781 137.335938 57.816406 139.929688 57.441406 142.457031 C 57.238281 143.828125 57.246094 145.363281 57.011719 146.734375 C 56.953125 147.070312 56.890625 147.394531 56.828125 147.710938 C 56.828125 147.933594 56.828125 148.15625 56.839844 148.382812 C 56.902344 148.015625 56.960938 147.660156 57.03125 147.292969 C 57.410156 145.230469 57.746094 143.21875 57.992188 141.167969 C 58.234375 139.144531 58.296875 137.132812 58.125 135.101562 C 58.101562 135.019531 58.09375 134.949219 58.074219 134.878906 C 58.0625 134.839844 58.050781 134.789062 58.042969 134.746094 Z M 57.1875 128.203125 C 56.359375 131.941406 56.320312 135.875 56.402344 139.664062 C 56.441406 141.746094 56.472656 143.800781 56.59375 145.871094 C 56.59375 145.75 56.605469 145.636719 56.605469 145.515625 C 56.636719 143.605469 56.695312 141.726562 56.808594 139.816406 C 57.023438 136.351562 57.113281 131.71875 57.1875 128.203125 Z M 57.410156 130.613281 C 57.339844 133.667969 57.246094 137.113281 57.082031 139.835938 C 56.972656 141.738281 56.910156 143.617188 56.878906 145.515625 C 56.878906 145.597656 56.878906 145.679688 56.878906 145.757812 C 56.992188 144.652344 57.023438 143.472656 57.1875 142.40625 C 57.632812 139.378906 57.878906 136.230469 57.734375 133.132812 C 57.59375 132.308594 57.492188 131.453125 57.410156 130.613281 Z M 56.625 129.71875 C 56.402344 130.410156 56.195312 131.097656 55.972656 131.789062 C 55.78125 133.242188 55.800781 134.5625 55.839844 136.160156 C 55.910156 139.003906 55.992188 141.839844 56.257812 144.664062 C 56.1875 142.996094 56.15625 141.339844 56.125 139.664062 C 56.066406 136.390625 56.085938 132.988281 56.625 129.71875 Z M 56.625 129.71875 " fill-opacity="1" fill-rule="evenodd"/></g><g clip-path="url(#a2fa9438cb)"><path fill="#000000" d="M 329.605469 153.523438 C 329.65625 153.480469 329.6875 153.421875 329.699219 153.347656 C 329.726562 153.117188 329.738281 152.882812 329.75 152.648438 C 330.308594 150.035156 331.316406 147.527344 331.816406 144.90625 C 332.613281 140.710938 332.246094 136.007812 330.960938 131.953125 C 330.535156 130.589844 330.15625 129.230469 329.617188 127.898438 C 329.535156 127.6875 329.433594 127.300781 329.308594 126.964844 C 329.207031 126.691406 329.074219 126.457031 328.933594 126.324219 C 328.839844 126.242188 328.761719 126.253906 328.699219 126.253906 C 328.617188 126.261719 328.554688 126.304688 328.503906 126.386719 C 328.484375 126.414062 328.464844 126.464844 328.464844 126.539062 C 328.464844 126.578125 328.472656 126.648438 328.472656 126.691406 C 328.484375 126.945312 328.496094 127.199219 328.503906 127.453125 C 328.535156 128.070312 328.527344 128.703125 328.472656 129.320312 C 328.3125 131.121094 328.136719 132.980469 327.710938 134.738281 C 326.8125 138.464844 326.84375 142.457031 327.699219 146.195312 C 328.097656 147.914062 328.8125 149.46875 329.097656 151.132812 L 329.097656 151.144531 C 328.820312 153.09375 328.636719 155.066406 328.585938 157.046875 C 328.546875 158.90625 328.628906 160.765625 328.890625 162.613281 C 328.984375 163.285156 329.105469 163.945312 329.25 164.605469 C 328.707031 163.660156 328.136719 162.746094 327.546875 161.871094 C 326.773438 160.734375 326.019531 159.496094 325.039062 158.511719 C 323.441406 156.894531 321.59375 155.738281 319.75 154.457031 C 318.964844 153.917969 318.089844 153.511719 317.285156 153.003906 C 316.398438 152.445312 315.550781 151.792969 314.65625 151.234375 C 314.105469 150.890625 313.574219 150.523438 313.035156 150.167969 C 312.871094 150.058594 312.71875 149.957031 312.566406 149.832031 C 312.503906 149.78125 312.421875 149.660156 312.359375 149.609375 C 312.300781 149.558594 312.238281 149.527344 312.199219 149.519531 C 312.105469 149.5 312.035156 149.519531 311.972656 149.570312 C 311.921875 149.609375 311.863281 149.671875 311.851562 149.792969 C 311.832031 149.984375 311.914062 150.21875 312.046875 150.464844 C 312.199219 150.738281 312.421875 151.03125 312.535156 151.214844 C 313.167969 152.324219 313.726562 153.472656 314.410156 154.546875 C 316.253906 157.441406 318.382812 160.136719 321.402344 161.914062 C 323.207031 162.980469 325.101562 163.609375 326.753906 164.535156 C 328.238281 165.367188 329.523438 166.445312 330.328125 168.324219 C 331.308594 170.984375 332.632812 173.375 334.140625 175.800781 C 336.851562 180.160156 340.183594 184.640625 343.171875 191.152344 C 344.222656 193.4375 345.054688 195.765625 345.6875 198.113281 C 345.648438 198.042969 345.605469 197.96875 345.566406 197.898438 C 344.3125 195.804688 342.242188 193.03125 340.214844 191.640625 C 337.808594 190.003906 334.101562 188.765625 331.441406 187.414062 C 330.359375 186.867188 329.421875 186.175781 328.484375 185.421875 C 328.28125 185.261719 328.015625 184.976562 327.742188 184.742188 C 327.527344 184.558594 327.300781 184.417969 327.097656 184.355469 C 326.964844 184.316406 326.882812 184.355469 326.832031 184.386719 C 326.753906 184.4375 326.699219 184.519531 326.710938 184.652344 C 326.710938 184.691406 326.730469 184.753906 326.773438 184.8125 C 326.824219 184.882812 326.933594 185.007812 326.976562 185.078125 C 327.109375 185.28125 327.242188 185.472656 327.363281 185.675781 C 327.742188 186.277344 328.035156 186.925781 328.371094 187.546875 C 328.503906 187.789062 328.648438 188.035156 328.78125 188.269531 C 328.75 188.320312 328.75 188.390625 328.800781 188.429688 C 328.882812 188.511719 328.953125 188.59375 329.035156 188.675781 C 329.605469 189.578125 330.21875 190.421875 330.898438 191.246094 C 330.871094 191.296875 330.871094 191.367188 330.921875 191.40625 C 331.265625 191.78125 331.625 192.148438 332 192.484375 C 332.125 192.617188 332.253906 192.757812 332.386719 192.890625 C 334.863281 195.492188 337.800781 196.914062 340.980469 198.46875 C 342.082031 199.007812 343.261719 199.484375 344.300781 200.132812 C 345.300781 200.765625 346.15625 201.546875 346.648438 202.714844 C 346.6875 202.816406 346.726562 202.929688 346.757812 203.03125 C 347.636719 208.710938 347.480469 214.519531 346.574219 220.363281 C 346.230469 215.617188 343.230469 210.488281 340.359375 207.09375 C 340.296875 207.023438 340.234375 206.953125 340.175781 206.878906 C 339.023438 205.519531 337.71875 204.390625 336.261719 203.363281 C 336.167969 203.292969 336.027344 203.152344 335.875 203.039062 C 335.742188 202.9375 335.609375 202.847656 335.488281 202.816406 C 335.375 202.785156 335.273438 202.785156 335.179688 202.828125 C 335.089844 202.867188 334.996094 202.9375 334.9375 203.070312 C 334.210938 204.738281 334.609375 207.195312 335.566406 209.714844 C 336.972656 213.433594 339.574219 217.285156 341.335938 218.859375 C 342.152344 219.589844 343.3125 220.128906 344.3125 220.789062 C 345.128906 221.328125 345.832031 221.945312 346.097656 222.863281 C 344.882812 227.972656 341.773438 235.886719 338.71875 239.167969 C 338.5625 239.332031 338.574219 239.585938 338.738281 239.738281 C 338.871094 239.859375 339.054688 239.878906 339.207031 239.796875 C 339.226562 239.816406 339.257812 239.816406 339.277344 239.828125 C 339.246094 239.859375 339.226562 239.890625 339.195312 239.917969 C 339.144531 239.980469 339.15625 240.0625 339.207031 240.113281 C 339.269531 240.164062 339.347656 240.152344 339.398438 240.101562 C 339.746094 239.714844 340.042969 239.300781 340.335938 238.875 C 340.367188 238.832031 340.367188 238.773438 340.335938 238.730469 C 340.550781 238.445312 340.765625 238.152344 340.949219 237.855469 C 340.988281 237.796875 340.96875 237.703125 340.910156 237.675781 C 340.898438 237.675781 340.898438 237.664062 340.886719 237.664062 C 342.050781 235.875 343.179688 233.601562 344.160156 231.242188 C 344.222656 231.214844 344.273438 231.152344 344.292969 231.082031 C 344.40625 230.714844 344.515625 230.359375 344.648438 230.015625 C 344.691406 229.921875 344.71875 229.820312 344.761719 229.730469 C 344.964844 229.222656 345.1875 228.722656 345.445312 228.234375 C 345.871094 227.992188 346.359375 227.859375 346.851562 227.757812 C 347.402344 227.648438 347.949219 227.554688 348.472656 227.382812 C 352.578125 226.011719 355.746094 224.367188 358.539062 220.941406 C 358.855469 220.546875 360.546875 218.117188 360.945312 216.96875 C 361.039062 216.714844 361.066406 216.5 361.039062 216.371094 C 361.015625 216.246094 360.957031 216.167969 360.875 216.105469 C 360.742188 216.003906 360.546875 215.953125 360.292969 215.953125 C 360.007812 215.953125 359.632812 216.035156 359.203125 216.15625 C 357.652344 216.625 355.472656 217.78125 354.992188 218.066406 C 351.519531 220.148438 348.214844 222.851562 345.972656 226.234375 L 345.984375 226.214844 C 346.21875 225.472656 346.441406 224.722656 346.636719 223.957031 C 346.800781 223.339844 346.953125 222.710938 347.085938 222.078125 C 347.125 221.875 347.167969 221.671875 347.207031 221.460938 C 347.226562 221.359375 347.238281 221.257812 347.257812 221.144531 C 347.277344 221.023438 347.300781 220.902344 347.320312 220.777344 C 347.378906 220.394531 347.441406 220.007812 347.492188 219.632812 C 347.613281 218.746094 347.726562 217.851562 347.820312 216.957031 C 347.859375 216.523438 347.898438 216.085938 347.941406 215.660156 C 347.972656 215.535156 348.003906 215.414062 348.03125 215.28125 C 348.054688 215.28125 348.0625 215.273438 348.082031 215.261719 C 355.09375 212.03125 360.699219 206.117188 362.003906 198.355469 C 362.078125 197.910156 362.648438 195.015625 362.789062 193.640625 C 362.832031 193.234375 362.820312 192.953125 362.78125 192.839844 C 362.730469 192.699219 362.636719 192.636719 362.535156 192.617188 C 362.453125 192.597656 362.363281 192.597656 362.261719 192.65625 C 362.1875 192.699219 362.097656 192.769531 362.003906 192.859375 C 361.914062 192.953125 361.820312 193.0625 361.75 193.113281 C 361.273438 193.46875 360.824219 193.84375 360.3125 194.140625 C 358.703125 195.074219 357.398438 196.03125 356.125 197.390625 C 351.476562 202.371094 348.105469 212.9375 348.105469 212.9375 C 348.328125 206.820312 347.605469 200.785156 345.597656 194.941406 C 345.597656 194.933594 345.597656 194.933594 345.597656 194.921875 C 345.585938 193.105469 346.28125 191.335938 347.195312 189.640625 C 348.132812 187.914062 349.296875 186.257812 350.214844 184.730469 C 351.824219 182.050781 352.851562 179.105469 353.191406 175.996094 C 353.375 174.269531 353.332031 172.5625 353.167969 170.824219 C 353.117188 170.304688 353.058594 169.796875 352.996094 169.28125 C 352.976562 169.066406 352.945312 168.851562 352.914062 168.640625 C 352.914062 168.628906 352.925781 168.476562 352.925781 168.414062 C 352.914062 168.335938 352.894531 168.285156 352.863281 168.242188 C 352.824219 168.183594 352.761719 168.140625 352.699219 168.132812 C 352.640625 168.109375 352.558594 168.109375 352.464844 168.160156 C 352.355469 168.234375 352.242188 168.375 352.148438 168.566406 C 352.019531 168.871094 351.925781 169.332031 351.835938 169.523438 C 351.425781 170.40625 350.90625 171.320312 350.347656 172.125 C 349.296875 173.609375 348.257812 174.878906 347.59375 176.59375 C 346.085938 180.535156 346.269531 184.539062 345.902344 188.664062 C 345.761719 190.289062 345.34375 191.855469 345.046875 193.460938 C 344.699219 192.546875 344.3125 191.640625 343.90625 190.738281 C 341.746094 186.023438 339.398438 182.363281 337.238281 179.054688 C 337.238281 179.023438 337.238281 178.980469 337.230469 178.953125 C 336.636719 176.746094 336.984375 174.652344 337.675781 172.613281 C 338.382812 170.527344 339.441406 168.507812 340.257812 166.503906 C 341.40625 163.671875 341.582031 160.023438 340.878906 157.078125 C 340.664062 156.183594 340.246094 154.4375 339.738281 153.632812 C 339.714844 153.5625 339.707031 153.5 339.683594 153.429688 C 339.664062 153.359375 339.59375 153.320312 339.523438 153.328125 C 339.449219 153.347656 339.410156 153.421875 339.421875 153.492188 C 339.359375 153.5 339.308594 153.542969 339.257812 153.601562 C 339.238281 153.632812 339.207031 153.683594 339.195312 153.765625 C 339.1875 153.835938 339.195312 153.980469 339.175781 154.050781 C 339.136719 154.261719 339.0625 154.464844 339.011719 154.667969 C 338.851562 155.28125 338.617188 155.839844 338.371094 156.417969 C 337.636719 158.164062 336.527344 159.699219 336.117188 161.578125 C 335.382812 165.011719 336.261719 168.273438 336.503906 171.6875 C 336.648438 173.679688 336.25 175.640625 336.3125 177.621094 C 335.800781 176.839844 335.304688 176.066406 334.835938 175.304688 C 330.796875 168.820312 328.128906 162.625 330.035156 150.382812 Z M 346.21875 227.179688 C 346.21875 227.179688 346.230469 227.191406 346.230469 227.191406 C 346.207031 227.199219 346.199219 227.199219 346.179688 227.210938 Z M 358.714844 219.742188 C 358.417969 220.167969 358.171875 220.503906 358.082031 220.636719 C 355.359375 223.96875 352.261719 225.5625 348.265625 226.90625 C 348.113281 226.957031 347.949219 226.996094 347.789062 227.039062 C 348.03125 226.9375 348.277344 226.824219 348.511719 226.710938 C 349.347656 226.335938 350.183594 225.980469 350.988281 225.535156 C 353.300781 224.253906 355.707031 222.789062 357.632812 220.960938 C 358.03125 220.585938 358.367188 220.148438 358.714844 219.742188 Z M 359.386719 218.085938 C 358.785156 218.765625 358.113281 219.398438 357.429688 219.988281 C 355.839844 221.367188 354.117188 222.535156 352.363281 223.714844 C 350.683594 224.84375 348.878906 226.113281 346.960938 226.90625 C 347.492188 226.621094 348.003906 226.253906 348.511719 225.960938 C 349.378906 225.453125 350.253906 224.976562 351.089844 224.40625 C 352.171875 223.664062 353.191406 222.800781 354.21875 221.996094 C 355.453125 221.042969 356.664062 220.046875 357.917969 219.113281 C 358.398438 218.777344 358.929688 218.460938 359.386719 218.085938 Z M 346.464844 226.488281 C 348.664062 223.21875 351.875 220.605469 355.257812 218.574219 C 355.71875 218.300781 357.835938 217.171875 359.34375 216.714844 C 359.703125 216.601562 360.027344 216.53125 360.273438 216.53125 C 360.292969 216.53125 360.3125 216.53125 360.335938 216.53125 C 360.039062 216.613281 359.761719 216.765625 359.46875 216.867188 C 359.140625 216.980469 358.785156 217.039062 358.457031 217.171875 C 357.5625 217.546875 356.746094 218.167969 355.921875 218.675781 C 355.289062 219.070312 354.625 219.417969 354.027344 219.84375 C 353.007812 220.566406 352.078125 221.410156 351.132812 222.222656 C 350.082031 223.125 349.011719 224.007812 347.980469 224.953125 C 347.453125 225.453125 346.972656 225.980469 346.464844 226.488281 Z M 360.261719 216.835938 C 360.210938 216.898438 360.152344 216.957031 360.101562 217.007812 C 359.601562 217.3125 359.058594 217.558594 358.5625 217.863281 C 358.0625 218.167969 357.601562 218.535156 357.113281 218.859375 C 356.582031 219.214844 356.023438 219.527344 355.503906 219.894531 C 354.363281 220.707031 353.292969 221.640625 352.179688 222.496094 C 350.507812 223.777344 348.796875 225.027344 347.074219 226.246094 C 347.429688 225.878906 347.789062 225.503906 348.164062 225.15625 C 349.183594 224.222656 350.253906 223.339844 351.304688 222.433594 C 352.242188 221.632812 353.160156 220.789062 354.179688 220.078125 C 354.78125 219.652344 355.441406 219.304688 356.0625 218.917969 C 356.867188 218.410156 357.675781 217.800781 358.5625 217.4375 C 358.875 217.304688 359.222656 217.242188 359.550781 217.132812 C 359.792969 217.050781 360.027344 216.929688 360.261719 216.835938 Z M 359.417969 217.699219 C 358.917969 218.148438 358.296875 218.503906 357.753906 218.898438 C 356.503906 219.835938 355.289062 220.828125 354.054688 221.785156 C 353.027344 222.585938 352.019531 223.449219 350.9375 224.183594 C 350.113281 224.742188 349.246094 225.21875 348.378906 225.714844 C 348.113281 225.867188 347.859375 226.042969 347.59375 226.203125 C 349.203125 225.066406 350.792969 223.898438 352.355469 222.710938 C 353.464844 221.867188 354.523438 220.941406 355.675781 220.128906 C 356.195312 219.761719 356.746094 219.449219 357.277344 219.09375 C 357.753906 218.765625 358.214844 218.402344 358.714844 218.105469 C 358.9375 217.964844 359.183594 217.832031 359.417969 217.699219 Z M 359.375 218.511719 C 359.132812 218.828125 358.875 219.144531 358.613281 219.4375 C 358.222656 219.886719 357.867188 220.363281 357.441406 220.769531 C 355.535156 222.578125 353.148438 224.03125 350.855469 225.300781 C 350.296875 225.605469 349.722656 225.867188 349.152344 226.132812 C 350.324219 225.453125 351.457031 224.679688 352.527344 223.957031 C 354.28125 222.78125 356.011719 221.589844 357.613281 220.210938 C 358.222656 219.671875 358.824219 219.113281 359.375 218.511719 Z M 335.84375 204.066406 C 336.679688 205.195312 337.332031 206.535156 338.117188 207.652344 C 341.070312 211.878906 343.722656 216.378906 345.617188 221.183594 C 343.261719 217.628906 341.203125 213.808594 339.042969 210.140625 C 337.851562 208.121094 336.515625 206.292969 335.84375 204.066406 Z M 339.429688 206.941406 C 339.523438 207.042969 339.625 207.15625 339.714844 207.265625 C 339.777344 207.335938 339.839844 207.410156 339.898438 207.480469 C 342.8125 210.914062 345.871094 216.175781 346.015625 220.953125 C 345.578125 219.285156 344.851562 217.710938 344.230469 216.09375 C 343.019531 212.996094 341.550781 209.675781 339.429688 206.941406 Z M 335.375 203.476562 C 335.394531 203.496094 335.40625 203.507812 335.425781 203.527344 C 336.027344 206.058594 337.503906 208.046875 338.820312 210.273438 C 340.753906 213.554688 342.601562 216.957031 344.660156 220.179688 C 341.691406 216.523438 338.71875 212.609375 336.964844 208.261719 C 336.3125 206.699219 335.597656 205.164062 335.375 203.476562 Z M 336.167969 204.046875 C 340.03125 206.980469 342.273438 211.808594 343.964844 216.195312 C 344.476562 217.519531 345.054688 218.808594 345.496094 220.148438 C 343.621094 215.667969 341.113281 211.460938 338.339844 207.488281 C 337.585938 206.414062 336.953125 205.144531 336.167969 204.046875 Z M 335.089844 205.855469 C 335.304688 206.820312 335.699219 207.792969 335.984375 208.617188 C 336.832031 211.136719 339.632812 215.667969 341.519531 217.660156 C 342.214844 218.382812 342.917969 219.070312 343.597656 219.785156 C 342.894531 219.375 342.191406 218.980469 341.652344 218.492188 C 339.941406 216.949219 337.402344 213.179688 336.027344 209.550781 C 335.546875 208.261719 335.199219 206.992188 335.089844 205.855469 Z M 335.230469 204.25 C 335.539062 205.671875 336.148438 207.011719 336.699219 208.375 C 338.359375 212.476562 341.09375 216.207031 343.894531 219.679688 C 343.179688 218.941406 342.449219 218.230469 341.734375 217.476562 C 339.867188 215.515625 337.097656 211.035156 336.261719 208.535156 C 336.015625 207.816406 335.679688 206.992188 335.457031 206.148438 C 335.273438 205.507812 335.171875 204.859375 335.230469 204.25 Z M 348.390625 214.53125 C 348.390625 214.53125 348.390625 214.539062 348.390625 214.539062 L 348.359375 214.550781 Z M 361.160156 199.625 C 361.015625 200.234375 360.84375 200.824219 360.640625 201.414062 C 358.9375 204.746094 355.523438 208.160156 353.230469 210.507812 C 351.785156 211.980469 350.652344 213.445312 348.746094 214.277344 C 352.40625 211.847656 354.769531 208.078125 357.46875 204.714844 C 358.835938 203.039062 360.230469 201.484375 361.160156 199.625 Z M 361.863281 195.917969 C 361.667969 197.027344 361.464844 198.070312 361.425781 198.316406 L 361.425781 198.324219 C 360.570312 200.722656 358.875 202.542969 357.257812 204.542969 C 354.78125 207.613281 352.597656 211.027344 349.449219 213.433594 C 350.703125 212.164062 351.964844 210.875 353.066406 209.492188 C 355.105469 206.929688 356.726562 204.054688 358.5 201.304688 C 359.785156 199.3125 361.007812 197.839844 361.863281 195.917969 Z M 360.589844 194.648438 C 358.378906 197.207031 356.929688 200.359375 355.257812 203.292969 C 353.242188 206.851562 350.9375 210.140625 348.511719 213.421875 C 348.542969 213.300781 348.582031 213.179688 348.625 213.046875 C 348.929688 212.742188 349.214844 212.367188 349.480469 211.949219 C 350.164062 210.875 350.722656 209.5625 351.234375 208.769531 C 352.894531 206.199219 354.503906 203.648438 355.921875 200.9375 C 356.921875 199.007812 357.695312 197.117188 359.140625 195.550781 C 359.589844 195.246094 360.058594 194.953125 360.546875 194.667969 C 360.570312 194.660156 360.578125 194.660156 360.589844 194.648438 Z M 361.75 193.835938 C 358.171875 200.0625 354.914062 206.453125 350.113281 211.847656 C 349.695312 212.316406 349.328125 212.824219 348.941406 213.3125 C 351.292969 210.109375 353.527344 206.890625 355.503906 203.425781 C 357.367188 200.144531 358.949219 196.617188 361.628906 193.925781 C 361.667969 193.894531 361.710938 193.867188 361.75 193.835938 Z M 359.996094 203.058594 C 358.171875 207.164062 355.015625 210.539062 351.183594 212.988281 C 351.957031 212.296875 352.648438 211.503906 353.433594 210.699219 C 355.390625 208.6875 358.164062 205.914062 359.996094 203.058594 Z M 362.21875 193.570312 C 362.199219 193.753906 362.179688 193.96875 362.148438 194.210938 C 362.128906 194.332031 362.117188 194.457031 362.097656 194.578125 C 361.273438 197.148438 359.824219 198.773438 358.285156 201.160156 C 356.523438 203.902344 354.902344 206.769531 352.875 209.328125 C 351.886719 210.570312 350.765625 211.726562 349.644531 212.875 C 349.867188 212.589844 350.089844 212.304688 350.335938 212.03125 C 355.390625 206.320312 358.753906 199.503906 362.585938 192.941406 Z M 358.246094 196.210938 C 357.195312 197.613281 356.511719 199.199219 355.675781 200.824219 C 354.269531 203.539062 352.660156 206.078125 351.007812 208.636719 C 350.5 209.429688 349.9375 210.742188 349.253906 211.816406 C 349.132812 212.011719 349.011719 212.195312 348.878906 212.367188 C 349.695312 210.527344 350.714844 208.789062 351.621094 207.003906 C 353.402344 203.4375 355.136719 199.902344 357.582031 196.761719 C 357.796875 196.566406 358.019531 196.386719 358.246094 196.210938 Z M 356.347656 197.96875 C 354.402344 200.765625 352.914062 203.800781 351.367188 206.859375 C 350.714844 208.140625 350.011719 209.398438 349.359375 210.691406 C 350.917969 206.058594 353.117188 201.496094 356.347656 197.96875 Z M 328.914062 186.945312 C 330.6875 188.378906 332.886719 189.210938 334.824219 190.390625 C 338.421875 192.566406 341.652344 195.320312 344.28125 198.601562 C 344.78125 199.230469 345.402344 199.828125 345.921875 200.480469 C 345.941406 200.519531 345.972656 200.550781 345.996094 200.589844 C 345.902344 200.488281 345.8125 200.398438 345.71875 200.296875 C 345.035156 199.554688 344.324219 198.855469 343.609375 198.144531 C 340.777344 195.339844 337.71875 192.941406 334.375 190.757812 C 332.582031 189.578125 330.429688 188.53125 328.914062 186.945312 Z M 338.371094 191.195312 C 338.910156 191.476562 339.421875 191.78125 339.878906 192.089844 C 341.847656 193.4375 343.855469 196.132812 345.078125 198.171875 C 345.382812 198.679688 345.6875 199.210938 345.972656 199.769531 C 345.414062 198.875 344.761719 198.03125 344.148438 197.199219 C 342.539062 195.035156 340.601562 192.871094 338.371094 191.195312 Z M 331.257812 190.867188 C 331.980469 191.519531 332.734375 192.140625 333.507812 192.71875 C 335.433594 194.171875 337.648438 195.339844 339.707031 196.589844 C 340.988281 197.371094 342.234375 198.171875 343.4375 199.078125 C 342.773438 198.722656 342.109375 198.367188 341.46875 197.96875 C 339.921875 197.003906 338.441406 195.917969 336.863281 195.003906 C 335.792969 194.382812 334.621094 193.957031 333.539062 193.328125 C 333.265625 193.074219 333 192.820312 332.734375 192.535156 C 332.214844 191.984375 331.714844 191.425781 331.257812 190.867188 Z M 329.535156 188.5 C 329.777344 188.777344 330.035156 189.039062 330.300781 189.261719 C 331.082031 189.953125 331.980469 190.542969 332.816406 191.171875 C 335.292969 193.0625 337.871094 194.78125 340.46875 196.496094 C 341.488281 197.179688 342.449219 197.898438 343.375 198.671875 C 342.234375 197.839844 341.070312 197.085938 339.859375 196.34375 C 337.800781 195.09375 335.609375 193.925781 333.683594 192.484375 C 332.480469 191.578125 331.328125 190.585938 330.238281 189.527344 C 329.992188 189.203125 329.757812 188.855469 329.535156 188.5 Z M 329.015625 187.425781 C 330.523438 188.855469 332.53125 189.863281 334.222656 190.96875 C 337.546875 193.144531 340.59375 195.523438 343.40625 198.324219 C 343.488281 198.40625 343.570312 198.488281 343.648438 198.558594 C 342.683594 197.746094 341.683594 196.984375 340.613281 196.273438 C 338.023438 194.546875 335.445312 192.839844 332.96875 190.960938 C 332.144531 190.332031 331.246094 189.75 330.472656 189.058594 C 329.960938 188.601562 329.464844 188.035156 329.015625 187.425781 Z M 334.792969 189.539062 C 335.40625 189.800781 336.027344 190.066406 336.628906 190.339844 C 339.511719 192.089844 341.957031 194.730469 343.90625 197.351562 C 344.039062 197.535156 344.171875 197.707031 344.3125 197.890625 C 344.230469 197.789062 344.160156 197.695312 344.078125 197.605469 C 341.539062 194.457031 338.277344 191.671875 334.792969 189.539062 Z M 334.488281 194.128906 C 335.242188 194.496094 336.007812 194.820312 336.730469 195.238281 C 338.042969 195.988281 339.289062 196.875 340.550781 197.695312 C 338.382812 196.628906 336.332031 195.59375 334.488281 194.128906 Z M 328.269531 185.992188 C 328.921875 186.511719 329.585938 186.996094 330.289062 187.425781 C 330.289062 187.425781 330.277344 187.433594 330.277344 187.433594 C 330.246094 187.507812 330.269531 187.585938 330.339844 187.617188 C 331.582031 188.246094 332.878906 188.714844 334.078125 189.425781 C 336.820312 191.03125 339.441406 193.0625 341.703125 195.359375 C 339.664062 193.367188 337.390625 191.621094 334.945312 190.148438 C 332.796875 188.847656 330.308594 187.964844 328.464844 186.195312 C 328.402344 186.132812 328.34375 186.0625 328.269531 185.992188 Z M 352.3125 169.828125 C 352.253906 170.316406 352.171875 170.804688 352.027344 171.269531 C 351.824219 171.929688 351.457031 172.519531 351.292969 173.191406 C 350.355469 177.113281 349.367188 181.066406 348.105469 184.894531 C 347.726562 186.054688 347.277344 187.179688 346.820312 188.308594 C 346.757812 188.460938 346.6875 188.625 346.617188 188.777344 C 346.882812 188.003906 346.992188 187.179688 347.1875 186.398438 C 347.59375 184.742188 348.03125 183.105469 348.441406 181.449219 C 349.113281 178.71875 349.785156 175.945312 350.734375 173.292969 C 351.101562 172.265625 351.652344 171.269531 352.097656 170.273438 C 352.179688 170.113281 352.242188 169.96875 352.3125 169.828125 Z M 350.722656 172.589844 C 350.640625 172.792969 350.558594 172.988281 350.488281 173.191406 C 349.542969 175.851562 348.867188 178.636719 348.183594 181.378906 C 347.777344 183.035156 347.339844 184.671875 346.933594 186.328125 C 346.828125 186.722656 346.757812 187.140625 346.667969 187.546875 C 346.777344 186.734375 346.871094 185.921875 347.023438 185.117188 C 347.410156 183.097656 347.972656 181.105469 348.378906 179.082031 C 348.714844 177.40625 348.929688 175.40625 349.796875 173.871094 C 350.101562 173.445312 350.40625 173.027344 350.722656 172.589844 Z M 352.546875 176.511719 C 352.171875 179.359375 351.191406 182.050781 349.714844 184.519531 C 349.152344 185.453125 348.511719 186.417969 347.878906 187.425781 C 348.132812 186.855469 348.390625 186.285156 348.65625 185.726562 C 349.519531 183.960938 350.355469 182.191406 351.132812 180.375 C 351.679688 179.105469 352.179688 177.824219 352.546875 176.511719 Z M 352.527344 170.285156 L 352.546875 170.449219 C 352.558594 170.882812 352.546875 171.332031 352.507812 171.769531 C 352.40625 172.785156 352.078125 173.710938 351.835938 174.683594 C 351.507812 175.933594 351.242188 177.214844 350.84375 178.453125 C 350.507812 179.488281 350.0625 180.476562 349.714844 181.511719 C 349.152344 183.207031 348.523438 184.875 347.828125 186.511719 C 348.023438 186.003906 348.195312 185.496094 348.367188 184.976562 C 349.632812 181.136719 350.621094 177.171875 351.570312 173.25 C 351.730469 172.589844 352.097656 172.003906 352.292969 171.351562 C 352.40625 170.996094 352.476562 170.628906 352.527344 170.265625 Z M 348.96875 175.101562 C 348.550781 176.382812 348.359375 177.78125 348.113281 179.023438 C 347.707031 181.042969 347.144531 183.035156 346.757812 185.058594 C 346.707031 185.3125 346.667969 185.566406 346.625 185.828125 C 346.789062 182.792969 346.953125 179.816406 348.082031 176.867188 C 348.328125 176.230469 348.632812 175.648438 348.96875 175.101562 Z M 352.699219 172.378906 C 352.730469 173.097656 352.742188 173.820312 352.722656 174.542969 C 352.394531 176.523438 351.691406 178.402344 350.886719 180.273438 C 350.246094 181.765625 349.570312 183.21875 348.867188 184.679688 C 349.265625 183.664062 349.632812 182.640625 349.980469 181.59375 C 350.324219 180.566406 350.773438 179.570312 351.109375 178.535156 C 351.507812 177.296875 351.785156 176.015625 352.097656 174.753906 C 352.304688 173.953125 352.558594 173.179688 352.699219 172.378906 Z M 340.695312 159.738281 C 340.847656 161.984375 340.53125 164.382812 339.726562 166.363281 C 339.105469 167.898438 338.339844 169.441406 337.699219 171.015625 C 337.757812 170.773438 337.832031 170.539062 337.914062 170.316406 C 339.0625 167.117188 340.417969 163.722656 340.664062 160.296875 C 340.675781 160.117188 340.683594 159.921875 340.695312 159.738281 Z M 337.597656 159.210938 C 337.453125 160.125 337.464844 161.070312 337.441406 162.015625 C 337.421875 163.273438 337.320312 164.554688 337.382812 165.816406 C 337.414062 166.515625 337.464844 167.238281 337.484375 167.949219 C 337.371094 168.78125 337.261719 169.625 337.136719 170.457031 C 337.136719 170.449219 337.136719 170.425781 337.136719 170.417969 C 337.148438 169.003906 336.933594 167.625 336.84375 166.222656 C 336.699219 164.179688 336.71875 162.046875 337.199219 160.042969 C 337.332031 159.757812 337.464844 159.484375 337.597656 159.210938 Z M 336.628906 161.78125 C 336.453125 163.265625 336.476562 164.769531 336.578125 166.230469 C 336.667969 167.523438 336.851562 168.800781 336.871094 170.09375 C 336.546875 167.320312 336.027344 164.605469 336.628906 161.78125 Z M 340.113281 156.398438 C 340.183594 156.671875 340.246094 156.914062 340.296875 157.136719 C 340.417969 158.175781 340.46875 159.210938 340.398438 160.289062 C 340.15625 163.640625 338.851562 166.953125 337.707031 170.09375 C 337.730469 169.929688 337.738281 169.765625 337.75 169.59375 C 337.902344 168.921875 338.074219 168.253906 338.238281 167.582031 C 338.726562 165.621094 339.410156 163.679688 339.757812 161.679688 C 340.042969 159.941406 340.214844 158.15625 340.113281 156.398438 Z M 339.664062 154.894531 L 339.675781 154.921875 C 340.023438 157.136719 339.859375 159.425781 339.480469 161.628906 C 339.144531 163.621094 338.460938 165.550781 337.972656 167.511719 C 337.914062 167.777344 337.839844 168.039062 337.769531 168.304688 C 337.769531 168.191406 337.769531 168.082031 337.757812 167.96875 C 338.117188 165.335938 338.453125 162.707031 338.839844 160.085938 C 338.960938 159.273438 339.054688 158.449219 339.195312 157.636719 C 339.371094 156.730469 339.582031 155.808594 339.65625 154.871094 Z M 339.320312 155.503906 C 339.214844 156.203125 339.0625 156.894531 338.941406 157.585938 C 338.789062 158.398438 338.695312 159.222656 338.574219 160.042969 C 338.257812 162.167969 337.984375 164.300781 337.699219 166.425781 C 337.6875 166.210938 337.679688 166.007812 337.667969 165.792969 C 337.605469 164.546875 337.707031 163.265625 337.730469 162.003906 C 337.75 160.726562 337.71875 159.425781 338.117188 158.226562 C 338.382812 157.71875 338.636719 157.210938 338.859375 156.679688 C 339.011719 156.296875 339.175781 155.910156 339.320312 155.503906 Z M 328.554688 164.960938 C 328.578125 164.980469 328.585938 164.992188 328.605469 165.011719 C 328.6875 165.113281 328.769531 165.226562 328.851562 165.328125 C 328.863281 165.335938 328.871094 165.347656 328.882812 165.359375 C 328.890625 165.378906 328.902344 165.398438 328.914062 165.410156 C 328.769531 165.277344 328.628906 165.15625 328.472656 165.03125 C 328.496094 165.023438 328.515625 165.011719 328.535156 165.003906 C 328.546875 164.992188 328.554688 164.980469 328.554688 164.960938 Z M 320.730469 155.808594 C 322.105469 156.742188 323.441406 157.699219 324.632812 158.894531 C 325.578125 159.863281 326.324219 161.070312 327.078125 162.179688 C 327.558594 162.890625 328.027344 163.628906 328.472656 164.382812 L 328.445312 164.339844 C 328.003906 163.792969 327.546875 163.265625 327.089844 162.738281 C 326.804688 162.390625 326.507812 162.046875 326.222656 161.699219 C 324.855469 160.054688 323.632812 158.4375 322.0625 156.976562 C 321.636719 156.589844 321.1875 156.195312 320.730469 155.808594 Z M 314.183594 153.144531 C 315.898438 155.644531 318.078125 157.789062 320.535156 159.585938 C 322.0625 160.695312 323.644531 161.78125 325.214844 162.839844 C 325.753906 163.195312 326.304688 163.558594 326.8125 163.964844 C 326.539062 163.8125 326.253906 163.671875 325.96875 163.539062 C 325.703125 163.375 325.4375 163.214844 325.171875 163.050781 C 323.0625 161.820312 321.074219 160.378906 319.179688 158.855469 C 318.160156 158.03125 317.050781 157.25 316.191406 156.253906 C 315.722656 155.605469 315.277344 154.933594 314.835938 154.261719 C 314.613281 153.886719 314.398438 153.523438 314.183594 153.144531 Z M 315.183594 154.050781 C 317.160156 156.164062 319.578125 157.859375 321.960938 159.578125 C 323.410156 160.613281 324.773438 161.820312 326.101562 163.011719 C 326.304688 163.195312 326.507812 163.367188 326.722656 163.550781 C 326.285156 163.222656 325.824219 162.917969 325.367188 162.613281 C 323.796875 161.566406 322.214844 160.480469 320.6875 159.375 C 318.617188 157.851562 316.742188 156.070312 315.183594 154.050781 Z M 313.929688 152.109375 C 314.59375 152.707031 315.285156 153.257812 315.96875 153.835938 C 317.742188 155.339844 319.464844 156.863281 321.289062 158.308594 C 322.542969 159.300781 323.828125 160.328125 324.980469 161.4375 C 325.589844 162.023438 326.179688 162.625 326.78125 163.222656 C 326.621094 163.082031 326.457031 162.941406 326.292969 162.796875 C 324.957031 161.609375 323.59375 160.390625 322.125 159.34375 C 319.128906 157.210938 316.082031 155.085938 313.929688 152.109375 Z M 313.472656 151.308594 C 314.132812 151.683594 314.808594 152.046875 315.4375 152.496094 C 317.519531 154 319.375 155.777344 321.289062 157.472656 C 323.226562 159.179688 325.140625 160.980469 326.863281 162.917969 L 326.894531 162.960938 C 326.324219 162.382812 325.742188 161.800781 325.164062 161.234375 C 324 160.117188 322.707031 159.089844 321.453125 158.082031 C 319.628906 156.640625 317.914062 155.117188 316.140625 153.613281 C 315.246094 152.871094 314.308594 152.140625 313.472656 151.308594 Z M 317.40625 157.777344 C 317.9375 158.214844 318.488281 158.632812 319.015625 159.058594 C 320.574219 160.308594 322.195312 161.507812 323.886719 162.574219 C 323.144531 162.238281 322.390625 161.871094 321.65625 161.4375 C 319.996094 160.460938 318.617188 159.199219 317.40625 157.777344 Z M 317.570312 153.816406 C 317.804688 153.949219 318.039062 154.082031 318.273438 154.210938 C 319.496094 155.136719 320.78125 156.164062 321.871094 157.179688 C 322.859375 158.105469 323.714844 159.097656 324.550781 160.117188 C 323.550781 159.140625 322.511719 158.195312 321.460938 157.269531 C 320.167969 156.121094 318.894531 154.933594 317.570312 153.816406 Z M 327.8125 137.105469 C 327.800781 138.464844 327.882812 139.835938 328.046875 141.199219 C 328.292969 143.261719 328.628906 145.273438 329.003906 147.335938 C 329.167969 148.21875 329.332031 149.121094 329.390625 150.027344 C 329.046875 148.726562 328.535156 147.445312 328.21875 146.066406 C 327.546875 143.167969 327.394531 140.089844 327.8125 137.105469 Z M 331.257812 135.457031 C 331.808594 138.546875 331.847656 141.808594 331.277344 144.804688 C 331.003906 146.238281 330.585938 147.628906 330.167969 149.03125 C 330.371094 147.710938 330.535156 146.390625 330.695312 145.070312 C 331.082031 141.839844 331.441406 138.65625 331.257812 135.457031 Z M 330.726562 133.132812 C 330.726562 133.140625 330.738281 133.152344 330.738281 133.160156 C 331.339844 137.144531 330.898438 141.046875 330.421875 145.039062 C 330.269531 146.308594 330.105469 147.566406 329.910156 148.839844 C 329.902344 148.695312 329.882812 148.554688 329.859375 148.421875 C 329.992188 147.234375 330.1875 146.035156 330.300781 144.855469 C 330.574219 141.96875 330.664062 139.085938 330.738281 136.179688 C 330.769531 135.070312 330.789062 134.097656 330.726562 133.132812 Z M 328.261719 134.746094 C 328.25 137.335938 328.484375 139.929688 328.863281 142.457031 C 329.066406 143.828125 329.054688 145.363281 329.289062 146.734375 C 329.351562 147.070312 329.414062 147.394531 329.472656 147.710938 C 329.472656 147.933594 329.472656 148.15625 329.464844 148.382812 C 329.402344 148.015625 329.339844 147.660156 329.269531 147.292969 C 328.890625 145.230469 328.554688 143.21875 328.3125 141.167969 C 328.066406 139.144531 328.003906 137.132812 328.179688 135.101562 C 328.199219 135.019531 328.210938 134.949219 328.230469 134.878906 C 328.238281 134.839844 328.25 134.789062 328.261719 134.746094 Z M 329.117188 128.203125 C 329.941406 131.941406 329.984375 135.875 329.902344 139.664062 C 329.859375 141.746094 329.828125 143.800781 329.707031 145.871094 C 329.707031 145.75 329.699219 145.636719 329.699219 145.515625 C 329.667969 143.605469 329.605469 141.726562 329.492188 139.816406 C 329.28125 136.351562 329.1875 131.71875 329.117188 128.203125 Z M 328.890625 130.613281 C 328.964844 133.667969 329.054688 137.113281 329.21875 139.835938 C 329.332031 141.738281 329.390625 143.617188 329.421875 145.515625 C 329.421875 145.597656 329.421875 145.679688 329.421875 145.757812 C 329.308594 144.652344 329.28125 143.472656 329.117188 142.40625 C 328.667969 139.378906 328.421875 136.230469 328.566406 133.132812 C 328.707031 132.308594 328.8125 131.453125 328.890625 130.613281 Z M 329.675781 129.71875 C 329.902344 130.410156 330.105469 131.097656 330.328125 131.789062 C 330.523438 133.242188 330.503906 134.5625 330.460938 136.160156 C 330.390625 139.003906 330.308594 141.839844 330.042969 144.664062 C 330.117188 142.996094 330.144531 141.339844 330.175781 139.664062 C 330.238281 136.390625 330.21875 132.988281 329.675781 129.71875 Z M 329.675781 129.71875 " fill-opacity="1" fill-rule="evenodd"/></g></svg>