<svg xmlns="http://www.w3.org/2000/svg" xmlns:xlink="http://www.w3.org/1999/xlink" width="500" zoomAndPan="magnify" viewBox="0 0 375 374.999991" height="500" preserveAspectRatio="xMidYMid meet" version="1.0"><defs><g/><clipPath id="7ff8718a26"><path d="M 187.5 0 C 83.945312 0 0 83.945312 0 187.5 C 0 291.054688 83.945312 375 187.5 375 C 291.054688 375 375 291.054688 375 187.5 C 375 83.945312 291.054688 0 187.5 0 Z M 187.5 0 " clip-rule="nonzero"/></clipPath><clipPath id="9d7747ddff"><path d="M 91.132812 103.128906 L 283.882812 103.128906 L 283.882812 271.878906 L 91.132812 271.878906 Z M 91.132812 103.128906 " clip-rule="nonzero"/></clipPath><clipPath id="8c67fbbb8e"><path d="M 25.878906 131.414062 L 76 131.414062 L 76 243.914062 L 25.878906 243.914062 Z M 25.878906 131.414062 " clip-rule="nonzero"/></clipPath><clipPath id="f810911149"><path d="M 299.085938 131.414062 L 349.113281 131.414062 L 349.113281 243.914062 L 299.085938 243.914062 Z M 299.085938 131.414062 " clip-rule="nonzero"/></clipPath></defs><g clip-path="url(#7ff8718a26)"><rect x="-37.5" width="450" fill="#1f4529" y="-37.499999" height="449.999989" fill-opacity="1"/></g><g fill="#e8ecd7" fill-opacity="1"><g transform="translate(60.219182, 111.477858)"><g><path d="M 0.0625 -15.09375 L 5.546875 -20.890625 L 13.046875 -13.796875 L 11.21875 -11.859375 L 9.21875 -13.21875 C 9.601562 -10.832031 8.914062 -8.707031 7.15625 -6.84375 C 5.394531 -4.976562 3.296875 -4.078125 0.859375 -4.140625 C -1.578125 -4.210938 -3.894531 -5.289062 -6.09375 -7.375 C -8.300781 -9.457031 -9.503906 -11.75 -9.703125 -14.25 C -9.898438 -16.75 -9.007812 -19.050781 -7.03125 -21.15625 C -5.332031 -22.945312 -3.523438 -23.945312 -1.609375 -24.15625 C 0.304688 -24.375 1.976562 -23.929688 3.40625 -22.828125 L 0.671875 -19.9375 C -0.179688 -20.40625 -1.078125 -20.554688 -2.015625 -20.390625 C -2.953125 -20.222656 -3.773438 -19.765625 -4.484375 -19.015625 C -5.660156 -17.773438 -6.140625 -16.378906 -5.921875 -14.828125 C -5.703125 -13.285156 -4.816406 -11.78125 -3.265625 -10.3125 C -1.734375 -8.863281 -0.234375 -8.085938 1.234375 -7.984375 C 2.710938 -7.878906 4.078125 -8.492188 5.328125 -9.828125 C 6.035156 -10.578125 6.441406 -11.492188 6.546875 -12.578125 C 6.660156 -13.660156 6.300781 -14.835938 5.46875 -16.109375 L 2.40625 -12.875 Z M 0.0625 -15.09375 "/></g></g></g><g fill="#e8ecd7" fill-opacity="1"><g transform="translate(79.682253, 92.111277)"><g><path d="M 4.609375 -3.765625 L 1.515625 -1.234375 L -10.609375 -16.046875 L -7.515625 -18.578125 Z M 4.609375 -3.765625 "/></g></g></g><g fill="#e8ecd7" fill-opacity="1"><g transform="translate(91.050187, 82.902259)"><g><path d="M 1.984375 -9.84375 L 6.109375 -12.453125 L 0.03125 -17.578125 L 0 -17.5625 Z M 3.84375 -2.4375 L 0.28125 -0.171875 L -4.21875 -20 L -0.3125 -22.46875 L 15.640625 -9.90625 L 11.953125 -7.578125 L 8.8125 -10.25 L 2.859375 -6.46875 Z M 3.84375 -2.4375 "/></g></g></g><g fill="#e8ecd7" fill-opacity="1"><g transform="translate(112.591978, 69.808115)"><g><path d="M 5.046875 -23.0625 L 8.453125 -24.546875 L 16.09375 -7 L 12.421875 -5.40625 L -0.1875 -14.796875 L -0.234375 -14.78125 L 5.21875 -2.265625 L 1.796875 -0.78125 L -5.84375 -18.328125 L -1.984375 -20.015625 L 10.3125 -10.8125 L 10.375 -10.84375 Z M 5.046875 -23.0625 "/></g></g></g><g fill="#e8ecd7" fill-opacity="1"><g transform="translate(136.604995, 60.008414)"><g><path d="M 9.828125 -2.640625 L 5.953125 -1.609375 L 1.859375 -16.8125 L -3.71875 -15.296875 L -4.59375 -18.578125 L 10.4375 -22.625 L 11.3125 -19.34375 L 5.734375 -17.84375 Z M 9.828125 -2.640625 "/></g></g></g><g fill="#e8ecd7" fill-opacity="1"><g transform="translate(159.110958, 54.615199)"><g/></g></g><g fill="#e8ecd7" fill-opacity="1"><g transform="translate(172.902441, 52.606419)"><g><path d="M 4.75 -6.0625 C 4.78125 -5.125 5.15625 -4.382812 5.875 -3.84375 C 6.59375 -3.300781 7.601562 -3.054688 8.90625 -3.109375 C 10.207031 -3.148438 11.1875 -3.390625 11.84375 -3.828125 C 12.507812 -4.273438 12.832031 -4.90625 12.8125 -5.71875 C 12.789062 -6.207031 12.597656 -6.625 12.234375 -6.96875 C 11.878906 -7.3125 11.035156 -7.617188 9.703125 -7.890625 L 6.421875 -8.53125 C 4.347656 -8.945312 2.925781 -9.5625 2.15625 -10.375 C 1.382812 -11.1875 0.972656 -12.320312 0.921875 -13.78125 C 0.867188 -15.507812 1.4375 -16.941406 2.625 -18.078125 C 3.8125 -19.222656 5.632812 -19.835938 8.09375 -19.921875 C 10.53125 -20.003906 12.394531 -19.445312 13.6875 -18.25 C 14.988281 -17.0625 15.675781 -15.644531 15.75 -14 L 11.921875 -13.875 C 11.804688 -14.800781 11.421875 -15.492188 10.765625 -15.953125 C 10.109375 -16.421875 9.15625 -16.632812 7.90625 -16.59375 C 6.914062 -16.5625 6.117188 -16.328125 5.515625 -15.890625 C 4.910156 -15.460938 4.625 -14.898438 4.65625 -14.203125 C 4.664062 -13.722656 4.8125 -13.328125 5.09375 -13.015625 C 5.375 -12.710938 5.816406 -12.492188 6.421875 -12.359375 L 11.578125 -11.28125 C 13.429688 -10.882812 14.722656 -10.273438 15.453125 -9.453125 C 16.179688 -8.640625 16.570312 -7.597656 16.625 -6.328125 C 16.6875 -4.242188 16.015625 -2.65625 14.609375 -1.5625 C 13.210938 -0.46875 11.445312 0.113281 9.3125 0.1875 C 6.550781 0.28125 4.472656 -0.234375 3.078125 -1.359375 C 1.691406 -2.484375 0.96875 -4.003906 0.90625 -5.921875 Z M 4.75 -6.0625 "/></g></g></g><g fill="#e8ecd7" fill-opacity="1"><g transform="translate(197.225653, 52.26363)"><g><path d="M 10.734375 -9.0625 C 11.742188 -8.945312 12.515625 -9.09375 13.046875 -9.5 C 13.585938 -9.914062 13.914062 -10.617188 14.03125 -11.609375 C 14.144531 -12.597656 13.953125 -13.328125 13.453125 -13.796875 C 12.953125 -14.273438 12.160156 -14.578125 11.078125 -14.703125 L 7.703125 -15.078125 L 7.0625 -9.46875 Z M 5.921875 0.671875 L 1.9375 0.21875 L 4.078125 -18.796875 L 12.765625 -17.8125 C 14.578125 -17.613281 15.953125 -16.910156 16.890625 -15.703125 C 17.835938 -14.503906 18.203125 -12.957031 17.984375 -11.0625 C 17.804688 -9.4375 17.125 -8.070312 15.9375 -6.96875 C 14.757812 -5.875 13.191406 -5.4375 11.234375 -5.65625 L 6.6875 -6.171875 Z M 5.921875 0.671875 "/></g></g></g><g fill="#e8ecd7" fill-opacity="1"><g transform="translate(221.060172, 55.386792)"><g><path d="M 12.984375 -7.625 C 13.992188 -7.351562 14.789062 -7.34375 15.375 -7.59375 C 15.96875 -7.84375 16.390625 -8.425781 16.640625 -9.34375 C 16.835938 -10.09375 16.765625 -10.742188 16.421875 -11.296875 C 16.078125 -11.847656 15.460938 -12.242188 14.578125 -12.484375 L 9.765625 -13.78125 L 8.453125 -8.84375 Z M 6.84375 -17.984375 L 16.1875 -15.46875 C 18.082031 -14.96875 19.382812 -14.070312 20.09375 -12.78125 C 20.8125 -11.5 20.976562 -10.140625 20.59375 -8.703125 C 20.019531 -6.554688 18.675781 -5.34375 16.5625 -5.0625 C 17.351562 -4.488281 17.832031 -3.835938 18 -3.109375 C 18.175781 -2.390625 18.039062 -1.207031 17.59375 0.4375 C 17.15625 2.070312 16.957031 3.050781 17 3.375 C 17.050781 3.707031 17.210938 3.972656 17.484375 4.171875 L 17.359375 4.65625 L 13.078125 3.5 C 13.023438 2.601562 13.210938 1.367188 13.640625 -0.203125 C 13.984375 -1.515625 14.117188 -2.382812 14.046875 -2.8125 C 13.984375 -3.25 13.769531 -3.609375 13.40625 -3.890625 C 13.039062 -4.171875 12.4375 -4.421875 11.59375 -4.640625 L 7.609375 -5.71875 L 5.671875 1.515625 L 1.890625 0.5 Z M 6.84375 -17.984375 "/></g></g></g><g fill="#e8ecd7" fill-opacity="1"><g transform="translate(245.614035, 62.736137)"><g><path d="M 5.515625 2.234375 L 1.8125 0.734375 L 8.96875 -17.015625 L 12.671875 -15.515625 Z M 5.515625 2.234375 "/></g></g></g><g fill="#e8ecd7" fill-opacity="1"><g transform="translate(259.143772, 68.256457)"><g><path d="M 21.390625 -10.015625 L 24.640625 -8.21875 L 15.34375 8.515625 L 11.84375 6.578125 L 11.640625 -9.15625 L 11.59375 -9.171875 L 4.96875 2.765625 L 1.703125 0.953125 L 11 -15.78125 L 14.6875 -13.734375 L 14.859375 1.609375 L 14.921875 1.640625 Z M 21.390625 -10.015625 "/></g></g></g><g fill="#e8ecd7" fill-opacity="1"><g transform="translate(281.490855, 81.186633)"><g><path d="M 15.046875 -1.296875 L 21.3125 3.640625 L 14.921875 11.75 L 12.828125 10.09375 L 14 7.984375 C 11.65625 8.585938 9.472656 8.097656 7.453125 6.515625 C 5.441406 4.921875 4.363281 2.90625 4.21875 0.46875 C 4.070312 -1.96875 4.9375 -4.375 6.8125 -6.75 C 8.6875 -9.132812 10.859375 -10.535156 13.328125 -10.953125 C 15.796875 -11.378906 18.164062 -10.703125 20.4375 -8.921875 C 22.375 -7.390625 23.535156 -5.675781 23.921875 -3.78125 C 24.316406 -1.894531 24.019531 -0.191406 23.03125 1.328125 L 19.90625 -1.140625 C 20.300781 -2.023438 20.375 -2.925781 20.125 -3.84375 C 19.875 -4.769531 19.34375 -5.550781 18.53125 -6.1875 C 17.1875 -7.238281 15.753906 -7.585938 14.234375 -7.234375 C 12.722656 -6.878906 11.304688 -5.863281 9.984375 -4.1875 C 8.671875 -2.53125 8.03125 -0.96875 8.0625 0.5 C 8.09375 1.976562 8.832031 3.285156 10.28125 4.421875 C 11.082031 5.054688 12.023438 5.378906 13.109375 5.390625 C 14.203125 5.398438 15.347656 4.929688 16.546875 3.984375 L 13.046875 1.234375 Z M 15.046875 -1.296875 "/></g></g></g><g fill="#e8ecd7" fill-opacity="1"><g transform="translate(302.463503, 98.476464)"><g><path d="M 7.6875 -0.390625 C 7 0.253906 6.6875 1.023438 6.75 1.921875 C 6.8125 2.816406 7.285156 3.738281 8.171875 4.6875 C 9.054688 5.644531 9.882812 6.226562 10.65625 6.4375 C 11.425781 6.644531 12.109375 6.472656 12.703125 5.921875 C 13.054688 5.585938 13.242188 5.171875 13.265625 4.671875 C 13.296875 4.179688 12.972656 3.34375 12.296875 2.15625 L 10.640625 -0.734375 C 9.609375 -2.566406 9.144531 -4.039062 9.25 -5.15625 C 9.363281 -6.28125 9.957031 -7.34375 11.03125 -8.34375 C 12.300781 -9.519531 13.753906 -10.03125 15.390625 -9.875 C 17.023438 -9.71875 18.679688 -8.738281 20.359375 -6.9375 C 22.015625 -5.144531 22.816406 -3.367188 22.765625 -1.609375 C 22.722656 0.148438 22.097656 1.597656 20.890625 2.734375 L 18.28125 -0.09375 C 18.90625 -0.78125 19.179688 -1.523438 19.109375 -2.328125 C 19.035156 -3.140625 18.570312 -4.003906 17.71875 -4.921875 C 17.039062 -5.640625 16.34375 -6.082031 15.625 -6.25 C 14.90625 -6.425781 14.289062 -6.28125 13.78125 -5.8125 C 13.414062 -5.476562 13.210938 -5.101562 13.171875 -4.6875 C 13.128906 -4.269531 13.25 -3.789062 13.53125 -3.25 L 16.09375 1.359375 C 17.019531 3.015625 17.410156 4.390625 17.265625 5.484375 C 17.128906 6.578125 16.597656 7.554688 15.671875 8.421875 C 14.140625 9.835938 12.5 10.367188 10.75 10.015625 C 9.007812 9.671875 7.414062 8.71875 5.96875 7.15625 C 4.09375 5.132812 3.117188 3.226562 3.046875 1.4375 C 2.984375 -0.34375 3.65625 -1.890625 5.0625 -3.203125 Z M 7.6875 -0.390625 "/></g></g></g><g clip-path="url(#9d7747ddff)"><path fill="#e8ecd7" d="M 100.15625 187.507812 L 143.816406 231.164062 L 139.292969 235.6875 L 91.132812 187.507812 L 139.3125 139.324219 L 143.835938 143.847656 Z M 202.558594 103.179688 L 208.574219 104.695312 L 172.429688 271.816406 L 166.414062 270.300781 Z M 235.675781 139.324219 L 283.859375 187.507812 L 235.675781 235.6875 L 231.152344 231.164062 L 274.8125 187.507812 L 231.152344 143.847656 Z M 235.675781 139.324219 " fill-opacity="1" fill-rule="nonzero"/></g><g clip-path="url(#8c67fbbb8e)"><path fill="#e8ecd7" d="M 58.472656 158.289062 C 58.421875 158.25 58.390625 158.191406 58.382812 158.121094 C 58.351562 157.890625 58.339844 157.660156 58.332031 157.429688 C 57.78125 154.863281 56.792969 152.390625 56.300781 149.8125 C 55.523438 145.683594 55.882812 141.054688 57.140625 137.066406 C 57.5625 135.726562 57.929688 134.386719 58.460938 133.078125 C 58.542969 132.867188 58.640625 132.488281 58.761719 132.15625 C 58.859375 131.886719 58.992188 131.65625 59.132812 131.527344 C 59.222656 131.449219 59.300781 131.457031 59.359375 131.457031 C 59.441406 131.46875 59.5 131.507812 59.550781 131.585938 C 59.570312 131.617188 59.589844 131.667969 59.589844 131.738281 C 59.589844 131.777344 59.582031 131.847656 59.582031 131.886719 C 59.570312 132.136719 59.5625 132.386719 59.550781 132.636719 C 59.519531 133.246094 59.53125 133.867188 59.582031 134.476562 C 59.742188 136.246094 59.910156 138.074219 60.332031 139.804688 C 61.210938 143.472656 61.179688 147.402344 60.339844 151.082031 C 59.949219 152.773438 59.25 154.300781 58.972656 155.941406 L 58.972656 155.953125 C 59.242188 157.871094 59.421875 159.808594 59.472656 161.757812 C 59.511719 163.589844 59.429688 165.417969 59.171875 167.238281 C 59.082031 167.898438 58.960938 168.546875 58.820312 169.199219 C 59.351562 168.269531 59.910156 167.367188 60.492188 166.507812 C 61.25 165.390625 61.992188 164.167969 62.949219 163.199219 C 64.519531 161.609375 66.328125 160.46875 68.140625 159.210938 C 68.910156 158.679688 69.769531 158.28125 70.558594 157.78125 C 71.429688 157.230469 72.257812 156.589844 73.136719 156.042969 C 73.675781 155.703125 74.199219 155.339844 74.726562 154.992188 C 74.886719 154.882812 75.039062 154.78125 75.1875 154.660156 C 75.246094 154.613281 75.328125 154.492188 75.386719 154.441406 C 75.445312 154.390625 75.507812 154.363281 75.546875 154.351562 C 75.636719 154.332031 75.707031 154.351562 75.765625 154.402344 C 75.816406 154.441406 75.878906 154.5 75.886719 154.621094 C 75.90625 154.8125 75.828125 155.042969 75.695312 155.28125 C 75.546875 155.550781 75.328125 155.839844 75.21875 156.019531 C 74.597656 157.109375 74.046875 158.242188 73.378906 159.300781 C 71.566406 162.148438 69.480469 164.800781 66.519531 166.546875 C 64.75 167.597656 62.890625 168.21875 61.269531 169.128906 C 59.8125 169.949219 58.550781 171.007812 57.761719 172.855469 C 56.800781 175.476562 55.503906 177.824219 54.023438 180.214844 C 51.363281 184.503906 48.09375 188.914062 45.164062 195.320312 C 44.136719 197.570312 43.316406 199.859375 42.695312 202.167969 C 42.734375 202.097656 42.777344 202.03125 42.816406 201.960938 C 44.046875 199.898438 46.074219 197.171875 48.0625 195.800781 C 50.421875 194.191406 54.0625 192.972656 56.671875 191.640625 C 57.730469 191.101562 58.652344 190.421875 59.570312 189.683594 C 59.769531 189.523438 60.03125 189.242188 60.300781 189.011719 C 60.511719 188.832031 60.730469 188.691406 60.929688 188.632812 C 61.0625 188.59375 61.140625 188.632812 61.191406 188.664062 C 61.269531 188.714844 61.320312 188.792969 61.3125 188.921875 C 61.3125 188.960938 61.289062 189.023438 61.25 189.082031 C 61.199219 189.152344 61.089844 189.273438 61.050781 189.34375 C 60.921875 189.542969 60.789062 189.734375 60.671875 189.933594 C 60.300781 190.523438 60.011719 191.164062 59.679688 191.773438 C 59.550781 192.011719 59.410156 192.253906 59.28125 192.480469 C 59.3125 192.53125 59.3125 192.601562 59.261719 192.640625 C 59.179688 192.722656 59.109375 192.800781 59.03125 192.882812 C 58.472656 193.773438 57.871094 194.601562 57.203125 195.410156 C 57.230469 195.460938 57.230469 195.53125 57.183594 195.570312 C 56.84375 195.941406 56.492188 196.300781 56.121094 196.632812 C 56.003906 196.761719 55.871094 196.902344 55.742188 197.03125 C 53.3125 199.589844 50.433594 200.988281 47.3125 202.519531 C 46.234375 203.050781 45.074219 203.519531 44.054688 204.160156 C 43.074219 204.777344 42.234375 205.546875 41.753906 206.699219 C 41.714844 206.796875 41.675781 206.910156 41.644531 207.007812 C 40.785156 212.597656 40.9375 218.316406 41.824219 224.0625 C 42.164062 219.394531 45.105469 214.347656 47.925781 211.007812 C 47.984375 210.9375 48.042969 210.867188 48.105469 210.796875 C 49.234375 209.457031 50.511719 208.347656 51.941406 207.339844 C 52.03125 207.269531 52.171875 207.128906 52.324219 207.019531 C 52.453125 206.917969 52.582031 206.828125 52.703125 206.796875 C 52.8125 206.769531 52.914062 206.769531 53.003906 206.808594 C 53.09375 206.847656 53.183594 206.917969 53.242188 207.046875 C 53.953125 208.6875 53.5625 211.105469 52.621094 213.585938 C 51.242188 217.246094 48.695312 221.035156 46.964844 222.585938 C 46.164062 223.304688 45.023438 223.835938 44.046875 224.484375 C 43.246094 225.015625 42.554688 225.625 42.296875 226.523438 C 43.484375 231.550781 46.535156 239.339844 49.535156 242.570312 C 49.683594 242.730469 49.671875 242.980469 49.515625 243.128906 C 49.382812 243.25 49.203125 243.269531 49.054688 243.1875 C 49.035156 243.210938 49.003906 243.210938 48.984375 243.21875 C 49.015625 243.25 49.035156 243.277344 49.0625 243.308594 C 49.113281 243.367188 49.105469 243.449219 49.054688 243.5 C 48.992188 243.550781 48.914062 243.539062 48.863281 243.488281 C 48.523438 243.109375 48.234375 242.699219 47.945312 242.28125 C 47.914062 242.238281 47.914062 242.179688 47.945312 242.140625 C 47.734375 241.859375 47.523438 241.570312 47.34375 241.28125 C 47.304688 241.21875 47.324219 241.128906 47.382812 241.101562 C 47.394531 241.101562 47.394531 241.089844 47.402344 241.089844 C 46.265625 239.332031 45.15625 237.089844 44.195312 234.769531 C 44.136719 234.742188 44.085938 234.679688 44.066406 234.613281 C 43.957031 234.25 43.84375 233.902344 43.714844 233.5625 C 43.675781 233.472656 43.644531 233.371094 43.605469 233.28125 C 43.40625 232.78125 43.183594 232.292969 42.933594 231.8125 C 42.515625 231.570312 42.035156 231.441406 41.554688 231.34375 C 41.015625 231.230469 40.476562 231.140625 39.964844 230.972656 C 35.9375 229.621094 32.828125 228.003906 30.089844 224.632812 C 29.777344 224.242188 28.117188 221.855469 27.730469 220.726562 C 27.640625 220.476562 27.609375 220.265625 27.640625 220.136719 C 27.660156 220.015625 27.71875 219.933594 27.800781 219.875 C 27.929688 219.773438 28.117188 219.726562 28.367188 219.726562 C 28.648438 219.726562 29.019531 219.804688 29.4375 219.925781 C 30.957031 220.386719 33.097656 221.523438 33.566406 221.804688 C 36.976562 223.855469 40.214844 226.511719 42.414062 229.84375 L 42.40625 229.824219 C 42.175781 229.09375 41.957031 228.351562 41.765625 227.601562 C 41.605469 226.992188 41.457031 226.375 41.324219 225.753906 C 41.285156 225.554688 41.246094 225.355469 41.207031 225.144531 C 41.1875 225.042969 41.175781 224.945312 41.15625 224.832031 C 41.136719 224.714844 41.117188 224.59375 41.097656 224.472656 C 41.035156 224.09375 40.976562 223.714844 40.925781 223.34375 C 40.804688 222.472656 40.695312 221.59375 40.605469 220.714844 C 40.566406 220.285156 40.527344 219.855469 40.484375 219.433594 C 40.457031 219.316406 40.425781 219.195312 40.394531 219.066406 C 40.375 219.066406 40.367188 219.054688 40.347656 219.046875 C 33.46875 215.867188 27.96875 210.046875 26.691406 202.410156 C 26.621094 201.96875 26.058594 199.121094 25.917969 197.769531 C 25.878906 197.371094 25.890625 197.089844 25.929688 196.980469 C 25.980469 196.839844 26.070312 196.78125 26.167969 196.761719 C 26.25 196.742188 26.339844 196.742188 26.441406 196.800781 C 26.507812 196.839844 26.597656 196.910156 26.691406 197 C 26.78125 197.089844 26.871094 197.199219 26.9375 197.25 C 27.410156 197.601562 27.847656 197.96875 28.347656 198.261719 C 29.929688 199.179688 31.207031 200.121094 32.457031 201.460938 C 37.015625 206.359375 40.324219 216.757812 40.324219 216.757812 C 40.105469 210.738281 40.816406 204.800781 42.785156 199.050781 C 42.785156 199.039062 42.785156 199.039062 42.785156 199.03125 C 42.796875 197.242188 42.117188 195.5 41.214844 193.832031 C 40.296875 192.132812 39.15625 190.503906 38.257812 189.003906 C 36.675781 186.363281 35.667969 183.464844 35.335938 180.40625 C 35.15625 178.707031 35.199219 177.027344 35.355469 175.316406 C 35.40625 174.804688 35.46875 174.304688 35.527344 173.796875 C 35.546875 173.585938 35.578125 173.375 35.605469 173.167969 C 35.605469 173.15625 35.597656 173.007812 35.597656 172.945312 C 35.605469 172.867188 35.628906 172.816406 35.65625 172.777344 C 35.695312 172.71875 35.757812 172.675781 35.816406 172.667969 C 35.878906 172.648438 35.957031 172.648438 36.046875 172.695312 C 36.15625 172.765625 36.265625 172.90625 36.355469 173.097656 C 36.488281 173.398438 36.578125 173.847656 36.667969 174.035156 C 37.066406 174.90625 37.578125 175.804688 38.125 176.597656 C 39.15625 178.054688 40.175781 179.304688 40.824219 180.996094 C 42.304688 184.875 42.125 188.8125 42.484375 192.871094 C 42.625 194.472656 43.035156 196.011719 43.324219 197.589844 C 43.664062 196.691406 44.046875 195.800781 44.445312 194.910156 C 46.5625 190.273438 48.863281 186.671875 50.984375 183.414062 C 50.984375 183.382812 50.984375 183.34375 50.992188 183.3125 C 51.574219 181.144531 51.234375 179.085938 50.554688 177.074219 C 49.863281 175.027344 48.824219 173.035156 48.023438 171.066406 C 46.894531 168.277344 46.722656 164.6875 47.414062 161.789062 C 47.625 160.910156 48.035156 159.191406 48.535156 158.402344 C 48.554688 158.332031 48.5625 158.269531 48.582031 158.199219 C 48.605469 158.128906 48.675781 158.089844 48.742188 158.101562 C 48.8125 158.121094 48.855469 158.191406 48.84375 158.261719 C 48.902344 158.269531 48.953125 158.3125 49.003906 158.371094 C 49.023438 158.402344 49.054688 158.449219 49.0625 158.53125 C 49.074219 158.601562 49.0625 158.742188 49.082031 158.808594 C 49.125 159.019531 49.195312 159.21875 49.242188 159.421875 C 49.402344 160.019531 49.632812 160.570312 49.875 161.140625 C 50.59375 162.859375 51.683594 164.367188 52.082031 166.21875 C 52.804688 169.597656 51.941406 172.808594 51.703125 176.167969 C 51.5625 178.125 51.953125 180.054688 51.894531 182.003906 C 52.394531 181.234375 52.882812 180.476562 53.34375 179.726562 C 57.300781 173.347656 59.921875 167.25 58.050781 155.203125 Z M 42.175781 230.773438 C 42.175781 230.773438 42.164062 230.78125 42.164062 230.78125 C 42.183594 230.792969 42.195312 230.792969 42.214844 230.800781 Z M 29.917969 223.453125 C 30.207031 223.875 30.449219 224.203125 30.539062 224.332031 C 33.207031 227.613281 36.246094 229.183594 40.167969 230.503906 C 40.316406 230.550781 40.476562 230.59375 40.636719 230.632812 C 40.394531 230.53125 40.15625 230.421875 39.925781 230.3125 C 39.105469 229.941406 38.285156 229.59375 37.496094 229.152344 C 35.226562 227.894531 32.867188 226.453125 30.976562 224.652344 C 30.589844 224.285156 30.257812 223.855469 29.917969 223.453125 Z M 29.257812 221.824219 C 29.847656 222.496094 30.507812 223.113281 31.179688 223.695312 C 32.738281 225.054688 34.425781 226.203125 36.148438 227.363281 C 37.796875 228.472656 39.566406 229.722656 41.445312 230.503906 C 40.925781 230.222656 40.425781 229.863281 39.925781 229.574219 C 39.078125 229.074219 38.214844 228.601562 37.398438 228.042969 C 36.335938 227.3125 35.335938 226.464844 34.328125 225.671875 C 33.117188 224.734375 31.929688 223.753906 30.699219 222.835938 C 30.230469 222.503906 29.707031 222.195312 29.257812 221.824219 Z M 41.9375 230.09375 C 39.777344 226.875 36.625 224.304688 33.308594 222.304688 C 32.859375 222.035156 30.777344 220.925781 29.296875 220.476562 C 28.949219 220.363281 28.628906 220.296875 28.390625 220.296875 C 28.367188 220.296875 28.347656 220.296875 28.328125 220.296875 C 28.617188 220.375 28.890625 220.523438 29.179688 220.625 C 29.5 220.734375 29.847656 220.792969 30.167969 220.925781 C 31.046875 221.292969 31.847656 221.90625 32.65625 222.40625 C 33.277344 222.792969 33.925781 223.132812 34.515625 223.554688 C 35.515625 224.265625 36.425781 225.09375 37.355469 225.894531 C 38.386719 226.785156 39.4375 227.652344 40.445312 228.582031 C 40.964844 229.074219 41.4375 229.59375 41.9375 230.09375 Z M 28.398438 220.59375 C 28.449219 220.65625 28.507812 220.714844 28.558594 220.765625 C 29.050781 221.066406 29.578125 221.304688 30.070312 221.605469 C 30.558594 221.90625 31.007812 222.265625 31.488281 222.585938 C 32.007812 222.933594 32.558594 223.246094 33.066406 223.605469 C 34.1875 224.402344 35.238281 225.324219 36.328125 226.164062 C 37.964844 227.421875 39.644531 228.652344 41.335938 229.851562 C 40.984375 229.492188 40.636719 229.121094 40.265625 228.78125 C 39.265625 227.863281 38.214844 226.992188 37.1875 226.101562 C 36.265625 225.3125 35.367188 224.484375 34.367188 223.785156 C 33.777344 223.363281 33.128906 223.023438 32.519531 222.644531 C 31.726562 222.144531 30.9375 221.542969 30.070312 221.183594 C 29.757812 221.054688 29.417969 220.996094 29.097656 220.886719 C 28.859375 220.804688 28.628906 220.683594 28.398438 220.59375 Z M 29.230469 221.445312 C 29.71875 221.882812 30.328125 222.234375 30.859375 222.625 C 32.089844 223.542969 33.277344 224.523438 34.488281 225.464844 C 35.496094 226.253906 36.488281 227.101562 37.546875 227.824219 C 38.355469 228.371094 39.207031 228.84375 40.054688 229.332031 C 40.316406 229.484375 40.566406 229.652344 40.824219 229.8125 C 39.246094 228.691406 37.6875 227.542969 36.15625 226.375 C 35.066406 225.542969 34.027344 224.632812 32.898438 223.835938 C 32.386719 223.472656 31.847656 223.164062 31.328125 222.8125 C 30.859375 222.496094 30.410156 222.132812 29.917969 221.84375 C 29.699219 221.703125 29.457031 221.574219 29.230469 221.445312 Z M 29.269531 222.246094 C 29.507812 222.554688 29.757812 222.863281 30.019531 223.152344 C 30.398438 223.59375 30.75 224.0625 31.167969 224.464844 C 33.039062 226.242188 35.378906 227.671875 37.625 228.921875 C 38.175781 229.222656 38.738281 229.484375 39.296875 229.742188 C 38.148438 229.074219 37.035156 228.3125 35.988281 227.601562 C 34.265625 226.445312 32.566406 225.273438 31 223.914062 C 30.398438 223.382812 29.808594 222.835938 29.269531 222.246094 Z M 52.351562 208.027344 C 51.53125 209.136719 50.894531 210.457031 50.125 211.558594 C 47.222656 215.714844 44.625 220.144531 42.765625 224.875 C 45.074219 221.375 47.09375 217.617188 49.214844 214.007812 C 50.382812 212.015625 51.691406 210.21875 52.351562 208.027344 Z M 48.832031 210.855469 C 48.742188 210.957031 48.644531 211.066406 48.554688 211.175781 C 48.492188 211.246094 48.433594 211.316406 48.375 211.386719 C 45.515625 214.765625 42.515625 219.945312 42.375 224.644531 C 42.804688 223.003906 43.515625 221.453125 44.125 219.863281 C 45.316406 216.816406 46.753906 213.546875 48.832031 210.855469 Z M 52.8125 207.449219 C 52.792969 207.46875 52.78125 207.476562 52.761719 207.5 C 52.171875 209.988281 50.722656 211.945312 49.433594 214.136719 C 47.535156 217.367188 45.726562 220.714844 43.707031 223.882812 C 46.613281 220.285156 49.535156 216.4375 51.253906 212.15625 C 51.894531 210.617188 52.59375 209.109375 52.8125 207.449219 Z M 52.03125 208.007812 C 48.242188 210.898438 46.042969 215.644531 44.386719 219.964844 C 43.886719 221.265625 43.316406 222.535156 42.886719 223.855469 C 44.726562 219.445312 47.183594 215.304688 49.902344 211.398438 C 50.644531 210.335938 51.261719 209.085938 52.03125 208.007812 Z M 53.09375 209.789062 C 52.882812 210.738281 52.492188 211.695312 52.214844 212.507812 C 51.382812 214.984375 48.632812 219.445312 46.785156 221.40625 C 46.105469 222.113281 45.414062 222.792969 44.746094 223.496094 C 45.433594 223.09375 46.125 222.703125 46.65625 222.222656 C 48.335938 220.703125 50.824219 216.996094 52.171875 213.425781 C 52.644531 212.15625 52.984375 210.90625 53.09375 209.789062 Z M 52.953125 208.207031 C 52.652344 209.609375 52.054688 210.925781 51.511719 212.265625 C 49.882812 216.304688 47.203125 219.976562 44.453125 223.394531 C 45.15625 222.664062 45.875 221.964844 46.574219 221.226562 C 48.402344 219.296875 51.125 214.886719 51.941406 212.425781 C 52.183594 211.71875 52.511719 210.90625 52.734375 210.078125 C 52.914062 209.449219 53.011719 208.808594 52.953125 208.207031 Z M 40.046875 218.324219 C 40.046875 218.324219 40.046875 218.335938 40.046875 218.335938 L 40.074219 218.34375 Z M 27.519531 203.660156 C 27.660156 204.257812 27.828125 204.839844 28.027344 205.417969 C 29.699219 208.699219 33.046875 212.058594 35.296875 214.367188 C 36.71875 215.816406 37.828125 217.253906 39.695312 218.074219 C 36.105469 215.6875 33.789062 211.976562 31.136719 208.667969 C 29.796875 207.019531 28.429688 205.488281 27.519531 203.660156 Z M 26.828125 200.011719 C 27.019531 201.101562 27.21875 202.128906 27.257812 202.371094 L 27.257812 202.378906 C 28.097656 204.738281 29.757812 206.527344 31.347656 208.496094 C 33.777344 211.515625 35.917969 214.875 39.007812 217.246094 C 37.777344 215.996094 36.535156 214.726562 35.457031 213.367188 C 33.457031 210.847656 31.867188 208.019531 30.128906 205.308594 C 28.867188 203.347656 27.667969 201.898438 26.828125 200.011719 Z M 28.078125 198.761719 C 30.25 201.28125 31.667969 204.378906 33.308594 207.269531 C 35.289062 210.765625 37.546875 214.007812 39.925781 217.234375 C 39.894531 217.117188 39.855469 216.996094 39.816406 216.867188 C 39.515625 216.566406 39.234375 216.195312 38.976562 215.785156 C 38.304688 214.726562 37.757812 213.4375 37.257812 212.65625 C 35.628906 210.128906 34.046875 207.617188 32.65625 204.949219 C 31.679688 203.050781 30.917969 201.191406 29.5 199.648438 C 29.058594 199.351562 28.597656 199.058594 28.117188 198.78125 C 28.097656 198.769531 28.089844 198.769531 28.078125 198.761719 Z M 26.9375 197.960938 C 30.449219 204.089844 33.648438 210.378906 38.355469 215.6875 C 38.765625 216.144531 39.125 216.644531 39.507812 217.125 C 37.195312 213.976562 35.007812 210.808594 33.066406 207.398438 C 31.238281 204.167969 29.6875 200.699219 27.058594 198.050781 C 27.019531 198.019531 26.980469 197.992188 26.9375 197.960938 Z M 28.660156 207.039062 C 30.449219 211.078125 33.546875 214.394531 37.308594 216.804688 C 36.546875 216.125 35.867188 215.347656 35.097656 214.554688 C 33.179688 212.578125 30.457031 209.847656 28.660156 207.039062 Z M 26.480469 197.699219 C 26.5 197.878906 26.519531 198.089844 26.550781 198.332031 C 26.570312 198.449219 26.578125 198.570312 26.597656 198.691406 C 27.410156 201.21875 28.828125 202.820312 30.339844 205.167969 C 32.066406 207.867188 33.65625 210.6875 35.648438 213.207031 C 36.617188 214.425781 37.714844 215.566406 38.816406 216.695312 C 38.597656 216.414062 38.375 216.136719 38.136719 215.867188 C 33.179688 210.246094 29.878906 203.539062 26.121094 197.082031 Z M 30.378906 200.300781 C 31.410156 201.679688 32.078125 203.238281 32.898438 204.839844 C 34.277344 207.507812 35.855469 210.007812 37.476562 212.527344 C 37.976562 213.308594 38.527344 214.597656 39.195312 215.65625 C 39.316406 215.847656 39.4375 216.027344 39.566406 216.195312 C 38.765625 214.386719 37.765625 212.675781 36.875 210.917969 C 35.128906 207.40625 33.429688 203.929688 31.027344 200.839844 C 30.820312 200.648438 30.597656 200.46875 30.378906 200.300781 Z M 32.238281 202.03125 C 34.148438 204.777344 35.605469 207.769531 37.125 210.777344 C 37.765625 212.035156 38.457031 213.277344 39.097656 214.546875 C 37.566406 209.988281 35.40625 205.5 32.238281 202.03125 Z M 59.152344 191.183594 C 57.410156 192.59375 55.253906 193.410156 53.351562 194.570312 C 49.824219 196.710938 46.65625 199.421875 44.074219 202.648438 C 43.585938 203.269531 42.976562 203.859375 42.464844 204.5 C 42.445312 204.539062 42.414062 204.570312 42.394531 204.609375 C 42.484375 204.507812 42.574219 204.417969 42.664062 204.320312 C 43.335938 203.589844 44.035156 202.898438 44.734375 202.199219 C 47.515625 199.441406 50.511719 197.082031 53.792969 194.929688 C 55.550781 193.773438 57.660156 192.742188 59.152344 191.183594 Z M 49.875 195.359375 C 49.34375 195.640625 48.84375 195.941406 48.394531 196.242188 C 46.464844 197.570312 44.496094 200.21875 43.296875 202.230469 C 42.996094 202.730469 42.695312 203.25 42.414062 203.800781 C 42.964844 202.917969 43.605469 202.089844 44.203125 201.269531 C 45.785156 199.140625 47.683594 197.011719 49.875 195.359375 Z M 56.851562 195.042969 C 56.140625 195.679688 55.402344 196.292969 54.640625 196.859375 C 52.753906 198.289062 50.582031 199.441406 48.5625 200.667969 C 47.304688 201.441406 46.085938 202.230469 44.90625 203.121094 C 45.554688 202.769531 46.203125 202.417969 46.835938 202.03125 C 48.355469 201.078125 49.804688 200.011719 51.351562 199.109375 C 52.402344 198.5 53.550781 198.082031 54.613281 197.460938 C 54.882812 197.210938 55.140625 196.960938 55.402344 196.679688 C 55.910156 196.140625 56.402344 195.589844 56.851562 195.042969 Z M 58.542969 192.710938 C 58.300781 192.980469 58.050781 193.242188 57.792969 193.460938 C 57.023438 194.140625 56.140625 194.722656 55.320312 195.339844 C 52.894531 197.199219 50.363281 198.890625 47.8125 200.578125 C 46.8125 201.25 45.875 201.960938 44.964844 202.71875 C 46.085938 201.898438 47.222656 201.160156 48.414062 200.429688 C 50.433594 199.199219 52.582031 198.050781 54.472656 196.632812 C 55.652344 195.742188 56.78125 194.761719 57.851562 193.722656 C 58.089844 193.402344 58.320312 193.0625 58.542969 192.710938 Z M 59.050781 191.652344 C 57.570312 193.0625 55.601562 194.050781 53.941406 195.140625 C 50.683594 197.28125 47.695312 199.621094 44.933594 202.378906 C 44.855469 202.460938 44.773438 202.539062 44.695312 202.609375 C 45.644531 201.808594 46.625 201.058594 47.675781 200.359375 C 50.214844 198.660156 52.742188 196.980469 55.171875 195.132812 C 55.980469 194.511719 56.863281 193.941406 57.621094 193.261719 C 58.121094 192.8125 58.613281 192.253906 59.050781 191.652344 Z M 53.382812 193.730469 C 52.78125 193.992188 52.171875 194.25 51.582031 194.519531 C 48.753906 196.242188 46.355469 198.839844 44.445312 201.417969 C 44.316406 201.601562 44.183594 201.769531 44.046875 201.949219 C 44.125 201.851562 44.195312 201.757812 44.273438 201.667969 C 46.765625 198.570312 49.964844 195.832031 53.382812 193.730469 Z M 53.683594 198.25 C 52.941406 198.609375 52.191406 198.929688 51.484375 199.339844 C 50.195312 200.078125 48.972656 200.949219 47.734375 201.757812 C 49.863281 200.710938 51.875 199.691406 53.683594 198.25 Z M 59.78125 190.242188 C 59.140625 190.753906 58.492188 191.230469 57.800781 191.652344 C 57.800781 191.652344 57.8125 191.664062 57.8125 191.664062 C 57.839844 191.730469 57.820312 191.8125 57.75 191.84375 C 56.53125 192.460938 55.261719 192.921875 54.082031 193.621094 C 51.394531 195.203125 48.824219 197.199219 46.605469 199.460938 C 48.605469 197.5 50.832031 195.78125 53.234375 194.332031 C 55.34375 193.050781 57.78125 192.183594 59.589844 190.441406 C 59.652344 190.382812 59.710938 190.3125 59.78125 190.242188 Z M 36.195312 174.335938 C 36.257812 174.816406 36.335938 175.296875 36.476562 175.757812 C 36.675781 176.40625 37.035156 176.984375 37.195312 177.644531 C 38.117188 181.503906 39.085938 185.394531 40.324219 189.164062 C 40.695312 190.300781 41.136719 191.414062 41.585938 192.523438 C 41.644531 192.671875 41.714844 192.832031 41.785156 192.980469 C 41.527344 192.222656 41.414062 191.414062 41.226562 190.640625 C 40.824219 189.011719 40.394531 187.402344 39.996094 185.773438 C 39.335938 183.085938 38.675781 180.355469 37.746094 177.746094 C 37.386719 176.734375 36.847656 175.757812 36.40625 174.777344 C 36.328125 174.617188 36.265625 174.476562 36.195312 174.335938 Z M 37.757812 177.054688 C 37.835938 177.253906 37.917969 177.445312 37.988281 177.644531 C 38.917969 180.265625 39.578125 183.003906 40.246094 185.703125 C 40.644531 187.332031 41.074219 188.941406 41.476562 190.574219 C 41.574219 190.960938 41.644531 191.371094 41.734375 191.773438 C 41.625 190.972656 41.535156 190.171875 41.386719 189.382812 C 41.003906 187.394531 40.457031 185.433594 40.054688 183.445312 C 39.726562 181.792969 39.515625 179.824219 38.667969 178.316406 C 38.367188 177.894531 38.066406 177.484375 37.757812 177.054688 Z M 35.96875 180.914062 C 36.335938 183.714844 37.296875 186.363281 38.746094 188.792969 C 39.296875 189.710938 39.925781 190.664062 40.546875 191.652344 C 40.296875 191.09375 40.046875 190.53125 39.785156 189.984375 C 38.9375 188.242188 38.117188 186.503906 37.355469 184.714844 C 36.816406 183.464844 36.328125 182.203125 35.96875 180.914062 Z M 35.988281 174.785156 L 35.96875 174.945312 C 35.957031 175.375 35.96875 175.816406 36.007812 176.246094 C 36.105469 177.246094 36.425781 178.15625 36.667969 179.117188 C 36.988281 180.34375 37.246094 181.605469 37.636719 182.824219 C 37.964844 183.84375 38.40625 184.8125 38.746094 185.832031 C 39.296875 187.503906 39.917969 189.144531 40.597656 190.753906 C 40.40625 190.253906 40.234375 189.753906 40.066406 189.242188 C 38.828125 185.464844 37.855469 181.566406 36.925781 177.707031 C 36.765625 177.054688 36.40625 176.476562 36.21875 175.835938 C 36.105469 175.484375 36.035156 175.125 35.988281 174.765625 Z M 39.476562 179.523438 C 39.886719 180.785156 40.074219 182.164062 40.316406 183.382812 C 40.714844 185.375 41.265625 187.332031 41.644531 189.324219 C 41.695312 189.574219 41.734375 189.824219 41.777344 190.082031 C 41.617188 187.09375 41.457031 184.164062 40.347656 181.265625 C 40.105469 180.636719 39.804688 180.066406 39.476562 179.523438 Z M 35.816406 176.847656 C 35.789062 177.554688 35.777344 178.265625 35.796875 178.976562 C 36.117188 180.925781 36.808594 182.773438 37.597656 184.613281 C 38.226562 186.082031 38.886719 187.511719 39.578125 188.953125 C 39.1875 187.953125 38.828125 186.945312 38.488281 185.914062 C 38.148438 184.902344 37.707031 183.925781 37.375 182.90625 C 36.988281 181.683594 36.71875 180.425781 36.40625 179.183594 C 36.207031 178.394531 35.957031 177.636719 35.816406 176.847656 Z M 47.59375 164.410156 C 47.445312 166.617188 47.753906 168.976562 48.542969 170.925781 C 49.152344 172.4375 49.902344 173.957031 50.535156 175.507812 C 50.472656 175.265625 50.402344 175.035156 50.324219 174.816406 C 49.195312 171.667969 47.863281 168.328125 47.625 164.957031 C 47.613281 164.777344 47.605469 164.589844 47.59375 164.410156 Z M 50.632812 163.890625 C 50.773438 164.789062 50.761719 165.71875 50.785156 166.648438 C 50.804688 167.886719 50.902344 169.148438 50.84375 170.386719 C 50.8125 171.078125 50.761719 171.789062 50.742188 172.488281 C 50.851562 173.308594 50.964844 174.136719 51.082031 174.957031 C 51.082031 174.945312 51.082031 174.925781 51.082031 174.917969 C 51.074219 173.527344 51.285156 172.167969 51.375 170.789062 C 51.511719 168.777344 51.492188 166.679688 51.023438 164.710938 C 50.894531 164.429688 50.761719 164.160156 50.632812 163.890625 Z M 51.582031 166.417969 C 51.753906 167.878906 51.734375 169.359375 51.632812 170.796875 C 51.542969 172.066406 51.363281 173.328125 51.34375 174.597656 C 51.664062 171.867188 52.171875 169.199219 51.582031 166.417969 Z M 48.164062 161.121094 C 48.09375 161.390625 48.035156 161.628906 47.984375 161.851562 C 47.863281 162.871094 47.8125 163.890625 47.882812 164.949219 C 48.125 168.25 49.402344 171.507812 50.523438 174.597656 C 50.503906 174.4375 50.492188 174.277344 50.484375 174.105469 C 50.332031 173.445312 50.164062 172.785156 50.003906 172.128906 C 49.523438 170.199219 48.855469 168.289062 48.515625 166.320312 C 48.234375 164.609375 48.0625 162.847656 48.164062 161.121094 Z M 48.605469 159.640625 L 48.59375 159.671875 C 48.253906 161.851562 48.414062 164.097656 48.785156 166.269531 C 49.113281 168.226562 49.785156 170.128906 50.261719 172.058594 C 50.324219 172.316406 50.394531 172.578125 50.464844 172.835938 C 50.464844 172.726562 50.464844 172.617188 50.472656 172.507812 C 50.125 169.917969 49.792969 167.328125 49.414062 164.75 C 49.292969 163.949219 49.203125 163.140625 49.0625 162.339844 C 48.894531 161.449219 48.683594 160.539062 48.613281 159.621094 Z M 48.945312 160.238281 C 49.042969 160.929688 49.195312 161.609375 49.3125 162.289062 C 49.464844 163.089844 49.554688 163.898438 49.671875 164.710938 C 49.984375 166.796875 50.253906 168.898438 50.535156 170.988281 C 50.542969 170.777344 50.554688 170.578125 50.5625 170.367188 C 50.625 169.136719 50.523438 167.878906 50.503906 166.636719 C 50.484375 165.378906 50.511719 164.097656 50.125 162.917969 C 49.863281 162.417969 49.613281 161.917969 49.394531 161.398438 C 49.242188 161.019531 49.082031 160.640625 48.945312 160.238281 Z M 59.5 169.546875 C 59.480469 169.566406 59.472656 169.578125 59.449219 169.597656 C 59.371094 169.699219 59.292969 169.808594 59.210938 169.90625 C 59.203125 169.917969 59.191406 169.925781 59.179688 169.9375 C 59.171875 169.957031 59.160156 169.976562 59.152344 169.988281 C 59.292969 169.859375 59.429688 169.738281 59.582031 169.617188 C 59.5625 169.609375 59.542969 169.597656 59.519531 169.585938 C 59.511719 169.578125 59.5 169.566406 59.5 169.546875 Z M 67.179688 160.539062 C 65.828125 161.460938 64.519531 162.398438 63.351562 163.578125 C 62.421875 164.527344 61.691406 165.71875 60.949219 166.808594 C 60.480469 167.507812 60.019531 168.238281 59.582031 168.976562 L 59.609375 168.9375 C 60.042969 168.398438 60.492188 167.878906 60.941406 167.359375 C 61.222656 167.019531 61.511719 166.679688 61.789062 166.339844 C 63.128906 164.71875 64.328125 163.128906 65.871094 161.691406 C 66.289062 161.308594 66.730469 160.921875 67.179688 160.539062 Z M 73.597656 157.921875 C 71.917969 160.378906 69.777344 162.488281 67.371094 164.257812 C 65.871094 165.347656 64.320312 166.417969 62.78125 167.457031 C 62.25 167.808594 61.710938 168.167969 61.210938 168.566406 C 61.480469 168.417969 61.761719 168.277344 62.039062 168.148438 C 62.300781 167.988281 62.558594 167.828125 62.820312 167.667969 C 64.890625 166.457031 66.839844 165.039062 68.699219 163.539062 C 69.699219 162.730469 70.789062 161.960938 71.628906 160.980469 C 72.089844 160.339844 72.527344 159.679688 72.957031 159.019531 C 73.175781 158.652344 73.386719 158.289062 73.597656 157.921875 Z M 72.617188 158.808594 C 70.679688 160.890625 68.308594 162.558594 65.96875 164.25 C 64.550781 165.269531 63.210938 166.457031 61.910156 167.628906 C 61.710938 167.808594 61.511719 167.976562 61.300781 168.15625 C 61.730469 167.839844 62.179688 167.539062 62.628906 167.238281 C 64.171875 166.207031 65.71875 165.140625 67.21875 164.050781 C 69.25 162.550781 71.089844 160.800781 72.617188 158.808594 Z M 73.847656 156.902344 C 73.199219 157.492188 72.519531 158.03125 71.847656 158.601562 C 70.109375 160.082031 68.417969 161.578125 66.628906 163 C 65.398438 163.980469 64.140625 164.988281 63.011719 166.078125 C 62.410156 166.660156 61.832031 167.25 61.242188 167.839844 C 61.402344 167.699219 61.5625 167.558594 61.71875 167.417969 C 63.03125 166.25 64.371094 165.050781 65.808594 164.019531 C 68.75 161.917969 71.738281 159.832031 73.847656 156.902344 Z M 74.296875 156.109375 C 73.648438 156.480469 72.988281 156.839844 72.367188 157.28125 C 70.328125 158.761719 68.507812 160.511719 66.628906 162.179688 C 64.730469 163.859375 62.851562 165.628906 61.160156 167.539062 L 61.128906 167.578125 C 61.691406 167.007812 62.261719 166.4375 62.832031 165.878906 C 63.96875 164.777344 65.238281 163.769531 66.46875 162.78125 C 68.257812 161.359375 69.9375 159.859375 71.679688 158.378906 C 72.558594 157.652344 73.476562 156.929688 74.296875 156.109375 Z M 70.4375 162.480469 C 69.917969 162.910156 69.378906 163.320312 68.859375 163.738281 C 67.328125 164.96875 65.738281 166.148438 64.078125 167.199219 C 64.808594 166.867188 65.550781 166.507812 66.269531 166.078125 C 67.898438 165.117188 69.25 163.878906 70.4375 162.480469 Z M 70.277344 158.582031 C 70.046875 158.710938 69.820312 158.839844 69.589844 158.96875 C 68.390625 159.878906 67.128906 160.890625 66.058594 161.890625 C 65.089844 162.800781 64.25 163.777344 63.429688 164.777344 C 64.410156 163.820312 65.429688 162.890625 66.460938 161.980469 C 67.730469 160.851562 68.980469 159.679688 70.277344 158.582031 Z M 60.230469 142.132812 C 60.242188 143.472656 60.160156 144.824219 60 146.164062 C 59.761719 148.191406 59.429688 150.171875 59.0625 152.203125 C 58.902344 153.070312 58.742188 153.960938 58.679688 154.851562 C 59.019531 153.570312 59.519531 152.3125 59.832031 150.953125 C 60.492188 148.101562 60.640625 145.074219 60.230469 142.132812 Z M 56.851562 140.515625 C 56.3125 143.554688 56.273438 146.761719 56.832031 149.710938 C 57.101562 151.121094 57.511719 152.492188 57.921875 153.871094 C 57.722656 152.570312 57.5625 151.273438 57.402344 149.972656 C 57.023438 146.792969 56.671875 143.664062 56.851562 140.515625 Z M 57.371094 138.226562 C 57.371094 138.234375 57.363281 138.246094 57.363281 138.253906 C 56.773438 142.175781 57.203125 146.015625 57.671875 149.941406 C 57.820312 151.191406 57.980469 152.433594 58.171875 153.683594 C 58.179688 153.542969 58.203125 153.402344 58.222656 153.273438 C 58.089844 152.101562 57.902344 150.921875 57.792969 149.761719 C 57.523438 146.921875 57.433594 144.085938 57.363281 141.226562 C 57.332031 140.136719 57.3125 139.175781 57.371094 138.226562 Z M 59.792969 139.816406 C 59.800781 142.363281 59.570312 144.914062 59.203125 147.402344 C 59 148.753906 59.011719 150.261719 58.78125 151.613281 C 58.722656 151.941406 58.660156 152.261719 58.601562 152.570312 C 58.601562 152.792969 58.601562 153.011719 58.613281 153.230469 C 58.671875 152.871094 58.730469 152.523438 58.800781 152.164062 C 59.171875 150.132812 59.5 148.152344 59.742188 146.132812 C 59.980469 144.144531 60.042969 142.164062 59.871094 140.164062 C 59.851562 140.085938 59.839844 140.015625 59.820312 139.945312 C 59.8125 139.90625 59.800781 139.855469 59.792969 139.816406 Z M 58.953125 133.375 C 58.140625 137.054688 58.101562 140.925781 58.179688 144.652344 C 58.222656 146.703125 58.25 148.722656 58.371094 150.761719 C 58.371094 150.640625 58.382812 150.53125 58.382812 150.414062 C 58.410156 148.53125 58.472656 146.683594 58.582031 144.804688 C 58.792969 141.394531 58.882812 136.835938 58.953125 133.375 Z M 59.171875 135.746094 C 59.101562 138.753906 59.011719 142.144531 58.851562 144.824219 C 58.742188 146.695312 58.679688 148.542969 58.652344 150.414062 C 58.652344 150.492188 58.652344 150.574219 58.652344 150.652344 C 58.761719 149.5625 58.792969 148.402344 58.953125 147.351562 C 59.390625 144.375 59.632812 141.273438 59.492188 138.226562 C 59.351562 137.414062 59.25 136.574219 59.171875 135.746094 Z M 58.402344 134.867188 C 58.179688 135.546875 57.980469 136.226562 57.761719 136.90625 C 57.570312 138.335938 57.589844 139.636719 57.632812 141.203125 C 57.703125 144.003906 57.78125 146.792969 58.042969 149.574219 C 57.972656 147.933594 57.941406 146.304688 57.910156 144.652344 C 57.851562 141.433594 57.871094 138.085938 58.402344 134.867188 Z M 58.402344 134.867188 " fill-opacity="1" fill-rule="evenodd"/></g><g clip-path="url(#f810911149)"><path fill="#e8ecd7" d="M 316.523438 158.289062 C 316.574219 158.25 316.601562 158.191406 316.613281 158.121094 C 316.640625 157.890625 316.652344 157.660156 316.664062 157.429688 C 317.210938 154.863281 318.203125 152.390625 318.691406 149.8125 C 319.472656 145.683594 319.113281 141.054688 317.851562 137.066406 C 317.433594 135.726562 317.0625 134.386719 316.53125 133.078125 C 316.453125 132.867188 316.351562 132.488281 316.230469 132.15625 C 316.132812 131.886719 316.003906 131.65625 315.863281 131.527344 C 315.773438 131.449219 315.691406 131.457031 315.632812 131.457031 C 315.550781 131.46875 315.492188 131.507812 315.441406 131.585938 C 315.421875 131.617188 315.402344 131.667969 315.402344 131.738281 C 315.402344 131.777344 315.414062 131.847656 315.414062 131.886719 C 315.421875 132.136719 315.433594 132.386719 315.441406 132.636719 C 315.472656 133.246094 315.460938 133.867188 315.414062 134.476562 C 315.253906 136.246094 315.082031 138.074219 314.664062 139.804688 C 313.78125 143.472656 313.8125 147.402344 314.652344 151.082031 C 315.042969 152.773438 315.742188 154.300781 316.023438 155.941406 L 316.023438 155.953125 C 315.753906 157.871094 315.574219 159.808594 315.523438 161.757812 C 315.484375 163.589844 315.5625 165.417969 315.824219 167.238281 C 315.914062 167.898438 316.03125 168.546875 316.171875 169.199219 C 315.640625 168.269531 315.082031 167.367188 314.503906 166.507812 C 313.742188 165.390625 313.003906 164.167969 312.042969 163.199219 C 310.472656 161.609375 308.664062 160.46875 306.855469 159.210938 C 306.085938 158.679688 305.226562 158.28125 304.433594 157.78125 C 303.566406 157.230469 302.734375 156.589844 301.855469 156.042969 C 301.316406 155.703125 300.796875 155.339844 300.265625 154.992188 C 300.105469 154.882812 299.957031 154.78125 299.804688 154.660156 C 299.746094 154.613281 299.667969 154.492188 299.605469 154.441406 C 299.546875 154.390625 299.488281 154.363281 299.445312 154.351562 C 299.355469 154.332031 299.285156 154.351562 299.226562 154.402344 C 299.175781 154.441406 299.117188 154.5 299.105469 154.621094 C 299.085938 154.8125 299.167969 155.042969 299.296875 155.28125 C 299.445312 155.550781 299.667969 155.839844 299.777344 156.019531 C 300.394531 157.109375 300.945312 158.242188 301.617188 159.300781 C 303.425781 162.148438 305.515625 164.800781 308.472656 166.546875 C 310.242188 167.597656 312.101562 168.21875 313.722656 169.128906 C 315.183594 169.949219 316.441406 171.007812 317.230469 172.855469 C 318.191406 175.476562 319.492188 177.824219 320.972656 180.214844 C 323.628906 184.503906 326.898438 188.914062 329.828125 195.320312 C 330.859375 197.570312 331.679688 199.859375 332.296875 202.167969 C 332.257812 202.097656 332.21875 202.03125 332.179688 201.960938 C 330.949219 199.898438 328.917969 197.171875 326.929688 195.800781 C 324.570312 194.191406 320.929688 192.972656 318.320312 191.640625 C 317.261719 191.101562 316.34375 190.421875 315.421875 189.683594 C 315.222656 189.523438 314.960938 189.242188 314.691406 189.011719 C 314.484375 188.832031 314.261719 188.691406 314.0625 188.632812 C 313.933594 188.59375 313.851562 188.632812 313.804688 188.664062 C 313.722656 188.714844 313.671875 188.792969 313.683594 188.921875 C 313.683594 188.960938 313.703125 189.023438 313.742188 189.082031 C 313.792969 189.152344 313.902344 189.273438 313.941406 189.34375 C 314.074219 189.542969 314.203125 189.734375 314.324219 189.933594 C 314.691406 190.523438 314.984375 191.164062 315.3125 191.773438 C 315.441406 192.011719 315.582031 192.253906 315.710938 192.480469 C 315.683594 192.53125 315.683594 192.601562 315.734375 192.640625 C 315.8125 192.722656 315.882812 192.800781 315.960938 192.882812 C 316.523438 193.773438 317.121094 194.601562 317.792969 195.410156 C 317.761719 195.460938 317.761719 195.53125 317.8125 195.570312 C 318.152344 195.941406 318.5 196.300781 318.871094 196.632812 C 318.992188 196.761719 319.121094 196.902344 319.25 197.03125 C 321.679688 199.589844 324.558594 200.988281 327.679688 202.519531 C 328.757812 203.050781 329.917969 203.519531 330.9375 204.160156 C 331.917969 204.777344 332.757812 205.546875 333.238281 206.699219 C 333.277344 206.796875 333.316406 206.910156 333.347656 207.007812 C 334.207031 212.597656 334.058594 218.316406 333.167969 224.0625 C 332.828125 219.394531 329.890625 214.347656 327.070312 211.007812 C 327.007812 210.9375 326.949219 210.867188 326.890625 210.796875 C 325.761719 209.457031 324.480469 208.347656 323.050781 207.339844 C 322.960938 207.269531 322.820312 207.128906 322.671875 207.019531 C 322.539062 206.917969 322.410156 206.828125 322.289062 206.796875 C 322.179688 206.769531 322.082031 206.769531 321.992188 206.808594 C 321.902344 206.847656 321.8125 206.917969 321.75 207.046875 C 321.042969 208.6875 321.429688 211.105469 322.371094 213.585938 C 323.75 217.246094 326.300781 221.035156 328.03125 222.585938 C 328.828125 223.304688 329.96875 223.835938 330.949219 224.484375 C 331.75 225.015625 332.4375 225.625 332.699219 226.523438 C 331.507812 231.550781 328.460938 239.339844 325.460938 242.570312 C 325.308594 242.730469 325.320312 242.980469 325.480469 243.128906 C 325.609375 243.25 325.789062 243.269531 325.941406 243.1875 C 325.960938 243.210938 325.988281 243.210938 326.011719 243.21875 C 325.980469 243.25 325.960938 243.277344 325.929688 243.308594 C 325.878906 243.367188 325.890625 243.449219 325.941406 243.5 C 326 243.550781 326.078125 243.539062 326.128906 243.488281 C 326.46875 243.109375 326.757812 242.699219 327.050781 242.28125 C 327.078125 242.238281 327.078125 242.179688 327.050781 242.140625 C 327.257812 241.859375 327.46875 241.570312 327.648438 241.28125 C 327.691406 241.21875 327.667969 241.128906 327.609375 241.101562 C 327.597656 241.101562 327.597656 241.089844 327.589844 241.089844 C 328.730469 239.332031 329.839844 237.089844 330.796875 234.769531 C 330.859375 234.742188 330.910156 234.679688 330.929688 234.613281 C 331.039062 234.25 331.148438 233.902344 331.277344 233.5625 C 331.320312 233.472656 331.347656 233.371094 331.386719 233.28125 C 331.589844 232.78125 331.808594 232.292969 332.058594 231.8125 C 332.476562 231.570312 332.957031 231.441406 333.4375 231.34375 C 333.976562 231.230469 334.519531 231.140625 335.027344 230.972656 C 339.054688 229.621094 342.164062 228.003906 344.90625 224.632812 C 345.214844 224.242188 346.875 221.855469 347.265625 220.726562 C 347.355469 220.476562 347.382812 220.265625 347.355469 220.136719 C 347.335938 220.015625 347.273438 219.933594 347.195312 219.875 C 347.066406 219.773438 346.875 219.726562 346.625 219.726562 C 346.34375 219.726562 345.976562 219.804688 345.554688 219.925781 C 344.035156 220.386719 341.894531 221.523438 341.425781 221.804688 C 338.015625 223.855469 334.777344 226.511719 332.578125 229.84375 L 332.589844 229.824219 C 332.816406 229.09375 333.039062 228.351562 333.226562 227.601562 C 333.386719 226.992188 333.539062 226.375 333.667969 225.753906 C 333.707031 225.554688 333.746094 225.355469 333.789062 225.144531 C 333.808594 225.042969 333.816406 224.945312 333.839844 224.832031 C 333.859375 224.714844 333.878906 224.59375 333.898438 224.472656 C 333.957031 224.09375 334.019531 223.714844 334.066406 223.34375 C 334.1875 222.472656 334.296875 221.59375 334.386719 220.714844 C 334.429688 220.285156 334.46875 219.855469 334.507812 219.433594 C 334.539062 219.316406 334.566406 219.195312 334.597656 219.066406 C 334.617188 219.066406 334.628906 219.054688 334.648438 219.046875 C 341.527344 215.867188 347.023438 210.046875 348.304688 202.410156 C 348.375 201.96875 348.933594 199.121094 349.074219 197.769531 C 349.113281 197.371094 349.105469 197.089844 349.0625 196.980469 C 349.015625 196.839844 348.925781 196.78125 348.824219 196.761719 C 348.746094 196.742188 348.652344 196.742188 348.554688 196.800781 C 348.484375 196.839844 348.394531 196.910156 348.304688 197 C 348.214844 197.089844 348.125 197.199219 348.054688 197.25 C 347.585938 197.601562 347.144531 197.96875 346.644531 198.261719 C 345.066406 199.179688 343.785156 200.121094 342.535156 201.460938 C 337.976562 206.359375 334.667969 216.757812 334.667969 216.757812 C 334.886719 210.738281 334.179688 204.800781 332.207031 199.050781 C 332.207031 199.039062 332.207031 199.039062 332.207031 199.03125 C 332.199219 197.242188 332.878906 195.5 333.777344 193.832031 C 334.699219 192.132812 335.835938 190.503906 336.738281 189.003906 C 338.316406 186.363281 339.328125 183.464844 339.65625 180.40625 C 339.835938 178.707031 339.796875 177.027344 339.636719 175.316406 C 339.585938 174.804688 339.527344 174.304688 339.464844 173.796875 C 339.445312 173.585938 339.417969 173.375 339.386719 173.167969 C 339.386719 173.15625 339.398438 173.007812 339.398438 172.945312 C 339.386719 172.867188 339.367188 172.816406 339.335938 172.777344 C 339.296875 172.71875 339.238281 172.675781 339.175781 172.667969 C 339.117188 172.648438 339.035156 172.648438 338.945312 172.695312 C 338.835938 172.765625 338.726562 172.90625 338.636719 173.097656 C 338.507812 173.398438 338.417969 173.847656 338.328125 174.035156 C 337.925781 174.90625 337.417969 175.804688 336.867188 176.597656 C 335.835938 178.054688 334.816406 179.304688 334.167969 180.996094 C 332.6875 184.875 332.867188 188.8125 332.507812 192.871094 C 332.367188 194.472656 331.957031 196.011719 331.667969 197.589844 C 331.328125 196.691406 330.949219 195.800781 330.546875 194.910156 C 328.429688 190.273438 326.128906 186.671875 324.011719 183.414062 C 324.011719 183.382812 324.011719 183.34375 324 183.3125 C 323.421875 181.144531 323.761719 179.085938 324.441406 177.074219 C 325.128906 175.027344 326.167969 173.035156 326.96875 171.066406 C 328.097656 168.277344 328.269531 164.6875 327.578125 161.789062 C 327.371094 160.910156 326.960938 159.191406 326.460938 158.402344 C 326.441406 158.332031 326.429688 158.269531 326.410156 158.199219 C 326.390625 158.128906 326.320312 158.089844 326.25 158.101562 C 326.179688 158.121094 326.140625 158.191406 326.148438 158.261719 C 326.089844 158.269531 326.039062 158.3125 325.988281 158.371094 C 325.96875 158.402344 325.941406 158.449219 325.929688 158.53125 C 325.921875 158.601562 325.929688 158.742188 325.910156 158.808594 C 325.871094 159.019531 325.800781 159.21875 325.75 159.421875 C 325.589844 160.019531 325.359375 160.570312 325.121094 161.140625 C 324.398438 162.859375 323.3125 164.367188 322.910156 166.21875 C 322.191406 169.597656 323.050781 172.808594 323.289062 176.167969 C 323.429688 178.125 323.039062 180.054688 323.101562 182.003906 C 322.601562 181.234375 322.109375 180.476562 321.652344 179.726562 C 317.691406 173.347656 315.074219 167.25 316.941406 155.203125 Z M 332.816406 230.773438 C 332.816406 230.773438 332.828125 230.78125 332.828125 230.78125 C 332.808594 230.792969 332.796875 230.792969 332.777344 230.800781 Z M 345.074219 223.453125 C 344.785156 223.875 344.546875 224.203125 344.457031 224.332031 C 341.785156 227.613281 338.746094 229.183594 334.828125 230.503906 C 334.675781 230.550781 334.519531 230.59375 334.359375 230.632812 C 334.597656 230.53125 334.835938 230.421875 335.066406 230.3125 C 335.886719 229.941406 336.707031 229.59375 337.496094 229.152344 C 339.765625 227.894531 342.125 226.453125 344.015625 224.652344 C 344.40625 224.285156 344.734375 223.855469 345.074219 223.453125 Z M 345.734375 221.824219 C 345.144531 222.496094 344.484375 223.113281 343.816406 223.695312 C 342.253906 225.054688 340.566406 226.203125 338.847656 227.363281 C 337.195312 228.472656 335.425781 229.722656 333.546875 230.503906 C 334.066406 230.222656 334.566406 229.863281 335.066406 229.574219 C 335.917969 229.074219 336.777344 228.601562 337.597656 228.042969 C 338.65625 227.3125 339.65625 226.464844 340.667969 225.671875 C 341.875 224.734375 343.066406 223.753906 344.296875 222.835938 C 344.765625 222.503906 345.285156 222.195312 345.734375 221.824219 Z M 333.058594 230.09375 C 335.21875 226.875 338.367188 224.304688 341.6875 222.304688 C 342.136719 222.035156 344.214844 220.925781 345.695312 220.476562 C 346.042969 220.363281 346.363281 220.296875 346.605469 220.296875 C 346.625 220.296875 346.644531 220.296875 346.664062 220.296875 C 346.375 220.375 346.105469 220.523438 345.816406 220.625 C 345.496094 220.734375 345.144531 220.792969 344.824219 220.925781 C 343.945312 221.292969 343.144531 221.90625 342.335938 222.40625 C 341.714844 222.792969 341.066406 223.132812 340.476562 223.554688 C 339.476562 224.265625 338.566406 225.09375 337.636719 225.894531 C 336.605469 226.785156 335.558594 227.652344 334.546875 228.582031 C 334.027344 229.074219 333.558594 229.59375 333.058594 230.09375 Z M 346.59375 220.59375 C 346.542969 220.65625 346.484375 220.714844 346.433594 220.765625 C 345.945312 221.066406 345.414062 221.304688 344.925781 221.605469 C 344.433594 221.90625 343.984375 222.265625 343.503906 222.585938 C 342.984375 222.933594 342.4375 223.246094 341.925781 223.605469 C 340.804688 224.402344 339.757812 225.324219 338.667969 226.164062 C 337.027344 227.421875 335.347656 228.652344 333.65625 229.851562 C 334.007812 229.492188 334.359375 229.121094 334.726562 228.78125 C 335.726562 227.863281 336.777344 226.992188 337.808594 226.101562 C 338.726562 225.3125 339.625 224.484375 340.625 223.785156 C 341.214844 223.363281 341.867188 223.023438 342.476562 222.644531 C 343.265625 222.144531 344.054688 221.542969 344.925781 221.183594 C 345.234375 221.054688 345.574219 220.996094 345.894531 220.886719 C 346.136719 220.804688 346.363281 220.683594 346.59375 220.59375 Z M 345.765625 221.445312 C 345.273438 221.882812 344.664062 222.234375 344.136719 222.625 C 342.90625 223.542969 341.714844 224.523438 340.507812 225.464844 C 339.496094 226.253906 338.507812 227.101562 337.445312 227.824219 C 336.636719 228.371094 335.789062 228.84375 334.9375 229.332031 C 334.675781 229.484375 334.429688 229.652344 334.167969 229.8125 C 335.746094 228.691406 337.308594 227.542969 338.835938 226.375 C 339.925781 225.542969 340.964844 224.632812 342.097656 223.835938 C 342.605469 223.472656 343.144531 223.164062 343.664062 222.8125 C 344.136719 222.496094 344.585938 222.132812 345.074219 221.84375 C 345.296875 221.703125 345.535156 221.574219 345.765625 221.445312 Z M 345.726562 222.246094 C 345.484375 222.554688 345.234375 222.863281 344.976562 223.152344 C 344.59375 223.59375 344.246094 224.0625 343.824219 224.464844 C 341.957031 226.242188 339.617188 227.671875 337.367188 228.921875 C 336.816406 229.222656 336.257812 229.484375 335.699219 229.742188 C 336.847656 229.074219 337.957031 228.3125 339.007812 227.601562 C 340.726562 226.445312 342.425781 225.273438 343.996094 223.914062 C 344.59375 223.382812 345.183594 222.835938 345.726562 222.246094 Z M 322.640625 208.027344 C 323.460938 209.136719 324.101562 210.457031 324.871094 211.558594 C 327.769531 215.714844 330.367188 220.144531 332.226562 224.875 C 329.917969 221.375 327.898438 217.617188 325.78125 214.007812 C 324.609375 212.015625 323.300781 210.21875 322.640625 208.027344 Z M 326.160156 210.855469 C 326.25 210.957031 326.351562 211.066406 326.441406 211.175781 C 326.5 211.246094 326.558594 211.316406 326.621094 211.386719 C 329.480469 214.765625 332.476562 219.945312 332.617188 224.644531 C 332.1875 223.003906 331.480469 221.453125 330.867188 219.863281 C 329.679688 216.816406 328.238281 213.546875 326.160156 210.855469 Z M 322.179688 207.449219 C 322.199219 207.46875 322.210938 207.476562 322.230469 207.5 C 322.820312 209.988281 324.269531 211.945312 325.558594 214.136719 C 327.460938 217.367188 329.269531 220.714844 331.289062 223.882812 C 328.378906 220.285156 325.460938 216.4375 323.742188 212.15625 C 323.101562 210.617188 322.402344 209.109375 322.179688 207.449219 Z M 322.960938 208.007812 C 326.75 210.898438 328.949219 215.644531 330.609375 219.964844 C 331.109375 221.265625 331.679688 222.535156 332.109375 223.855469 C 330.269531 219.445312 327.808594 215.304688 325.089844 211.398438 C 324.351562 210.335938 323.730469 209.085938 322.960938 208.007812 Z M 321.902344 209.789062 C 322.109375 210.738281 322.5 211.695312 322.78125 212.507812 C 323.609375 214.984375 326.359375 219.445312 328.210938 221.40625 C 328.890625 222.113281 329.578125 222.792969 330.25 223.496094 C 329.558594 223.09375 328.871094 222.703125 328.339844 222.222656 C 326.660156 220.703125 324.171875 216.996094 322.820312 213.425781 C 322.351562 212.15625 322.011719 210.90625 321.902344 209.789062 Z M 322.039062 208.207031 C 322.339844 209.609375 322.941406 210.925781 323.480469 212.265625 C 325.109375 216.304688 327.789062 219.976562 330.539062 223.394531 C 329.839844 222.664062 329.117188 221.964844 328.417969 221.226562 C 326.589844 219.296875 323.871094 214.886719 323.050781 212.425781 C 322.8125 211.71875 322.480469 210.90625 322.261719 210.078125 C 322.082031 209.449219 321.980469 208.808594 322.039062 208.207031 Z M 334.949219 218.324219 C 334.949219 218.324219 334.949219 218.335938 334.949219 218.335938 L 334.917969 218.34375 Z M 347.472656 203.660156 C 347.335938 204.257812 347.164062 204.839844 346.964844 205.417969 C 345.296875 208.699219 341.945312 212.058594 339.695312 214.367188 C 338.277344 215.816406 337.167969 217.253906 335.296875 218.074219 C 338.886719 215.6875 341.207031 211.976562 343.855469 208.667969 C 345.195312 207.019531 346.566406 205.488281 347.472656 203.660156 Z M 348.164062 200.011719 C 347.972656 201.101562 347.773438 202.128906 347.734375 202.371094 L 347.734375 202.378906 C 346.894531 204.738281 345.234375 206.527344 343.644531 208.496094 C 341.214844 211.515625 339.078125 214.875 335.988281 217.246094 C 337.21875 215.996094 338.457031 214.726562 339.535156 213.367188 C 341.535156 210.847656 343.125 208.019531 344.863281 205.308594 C 346.125 203.347656 347.324219 201.898438 348.164062 200.011719 Z M 346.914062 198.761719 C 344.746094 201.28125 343.324219 204.378906 341.6875 207.269531 C 339.707031 210.765625 337.445312 214.007812 335.066406 217.234375 C 335.097656 217.117188 335.136719 216.996094 335.175781 216.867188 C 335.476562 216.566406 335.757812 216.195312 336.015625 215.785156 C 336.6875 214.726562 337.238281 213.4375 337.738281 212.65625 C 339.367188 210.128906 340.945312 207.617188 342.335938 204.949219 C 343.316406 203.050781 344.074219 201.191406 345.496094 199.648438 C 345.933594 199.351562 346.394531 199.058594 346.875 198.78125 C 346.894531 198.769531 346.90625 198.769531 346.914062 198.761719 Z M 348.054688 197.960938 C 344.546875 204.089844 341.347656 210.378906 336.636719 215.6875 C 336.226562 216.144531 335.867188 216.644531 335.488281 217.125 C 337.796875 213.976562 339.988281 210.808594 341.925781 207.398438 C 343.753906 204.167969 345.304688 200.699219 347.933594 198.050781 C 347.972656 198.019531 348.015625 197.992188 348.054688 197.960938 Z M 346.335938 207.039062 C 344.546875 211.078125 341.445312 214.394531 337.6875 216.804688 C 338.445312 216.125 339.125 215.347656 339.894531 214.554688 C 341.816406 212.578125 344.535156 209.847656 346.335938 207.039062 Z M 348.515625 197.699219 C 348.496094 197.878906 348.472656 198.089844 348.445312 198.332031 C 348.425781 198.449219 348.414062 198.570312 348.394531 198.691406 C 347.585938 201.21875 346.164062 202.820312 344.65625 205.167969 C 342.925781 207.867188 341.335938 210.6875 339.347656 213.207031 C 338.375 214.425781 337.277344 215.566406 336.175781 216.695312 C 336.398438 216.414062 336.617188 216.136719 336.855469 215.867188 C 341.816406 210.246094 345.113281 203.539062 348.875 197.082031 Z M 344.613281 200.300781 C 343.585938 201.679688 342.914062 203.238281 342.097656 204.839844 C 340.714844 207.507812 339.136719 210.007812 337.515625 212.527344 C 337.015625 213.308594 336.46875 214.597656 335.796875 215.65625 C 335.675781 215.847656 335.558594 216.027344 335.425781 216.195312 C 336.226562 214.386719 337.226562 212.675781 338.117188 210.917969 C 339.867188 207.40625 341.566406 203.929688 343.964844 200.839844 C 344.175781 200.648438 344.394531 200.46875 344.613281 200.300781 Z M 342.753906 202.03125 C 340.847656 204.777344 339.386719 207.769531 337.867188 210.777344 C 337.226562 212.035156 336.539062 213.277344 335.898438 214.546875 C 337.425781 209.988281 339.585938 205.5 342.753906 202.03125 Z M 315.84375 191.183594 C 317.582031 192.59375 319.742188 193.410156 321.640625 194.570312 C 325.171875 196.710938 328.339844 199.421875 330.917969 202.648438 C 331.410156 203.269531 332.019531 203.859375 332.527344 204.5 C 332.546875 204.539062 332.578125 204.570312 332.597656 204.609375 C 332.507812 204.507812 332.417969 204.417969 332.328125 204.320312 C 331.660156 203.589844 330.957031 202.898438 330.257812 202.199219 C 327.480469 199.441406 324.480469 197.082031 321.199219 194.929688 C 319.441406 193.773438 317.332031 192.742188 315.84375 191.183594 Z M 325.121094 195.359375 C 325.648438 195.640625 326.148438 195.941406 326.601562 196.242188 C 328.527344 197.570312 330.5 200.21875 331.699219 202.230469 C 332 202.730469 332.296875 203.25 332.578125 203.800781 C 332.027344 202.917969 331.386719 202.089844 330.789062 201.269531 C 329.210938 199.140625 327.308594 197.011719 325.121094 195.359375 Z M 318.140625 195.042969 C 318.851562 195.679688 319.589844 196.292969 320.351562 196.859375 C 322.242188 198.289062 324.410156 199.441406 326.429688 200.667969 C 327.691406 201.441406 328.910156 202.230469 330.089844 203.121094 C 329.4375 202.769531 328.789062 202.417969 328.160156 202.03125 C 326.640625 201.078125 325.191406 200.011719 323.640625 199.109375 C 322.589844 198.5 321.441406 198.082031 320.382812 197.460938 C 320.113281 197.210938 319.851562 196.960938 319.589844 196.679688 C 319.082031 196.140625 318.589844 195.589844 318.140625 195.042969 Z M 316.453125 192.710938 C 316.691406 192.980469 316.941406 193.242188 317.203125 193.460938 C 317.972656 194.140625 318.851562 194.722656 319.671875 195.339844 C 322.101562 197.199219 324.628906 198.890625 327.179688 200.578125 C 328.179688 201.25 329.117188 201.960938 330.027344 202.71875 C 328.910156 201.898438 327.769531 201.160156 326.578125 200.429688 C 324.558594 199.199219 322.410156 198.050781 320.519531 196.632812 C 319.339844 195.742188 318.210938 194.761719 317.140625 193.722656 C 316.902344 193.402344 316.671875 193.0625 316.453125 192.710938 Z M 315.941406 191.652344 C 317.421875 193.0625 319.390625 194.050781 321.050781 195.140625 C 324.308594 197.28125 327.300781 199.621094 330.058594 202.378906 C 330.140625 202.460938 330.21875 202.539062 330.296875 202.609375 C 329.347656 201.808594 328.371094 201.058594 327.320312 200.359375 C 324.78125 198.660156 322.25 196.980469 319.820312 195.132812 C 319.011719 194.511719 318.132812 193.941406 317.371094 193.261719 C 316.871094 192.8125 316.382812 192.253906 315.941406 191.652344 Z M 321.609375 193.730469 C 322.210938 193.992188 322.820312 194.25 323.410156 194.519531 C 326.238281 196.242188 328.640625 198.839844 330.546875 201.417969 C 330.679688 201.601562 330.808594 201.769531 330.949219 201.949219 C 330.867188 201.851562 330.796875 201.757812 330.71875 201.667969 C 328.230469 198.570312 325.03125 195.832031 321.609375 193.730469 Z M 321.3125 198.25 C 322.050781 198.609375 322.800781 198.929688 323.511719 199.339844 C 324.800781 200.078125 326.019531 200.949219 327.257812 201.757812 C 325.128906 200.710938 323.121094 199.691406 321.3125 198.25 Z M 315.210938 190.242188 C 315.851562 190.753906 316.503906 191.230469 317.191406 191.652344 C 317.191406 191.652344 317.183594 191.664062 317.183594 191.664062 C 317.152344 191.730469 317.171875 191.8125 317.242188 191.84375 C 318.460938 192.460938 319.730469 192.921875 320.910156 193.621094 C 323.601562 195.203125 326.167969 197.199219 328.390625 199.460938 C 326.390625 197.5 324.160156 195.78125 321.761719 194.332031 C 319.652344 193.050781 317.210938 192.183594 315.402344 190.441406 C 315.34375 190.382812 315.28125 190.3125 315.210938 190.242188 Z M 338.796875 174.335938 C 338.738281 174.816406 338.65625 175.296875 338.515625 175.757812 C 338.316406 176.40625 337.957031 176.984375 337.796875 177.644531 C 336.878906 181.503906 335.90625 185.394531 334.667969 189.164062 C 334.296875 190.300781 333.859375 191.414062 333.40625 192.523438 C 333.347656 192.671875 333.277344 192.832031 333.207031 192.980469 C 333.46875 192.222656 333.578125 191.414062 333.769531 190.640625 C 334.167969 189.011719 334.597656 187.402344 334.996094 185.773438 C 335.65625 183.085938 336.316406 180.355469 337.246094 177.746094 C 337.605469 176.734375 338.148438 175.757812 338.585938 174.777344 C 338.667969 174.617188 338.726562 174.476562 338.796875 174.335938 Z M 337.238281 177.054688 C 337.15625 177.253906 337.078125 177.445312 337.007812 177.644531 C 336.078125 180.265625 335.417969 183.003906 334.746094 185.703125 C 334.347656 187.332031 333.917969 188.941406 333.519531 190.574219 C 333.417969 190.960938 333.347656 191.371094 333.257812 191.773438 C 333.367188 190.972656 333.457031 190.171875 333.609375 189.382812 C 333.988281 187.394531 334.539062 185.433594 334.9375 183.445312 C 335.265625 181.792969 335.476562 179.824219 336.328125 178.316406 C 336.628906 177.894531 336.925781 177.484375 337.238281 177.054688 Z M 339.027344 180.914062 C 338.65625 183.714844 337.695312 186.363281 336.246094 188.792969 C 335.699219 189.710938 335.066406 190.664062 334.449219 191.652344 C 334.699219 191.09375 334.949219 190.53125 335.207031 189.984375 C 336.058594 188.242188 336.878906 186.503906 337.636719 184.714844 C 338.175781 183.464844 338.667969 182.203125 339.027344 180.914062 Z M 339.007812 174.785156 L 339.027344 174.945312 C 339.035156 175.375 339.027344 175.816406 338.988281 176.246094 C 338.886719 177.246094 338.566406 178.15625 338.328125 179.117188 C 338.007812 180.34375 337.746094 181.605469 337.355469 182.824219 C 337.027344 183.84375 336.585938 184.8125 336.246094 185.832031 C 335.699219 187.503906 335.078125 189.144531 334.398438 190.753906 C 334.585938 190.253906 334.757812 189.753906 334.925781 189.242188 C 336.167969 185.464844 337.136719 181.566406 338.066406 177.707031 C 338.226562 177.054688 338.585938 176.476562 338.777344 175.835938 C 338.886719 175.484375 338.957031 175.125 339.007812 174.765625 Z M 335.515625 179.523438 C 335.109375 180.785156 334.917969 182.164062 334.675781 183.382812 C 334.277344 185.375 333.726562 187.332031 333.347656 189.324219 C 333.296875 189.574219 333.257812 189.824219 333.21875 190.082031 C 333.378906 187.09375 333.539062 184.164062 334.648438 181.265625 C 334.886719 180.636719 335.1875 180.066406 335.515625 179.523438 Z M 339.175781 176.847656 C 339.207031 177.554688 339.214844 178.265625 339.195312 178.976562 C 338.875 180.925781 338.1875 182.773438 337.398438 184.613281 C 336.765625 186.082031 336.105469 187.511719 335.417969 188.953125 C 335.808594 187.953125 336.167969 186.945312 336.507812 185.914062 C 336.847656 184.902344 337.285156 183.925781 337.617188 182.90625 C 338.007812 181.683594 338.277344 180.425781 338.585938 179.183594 C 338.785156 178.394531 339.035156 177.636719 339.175781 176.847656 Z M 327.398438 164.410156 C 327.550781 166.617188 327.238281 168.976562 326.449219 170.925781 C 325.839844 172.4375 325.089844 173.957031 324.460938 175.507812 C 324.519531 175.265625 324.589844 175.035156 324.671875 174.816406 C 325.800781 171.667969 327.128906 168.328125 327.371094 164.957031 C 327.378906 164.777344 327.390625 164.589844 327.398438 164.410156 Z M 324.359375 163.890625 C 324.21875 164.789062 324.230469 165.71875 324.210938 166.648438 C 324.191406 167.886719 324.089844 169.148438 324.148438 170.386719 C 324.179688 171.078125 324.230469 171.789062 324.25 172.488281 C 324.140625 173.308594 324.03125 174.136719 323.910156 174.957031 C 323.910156 174.945312 323.910156 174.925781 323.910156 174.917969 C 323.921875 173.527344 323.710938 172.167969 323.621094 170.789062 C 323.480469 168.777344 323.5 166.679688 323.96875 164.710938 C 324.101562 164.429688 324.230469 164.160156 324.359375 163.890625 Z M 323.410156 166.417969 C 323.242188 167.878906 323.261719 169.359375 323.359375 170.796875 C 323.449219 172.066406 323.628906 173.328125 323.652344 174.597656 C 323.332031 171.867188 322.820312 169.199219 323.410156 166.417969 Z M 326.828125 161.121094 C 326.898438 161.390625 326.960938 161.628906 327.007812 161.851562 C 327.128906 162.871094 327.179688 163.890625 327.109375 164.949219 C 326.871094 168.25 325.589844 171.507812 324.46875 174.597656 C 324.492188 174.4375 324.5 174.277344 324.511719 174.105469 C 324.660156 173.445312 324.832031 172.785156 324.988281 172.128906 C 325.46875 170.199219 326.140625 168.289062 326.480469 166.320312 C 326.757812 164.609375 326.929688 162.847656 326.828125 161.121094 Z M 326.390625 159.640625 L 326.398438 159.671875 C 326.738281 161.851562 326.578125 164.097656 326.210938 166.269531 C 325.878906 168.226562 325.210938 170.128906 324.730469 172.058594 C 324.671875 172.316406 324.601562 172.578125 324.53125 172.835938 C 324.53125 172.726562 324.53125 172.617188 324.519531 172.507812 C 324.871094 169.917969 325.199219 167.328125 325.578125 164.75 C 325.699219 163.949219 325.789062 163.140625 325.929688 162.339844 C 326.101562 161.449219 326.308594 160.539062 326.378906 159.621094 Z M 326.050781 160.238281 C 325.949219 160.929688 325.800781 161.609375 325.679688 162.289062 C 325.53125 163.089844 325.441406 163.898438 325.320312 164.710938 C 325.011719 166.796875 324.738281 168.898438 324.460938 170.988281 C 324.449219 170.777344 324.441406 170.578125 324.429688 170.367188 C 324.371094 169.136719 324.46875 167.878906 324.492188 166.636719 C 324.511719 165.378906 324.480469 164.097656 324.871094 162.917969 C 325.128906 162.417969 325.378906 161.917969 325.601562 161.398438 C 325.75 161.019531 325.910156 160.640625 326.050781 160.238281 Z M 315.492188 169.546875 C 315.511719 169.566406 315.523438 169.578125 315.542969 169.597656 C 315.621094 169.699219 315.703125 169.808594 315.78125 169.90625 C 315.792969 169.917969 315.800781 169.925781 315.8125 169.9375 C 315.824219 169.957031 315.832031 169.976562 315.84375 169.988281 C 315.703125 169.859375 315.5625 169.738281 315.414062 169.617188 C 315.433594 169.609375 315.453125 169.597656 315.472656 169.585938 C 315.484375 169.578125 315.492188 169.566406 315.492188 169.546875 Z M 307.816406 160.539062 C 309.164062 161.460938 310.472656 162.398438 311.644531 163.578125 C 312.574219 164.527344 313.304688 165.71875 314.042969 166.808594 C 314.511719 167.507812 314.972656 168.238281 315.414062 168.976562 L 315.382812 168.9375 C 314.953125 168.398438 314.503906 167.878906 314.054688 167.359375 C 313.773438 167.019531 313.484375 166.679688 313.203125 166.339844 C 311.863281 164.71875 310.664062 163.128906 309.125 161.691406 C 308.703125 161.308594 308.265625 160.921875 307.816406 160.539062 Z M 301.394531 157.921875 C 303.074219 160.378906 305.214844 162.488281 307.625 164.257812 C 309.125 165.347656 310.671875 166.417969 312.214844 167.457031 C 312.742188 167.808594 313.28125 168.167969 313.78125 168.566406 C 313.511719 168.417969 313.234375 168.277344 312.953125 168.148438 C 312.691406 167.988281 312.433594 167.828125 312.171875 167.667969 C 310.105469 166.457031 308.15625 165.039062 306.292969 163.539062 C 305.296875 162.730469 304.207031 161.960938 303.367188 160.980469 C 302.90625 160.339844 302.464844 159.679688 302.035156 159.019531 C 301.816406 158.652344 301.605469 158.289062 301.394531 157.921875 Z M 302.375 158.808594 C 304.316406 160.890625 306.683594 162.558594 309.023438 164.25 C 310.445312 165.269531 311.785156 166.457031 313.082031 167.628906 C 313.28125 167.808594 313.484375 167.976562 313.691406 168.15625 C 313.261719 167.839844 312.8125 167.539062 312.363281 167.238281 C 310.824219 166.207031 309.273438 165.140625 307.773438 164.050781 C 305.746094 162.550781 303.90625 160.800781 302.375 158.808594 Z M 301.144531 156.902344 C 301.796875 157.492188 302.476562 158.03125 303.144531 158.601562 C 304.886719 160.082031 306.574219 161.578125 308.363281 163 C 309.59375 163.980469 310.855469 164.988281 311.984375 166.078125 C 312.582031 166.660156 313.164062 167.25 313.753906 167.839844 C 313.59375 167.699219 313.433594 167.558594 313.273438 167.417969 C 311.964844 166.25 310.625 165.050781 309.183594 164.019531 C 306.246094 161.917969 303.253906 159.832031 301.144531 156.902344 Z M 300.695312 156.109375 C 301.347656 156.480469 302.007812 156.839844 302.625 157.28125 C 304.664062 158.761719 306.484375 160.511719 308.363281 162.179688 C 310.265625 163.859375 312.144531 165.628906 313.832031 167.539062 L 313.863281 167.578125 C 313.304688 167.007812 312.734375 166.4375 312.164062 165.878906 C 311.023438 164.777344 309.753906 163.769531 308.523438 162.78125 C 306.734375 161.359375 305.054688 159.859375 303.316406 158.378906 C 302.4375 157.652344 301.515625 156.929688 300.695312 156.109375 Z M 304.554688 162.480469 C 305.074219 162.910156 305.613281 163.320312 306.136719 163.738281 C 307.664062 164.96875 309.253906 166.148438 310.914062 167.199219 C 310.183594 166.867188 309.445312 166.507812 308.722656 166.078125 C 307.09375 165.117188 305.746094 163.878906 304.554688 162.480469 Z M 304.714844 158.582031 C 304.945312 158.710938 305.175781 158.839844 305.40625 158.96875 C 306.605469 159.878906 307.863281 160.890625 308.933594 161.890625 C 309.902344 162.800781 310.742188 163.777344 311.5625 164.777344 C 310.582031 163.820312 309.5625 162.890625 308.535156 161.980469 C 307.265625 160.851562 306.015625 159.679688 304.714844 158.582031 Z M 314.761719 142.132812 C 314.753906 143.472656 314.832031 144.824219 314.992188 146.164062 C 315.234375 148.191406 315.5625 150.171875 315.933594 152.203125 C 316.09375 153.070312 316.253906 153.960938 316.3125 154.851562 C 315.972656 153.570312 315.472656 152.3125 315.164062 150.953125 C 314.503906 148.101562 314.351562 145.074219 314.761719 142.132812 Z M 318.140625 140.515625 C 318.683594 143.554688 318.722656 146.761719 318.160156 149.710938 C 317.890625 151.121094 317.480469 152.492188 317.070312 153.871094 C 317.273438 152.570312 317.433594 151.273438 317.59375 149.972656 C 317.972656 146.792969 318.320312 143.664062 318.140625 140.515625 Z M 317.621094 138.226562 C 317.621094 138.234375 317.632812 138.246094 317.632812 138.253906 C 318.222656 142.175781 317.792969 146.015625 317.320312 149.941406 C 317.171875 151.191406 317.011719 152.433594 316.820312 153.683594 C 316.8125 153.542969 316.792969 153.402344 316.773438 153.273438 C 316.902344 152.101562 317.09375 150.921875 317.203125 149.761719 C 317.472656 146.921875 317.5625 144.085938 317.632812 141.226562 C 317.660156 140.136719 317.683594 139.175781 317.621094 138.226562 Z M 315.203125 139.816406 C 315.191406 142.363281 315.421875 144.914062 315.792969 147.402344 C 315.992188 148.753906 315.984375 150.261719 316.210938 151.613281 C 316.273438 151.941406 316.332031 152.261719 316.390625 152.570312 C 316.390625 152.792969 316.390625 153.011719 316.382812 153.230469 C 316.324219 152.871094 316.261719 152.523438 316.191406 152.164062 C 315.824219 150.132812 315.492188 148.152344 315.253906 146.132812 C 315.011719 144.144531 314.953125 142.164062 315.121094 140.164062 C 315.144531 140.085938 315.152344 140.015625 315.171875 139.945312 C 315.183594 139.90625 315.191406 139.855469 315.203125 139.816406 Z M 316.042969 133.375 C 316.851562 137.054688 316.890625 140.925781 316.8125 144.652344 C 316.773438 146.703125 316.742188 148.722656 316.621094 150.761719 C 316.621094 150.640625 316.613281 150.53125 316.613281 150.414062 C 316.582031 148.53125 316.523438 146.683594 316.414062 144.804688 C 316.203125 141.394531 316.113281 136.835938 316.042969 133.375 Z M 315.824219 135.746094 C 315.890625 138.753906 315.984375 142.144531 316.140625 144.824219 C 316.253906 146.695312 316.3125 148.542969 316.34375 150.414062 C 316.34375 150.492188 316.34375 150.574219 316.34375 150.652344 C 316.230469 149.5625 316.203125 148.402344 316.042969 147.351562 C 315.601562 144.375 315.363281 141.273438 315.503906 138.226562 C 315.640625 137.414062 315.742188 136.574219 315.824219 135.746094 Z M 316.59375 134.867188 C 316.8125 135.546875 317.011719 136.226562 317.230469 136.90625 C 317.421875 138.335938 317.402344 139.636719 317.363281 141.203125 C 317.292969 144.003906 317.210938 146.792969 316.953125 149.574219 C 317.023438 147.933594 317.050781 146.304688 317.082031 144.652344 C 317.140625 141.433594 317.121094 138.085938 316.59375 134.867188 Z M 316.59375 134.867188 " fill-opacity="1" fill-rule="evenodd"/></g><g fill="#e8ecd7" fill-opacity="1"><g transform="translate(78.577912, 305.95505)"><g><path d="M 17.171875 -1.421875 C 18.023438 -3.265625 17.625 -4.820312 15.96875 -6.09375 C 14.925781 -6.882812 13.773438 -7.09375 12.515625 -6.71875 C 11.253906 -6.34375 10.050781 -5.40625 8.90625 -3.90625 C 7.832031 -2.507812 7.269531 -1.160156 7.21875 0.140625 C 7.164062 1.453125 7.675781 2.519531 8.75 3.34375 C 10.375 4.59375 12.035156 4.503906 13.734375 3.078125 L 16.59375 5.25 C 15.3125 6.5 13.78125 7.222656 12 7.421875 C 10.226562 7.617188 8.492188 7.066406 6.796875 5.765625 C 4.890625 4.304688 3.851562 2.519531 3.6875 0.40625 C 3.519531 -1.707031 4.300781 -3.894531 6.03125 -6.15625 C 7.675781 -8.320312 9.566406 -9.640625 11.703125 -10.109375 C 13.847656 -10.578125 15.890625 -10.066406 17.828125 -8.578125 C 19.535156 -7.273438 20.5625 -5.765625 20.90625 -4.046875 C 21.25 -2.328125 20.957031 -0.726562 20.03125 0.75 Z M 17.171875 -1.421875 "/></g></g></g><g fill="#e8ecd7" fill-opacity="1"><g transform="translate(99.638592, 321.242568)"><g><path d="M 8.109375 -5.390625 C 7.160156 -3.628906 6.835938 -2.09375 7.140625 -0.78125 C 7.453125 0.519531 8.207031 1.492188 9.40625 2.140625 C 10.601562 2.785156 11.828125 2.851562 13.078125 2.34375 C 14.335938 1.84375 15.425781 0.738281 16.34375 -0.96875 C 17.25 -2.664062 17.570312 -4.171875 17.3125 -5.484375 C 17.050781 -6.796875 16.300781 -7.785156 15.0625 -8.453125 C 13.8125 -9.128906 12.566406 -9.210938 11.328125 -8.703125 C 10.097656 -8.203125 9.023438 -7.097656 8.109375 -5.390625 Z M 4.953125 -7.09375 C 6.347656 -9.6875 8.082031 -11.296875 10.15625 -11.921875 C 12.238281 -12.554688 14.34375 -12.300781 16.46875 -11.15625 C 18.601562 -10.007812 19.992188 -8.394531 20.640625 -6.3125 C 21.285156 -4.238281 20.90625 -1.890625 19.5 0.734375 C 18.113281 3.296875 16.375 4.898438 14.28125 5.546875 C 12.195312 6.203125 10.078125 5.953125 7.921875 4.796875 C 5.878906 3.691406 4.503906 2.109375 3.796875 0.046875 C 3.097656 -2.003906 3.484375 -4.382812 4.953125 -7.09375 Z M 4.953125 -7.09375 "/></g></g></g><g fill="#e8ecd7" fill-opacity="1"><g transform="translate(123.943105, 333.493995)"><g><path d="M 17.359375 -12.15625 L 20.515625 -11.0625 L 14.875 5.171875 L 11.5 4 L 8.90625 -9.890625 L 8.859375 -9.90625 L 4.828125 1.671875 L 1.65625 0.578125 L 7.296875 -15.65625 L 10.875 -14.40625 L 13.390625 -0.859375 L 13.4375 -0.84375 Z M 17.359375 -12.15625 "/></g></g></g><g fill="#e8ecd7" fill-opacity="1"><g transform="translate(148.865016, 341.402972)"><g><path d="M 5.328125 -4.390625 C 5.171875 -3.554688 5.351562 -2.832031 5.875 -2.21875 C 6.40625 -1.613281 7.242188 -1.207031 8.390625 -1 C 9.546875 -0.789062 10.457031 -0.8125 11.125 -1.0625 C 11.800781 -1.320312 12.207031 -1.816406 12.34375 -2.546875 C 12.425781 -2.972656 12.335938 -3.367188 12.078125 -3.734375 C 11.828125 -4.109375 11.140625 -4.546875 10.015625 -5.046875 L 7.28125 -6.234375 C 5.539062 -6.992188 4.410156 -7.804688 3.890625 -8.671875 C 3.378906 -9.535156 3.242188 -10.617188 3.484375 -11.921875 C 3.765625 -13.441406 4.535156 -14.585938 5.796875 -15.359375 C 7.054688 -16.128906 8.769531 -16.316406 10.9375 -15.921875 C 13.09375 -15.515625 14.625 -14.664062 15.53125 -13.375 C 16.445312 -12.082031 16.773438 -10.703125 16.515625 -9.234375 L 13.125 -9.859375 C 13.195312 -10.703125 12.988281 -11.390625 12.5 -11.921875 C 12.019531 -12.460938 11.234375 -12.835938 10.140625 -13.046875 C 9.253906 -13.203125 8.507812 -13.148438 7.90625 -12.890625 C 7.300781 -12.628906 6.941406 -12.1875 6.828125 -11.5625 C 6.742188 -11.125 6.789062 -10.742188 6.96875 -10.421875 C 7.15625 -10.097656 7.503906 -9.820312 8.015625 -9.59375 L 12.34375 -7.65625 C 13.894531 -6.945312 14.910156 -6.160156 15.390625 -5.296875 C 15.867188 -4.441406 16.003906 -3.453125 15.796875 -2.328125 C 15.453125 -0.484375 14.554688 0.78125 13.109375 1.46875 C 11.671875 2.15625 10.007812 2.320312 8.125 1.96875 C 5.6875 1.519531 3.96875 0.664062 2.96875 -0.59375 C 1.976562 -1.851562 1.640625 -3.328125 1.953125 -5.015625 Z M 5.328125 -4.390625 "/></g></g></g><g fill="#e8ecd7" fill-opacity="1"><g transform="translate(173.239988, 345.293474)"><g><path d="M 15.734375 -5.5 C 15.671875 -3.394531 15.035156 -1.8125 13.828125 -0.75 C 12.617188 0.3125 10.835938 0.800781 8.484375 0.71875 C 6.410156 0.65625 4.773438 0.078125 3.578125 -1.015625 C 2.378906 -2.117188 1.8125 -3.707031 1.875 -5.78125 L 2.234375 -17.125 L 5.90625 -17 L 5.546875 -5.859375 C 5.515625 -4.734375 5.765625 -3.867188 6.296875 -3.265625 C 6.835938 -2.660156 7.625 -2.335938 8.65625 -2.296875 C 9.695312 -2.265625 10.519531 -2.515625 11.125 -3.046875 C 11.738281 -3.578125 12.0625 -4.394531 12.09375 -5.5 L 12.453125 -16.796875 L 16.09375 -16.671875 Z M 15.734375 -5.5 "/></g></g></g><g fill="#e8ecd7" fill-opacity="1"><g transform="translate(199.064318, 345.388345)"><g><path d="M 4.953125 -3.703125 L 13.4375 -4.671875 L 13.796875 -1.578125 L 1.734375 -0.203125 L -0.203125 -17.28125 L 3.375 -17.6875 Z M 4.953125 -3.703125 "/></g></g></g><g fill="#e8ecd7" fill-opacity="1"><g transform="translate(221.640455, 342.243585)"><g><path d="M 8.84375 -2.265625 L 5.375 -1.375 L 1.875 -15.078125 L -3.171875 -13.78125 L -3.9375 -16.734375 L 9.609375 -20.203125 L 10.375 -17.25 L 5.34375 -15.96875 Z M 8.84375 -2.265625 "/></g></g></g><g fill="#e8ecd7" fill-opacity="1"><g transform="translate(243.692817, 335.890165)"><g><path d="M 4.984375 -1.90625 L 1.640625 -0.625 L -4.5 -16.6875 L -1.15625 -17.96875 Z M 4.984375 -1.90625 "/></g></g></g><g fill="#e8ecd7" fill-opacity="1"><g transform="translate(258.077708, 330.186401)"><g><path d="M 2.890625 -20.984375 L 5.84375 -22.5625 L 13.90625 -7.390625 L 10.75 -5.703125 L -1.203125 -13.25 L -1.234375 -13.21875 L 4.515625 -2.390625 L 1.546875 -0.828125 L -6.515625 -16 L -3.15625 -17.78125 L 8.46875 -10.40625 L 8.5 -10.421875 Z M 2.890625 -20.984375 "/></g></g></g><g fill="#e8ecd7" fill-opacity="1"><g transform="translate(280.93438, 317.304638)"><g><path d="M 2.296875 -13.359375 L 8 -17.6875 L 13.59375 -10.296875 L 11.6875 -8.859375 L 10.109375 -10.359375 C 10.109375 -8.171875 9.195312 -6.390625 7.375 -5.015625 C 5.53125 -3.617188 3.523438 -3.128906 1.359375 -3.546875 C -0.796875 -3.972656 -2.691406 -5.269531 -4.328125 -7.4375 C -5.972656 -9.601562 -6.695312 -11.804688 -6.5 -14.046875 C -6.3125 -16.296875 -5.1875 -18.203125 -3.125 -19.765625 C -1.351562 -21.109375 0.394531 -21.734375 2.125 -21.640625 C 3.863281 -21.554688 5.285156 -20.914062 6.390625 -19.71875 L 3.546875 -17.5625 C 2.847656 -18.101562 2.066406 -18.367188 1.203125 -18.359375 C 0.347656 -18.347656 -0.441406 -18.066406 -1.171875 -17.515625 C -2.390625 -16.585938 -3.019531 -15.421875 -3.0625 -14.015625 C -3.101562 -12.609375 -2.546875 -11.144531 -1.390625 -9.625 C -0.242188 -8.113281 0.972656 -7.203125 2.265625 -6.890625 C 3.566406 -6.585938 4.875 -6.9375 6.1875 -7.9375 C 6.925781 -8.488281 7.421875 -9.238281 7.671875 -10.1875 C 7.921875 -11.132812 7.773438 -12.226562 7.234375 -13.46875 L 4.046875 -11.046875 Z M 2.296875 -13.359375 "/></g></g></g></svg>