<svg xmlns="http://www.w3.org/2000/svg" xmlns:xlink="http://www.w3.org/1999/xlink" width="500" zoomAndPan="magnify" viewBox="0 0 375 374.999991" height="500" preserveAspectRatio="xMidYMid meet" version="1.0"><defs><g/><clipPath id="f998faa349"><path d="M 127.101562 134.070312 L 247.851562 134.070312 L 247.851562 239.820312 L 127.101562 239.820312 Z M 127.101562 134.070312 " clip-rule="nonzero"/></clipPath><clipPath id="4bd5f6c133"><path d="M 86.203125 151.796875 L 117.703125 151.796875 L 117.703125 222.296875 L 86.203125 222.296875 Z M 86.203125 151.796875 " clip-rule="nonzero"/></clipPath><clipPath id="a0c2a7a7ca"><path d="M 257.4375 151.796875 L 288.785156 151.796875 L 288.785156 222.296875 L 257.4375 222.296875 Z M 257.4375 151.796875 " clip-rule="nonzero"/></clipPath></defs><rect x="-37.5" width="450" fill="#ffffff" y="-37.499999" height="449.999989" fill-opacity="1"/><rect x="-37.5" width="450" fill="#1f4529" y="-37.499999" height="449.999989" fill-opacity="1"/><g fill="#e8ecd7" fill-opacity="1"><g transform="translate(107.726781, 139.303751)"><g><path d="M 0.046875 -9.453125 L 3.484375 -13.09375 L 8.1875 -8.65625 L 7.03125 -7.4375 L 5.765625 -8.28125 C 6.023438 -6.78125 5.601562 -5.445312 4.5 -4.28125 C 3.394531 -3.125 2.070312 -2.566406 0.53125 -2.609375 C -1 -2.648438 -2.457031 -3.320312 -3.84375 -4.625 C -5.21875 -5.9375 -5.96875 -7.367188 -6.09375 -8.921875 C -6.226562 -10.484375 -5.671875 -11.925781 -4.421875 -13.25 C -3.359375 -14.375 -2.222656 -15.003906 -1.015625 -15.140625 C 0.191406 -15.273438 1.242188 -14.988281 2.140625 -14.28125 L 0.4375 -12.46875 C -0.101562 -12.78125 -0.671875 -12.878906 -1.265625 -12.765625 C -1.859375 -12.660156 -2.375 -12.378906 -2.8125 -11.921875 C -3.550781 -11.140625 -3.851562 -10.265625 -3.71875 -9.296875 C -3.582031 -8.328125 -3.03125 -7.382812 -2.0625 -6.46875 C -1.101562 -5.5625 -0.160156 -5.070312 0.765625 -5 C 1.703125 -4.9375 2.5625 -5.320312 3.34375 -6.15625 C 3.789062 -6.625 4.046875 -7.195312 4.109375 -7.875 C 4.179688 -8.5625 3.957031 -9.296875 3.4375 -10.078125 L 1.53125 -8.0625 Z M 0.046875 -9.453125 "/></g></g></g><g fill="#e8ecd7" fill-opacity="1"><g transform="translate(119.925254, 127.165803)"><g><path d="M 2.890625 -2.359375 L 0.9375 -0.765625 L -6.65625 -10.03125 L -4.703125 -11.625 Z M 2.890625 -2.359375 "/></g></g></g><g fill="#e8ecd7" fill-opacity="1"><g transform="translate(127.050101, 121.394052)"><g><path d="M 1.234375 -6.171875 L 3.8125 -7.8125 L 0.015625 -11.015625 L 0 -11 Z M 2.40625 -1.515625 L 0.171875 -0.109375 L -2.625 -12.53125 L -0.171875 -14.078125 L 9.796875 -6.203125 L 7.5 -4.75 L 5.515625 -6.421875 L 1.78125 -4.046875 Z M 2.40625 -1.515625 "/></g></g></g><g fill="#e8ecd7" fill-opacity="1"><g transform="translate(140.551417, 113.187258)"><g><path d="M 3.15625 -14.4375 L 5.3125 -15.375 L 10.09375 -4.390625 L 7.78125 -3.390625 L -0.125 -9.296875 L -0.15625 -9.28125 L 3.265625 -1.421875 L 1.125 -0.484375 L -3.65625 -11.46875 L -1.234375 -12.53125 L 6.453125 -6.78125 L 6.484375 -6.796875 Z M 3.15625 -14.4375 "/></g></g></g><g fill="#e8ecd7" fill-opacity="1"><g transform="translate(155.601574, 107.045328)"><g><path d="M 6.15625 -1.65625 L 3.734375 -1 L 1.171875 -10.53125 L -2.328125 -9.59375 L -2.875 -11.640625 L 6.546875 -14.171875 L 7.09375 -12.125 L 3.59375 -11.1875 Z M 6.15625 -1.65625 "/></g></g></g><g fill="#e8ecd7" fill-opacity="1"><g transform="translate(169.707183, 103.665118)"><g/></g></g><g fill="#e8ecd7" fill-opacity="1"><g transform="translate(178.350982, 102.406098)"><g><path d="M 2.96875 -3.796875 C 2.988281 -3.210938 3.222656 -2.75 3.671875 -2.40625 C 4.117188 -2.070312 4.753906 -1.914062 5.578125 -1.9375 C 6.390625 -1.96875 7.003906 -2.125 7.421875 -2.40625 C 7.835938 -2.6875 8.039062 -3.082031 8.03125 -3.59375 C 8.019531 -3.894531 7.898438 -4.148438 7.671875 -4.359375 C 7.441406 -4.578125 6.910156 -4.773438 6.078125 -4.953125 L 4.03125 -5.34375 C 2.726562 -5.601562 1.832031 -5.988281 1.34375 -6.5 C 0.863281 -7.007812 0.609375 -7.726562 0.578125 -8.65625 C 0.546875 -9.738281 0.898438 -10.632812 1.640625 -11.34375 C 2.390625 -12.0625 3.53125 -12.445312 5.0625 -12.5 C 6.59375 -12.550781 7.765625 -12.203125 8.578125 -11.453125 C 9.398438 -10.703125 9.832031 -9.8125 9.875 -8.78125 L 7.46875 -8.703125 C 7.394531 -9.285156 7.148438 -9.722656 6.734375 -10.015625 C 6.328125 -10.304688 5.734375 -10.4375 4.953125 -10.40625 C 4.328125 -10.382812 3.828125 -10.238281 3.453125 -9.96875 C 3.078125 -9.695312 2.898438 -9.34375 2.921875 -8.90625 C 2.929688 -8.601562 3.019531 -8.351562 3.1875 -8.15625 C 3.363281 -7.957031 3.644531 -7.816406 4.03125 -7.734375 L 7.25 -7.0625 C 8.414062 -6.820312 9.226562 -6.441406 9.6875 -5.921875 C 10.15625 -5.410156 10.398438 -4.757812 10.421875 -3.96875 C 10.460938 -2.65625 10.039062 -1.65625 9.15625 -0.96875 C 8.28125 -0.289062 7.175781 0.0664062 5.84375 0.109375 C 4.113281 0.171875 2.8125 -0.144531 1.9375 -0.84375 C 1.0625 -1.550781 0.601562 -2.503906 0.5625 -3.703125 Z M 2.96875 -3.796875 "/></g></g></g><g fill="#e8ecd7" fill-opacity="1"><g transform="translate(193.595565, 102.191255)"><g><path d="M 6.734375 -5.671875 C 7.359375 -5.597656 7.835938 -5.691406 8.171875 -5.953125 C 8.515625 -6.210938 8.722656 -6.65625 8.796875 -7.28125 C 8.867188 -7.894531 8.742188 -8.347656 8.421875 -8.640625 C 8.109375 -8.941406 7.613281 -9.128906 6.9375 -9.203125 L 4.8125 -9.4375 L 4.421875 -5.921875 Z M 3.703125 0.421875 L 1.21875 0.140625 L 2.5625 -11.765625 L 8 -11.15625 C 9.132812 -11.03125 9.992188 -10.585938 10.578125 -9.828125 C 11.171875 -9.078125 11.398438 -8.109375 11.265625 -6.921875 C 11.148438 -5.898438 10.722656 -5.046875 9.984375 -4.359375 C 9.253906 -3.679688 8.269531 -3.414062 7.03125 -3.5625 L 4.1875 -3.875 Z M 3.703125 0.421875 "/></g></g></g><g fill="#e8ecd7" fill-opacity="1"><g transform="translate(208.533835, 104.148683)"><g><path d="M 8.125 -4.78125 C 8.75 -4.601562 9.25 -4.59375 9.625 -4.75 C 10.007812 -4.914062 10.273438 -5.285156 10.421875 -5.859375 C 10.546875 -6.316406 10.5 -6.71875 10.28125 -7.0625 C 10.070312 -7.414062 9.6875 -7.664062 9.125 -7.8125 L 6.109375 -8.625 L 5.28125 -5.53125 Z M 4.265625 -11.265625 L 10.125 -9.6875 C 11.320312 -9.375 12.144531 -8.8125 12.59375 -8 C 13.050781 -7.195312 13.160156 -6.347656 12.921875 -5.453125 C 12.554688 -4.109375 11.707031 -3.347656 10.375 -3.171875 C 10.875 -2.804688 11.175781 -2.394531 11.28125 -1.9375 C 11.382812 -1.488281 11.300781 -0.742188 11.03125 0.296875 C 10.75 1.316406 10.625 1.925781 10.65625 2.125 C 10.6875 2.332031 10.78125 2.492188 10.9375 2.609375 L 10.859375 2.90625 L 8.1875 2.203125 C 8.15625 1.628906 8.273438 0.851562 8.546875 -0.125 C 8.765625 -0.945312 8.847656 -1.492188 8.796875 -1.765625 C 8.753906 -2.035156 8.625 -2.257812 8.40625 -2.4375 C 8.1875 -2.613281 7.804688 -2.769531 7.265625 -2.90625 L 4.765625 -3.578125 L 3.546875 0.953125 L 1.171875 0.3125 Z M 4.265625 -11.265625 "/></g></g></g><g fill="#e8ecd7" fill-opacity="1"><g transform="translate(223.922962, 108.754936)"><g><path d="M 3.46875 1.390625 L 1.125 0.453125 L 5.609375 -10.65625 L 7.953125 -9.71875 Z M 3.46875 1.390625 "/></g></g></g><g fill="#e8ecd7" fill-opacity="1"><g transform="translate(232.402736, 112.214785)"><g><path d="M 13.375 -6.28125 L 15.421875 -5.140625 L 9.609375 5.34375 L 7.421875 4.125 L 7.296875 -5.734375 L 7.265625 -5.75 L 3.109375 1.734375 L 1.0625 0.59375 L 6.875 -9.890625 L 9.1875 -8.609375 L 9.3125 1 L 9.328125 1.015625 Z M 13.375 -6.28125 "/></g></g></g><g fill="#e8ecd7" fill-opacity="1"><g transform="translate(246.408731, 120.31877)"><g><path d="M 9.421875 -0.8125 L 13.359375 2.28125 L 9.359375 7.359375 L 8.046875 6.328125 L 8.765625 5 C 7.304688 5.382812 5.945312 5.082031 4.6875 4.09375 C 3.425781 3.09375 2.742188 1.828125 2.640625 0.296875 C 2.546875 -1.222656 3.085938 -2.734375 4.265625 -4.234375 C 5.441406 -5.722656 6.800781 -6.601562 8.34375 -6.875 C 9.882812 -7.144531 11.367188 -6.71875 12.796875 -5.59375 C 14.015625 -4.632812 14.742188 -3.5625 14.984375 -2.375 C 15.234375 -1.1875 15.046875 -0.113281 14.421875 0.84375 L 12.46875 -0.703125 C 12.726562 -1.265625 12.773438 -1.835938 12.609375 -2.421875 C 12.453125 -3.003906 12.125 -3.488281 11.625 -3.875 C 10.78125 -4.539062 9.878906 -4.757812 8.921875 -4.53125 C 7.960938 -4.3125 7.070312 -3.679688 6.25 -2.640625 C 5.4375 -1.597656 5.039062 -0.613281 5.0625 0.3125 C 5.082031 1.25 5.539062 2.070312 6.4375 2.78125 C 6.945312 3.1875 7.539062 3.390625 8.21875 3.390625 C 8.90625 3.390625 9.617188 3.097656 10.359375 2.515625 L 8.171875 0.78125 Z M 9.421875 -0.8125 "/></g></g></g><g fill="#e8ecd7" fill-opacity="1"><g transform="translate(259.553358, 131.155168)"><g><path d="M 4.8125 -0.25 C 4.382812 0.15625 4.1875 0.640625 4.21875 1.203125 C 4.257812 1.765625 4.5625 2.347656 5.125 2.953125 C 5.675781 3.546875 6.191406 3.90625 6.671875 4.03125 C 7.148438 4.164062 7.578125 4.0625 7.953125 3.71875 C 8.179688 3.507812 8.300781 3.25 8.3125 2.9375 C 8.332031 2.625 8.128906 2.09375 7.703125 1.34375 L 6.671875 -0.46875 C 6.015625 -1.613281 5.71875 -2.535156 5.78125 -3.234375 C 5.851562 -3.929688 6.234375 -4.597656 6.921875 -5.234375 C 7.710938 -5.960938 8.617188 -6.28125 9.640625 -6.1875 C 10.671875 -6.09375 11.707031 -5.484375 12.75 -4.359375 C 13.789062 -3.234375 14.296875 -2.117188 14.265625 -1.015625 C 14.234375 0.0859375 13.84375 0.992188 13.09375 1.703125 L 11.453125 -0.0625 C 11.847656 -0.5 12.019531 -0.96875 11.96875 -1.46875 C 11.925781 -1.976562 11.640625 -2.519531 11.109375 -3.09375 C 10.679688 -3.550781 10.238281 -3.828125 9.78125 -3.921875 C 9.332031 -4.023438 8.953125 -3.925781 8.640625 -3.625 C 8.410156 -3.414062 8.28125 -3.179688 8.25 -2.921875 C 8.21875 -2.671875 8.289062 -2.375 8.46875 -2.03125 L 10.09375 0.84375 C 10.664062 1.882812 10.90625 2.75 10.8125 3.4375 C 10.726562 4.125 10.394531 4.738281 9.8125 5.28125 C 8.851562 6.175781 7.828125 6.507812 6.734375 6.28125 C 5.640625 6.0625 4.640625 5.460938 3.734375 4.484375 C 2.554688 3.222656 1.945312 2.03125 1.90625 0.90625 C 1.875 -0.21875 2.296875 -1.191406 3.171875 -2.015625 Z M 4.8125 -0.25 "/></g></g></g><g clip-path="url(#f998faa349)"><path fill="#e8ecd7" d="M 132.757812 186.953125 L 160.121094 214.316406 L 157.289062 217.152344 L 127.101562 186.953125 L 157.300781 156.753906 L 160.136719 159.585938 Z M 196.941406 134.097656 L 200.710938 135.046875 L 178.058594 239.792969 L 174.285156 238.84375 Z M 217.699219 156.753906 L 247.898438 186.953125 L 217.699219 217.152344 L 214.863281 214.316406 L 242.226562 186.953125 L 214.863281 159.585938 Z M 217.699219 156.753906 " fill-opacity="1" fill-rule="nonzero"/></g><g clip-path="url(#4bd5f6c133)"><path fill="#e8ecd7" d="M 106.625 168.644531 C 106.59375 168.621094 106.578125 168.582031 106.570312 168.539062 C 106.550781 168.394531 106.546875 168.25 106.539062 168.109375 C 106.195312 166.496094 105.574219 164.949219 105.265625 163.332031 C 104.777344 160.746094 105.003906 157.847656 105.792969 155.347656 C 106.058594 154.507812 106.289062 153.667969 106.621094 152.847656 C 106.671875 152.714844 106.734375 152.476562 106.808594 152.269531 C 106.871094 152.101562 106.953125 151.957031 107.039062 151.875 C 107.097656 151.824219 107.148438 151.832031 107.183594 151.832031 C 107.234375 151.839844 107.273438 151.863281 107.304688 151.914062 C 107.316406 151.933594 107.328125 151.964844 107.328125 152.007812 C 107.328125 152.03125 107.320312 152.078125 107.320312 152.101562 C 107.316406 152.257812 107.308594 152.414062 107.304688 152.570312 C 107.285156 152.953125 107.289062 153.34375 107.320312 153.722656 C 107.421875 154.832031 107.527344 155.980469 107.792969 157.0625 C 108.34375 159.363281 108.324219 161.824219 107.796875 164.128906 C 107.554688 165.1875 107.117188 166.148438 106.941406 167.175781 L 106.941406 167.179688 C 107.109375 168.382812 107.222656 169.597656 107.253906 170.820312 C 107.277344 171.964844 107.226562 173.113281 107.066406 174.253906 C 107.007812 174.667969 106.933594 175.074219 106.847656 175.480469 C 107.179688 174.898438 107.527344 174.335938 107.890625 173.796875 C 108.367188 173.09375 108.832031 172.328125 109.433594 171.722656 C 110.417969 170.726562 111.550781 170.011719 112.683594 169.222656 C 113.167969 168.890625 113.707031 168.640625 114.199219 168.328125 C 114.746094 167.980469 115.265625 167.582031 115.816406 167.238281 C 116.15625 167.023438 116.480469 166.796875 116.8125 166.578125 C 116.914062 166.511719 117.007812 166.449219 117.101562 166.371094 C 117.140625 166.339844 117.1875 166.265625 117.226562 166.234375 C 117.265625 166.203125 117.300781 166.183594 117.328125 166.179688 C 117.382812 166.164062 117.425781 166.179688 117.464844 166.210938 C 117.496094 166.234375 117.535156 166.273438 117.539062 166.347656 C 117.550781 166.464844 117.503906 166.609375 117.421875 166.761719 C 117.328125 166.929688 117.1875 167.113281 117.121094 167.222656 C 116.730469 167.90625 116.386719 168.613281 115.96875 169.277344 C 114.832031 171.0625 113.523438 172.722656 111.667969 173.820312 C 110.5625 174.480469 109.394531 174.867188 108.382812 175.4375 C 107.464844 175.949219 106.675781 176.613281 106.183594 177.773438 C 105.582031 179.414062 104.765625 180.886719 103.839844 182.382812 C 102.171875 185.070312 100.125 187.835938 98.289062 191.851562 C 97.644531 193.257812 97.128906 194.695312 96.742188 196.140625 C 96.765625 196.097656 96.792969 196.054688 96.816406 196.007812 C 97.585938 194.71875 98.859375 193.007812 100.105469 192.152344 C 101.582031 191.140625 103.863281 190.378906 105.5 189.542969 C 106.164062 189.207031 106.738281 188.78125 107.316406 188.316406 C 107.441406 188.214844 107.605469 188.042969 107.773438 187.898438 C 107.90625 187.785156 108.042969 187.695312 108.167969 187.660156 C 108.25 187.632812 108.300781 187.660156 108.332031 187.679688 C 108.382812 187.710938 108.414062 187.757812 108.40625 187.839844 C 108.40625 187.867188 108.394531 187.902344 108.367188 187.941406 C 108.335938 187.984375 108.269531 188.058594 108.242188 188.105469 C 108.160156 188.230469 108.082031 188.347656 108.003906 188.472656 C 107.773438 188.84375 107.589844 189.242188 107.386719 189.625 C 107.304688 189.777344 107.214844 189.925781 107.132812 190.070312 C 107.152344 190.101562 107.152344 190.144531 107.121094 190.171875 C 107.070312 190.222656 107.027344 190.269531 106.976562 190.320312 C 106.625 190.878906 106.25 191.398438 105.832031 191.90625 C 105.851562 191.9375 105.851562 191.980469 105.820312 192.007812 C 105.605469 192.238281 105.386719 192.464844 105.15625 192.671875 C 105.078125 192.753906 105 192.839844 104.917969 192.921875 C 103.394531 194.523438 101.589844 195.402344 99.636719 196.359375 C 98.960938 196.691406 98.230469 196.988281 97.59375 197.386719 C 96.980469 197.777344 96.453125 198.257812 96.152344 198.980469 C 96.128906 199.042969 96.101562 199.109375 96.082031 199.171875 C 95.542969 202.675781 95.640625 206.257812 96.195312 209.859375 C 96.410156 206.933594 98.25 203.769531 100.019531 201.679688 C 100.054688 201.636719 100.09375 201.589844 100.128906 201.546875 C 100.839844 200.707031 101.640625 200.011719 102.535156 199.378906 C 102.59375 199.335938 102.679688 199.25 102.773438 199.179688 C 102.855469 199.117188 102.9375 199.058594 103.011719 199.042969 C 103.082031 199.023438 103.144531 199.023438 103.199219 199.046875 C 103.257812 199.074219 103.3125 199.117188 103.351562 199.199219 C 103.796875 200.226562 103.550781 201.742188 102.960938 203.296875 C 102.097656 205.589844 100.5 207.960938 99.417969 208.933594 C 98.914062 209.382812 98.199219 209.714844 97.585938 210.125 C 97.085938 210.457031 96.652344 210.835938 96.492188 211.402344 C 97.234375 214.550781 99.148438 219.433594 101.027344 221.457031 C 101.121094 221.554688 101.113281 221.714844 101.015625 221.808594 C 100.933594 221.882812 100.820312 221.894531 100.726562 221.84375 C 100.714844 221.855469 100.695312 221.855469 100.683594 221.863281 C 100.699219 221.882812 100.714844 221.902344 100.730469 221.917969 C 100.761719 221.957031 100.757812 222.007812 100.726562 222.039062 C 100.6875 222.070312 100.636719 222.0625 100.605469 222.03125 C 100.394531 221.792969 100.210938 221.539062 100.03125 221.273438 C 100.011719 221.25 100.011719 221.210938 100.03125 221.1875 C 99.898438 221.011719 99.765625 220.828125 99.65625 220.648438 C 99.628906 220.609375 99.640625 220.554688 99.679688 220.535156 C 99.6875 220.535156 99.6875 220.527344 99.691406 220.527344 C 98.976562 219.425781 98.28125 218.023438 97.679688 216.570312 C 97.644531 216.550781 97.613281 216.511719 97.601562 216.46875 C 97.53125 216.242188 97.460938 216.023438 97.378906 215.8125 C 97.355469 215.753906 97.335938 215.691406 97.3125 215.636719 C 97.1875 215.324219 97.046875 215.015625 96.890625 214.714844 C 96.628906 214.566406 96.328125 214.484375 96.027344 214.421875 C 95.6875 214.351562 95.351562 214.296875 95.03125 214.1875 C 92.507812 213.34375 90.558594 212.328125 88.84375 210.21875 C 88.648438 209.972656 87.609375 208.476562 87.363281 207.769531 C 87.308594 207.613281 87.289062 207.480469 87.308594 207.398438 C 87.320312 207.324219 87.355469 207.273438 87.40625 207.234375 C 87.488281 207.171875 87.609375 207.140625 87.765625 207.140625 C 87.941406 207.140625 88.171875 207.191406 88.433594 207.265625 C 89.386719 207.554688 90.726562 208.269531 91.023438 208.445312 C 93.15625 209.730469 95.1875 211.394531 96.566406 213.480469 L 96.558594 213.46875 C 96.414062 213.011719 96.277344 212.546875 96.160156 212.078125 C 96.058594 211.695312 95.964844 211.308594 95.882812 210.917969 C 95.859375 210.792969 95.832031 210.667969 95.808594 210.539062 C 95.796875 210.472656 95.789062 210.410156 95.777344 210.34375 C 95.765625 210.269531 95.75 210.191406 95.738281 210.117188 C 95.703125 209.878906 95.664062 209.640625 95.632812 209.410156 C 95.558594 208.863281 95.488281 208.3125 95.433594 207.761719 C 95.40625 207.492188 95.382812 207.222656 95.355469 206.960938 C 95.339844 206.886719 95.320312 206.808594 95.300781 206.726562 C 95.289062 206.726562 95.28125 206.722656 95.269531 206.714844 C 90.960938 204.722656 87.515625 201.078125 86.710938 196.292969 C 86.667969 196.015625 86.316406 194.230469 86.230469 193.386719 C 86.203125 193.132812 86.210938 192.957031 86.234375 192.890625 C 86.265625 192.800781 86.324219 192.765625 86.386719 192.753906 C 86.4375 192.738281 86.492188 192.738281 86.554688 192.777344 C 86.597656 192.800781 86.65625 192.847656 86.710938 192.902344 C 86.769531 192.957031 86.824219 193.027344 86.867188 193.058594 C 87.164062 193.277344 87.4375 193.511719 87.75 193.691406 C 88.742188 194.269531 89.542969 194.855469 90.328125 195.695312 C 93.183594 198.765625 95.257812 205.28125 95.257812 205.28125 C 95.117188 201.511719 95.5625 197.789062 96.796875 194.1875 C 96.796875 194.179688 96.796875 194.179688 96.796875 194.175781 C 96.804688 193.054688 96.378906 191.960938 95.8125 190.917969 C 95.238281 189.851562 94.523438 188.832031 93.960938 187.890625 C 92.96875 186.238281 92.335938 184.421875 92.128906 182.503906 C 92.019531 181.4375 92.042969 180.386719 92.144531 179.316406 C 92.175781 178.996094 92.210938 178.683594 92.25 178.363281 C 92.261719 178.230469 92.28125 178.097656 92.300781 177.96875 C 92.300781 177.960938 92.292969 177.867188 92.292969 177.832031 C 92.300781 177.78125 92.3125 177.75 92.332031 177.722656 C 92.355469 177.6875 92.394531 177.660156 92.429688 177.65625 C 92.46875 177.640625 92.519531 177.640625 92.574219 177.671875 C 92.644531 177.71875 92.714844 177.804688 92.769531 177.925781 C 92.851562 178.113281 92.90625 178.394531 92.964844 178.511719 C 93.214844 179.058594 93.535156 179.621094 93.878906 180.117188 C 94.523438 181.03125 95.164062 181.8125 95.570312 182.871094 C 96.496094 185.304688 96.382812 187.773438 96.609375 190.316406 C 96.699219 191.316406 96.953125 192.28125 97.136719 193.273438 C 97.347656 192.707031 97.585938 192.152344 97.835938 191.59375 C 99.164062 188.6875 100.605469 186.429688 101.933594 184.390625 C 101.933594 184.371094 101.933594 184.34375 101.941406 184.328125 C 102.304688 182.96875 102.089844 181.675781 101.664062 180.417969 C 101.234375 179.132812 100.582031 177.886719 100.082031 176.652344 C 99.371094 174.90625 99.265625 172.65625 99.699219 170.839844 C 99.828125 170.289062 100.085938 169.210938 100.398438 168.714844 C 100.414062 168.671875 100.417969 168.632812 100.429688 168.589844 C 100.445312 168.546875 100.488281 168.519531 100.53125 168.527344 C 100.574219 168.539062 100.601562 168.582031 100.59375 168.628906 C 100.632812 168.632812 100.664062 168.660156 100.695312 168.695312 C 100.707031 168.714844 100.726562 168.746094 100.730469 168.796875 C 100.738281 168.839844 100.730469 168.929688 100.746094 168.972656 C 100.769531 169.105469 100.8125 169.230469 100.84375 169.355469 C 100.945312 169.730469 101.089844 170.074219 101.238281 170.433594 C 101.691406 171.507812 102.375 172.457031 102.625 173.613281 C 103.074219 175.730469 102.535156 177.742188 102.386719 179.847656 C 102.296875 181.074219 102.542969 182.285156 102.503906 183.503906 C 102.816406 183.023438 103.125 182.546875 103.414062 182.078125 C 105.894531 178.082031 107.535156 174.257812 106.363281 166.710938 Z M 96.414062 214.0625 C 96.414062 214.0625 96.410156 214.070312 96.410156 214.070312 C 96.421875 214.078125 96.429688 214.078125 96.441406 214.082031 Z M 88.734375 209.476562 C 88.917969 209.742188 89.066406 209.949219 89.125 210.03125 C 90.796875 212.085938 92.699219 213.066406 95.15625 213.894531 C 95.25 213.925781 95.351562 213.953125 95.449219 213.976562 C 95.300781 213.914062 95.148438 213.84375 95.007812 213.777344 C 94.492188 213.542969 93.980469 213.324219 93.484375 213.050781 C 92.0625 212.261719 90.582031 211.359375 89.398438 210.230469 C 89.15625 210 88.949219 209.730469 88.734375 209.476562 Z M 88.320312 208.457031 C 88.691406 208.878906 89.105469 209.265625 89.523438 209.628906 C 90.503906 210.480469 91.5625 211.203125 92.636719 211.929688 C 93.671875 212.625 94.78125 213.40625 95.957031 213.894531 C 95.632812 213.71875 95.320312 213.492188 95.007812 213.3125 C 94.472656 213 93.933594 212.703125 93.421875 212.355469 C 92.757812 211.898438 92.128906 211.363281 91.496094 210.871094 C 90.738281 210.28125 89.996094 209.667969 89.222656 209.089844 C 88.929688 208.882812 88.605469 208.6875 88.320312 208.457031 Z M 96.265625 213.636719 C 94.914062 211.621094 92.9375 210.011719 90.859375 208.757812 C 90.578125 208.589844 89.273438 207.894531 88.347656 207.613281 C 88.128906 207.542969 87.925781 207.5 87.777344 207.5 C 87.765625 207.5 87.75 207.5 87.738281 207.5 C 87.921875 207.550781 88.089844 207.644531 88.273438 207.707031 C 88.472656 207.773438 88.691406 207.8125 88.890625 207.894531 C 89.441406 208.125 89.945312 208.507812 90.453125 208.820312 C 90.839844 209.066406 91.246094 209.277344 91.617188 209.542969 C 92.242188 209.984375 92.8125 210.503906 93.394531 211.007812 C 94.042969 211.566406 94.699219 212.109375 95.332031 212.691406 C 95.65625 213 95.953125 213.324219 96.265625 213.636719 Z M 87.78125 207.6875 C 87.816406 207.722656 87.851562 207.761719 87.882812 207.792969 C 88.191406 207.980469 88.523438 208.132812 88.828125 208.320312 C 89.136719 208.507812 89.417969 208.734375 89.71875 208.933594 C 90.042969 209.152344 90.390625 209.347656 90.707031 209.574219 C 91.410156 210.074219 92.066406 210.648438 92.75 211.175781 C 93.777344 211.964844 94.832031 212.734375 95.890625 213.488281 C 95.671875 213.261719 95.449219 213.03125 95.21875 212.816406 C 94.59375 212.242188 93.933594 211.695312 93.289062 211.136719 C 92.714844 210.644531 92.148438 210.125 91.523438 209.683594 C 91.152344 209.421875 90.746094 209.210938 90.363281 208.972656 C 89.871094 208.65625 89.375 208.28125 88.828125 208.054688 C 88.636719 207.976562 88.421875 207.9375 88.222656 207.867188 C 88.070312 207.816406 87.925781 207.742188 87.78125 207.6875 Z M 88.304688 208.21875 C 88.609375 208.496094 88.992188 208.714844 89.324219 208.957031 C 90.09375 209.535156 90.839844 210.148438 91.597656 210.738281 C 92.230469 211.234375 92.851562 211.765625 93.515625 212.214844 C 94.023438 212.5625 94.554688 212.855469 95.085938 213.160156 C 95.25 213.257812 95.40625 213.363281 95.570312 213.460938 C 94.582031 212.761719 93.601562 212.039062 92.644531 211.308594 C 91.960938 210.789062 91.308594 210.21875 90.601562 209.714844 C 90.28125 209.492188 89.945312 209.296875 89.617188 209.078125 C 89.324219 208.878906 89.042969 208.652344 88.734375 208.46875 C 88.597656 208.382812 88.445312 208.300781 88.304688 208.21875 Z M 88.328125 208.71875 C 88.480469 208.914062 88.636719 209.109375 88.796875 209.289062 C 89.035156 209.566406 89.253906 209.859375 89.519531 210.109375 C 90.691406 211.226562 92.15625 212.121094 93.566406 212.90625 C 93.910156 213.09375 94.261719 213.257812 94.613281 213.417969 C 93.890625 213 93.195312 212.523438 92.539062 212.078125 C 91.460938 211.351562 90.394531 210.617188 89.410156 209.765625 C 89.035156 209.433594 88.667969 209.089844 88.328125 208.71875 Z M 102.792969 199.8125 C 102.277344 200.507812 101.878906 201.335938 101.394531 202.023438 C 99.578125 204.628906 97.949219 207.40625 96.785156 210.367188 C 98.230469 208.175781 99.496094 205.820312 100.824219 203.558594 C 101.558594 202.3125 102.378906 201.183594 102.792969 199.8125 Z M 100.585938 201.585938 C 100.53125 201.648438 100.46875 201.714844 100.414062 201.785156 C 100.375 201.828125 100.335938 201.875 100.300781 201.917969 C 98.507812 204.035156 96.628906 207.28125 96.539062 210.222656 C 96.808594 209.195312 97.253906 208.226562 97.636719 207.230469 C 98.382812 205.320312 99.285156 203.269531 100.585938 201.585938 Z M 103.082031 199.449219 C 103.070312 199.460938 103.0625 199.46875 103.050781 199.480469 C 102.679688 201.039062 101.773438 202.269531 100.964844 203.640625 C 99.773438 205.664062 98.640625 207.761719 97.375 209.746094 C 99.195312 207.492188 101.027344 205.082031 102.105469 202.398438 C 102.503906 201.433594 102.941406 200.488281 103.082031 199.449219 Z M 102.59375 199.800781 C 100.21875 201.609375 98.839844 204.585938 97.800781 207.292969 C 97.488281 208.105469 97.128906 208.902344 96.859375 209.730469 C 98.011719 206.964844 99.554688 204.371094 101.257812 201.921875 C 101.722656 201.257812 102.109375 200.476562 102.59375 199.800781 Z M 103.257812 200.914062 C 103.125 201.511719 102.878906 202.113281 102.707031 202.617188 C 102.183594 204.171875 100.460938 206.964844 99.304688 208.195312 C 98.878906 208.640625 98.445312 209.066406 98.027344 209.503906 C 98.457031 209.253906 98.890625 209.007812 99.222656 208.707031 C 100.273438 207.753906 101.835938 205.429688 102.679688 203.195312 C 102.976562 202.398438 103.1875 201.617188 103.257812 200.914062 Z M 103.167969 199.925781 C 102.980469 200.800781 102.605469 201.628906 102.265625 202.46875 C 101.246094 205 99.566406 207.296875 97.84375 209.441406 C 98.28125 208.984375 98.734375 208.546875 99.171875 208.082031 C 100.320312 206.871094 102.023438 204.109375 102.535156 202.570312 C 102.6875 202.125 102.894531 201.617188 103.03125 201.097656 C 103.144531 200.703125 103.207031 200.300781 103.167969 199.925781 Z M 95.082031 206.265625 C 95.082031 206.265625 95.082031 206.269531 95.082031 206.269531 L 95.101562 206.277344 Z M 87.230469 197.074219 C 87.320312 197.449219 87.425781 197.8125 87.550781 198.175781 C 88.597656 200.230469 90.695312 202.335938 92.105469 203.785156 C 92.996094 204.691406 93.691406 205.59375 94.863281 206.109375 C 92.613281 204.609375 91.160156 202.285156 89.5 200.214844 C 88.660156 199.179688 87.800781 198.222656 87.230469 197.074219 Z M 86.800781 194.789062 C 86.917969 195.472656 87.042969 196.117188 87.070312 196.265625 L 87.070312 196.273438 C 87.59375 197.75 88.636719 198.871094 89.632812 200.105469 C 91.152344 202 92.492188 204.101562 94.429688 205.589844 C 93.660156 204.804688 92.882812 204.007812 92.207031 203.15625 C 90.953125 201.578125 89.957031 199.804688 88.867188 198.109375 C 88.078125 196.878906 87.324219 195.972656 86.800781 194.789062 Z M 87.582031 194.003906 C 88.941406 195.582031 89.832031 197.527344 90.859375 199.335938 C 92.097656 201.527344 93.515625 203.558594 95.007812 205.582031 C 94.988281 205.507812 94.960938 205.429688 94.9375 205.351562 C 94.75 205.164062 94.574219 204.929688 94.410156 204.671875 C 93.992188 204.007812 93.648438 203.203125 93.332031 202.710938 C 92.3125 201.128906 91.324219 199.554688 90.453125 197.882812 C 89.839844 196.691406 89.363281 195.527344 88.472656 194.5625 C 88.195312 194.375 87.910156 194.191406 87.609375 194.019531 C 87.59375 194.011719 87.589844 194.011719 87.582031 194.003906 Z M 86.867188 193.503906 C 89.066406 197.34375 91.070312 201.285156 94.023438 204.609375 C 94.28125 204.898438 94.503906 205.210938 94.742188 205.511719 C 93.296875 203.539062 91.925781 201.554688 90.707031 199.417969 C 89.5625 197.394531 88.589844 195.21875 86.945312 193.558594 C 86.917969 193.542969 86.894531 193.523438 86.867188 193.503906 Z M 87.945312 199.191406 C 89.066406 201.722656 91.007812 203.804688 93.363281 205.3125 C 92.890625 204.886719 92.460938 204.398438 91.980469 203.902344 C 90.777344 202.664062 89.074219 200.953125 87.945312 199.191406 Z M 86.582031 193.339844 C 86.59375 193.453125 86.605469 193.585938 86.625 193.734375 C 86.636719 193.8125 86.644531 193.886719 86.65625 193.960938 C 87.164062 195.546875 88.050781 196.546875 89 198.019531 C 90.082031 199.710938 91.078125 201.480469 92.324219 203.058594 C 92.933594 203.820312 93.621094 204.535156 94.3125 205.242188 C 94.171875 205.066406 94.035156 204.894531 93.886719 204.722656 C 90.777344 201.203125 88.710938 197 86.355469 192.953125 Z M 89.023438 194.96875 C 89.667969 195.835938 90.089844 196.8125 90.601562 197.8125 C 91.464844 199.488281 92.457031 201.050781 93.472656 202.632812 C 93.785156 203.121094 94.128906 203.929688 94.550781 204.59375 C 94.625 204.710938 94.699219 204.824219 94.78125 204.929688 C 94.28125 203.796875 93.652344 202.726562 93.09375 201.621094 C 92 199.425781 90.933594 197.242188 89.429688 195.308594 C 89.300781 195.1875 89.160156 195.078125 89.023438 194.96875 Z M 90.1875 196.054688 C 91.386719 197.777344 92.300781 199.648438 93.253906 201.535156 C 93.652344 202.324219 94.085938 203.101562 94.484375 203.898438 C 93.527344 201.039062 92.175781 198.226562 90.1875 196.054688 Z M 107.054688 189.257812 C 105.960938 190.140625 104.609375 190.652344 103.417969 191.378906 C 101.207031 192.722656 99.222656 194.417969 97.605469 196.441406 C 97.300781 196.832031 96.917969 197.199219 96.597656 197.601562 C 96.585938 197.625 96.566406 197.644531 96.554688 197.667969 C 96.609375 197.605469 96.667969 197.550781 96.722656 197.488281 C 97.140625 197.03125 97.582031 196.597656 98.019531 196.160156 C 99.761719 194.429688 101.640625 192.953125 103.695312 191.605469 C 104.796875 190.878906 106.121094 190.234375 107.054688 189.257812 Z M 101.238281 191.875 C 100.90625 192.050781 100.59375 192.238281 100.3125 192.425781 C 99.101562 193.257812 97.867188 194.917969 97.117188 196.179688 C 96.929688 196.492188 96.742188 196.816406 96.566406 197.164062 C 96.910156 196.609375 97.3125 196.089844 97.6875 195.578125 C 98.675781 194.242188 99.867188 192.910156 101.238281 191.875 Z M 105.613281 191.675781 C 105.167969 192.074219 104.703125 192.457031 104.226562 192.816406 C 103.042969 193.710938 101.683594 194.429688 100.417969 195.203125 C 99.628906 195.683594 98.863281 196.179688 98.125 196.738281 C 98.53125 196.515625 98.941406 196.296875 99.335938 196.054688 C 100.289062 195.457031 101.195312 194.789062 102.167969 194.222656 C 102.824219 193.84375 103.542969 193.578125 104.207031 193.191406 C 104.378906 193.035156 104.539062 192.878906 104.703125 192.703125 C 105.023438 192.363281 105.332031 192.019531 105.613281 191.675781 Z M 106.671875 190.214844 C 106.519531 190.382812 106.363281 190.546875 106.199219 190.683594 C 105.71875 191.109375 105.167969 191.472656 104.652344 191.863281 C 103.132812 193.027344 101.546875 194.085938 99.949219 195.144531 C 99.324219 195.566406 98.734375 196.007812 98.164062 196.484375 C 98.863281 195.972656 99.578125 195.507812 100.324219 195.050781 C 101.589844 194.28125 102.9375 193.558594 104.121094 192.671875 C 104.859375 192.113281 105.566406 191.5 106.238281 190.847656 C 106.390625 190.648438 106.53125 190.433594 106.671875 190.214844 Z M 106.988281 189.550781 C 106.0625 190.433594 104.828125 191.054688 103.789062 191.738281 C 101.746094 193.078125 99.875 194.542969 98.144531 196.273438 C 98.09375 196.324219 98.042969 196.375 97.996094 196.417969 C 98.589844 195.914062 99.203125 195.445312 99.859375 195.007812 C 101.453125 193.941406 103.039062 192.890625 104.558594 191.730469 C 105.066406 191.34375 105.617188 190.984375 106.09375 190.558594 C 106.40625 190.277344 106.714844 189.925781 106.988281 189.550781 Z M 103.4375 190.855469 C 103.0625 191.015625 102.679688 191.179688 102.3125 191.347656 C 100.539062 192.425781 99.035156 194.054688 97.835938 195.671875 C 97.757812 195.785156 97.675781 195.890625 97.585938 196.003906 C 97.636719 195.941406 97.679688 195.882812 97.730469 195.828125 C 99.292969 193.886719 101.296875 192.167969 103.4375 190.855469 Z M 103.625 193.6875 C 103.164062 193.910156 102.691406 194.113281 102.246094 194.367188 C 101.441406 194.832031 100.675781 195.378906 99.898438 195.882812 C 101.234375 195.226562 102.492188 194.585938 103.625 193.6875 Z M 107.449219 188.667969 C 107.046875 188.988281 106.640625 189.289062 106.207031 189.550781 C 106.207031 189.550781 106.214844 189.558594 106.214844 189.558594 C 106.230469 189.601562 106.21875 189.652344 106.175781 189.671875 C 105.410156 190.058594 104.617188 190.347656 103.875 190.785156 C 102.191406 191.773438 100.582031 193.027344 99.191406 194.445312 C 100.445312 193.214844 101.839844 192.136719 103.34375 191.230469 C 104.667969 190.429688 106.195312 189.882812 107.328125 188.792969 C 107.367188 188.753906 107.402344 188.710938 107.449219 188.667969 Z M 92.667969 178.699219 C 92.707031 179 92.757812 179.300781 92.84375 179.589844 C 92.96875 179.996094 93.195312 180.359375 93.296875 180.773438 C 93.871094 183.191406 94.480469 185.628906 95.257812 187.992188 C 95.488281 188.707031 95.765625 189.402344 96.046875 190.097656 C 96.082031 190.191406 96.128906 190.289062 96.171875 190.382812 C 96.007812 189.90625 95.941406 189.402344 95.820312 188.917969 C 95.570312 187.898438 95.300781 186.886719 95.050781 185.867188 C 94.636719 184.183594 94.222656 182.472656 93.640625 180.835938 C 93.414062 180.203125 93.078125 179.589844 92.800781 178.976562 C 92.75 178.875 92.714844 178.789062 92.667969 178.699219 Z M 93.648438 180.40625 C 93.695312 180.53125 93.746094 180.648438 93.789062 180.773438 C 94.375 182.414062 94.785156 184.132812 95.207031 185.824219 C 95.457031 186.84375 95.726562 187.851562 95.976562 188.875 C 96.039062 189.117188 96.082031 189.375 96.140625 189.625 C 96.070312 189.125 96.015625 188.625 95.921875 188.128906 C 95.683594 186.882812 95.339844 185.65625 95.085938 184.40625 C 94.882812 183.375 94.75 182.140625 94.21875 181.195312 C 94.027344 180.929688 93.839844 180.675781 93.648438 180.40625 Z M 92.527344 182.824219 C 92.757812 184.578125 93.359375 186.238281 94.265625 187.757812 C 94.613281 188.335938 95.007812 188.929688 95.394531 189.550781 C 95.238281 189.199219 95.082031 188.847656 94.917969 188.503906 C 94.386719 187.414062 93.871094 186.324219 93.394531 185.203125 C 93.058594 184.421875 92.75 183.632812 92.527344 182.824219 Z M 92.539062 178.984375 L 92.527344 179.082031 C 92.519531 179.351562 92.527344 179.628906 92.550781 179.898438 C 92.613281 180.523438 92.8125 181.09375 92.964844 181.695312 C 93.164062 182.464844 93.328125 183.253906 93.570312 184.019531 C 93.777344 184.660156 94.054688 185.265625 94.265625 185.90625 C 94.613281 186.953125 95 187.980469 95.425781 188.988281 C 95.308594 188.675781 95.199219 188.359375 95.09375 188.042969 C 94.316406 185.671875 93.710938 183.230469 93.125 180.8125 C 93.027344 180.40625 92.800781 180.042969 92.683594 179.640625 C 92.613281 179.421875 92.570312 179.195312 92.539062 178.96875 Z M 94.722656 181.953125 C 94.980469 182.742188 95.101562 183.605469 95.25 184.371094 C 95.5 185.617188 95.84375 186.84375 96.082031 188.089844 C 96.113281 188.246094 96.140625 188.40625 96.164062 188.566406 C 96.066406 186.695312 95.964844 184.859375 95.269531 183.042969 C 95.117188 182.648438 94.929688 182.289062 94.722656 181.953125 Z M 92.429688 180.273438 C 92.414062 180.71875 92.40625 181.164062 92.417969 181.609375 C 92.621094 182.828125 93.050781 183.988281 93.546875 185.140625 C 93.941406 186.0625 94.355469 186.957031 94.785156 187.859375 C 94.542969 187.234375 94.316406 186.601562 94.105469 185.957031 C 93.890625 185.324219 93.617188 184.707031 93.410156 184.070312 C 93.164062 183.304688 92.996094 182.515625 92.800781 181.738281 C 92.675781 181.246094 92.519531 180.769531 92.429688 180.273438 Z M 99.8125 172.480469 C 99.71875 173.863281 99.910156 175.34375 100.40625 176.566406 C 100.789062 177.511719 101.257812 178.460938 101.652344 179.433594 C 101.613281 179.285156 101.570312 179.140625 101.519531 179 C 100.8125 177.027344 99.980469 174.9375 99.828125 172.824219 C 99.824219 172.710938 99.816406 172.59375 99.8125 172.480469 Z M 101.714844 172.15625 C 101.804688 172.71875 101.796875 173.300781 101.808594 173.882812 C 101.820312 174.660156 101.882812 175.449219 101.847656 176.226562 C 101.828125 176.660156 101.796875 177.101562 101.785156 177.542969 C 101.851562 178.054688 101.921875 178.574219 101.996094 179.089844 C 101.996094 179.082031 101.996094 179.070312 101.996094 179.0625 C 101.992188 178.195312 102.121094 177.339844 102.179688 176.476562 C 102.265625 175.21875 102.253906 173.902344 101.960938 172.667969 C 101.878906 172.492188 101.796875 172.324219 101.714844 172.15625 Z M 102.3125 173.738281 C 102.417969 174.652344 102.40625 175.582031 102.34375 176.484375 C 102.285156 177.277344 102.171875 178.066406 102.160156 178.863281 C 102.359375 177.152344 102.679688 175.480469 102.3125 173.738281 Z M 100.167969 170.417969 C 100.125 170.589844 100.085938 170.738281 100.054688 170.875 C 99.980469 171.515625 99.949219 172.15625 99.992188 172.820312 C 100.144531 174.886719 100.945312 176.929688 101.648438 178.863281 C 101.632812 178.761719 101.628906 178.664062 101.621094 178.558594 C 101.527344 178.144531 101.421875 177.730469 101.320312 177.316406 C 101.019531 176.105469 100.601562 174.910156 100.386719 173.675781 C 100.210938 172.605469 100.105469 171.503906 100.167969 170.417969 Z M 100.445312 169.492188 L 100.4375 169.511719 C 100.222656 170.875 100.324219 172.285156 100.554688 173.644531 C 100.761719 174.875 101.183594 176.0625 101.484375 177.273438 C 101.519531 177.433594 101.566406 177.597656 101.609375 177.761719 C 101.609375 177.691406 101.609375 177.625 101.613281 177.554688 C 101.394531 175.933594 101.1875 174.308594 100.953125 172.691406 C 100.875 172.191406 100.820312 171.683594 100.730469 171.183594 C 100.625 170.625 100.492188 170.054688 100.449219 169.480469 Z M 100.65625 169.867188 C 100.71875 170.300781 100.8125 170.726562 100.886719 171.152344 C 100.984375 171.652344 101.039062 172.160156 101.113281 172.667969 C 101.308594 173.976562 101.476562 175.292969 101.652344 176.601562 C 101.660156 176.46875 101.664062 176.34375 101.671875 176.214844 C 101.710938 175.441406 101.648438 174.652344 101.632812 173.878906 C 101.621094 173.085938 101.640625 172.285156 101.394531 171.546875 C 101.234375 171.234375 101.078125 170.921875 100.9375 170.59375 C 100.84375 170.355469 100.746094 170.117188 100.65625 169.867188 Z M 107.273438 175.699219 C 107.257812 175.710938 107.253906 175.71875 107.242188 175.730469 C 107.191406 175.792969 107.140625 175.863281 107.089844 175.925781 C 107.085938 175.933594 107.078125 175.9375 107.070312 175.945312 C 107.066406 175.957031 107.058594 175.96875 107.054688 175.976562 C 107.140625 175.894531 107.226562 175.820312 107.320312 175.742188 C 107.308594 175.738281 107.296875 175.730469 107.285156 175.726562 C 107.277344 175.71875 107.273438 175.710938 107.273438 175.699219 Z M 112.082031 170.054688 C 111.238281 170.632812 110.417969 171.222656 109.683594 171.960938 C 109.101562 172.554688 108.644531 173.300781 108.179688 173.984375 C 107.886719 174.421875 107.597656 174.878906 107.320312 175.34375 L 107.339844 175.316406 C 107.609375 174.980469 107.890625 174.652344 108.175781 174.328125 C 108.347656 174.113281 108.53125 173.902344 108.707031 173.6875 C 109.546875 172.675781 110.296875 171.679688 111.261719 170.777344 C 111.527344 170.539062 111.800781 170.292969 112.082031 170.054688 Z M 116.105469 168.414062 C 115.050781 169.957031 113.710938 171.277344 112.203125 172.386719 C 111.261719 173.070312 110.292969 173.738281 109.328125 174.390625 C 108.996094 174.609375 108.65625 174.835938 108.34375 175.085938 C 108.511719 174.992188 108.6875 174.90625 108.863281 174.824219 C 109.027344 174.722656 109.1875 174.621094 109.351562 174.523438 C 110.648438 173.765625 111.871094 172.875 113.035156 171.933594 C 113.660156 171.429688 114.34375 170.945312 114.871094 170.332031 C 115.160156 169.929688 115.433594 169.515625 115.703125 169.105469 C 115.84375 168.871094 115.972656 168.644531 116.105469 168.414062 Z M 115.492188 168.972656 C 114.277344 170.273438 112.792969 171.320312 111.324219 172.378906 C 110.4375 173.019531 109.597656 173.765625 108.78125 174.496094 C 108.65625 174.609375 108.53125 174.714844 108.398438 174.828125 C 108.667969 174.628906 108.949219 174.441406 109.234375 174.253906 C 110.199219 173.609375 111.167969 172.9375 112.109375 172.253906 C 113.378906 171.316406 114.53125 170.21875 115.492188 168.972656 Z M 116.261719 167.777344 C 115.855469 168.144531 115.429688 168.484375 115.007812 168.839844 C 113.917969 169.769531 112.859375 170.707031 111.738281 171.597656 C 110.96875 172.210938 110.179688 172.84375 109.472656 173.527344 C 109.09375 173.890625 108.730469 174.257812 108.363281 174.628906 C 108.460938 174.542969 108.5625 174.453125 108.664062 174.367188 C 109.484375 173.632812 110.324219 172.882812 111.226562 172.234375 C 113.066406 170.921875 114.941406 169.609375 116.261719 167.777344 Z M 116.542969 167.28125 C 116.136719 167.511719 115.722656 167.738281 115.335938 168.011719 C 114.054688 168.941406 112.917969 170.035156 111.738281 171.082031 C 110.546875 172.136719 109.371094 173.246094 108.3125 174.441406 L 108.292969 174.464844 C 108.644531 174.109375 109 173.75 109.359375 173.402344 C 110.074219 172.710938 110.867188 172.078125 111.636719 171.460938 C 112.761719 170.570312 113.8125 169.628906 114.902344 168.703125 C 115.453125 168.246094 116.03125 167.792969 116.542969 167.28125 Z M 114.125 171.269531 C 113.800781 171.539062 113.460938 171.796875 113.136719 172.058594 C 112.175781 172.832031 111.179688 173.570312 110.140625 174.226562 C 110.597656 174.019531 111.0625 173.796875 111.511719 173.527344 C 112.535156 172.925781 113.378906 172.148438 114.125 171.269531 Z M 114.023438 168.828125 C 113.882812 168.910156 113.738281 168.992188 113.59375 169.074219 C 112.839844 169.640625 112.050781 170.273438 111.382812 170.902344 C 110.773438 171.472656 110.246094 172.085938 109.734375 172.710938 C 110.347656 172.109375 110.988281 171.527344 111.632812 170.957031 C 112.429688 170.25 113.210938 169.515625 114.023438 168.828125 Z M 107.730469 158.523438 C 107.734375 159.363281 107.683594 160.207031 107.585938 161.046875 C 107.433594 162.320312 107.226562 163.558594 106.996094 164.832031 C 106.894531 165.375 106.796875 165.933594 106.757812 166.492188 C 106.972656 165.6875 107.285156 164.898438 107.480469 164.046875 C 107.890625 162.261719 107.984375 160.363281 107.730469 158.523438 Z M 105.613281 157.507812 C 105.273438 159.414062 105.25 161.421875 105.597656 163.269531 C 105.769531 164.15625 106.027344 165.011719 106.28125 165.878906 C 106.15625 165.0625 106.058594 164.25 105.957031 163.433594 C 105.71875 161.441406 105.5 159.480469 105.613281 157.507812 Z M 105.9375 156.074219 C 105.9375 156.078125 105.929688 156.085938 105.929688 156.09375 C 105.5625 158.546875 105.832031 160.953125 106.125 163.414062 C 106.21875 164.199219 106.320312 164.976562 106.4375 165.757812 C 106.445312 165.671875 106.457031 165.582031 106.46875 165.5 C 106.390625 164.769531 106.269531 164.03125 106.199219 163.300781 C 106.03125 161.523438 105.976562 159.746094 105.929688 157.953125 C 105.914062 157.269531 105.898438 156.667969 105.9375 156.074219 Z M 107.453125 157.070312 C 107.460938 158.667969 107.316406 160.265625 107.085938 161.824219 C 106.957031 162.671875 106.964844 163.617188 106.820312 164.460938 C 106.785156 164.667969 106.746094 164.867188 106.707031 165.0625 C 106.707031 165.199219 106.707031 165.339844 106.714844 165.476562 C 106.753906 165.25 106.789062 165.03125 106.832031 164.804688 C 107.066406 163.535156 107.273438 162.292969 107.421875 161.027344 C 107.574219 159.78125 107.609375 158.542969 107.503906 157.289062 C 107.492188 157.238281 107.484375 157.195312 107.472656 157.152344 C 107.464844 157.125 107.460938 157.09375 107.453125 157.070312 Z M 106.925781 153.035156 C 106.421875 155.339844 106.394531 157.765625 106.445312 160.101562 C 106.46875 161.386719 106.488281 162.652344 106.5625 163.929688 C 106.5625 163.855469 106.570312 163.785156 106.570312 163.710938 C 106.589844 162.53125 106.625 161.375 106.695312 160.195312 C 106.828125 158.058594 106.882812 155.203125 106.925781 153.035156 Z M 107.066406 154.519531 C 107.023438 156.40625 106.964844 158.527344 106.863281 160.207031 C 106.796875 161.378906 106.757812 162.539062 106.738281 163.710938 C 106.738281 163.761719 106.738281 163.808594 106.738281 163.859375 C 106.808594 163.175781 106.828125 162.449219 106.925781 161.792969 C 107.203125 159.925781 107.355469 157.984375 107.265625 156.074219 C 107.179688 155.566406 107.117188 155.039062 107.066406 154.519531 Z M 106.582031 153.96875 C 106.445312 154.394531 106.320312 154.820312 106.183594 155.246094 C 106.0625 156.140625 106.074219 156.957031 106.101562 157.941406 C 106.144531 159.695312 106.195312 161.441406 106.359375 163.183594 C 106.3125 162.15625 106.292969 161.136719 106.277344 160.101562 C 106.238281 158.085938 106.25 155.984375 106.582031 153.96875 Z M 106.582031 153.96875 " fill-opacity="1" fill-rule="evenodd"/></g><g clip-path="url(#a0c2a7a7ca)"><path fill="#e8ecd7" d="M 268.363281 168.644531 C 268.394531 168.621094 268.414062 168.582031 268.417969 168.539062 C 268.4375 168.394531 268.445312 168.25 268.449219 168.109375 C 268.792969 166.496094 269.414062 164.949219 269.722656 163.332031 C 270.210938 160.746094 269.984375 157.847656 269.195312 155.347656 C 268.933594 154.507812 268.699219 153.667969 268.367188 152.847656 C 268.320312 152.714844 268.253906 152.476562 268.179688 152.269531 C 268.117188 152.101562 268.035156 151.957031 267.949219 151.875 C 267.890625 151.824219 267.84375 151.832031 267.804688 151.832031 C 267.753906 151.839844 267.71875 151.863281 267.6875 151.914062 C 267.671875 151.933594 267.660156 151.964844 267.660156 152.007812 C 267.660156 152.03125 267.667969 152.078125 267.667969 152.101562 C 267.671875 152.257812 267.679688 152.414062 267.6875 152.570312 C 267.703125 152.953125 267.699219 153.34375 267.667969 153.722656 C 267.566406 154.832031 267.460938 155.980469 267.195312 157.0625 C 266.644531 159.363281 266.664062 161.824219 267.191406 164.128906 C 267.433594 165.1875 267.875 166.148438 268.050781 167.175781 L 268.050781 167.179688 C 267.878906 168.382812 267.765625 169.597656 267.734375 170.820312 C 267.710938 171.964844 267.761719 173.113281 267.921875 174.253906 C 267.980469 174.667969 268.054688 175.074219 268.144531 175.480469 C 267.8125 174.898438 267.460938 174.335938 267.097656 173.796875 C 266.621094 173.09375 266.15625 172.328125 265.554688 171.722656 C 264.570312 170.726562 263.4375 170.011719 262.304688 169.222656 C 261.820312 168.890625 261.285156 168.640625 260.789062 168.328125 C 260.242188 167.980469 259.722656 167.582031 259.171875 167.238281 C 258.832031 167.023438 258.507812 166.796875 258.175781 166.578125 C 258.074219 166.511719 257.980469 166.449219 257.886719 166.371094 C 257.851562 166.339844 257.800781 166.265625 257.761719 166.234375 C 257.726562 166.203125 257.6875 166.183594 257.664062 166.179688 C 257.605469 166.164062 257.5625 166.179688 257.523438 166.210938 C 257.492188 166.234375 257.457031 166.273438 257.449219 166.347656 C 257.4375 166.464844 257.488281 166.609375 257.570312 166.761719 C 257.664062 166.929688 257.800781 167.113281 257.871094 167.222656 C 258.257812 167.90625 258.601562 168.613281 259.023438 169.277344 C 260.15625 171.0625 261.464844 172.722656 263.320312 173.820312 C 264.429688 174.480469 265.59375 174.867188 266.609375 175.4375 C 267.523438 175.949219 268.3125 176.613281 268.808594 177.773438 C 269.410156 179.414062 270.222656 180.886719 271.148438 182.382812 C 272.816406 185.070312 274.863281 187.835938 276.699219 191.851562 C 277.34375 193.257812 277.859375 194.695312 278.246094 196.140625 C 278.222656 196.097656 278.199219 196.054688 278.171875 196.007812 C 277.402344 194.71875 276.128906 193.007812 274.882812 192.152344 C 273.40625 191.140625 271.125 190.378906 269.488281 189.542969 C 268.824219 189.207031 268.25 188.78125 267.671875 188.316406 C 267.546875 188.214844 267.386719 188.042969 267.214844 187.898438 C 267.085938 187.785156 266.945312 187.695312 266.820312 187.660156 C 266.738281 187.632812 266.691406 187.660156 266.660156 187.679688 C 266.609375 187.710938 266.578125 187.757812 266.582031 187.839844 C 266.582031 187.867188 266.59375 187.902344 266.621094 187.941406 C 266.652344 187.984375 266.722656 188.058594 266.746094 188.105469 C 266.828125 188.230469 266.910156 188.347656 266.984375 188.472656 C 267.214844 188.84375 267.398438 189.242188 267.605469 189.625 C 267.6875 189.777344 267.773438 189.925781 267.855469 190.070312 C 267.835938 190.101562 267.835938 190.144531 267.867188 190.171875 C 267.917969 190.222656 267.960938 190.269531 268.011719 190.320312 C 268.363281 190.878906 268.738281 191.398438 269.15625 191.90625 C 269.140625 191.9375 269.140625 191.980469 269.171875 192.007812 C 269.382812 192.238281 269.601562 192.464844 269.835938 192.671875 C 269.910156 192.753906 269.992188 192.839844 270.074219 192.921875 C 271.59375 194.523438 273.398438 195.402344 275.351562 196.359375 C 276.03125 196.691406 276.757812 196.988281 277.394531 197.386719 C 278.007812 197.777344 278.535156 198.257812 278.835938 198.980469 C 278.863281 199.042969 278.886719 199.109375 278.90625 199.171875 C 279.445312 202.675781 279.351562 206.257812 278.792969 209.859375 C 278.578125 206.933594 276.738281 203.769531 274.972656 201.679688 C 274.933594 201.636719 274.894531 201.589844 274.859375 201.546875 C 274.152344 200.707031 273.347656 200.011719 272.453125 199.378906 C 272.398438 199.335938 272.308594 199.25 272.214844 199.179688 C 272.132812 199.117188 272.050781 199.058594 271.976562 199.042969 C 271.90625 199.023438 271.84375 199.023438 271.789062 199.046875 C 271.734375 199.074219 271.675781 199.117188 271.636719 199.199219 C 271.195312 200.226562 271.4375 201.742188 272.027344 203.296875 C 272.890625 205.589844 274.488281 207.960938 275.574219 208.933594 C 276.074219 209.382812 276.789062 209.714844 277.402344 210.125 C 277.902344 210.457031 278.335938 210.835938 278.5 211.402344 C 277.753906 214.550781 275.84375 219.433594 273.960938 221.457031 C 273.867188 221.554688 273.875 221.714844 273.976562 221.808594 C 274.058594 221.882812 274.167969 221.894531 274.261719 221.84375 C 274.277344 221.855469 274.292969 221.855469 274.308594 221.863281 C 274.289062 221.882812 274.277344 221.902344 274.257812 221.917969 C 274.226562 221.957031 274.230469 222.007812 274.261719 222.039062 C 274.300781 222.070312 274.351562 222.0625 274.382812 222.03125 C 274.59375 221.792969 274.777344 221.539062 274.957031 221.273438 C 274.976562 221.25 274.976562 221.210938 274.957031 221.1875 C 275.089844 221.011719 275.222656 220.828125 275.335938 220.648438 C 275.359375 220.609375 275.347656 220.554688 275.308594 220.535156 C 275.304688 220.535156 275.304688 220.527344 275.296875 220.527344 C 276.011719 219.425781 276.707031 218.023438 277.308594 216.570312 C 277.34375 216.550781 277.375 216.511719 277.390625 216.46875 C 277.457031 216.242188 277.527344 216.023438 277.609375 215.8125 C 277.632812 215.753906 277.652344 215.691406 277.675781 215.636719 C 277.804688 215.324219 277.941406 215.015625 278.097656 214.714844 C 278.359375 214.566406 278.660156 214.484375 278.960938 214.421875 C 279.300781 214.351562 279.636719 214.296875 279.957031 214.1875 C 282.484375 213.34375 284.429688 212.328125 286.148438 210.21875 C 286.339844 209.972656 287.382812 208.476562 287.625 207.769531 C 287.683594 207.613281 287.699219 207.480469 287.683594 207.398438 C 287.667969 207.324219 287.632812 207.273438 287.582031 207.234375 C 287.5 207.171875 287.382812 207.140625 287.226562 207.140625 C 287.050781 207.140625 286.816406 207.191406 286.554688 207.265625 C 285.601562 207.554688 284.261719 208.269531 283.96875 208.445312 C 281.832031 209.730469 279.800781 211.394531 278.421875 213.480469 L 278.429688 213.46875 C 278.574219 213.011719 278.710938 212.546875 278.832031 212.078125 C 278.929688 211.695312 279.023438 211.308594 279.105469 210.917969 C 279.132812 210.792969 279.15625 210.667969 279.179688 210.539062 C 279.195312 210.472656 279.199219 210.410156 279.210938 210.34375 C 279.226562 210.269531 279.238281 210.191406 279.25 210.117188 C 279.289062 209.878906 279.324219 209.640625 279.355469 209.410156 C 279.433594 208.863281 279.5 208.3125 279.558594 207.761719 C 279.582031 207.492188 279.605469 207.222656 279.632812 206.960938 C 279.652344 206.886719 279.667969 206.808594 279.6875 206.726562 C 279.699219 206.726562 279.707031 206.722656 279.71875 206.714844 C 284.03125 204.722656 287.476562 201.078125 288.277344 196.292969 C 288.320312 196.015625 288.671875 194.230469 288.757812 193.386719 C 288.785156 193.132812 288.777344 192.957031 288.753906 192.890625 C 288.722656 192.800781 288.664062 192.765625 288.601562 192.753906 C 288.554688 192.738281 288.496094 192.738281 288.433594 192.777344 C 288.390625 192.800781 288.332031 192.847656 288.277344 192.902344 C 288.222656 192.957031 288.164062 193.027344 288.121094 193.058594 C 287.824219 193.277344 287.550781 193.511719 287.238281 193.691406 C 286.246094 194.269531 285.445312 194.855469 284.664062 195.695312 C 281.804688 198.765625 279.730469 205.28125 279.730469 205.28125 C 279.871094 201.511719 279.425781 197.789062 278.191406 194.1875 C 278.191406 194.179688 278.191406 194.179688 278.191406 194.175781 C 278.183594 193.054688 278.609375 191.960938 279.175781 190.917969 C 279.75 189.851562 280.464844 188.832031 281.027344 187.890625 C 282.019531 186.238281 282.652344 184.421875 282.859375 182.503906 C 282.972656 181.4375 282.945312 180.386719 282.847656 179.316406 C 282.816406 178.996094 282.777344 178.683594 282.738281 178.363281 C 282.726562 178.230469 282.707031 178.097656 282.6875 177.96875 C 282.6875 177.960938 282.695312 177.867188 282.695312 177.832031 C 282.6875 177.78125 282.675781 177.75 282.65625 177.722656 C 282.632812 177.6875 282.59375 177.660156 282.558594 177.65625 C 282.519531 177.640625 282.46875 177.640625 282.414062 177.671875 C 282.34375 177.71875 282.277344 177.804688 282.21875 177.925781 C 282.136719 178.113281 282.082031 178.394531 282.023438 178.511719 C 281.773438 179.058594 281.457031 179.621094 281.109375 180.117188 C 280.464844 181.03125 279.828125 181.8125 279.417969 182.871094 C 278.492188 185.304688 278.605469 187.773438 278.378906 190.316406 C 278.292969 191.316406 278.035156 192.28125 277.851562 193.273438 C 277.640625 192.707031 277.402344 192.152344 277.152344 191.59375 C 275.824219 188.6875 274.382812 186.429688 273.054688 184.390625 C 273.054688 184.371094 273.054688 184.34375 273.046875 184.328125 C 272.683594 182.96875 272.898438 181.675781 273.324219 180.417969 C 273.757812 179.132812 274.40625 177.886719 274.910156 176.652344 C 275.617188 174.90625 275.722656 172.65625 275.289062 170.839844 C 275.160156 170.289062 274.902344 169.210938 274.589844 168.714844 C 274.578125 168.671875 274.570312 168.632812 274.558594 168.589844 C 274.546875 168.546875 274.5 168.519531 274.457031 168.527344 C 274.414062 168.539062 274.390625 168.582031 274.394531 168.628906 C 274.355469 168.632812 274.324219 168.660156 274.292969 168.695312 C 274.28125 168.714844 274.261719 168.746094 274.257812 168.796875 C 274.25 168.839844 274.257812 168.929688 274.246094 168.972656 C 274.21875 169.105469 274.175781 169.230469 274.144531 169.355469 C 274.042969 169.730469 273.898438 170.074219 273.75 170.433594 C 273.296875 171.507812 272.617188 172.457031 272.367188 173.613281 C 271.914062 175.730469 272.453125 177.742188 272.601562 179.847656 C 272.691406 181.074219 272.445312 182.285156 272.484375 183.503906 C 272.171875 183.023438 271.863281 182.546875 271.574219 182.078125 C 269.09375 178.082031 267.453125 174.257812 268.625 166.710938 Z M 278.574219 214.0625 C 278.574219 214.0625 278.578125 214.070312 278.578125 214.070312 C 278.566406 214.078125 278.5625 214.078125 278.546875 214.082031 Z M 286.253906 209.476562 C 286.070312 209.742188 285.921875 209.949219 285.867188 210.03125 C 284.191406 212.085938 282.289062 213.066406 279.832031 213.894531 C 279.738281 213.925781 279.636719 213.953125 279.539062 213.976562 C 279.6875 213.914062 279.839844 213.84375 279.984375 213.777344 C 280.496094 213.542969 281.011719 213.324219 281.503906 213.050781 C 282.925781 212.261719 284.40625 211.359375 285.589844 210.230469 C 285.835938 210 286.039062 209.730469 286.253906 209.476562 Z M 286.667969 208.457031 C 286.296875 208.878906 285.882812 209.265625 285.464844 209.628906 C 284.488281 210.480469 283.429688 211.203125 282.351562 211.929688 C 281.316406 212.625 280.207031 213.40625 279.03125 213.894531 C 279.355469 213.71875 279.667969 213.492188 279.984375 213.3125 C 280.515625 213 281.054688 212.703125 281.566406 212.355469 C 282.230469 211.898438 282.859375 211.363281 283.492188 210.871094 C 284.25 210.28125 284.996094 209.667969 285.765625 209.089844 C 286.058594 208.882812 286.386719 208.6875 286.667969 208.457031 Z M 278.722656 213.636719 C 280.078125 211.621094 282.050781 210.011719 284.128906 208.757812 C 284.410156 208.589844 285.714844 207.894531 286.640625 207.613281 C 286.863281 207.542969 287.0625 207.5 287.210938 207.5 C 287.226562 207.5 287.238281 207.5 287.25 207.5 C 287.066406 207.550781 286.898438 207.644531 286.71875 207.707031 C 286.515625 207.773438 286.296875 207.8125 286.097656 207.894531 C 285.546875 208.125 285.042969 208.507812 284.539062 208.820312 C 284.148438 209.066406 283.742188 209.277344 283.371094 209.542969 C 282.746094 209.984375 282.175781 210.503906 281.59375 211.007812 C 280.949219 211.566406 280.289062 212.109375 279.65625 212.691406 C 279.332031 213 279.035156 213.324219 278.722656 213.636719 Z M 287.207031 207.6875 C 287.175781 207.722656 287.136719 207.761719 287.105469 207.792969 C 286.796875 207.980469 286.464844 208.132812 286.160156 208.320312 C 285.851562 208.507812 285.570312 208.734375 285.269531 208.933594 C 284.945312 209.152344 284.601562 209.347656 284.28125 209.574219 C 283.578125 210.074219 282.921875 210.648438 282.238281 211.175781 C 281.210938 211.964844 280.160156 212.734375 279.101562 213.488281 C 279.320312 213.261719 279.539062 213.03125 279.769531 212.816406 C 280.394531 212.242188 281.054688 211.695312 281.699219 211.136719 C 282.277344 210.644531 282.839844 210.125 283.464844 209.683594 C 283.835938 209.421875 284.242188 209.210938 284.625 208.972656 C 285.121094 208.65625 285.613281 208.28125 286.160156 208.054688 C 286.355469 207.976562 286.566406 207.9375 286.765625 207.867188 C 286.917969 207.816406 287.0625 207.742188 287.207031 207.6875 Z M 286.6875 208.21875 C 286.378906 208.496094 285.996094 208.714844 285.664062 208.957031 C 284.894531 209.535156 284.148438 210.148438 283.390625 210.738281 C 282.757812 211.234375 282.136719 211.765625 281.472656 212.214844 C 280.964844 212.5625 280.433594 212.855469 279.902344 213.160156 C 279.738281 213.257812 279.582031 213.363281 279.417969 213.460938 C 280.410156 212.761719 281.386719 212.039062 282.34375 211.308594 C 283.027344 210.789062 283.679688 210.21875 284.386719 209.714844 C 284.707031 209.492188 285.042969 209.296875 285.371094 209.078125 C 285.664062 208.878906 285.945312 208.652344 286.253906 208.46875 C 286.390625 208.382812 286.542969 208.300781 286.6875 208.21875 Z M 286.660156 208.71875 C 286.511719 208.914062 286.355469 209.109375 286.191406 209.289062 C 285.953125 209.566406 285.734375 209.859375 285.46875 210.109375 C 284.300781 211.226562 282.832031 212.121094 281.421875 212.90625 C 281.078125 213.09375 280.726562 213.257812 280.378906 213.417969 C 281.097656 213 281.792969 212.523438 282.449219 212.078125 C 283.527344 211.351562 284.59375 210.617188 285.578125 209.765625 C 285.953125 209.433594 286.324219 209.089844 286.660156 208.71875 Z M 272.195312 199.8125 C 272.710938 200.507812 273.109375 201.335938 273.59375 202.023438 C 275.410156 204.628906 277.039062 207.40625 278.203125 210.367188 C 276.757812 208.175781 275.492188 205.820312 274.164062 203.558594 C 273.429688 202.3125 272.609375 201.183594 272.195312 199.8125 Z M 274.402344 201.585938 C 274.457031 201.648438 274.519531 201.714844 274.578125 201.785156 C 274.613281 201.828125 274.652344 201.875 274.6875 201.917969 C 276.480469 204.035156 278.359375 207.28125 278.449219 210.222656 C 278.179688 209.195312 277.734375 208.226562 277.351562 207.230469 C 276.605469 205.320312 275.703125 203.269531 274.402344 201.585938 Z M 271.90625 199.449219 C 271.921875 199.460938 271.925781 199.46875 271.9375 199.480469 C 272.308594 201.039062 273.21875 202.269531 274.023438 203.640625 C 275.214844 205.664062 276.347656 207.761719 277.613281 209.746094 C 275.792969 207.492188 273.960938 205.082031 272.886719 202.398438 C 272.484375 201.433594 272.046875 200.488281 271.90625 199.449219 Z M 272.398438 199.800781 C 274.769531 201.609375 276.148438 204.585938 277.1875 207.292969 C 277.503906 208.105469 277.859375 208.902344 278.128906 209.730469 C 276.976562 206.964844 275.433594 204.371094 273.730469 201.921875 C 273.265625 201.257812 272.878906 200.476562 272.398438 199.800781 Z M 271.734375 200.914062 C 271.863281 201.511719 272.109375 202.113281 272.285156 202.617188 C 272.804688 204.171875 274.527344 206.964844 275.683594 208.195312 C 276.113281 208.640625 276.542969 209.066406 276.964844 209.503906 C 276.53125 209.253906 276.097656 209.007812 275.765625 208.707031 C 274.714844 207.753906 273.15625 205.429688 272.308594 203.195312 C 272.015625 202.398438 271.800781 201.617188 271.734375 200.914062 Z M 271.820312 199.925781 C 272.007812 200.800781 272.382812 201.628906 272.722656 202.46875 C 273.742188 205 275.421875 207.296875 277.144531 209.441406 C 276.707031 208.984375 276.253906 208.546875 275.816406 208.082031 C 274.671875 206.871094 272.964844 204.109375 272.453125 202.570312 C 272.300781 202.125 272.097656 201.617188 271.957031 201.097656 C 271.84375 200.703125 271.78125 200.300781 271.820312 199.925781 Z M 279.90625 206.265625 C 279.90625 206.265625 279.90625 206.269531 279.90625 206.269531 L 279.890625 206.277344 Z M 287.757812 197.074219 C 287.667969 197.449219 287.5625 197.8125 287.4375 198.175781 C 286.390625 200.230469 284.292969 202.335938 282.882812 203.785156 C 281.992188 204.691406 281.296875 205.59375 280.128906 206.109375 C 282.375 204.609375 283.828125 202.285156 285.488281 200.214844 C 286.328125 199.179688 287.1875 198.222656 287.757812 197.074219 Z M 288.191406 194.789062 C 288.070312 195.472656 287.945312 196.117188 287.921875 196.265625 L 287.921875 196.273438 C 287.394531 197.75 286.355469 198.871094 285.359375 200.105469 C 283.835938 202 282.496094 204.101562 280.558594 205.589844 C 281.328125 204.804688 282.105469 204.007812 282.78125 203.15625 C 284.035156 201.578125 285.03125 199.804688 286.121094 198.109375 C 286.910156 196.878906 287.664062 195.972656 288.191406 194.789062 Z M 287.40625 194.003906 C 286.046875 195.582031 285.15625 197.527344 284.128906 199.335938 C 282.890625 201.527344 281.472656 203.558594 279.984375 205.582031 C 280 205.507812 280.027344 205.429688 280.050781 205.351562 C 280.238281 205.164062 280.414062 204.929688 280.578125 204.671875 C 280.996094 204.007812 281.34375 203.203125 281.65625 202.710938 C 282.675781 201.128906 283.667969 199.554688 284.539062 197.882812 C 285.152344 196.691406 285.628906 195.527344 286.515625 194.5625 C 286.792969 194.375 287.082031 194.191406 287.382812 194.019531 C 287.394531 194.011719 287.398438 194.011719 287.40625 194.003906 Z M 288.121094 193.503906 C 285.921875 197.34375 283.917969 201.285156 280.964844 204.609375 C 280.710938 204.898438 280.484375 205.210938 280.246094 205.511719 C 281.691406 203.539062 283.066406 201.554688 284.28125 199.417969 C 285.425781 197.394531 286.398438 195.21875 288.046875 193.558594 C 288.070312 193.542969 288.09375 193.523438 288.121094 193.503906 Z M 287.042969 199.191406 C 285.921875 201.722656 283.980469 203.804688 281.625 205.3125 C 282.101562 204.886719 282.527344 204.398438 283.007812 203.902344 C 284.210938 202.664062 285.914062 200.953125 287.042969 199.191406 Z M 288.410156 193.339844 C 288.394531 193.453125 288.382812 193.585938 288.363281 193.734375 C 288.351562 193.8125 288.347656 193.886719 288.332031 193.960938 C 287.824219 195.546875 286.9375 196.546875 285.992188 198.019531 C 284.90625 199.710938 283.910156 201.480469 282.664062 203.058594 C 282.054688 203.820312 281.367188 204.535156 280.679688 205.242188 C 280.816406 205.066406 280.953125 204.894531 281.105469 204.722656 C 284.210938 201.203125 286.277344 197 288.632812 192.953125 Z M 285.964844 194.96875 C 285.320312 195.835938 284.902344 196.8125 284.386719 197.8125 C 283.523438 199.488281 282.53125 201.050781 281.519531 202.632812 C 281.203125 203.121094 280.859375 203.929688 280.441406 204.59375 C 280.363281 204.710938 280.289062 204.824219 280.207031 204.929688 C 280.710938 203.796875 281.335938 202.726562 281.894531 201.621094 C 282.988281 199.425781 284.054688 197.242188 285.558594 195.308594 C 285.691406 195.1875 285.828125 195.078125 285.964844 194.96875 Z M 284.800781 196.054688 C 283.605469 197.777344 282.6875 199.648438 281.738281 201.535156 C 281.335938 202.324219 280.902344 203.101562 280.503906 203.898438 C 281.460938 201.039062 282.816406 198.226562 284.800781 196.054688 Z M 267.9375 189.257812 C 269.027344 190.140625 270.378906 190.652344 271.570312 191.378906 C 273.78125 192.722656 275.765625 194.417969 277.382812 196.441406 C 277.691406 196.832031 278.070312 197.199219 278.390625 197.601562 C 278.402344 197.625 278.421875 197.644531 278.4375 197.667969 C 278.378906 197.605469 278.324219 197.550781 278.265625 197.488281 C 277.847656 197.03125 277.410156 196.597656 276.96875 196.160156 C 275.226562 194.429688 273.347656 192.953125 271.292969 191.605469 C 270.191406 190.878906 268.871094 190.234375 267.9375 189.257812 Z M 273.75 191.875 C 274.082031 192.050781 274.394531 192.238281 274.675781 192.425781 C 275.886719 193.257812 277.121094 194.917969 277.871094 196.179688 C 278.058594 196.492188 278.246094 196.816406 278.421875 197.164062 C 278.078125 196.609375 277.675781 196.089844 277.300781 195.578125 C 276.3125 194.242188 275.121094 192.910156 273.75 191.875 Z M 269.378906 191.675781 C 269.820312 192.074219 270.285156 192.457031 270.761719 192.816406 C 271.945312 193.710938 273.304688 194.429688 274.570312 195.203125 C 275.359375 195.683594 276.125 196.179688 276.863281 196.738281 C 276.457031 196.515625 276.046875 196.296875 275.652344 196.054688 C 274.703125 195.457031 273.792969 194.789062 272.824219 194.222656 C 272.164062 193.84375 271.445312 193.578125 270.78125 193.191406 C 270.609375 193.035156 270.449219 192.878906 270.285156 192.703125 C 269.964844 192.363281 269.660156 192.019531 269.378906 191.675781 Z M 268.320312 190.214844 C 268.46875 190.382812 268.625 190.546875 268.789062 190.683594 C 269.269531 191.109375 269.820312 191.472656 270.335938 191.863281 C 271.859375 193.027344 273.441406 194.085938 275.039062 195.144531 C 275.667969 195.566406 276.253906 196.007812 276.824219 196.484375 C 276.125 195.972656 275.410156 195.507812 274.664062 195.050781 C 273.398438 194.28125 272.050781 193.558594 270.867188 192.671875 C 270.128906 192.113281 269.421875 191.5 268.75 190.847656 C 268.601562 190.648438 268.457031 190.433594 268.320312 190.214844 Z M 268 189.550781 C 268.925781 190.433594 270.160156 191.054688 271.199219 191.738281 C 273.242188 193.078125 275.117188 194.542969 276.84375 196.273438 C 276.894531 196.324219 276.945312 196.375 276.996094 196.417969 C 276.398438 195.914062 275.785156 195.445312 275.128906 195.007812 C 273.535156 193.941406 271.953125 192.890625 270.429688 191.730469 C 269.921875 191.34375 269.371094 190.984375 268.894531 190.558594 C 268.582031 190.277344 268.273438 189.925781 268 189.550781 Z M 271.550781 190.855469 C 271.925781 191.015625 272.308594 191.179688 272.679688 191.347656 C 274.453125 192.425781 275.953125 194.054688 277.152344 195.671875 C 277.234375 195.785156 277.3125 195.890625 277.402344 196.003906 C 277.351562 195.941406 277.308594 195.882812 277.257812 195.828125 C 275.699219 193.886719 273.695312 192.167969 271.550781 190.855469 Z M 271.363281 193.6875 C 271.828125 193.910156 272.296875 194.113281 272.742188 194.367188 C 273.550781 194.832031 274.3125 195.378906 275.089844 195.882812 C 273.757812 195.226562 272.496094 194.585938 271.363281 193.6875 Z M 267.542969 188.667969 C 267.941406 188.988281 268.351562 189.289062 268.78125 189.550781 C 268.78125 189.550781 268.777344 189.558594 268.777344 189.558594 C 268.757812 189.601562 268.769531 189.652344 268.8125 189.671875 C 269.578125 190.058594 270.375 190.347656 271.113281 190.785156 C 272.796875 191.773438 274.40625 193.027344 275.796875 194.445312 C 274.546875 193.214844 273.148438 192.136719 271.644531 191.230469 C 270.324219 190.429688 268.792969 189.882812 267.660156 188.792969 C 267.621094 188.753906 267.585938 188.710938 267.542969 188.667969 Z M 282.320312 178.699219 C 282.28125 179 282.230469 179.300781 282.144531 179.589844 C 282.019531 179.996094 281.792969 180.359375 281.691406 180.773438 C 281.117188 183.191406 280.507812 185.628906 279.730469 187.992188 C 279.5 188.707031 279.226562 189.402344 278.941406 190.097656 C 278.90625 190.191406 278.863281 190.289062 278.816406 190.382812 C 278.980469 189.90625 279.050781 189.402344 279.167969 188.917969 C 279.417969 187.898438 279.6875 186.886719 279.9375 185.867188 C 280.351562 184.183594 280.765625 182.472656 281.347656 180.835938 C 281.574219 180.203125 281.914062 179.589844 282.1875 178.976562 C 282.238281 178.875 282.277344 178.789062 282.320312 178.699219 Z M 281.34375 180.40625 C 281.292969 180.53125 281.242188 180.648438 281.199219 180.773438 C 280.617188 182.414062 280.203125 184.132812 279.78125 185.824219 C 279.53125 186.84375 279.261719 187.851562 279.011719 188.875 C 278.949219 189.117188 278.90625 189.375 278.847656 189.625 C 278.917969 189.125 278.972656 188.625 279.066406 188.128906 C 279.304688 186.882812 279.652344 185.65625 279.902344 184.40625 C 280.109375 183.375 280.238281 182.140625 280.773438 181.195312 C 280.960938 180.929688 281.148438 180.675781 281.34375 180.40625 Z M 282.464844 182.824219 C 282.230469 184.578125 281.628906 186.238281 280.722656 187.757812 C 280.378906 188.335938 279.984375 188.929688 279.59375 189.550781 C 279.75 189.199219 279.90625 188.847656 280.070312 188.503906 C 280.601562 187.414062 281.117188 186.324219 281.59375 185.203125 C 281.929688 184.421875 282.238281 183.632812 282.464844 182.824219 Z M 282.449219 178.984375 L 282.464844 179.082031 C 282.46875 179.351562 282.464844 179.628906 282.4375 179.898438 C 282.375 180.523438 282.175781 181.09375 282.023438 181.695312 C 281.824219 182.464844 281.660156 183.253906 281.417969 184.019531 C 281.210938 184.660156 280.933594 185.265625 280.722656 185.90625 C 280.378906 186.953125 279.988281 187.980469 279.5625 188.988281 C 279.683594 188.675781 279.789062 188.359375 279.894531 188.042969 C 280.671875 185.671875 281.28125 183.230469 281.863281 180.8125 C 281.960938 180.40625 282.1875 180.042969 282.308594 179.640625 C 282.375 179.421875 282.417969 179.195312 282.449219 178.96875 Z M 280.265625 181.953125 C 280.007812 182.742188 279.890625 183.605469 279.738281 184.371094 C 279.488281 185.617188 279.144531 186.84375 278.90625 188.089844 C 278.875 188.246094 278.847656 188.40625 278.824219 188.566406 C 278.925781 186.695312 279.023438 184.859375 279.71875 183.042969 C 279.871094 182.648438 280.058594 182.289062 280.265625 181.953125 Z M 282.558594 180.273438 C 282.578125 180.71875 282.582031 181.164062 282.570312 181.609375 C 282.371094 182.828125 281.9375 183.988281 281.441406 185.140625 C 281.046875 186.0625 280.632812 186.957031 280.203125 187.859375 C 280.445312 187.234375 280.671875 186.601562 280.886719 185.957031 C 281.097656 185.324219 281.375 184.707031 281.582031 184.070312 C 281.824219 183.304688 281.992188 182.515625 282.1875 181.738281 C 282.3125 181.246094 282.46875 180.769531 282.558594 180.273438 Z M 275.179688 172.480469 C 275.273438 173.863281 275.078125 175.34375 274.582031 176.566406 C 274.199219 177.511719 273.730469 178.460938 273.335938 179.433594 C 273.375 179.285156 273.417969 179.140625 273.46875 179 C 274.175781 177.027344 275.007812 174.9375 275.160156 172.824219 C 275.164062 172.710938 275.171875 172.59375 275.179688 172.480469 Z M 273.273438 172.15625 C 273.1875 172.71875 273.191406 173.300781 273.179688 173.882812 C 273.167969 174.660156 273.105469 175.449219 273.140625 176.226562 C 273.160156 176.660156 273.191406 177.101562 273.203125 177.542969 C 273.136719 178.054688 273.066406 178.574219 272.992188 179.089844 C 272.992188 179.082031 272.992188 179.070312 272.992188 179.0625 C 272.996094 178.195312 272.867188 177.339844 272.808594 176.476562 C 272.722656 175.21875 272.734375 173.902344 273.03125 172.667969 C 273.109375 172.492188 273.191406 172.324219 273.273438 172.15625 Z M 272.679688 173.738281 C 272.570312 174.652344 272.585938 175.582031 272.648438 176.484375 C 272.703125 177.277344 272.816406 178.066406 272.828125 178.863281 C 272.628906 177.152344 272.308594 175.480469 272.679688 173.738281 Z M 274.820312 170.417969 C 274.863281 170.589844 274.902344 170.738281 274.933594 170.875 C 275.007812 171.515625 275.039062 172.15625 274.996094 172.820312 C 274.847656 174.886719 274.042969 176.929688 273.34375 178.863281 C 273.355469 178.761719 273.363281 178.664062 273.367188 178.558594 C 273.460938 178.144531 273.566406 177.730469 273.667969 177.316406 C 273.96875 176.105469 274.390625 174.910156 274.601562 173.675781 C 274.777344 172.605469 274.882812 171.503906 274.820312 170.417969 Z M 274.546875 169.492188 L 274.550781 169.511719 C 274.765625 170.875 274.664062 172.285156 274.433594 173.644531 C 274.226562 174.875 273.804688 176.0625 273.503906 177.273438 C 273.46875 177.433594 273.425781 177.597656 273.378906 177.761719 C 273.378906 177.691406 273.378906 177.625 273.375 177.554688 C 273.59375 175.933594 273.800781 174.308594 274.039062 172.691406 C 274.113281 172.191406 274.167969 171.683594 274.257812 171.183594 C 274.363281 170.625 274.496094 170.054688 274.539062 169.480469 Z M 274.332031 169.867188 C 274.269531 170.300781 274.175781 170.726562 274.101562 171.152344 C 274.007812 171.652344 273.949219 172.160156 273.875 172.667969 C 273.679688 173.976562 273.511719 175.292969 273.335938 176.601562 C 273.328125 176.46875 273.324219 176.34375 273.316406 176.214844 C 273.28125 175.441406 273.34375 174.652344 273.355469 173.878906 C 273.367188 173.085938 273.347656 172.285156 273.59375 171.546875 C 273.757812 171.234375 273.914062 170.921875 274.050781 170.59375 C 274.144531 170.355469 274.246094 170.117188 274.332031 169.867188 Z M 267.71875 175.699219 C 267.730469 175.710938 267.734375 175.71875 267.75 175.730469 C 267.796875 175.792969 267.847656 175.863281 267.898438 175.925781 C 267.90625 175.933594 267.910156 175.9375 267.917969 175.945312 C 267.921875 175.957031 267.929688 175.96875 267.9375 175.976562 C 267.847656 175.894531 267.761719 175.820312 267.667969 175.742188 C 267.679688 175.738281 267.691406 175.730469 267.703125 175.726562 C 267.710938 175.71875 267.71875 175.710938 267.71875 175.699219 Z M 262.90625 170.054688 C 263.75 170.632812 264.570312 171.222656 265.304688 171.960938 C 265.886719 172.554688 266.34375 173.300781 266.808594 173.984375 C 267.101562 174.421875 267.390625 174.878906 267.667969 175.34375 L 267.648438 175.316406 C 267.378906 174.980469 267.097656 174.652344 266.816406 174.328125 C 266.640625 174.113281 266.457031 173.902344 266.28125 173.6875 C 265.441406 172.675781 264.691406 171.679688 263.726562 170.777344 C 263.464844 170.539062 263.1875 170.292969 262.90625 170.054688 Z M 258.882812 168.414062 C 259.9375 169.957031 261.277344 171.277344 262.785156 172.386719 C 263.726562 173.070312 264.699219 173.738281 265.664062 174.390625 C 265.996094 174.609375 266.332031 174.835938 266.644531 175.085938 C 266.476562 174.992188 266.300781 174.90625 266.125 174.824219 C 265.964844 174.722656 265.800781 174.621094 265.636719 174.523438 C 264.339844 173.765625 263.117188 172.875 261.953125 171.933594 C 261.328125 171.429688 260.644531 170.945312 260.117188 170.332031 C 259.828125 169.929688 259.554688 169.515625 259.285156 169.105469 C 259.148438 168.871094 259.015625 168.644531 258.882812 168.414062 Z M 259.496094 168.972656 C 260.714844 170.273438 262.199219 171.320312 263.664062 172.378906 C 264.554688 173.019531 265.394531 173.765625 266.207031 174.496094 C 266.332031 174.609375 266.457031 174.714844 266.589844 174.828125 C 266.320312 174.628906 266.039062 174.441406 265.757812 174.253906 C 264.792969 173.609375 263.820312 172.9375 262.878906 172.253906 C 261.609375 171.316406 260.457031 170.21875 259.496094 168.972656 Z M 258.726562 167.777344 C 259.132812 168.144531 259.5625 168.484375 259.980469 168.839844 C 261.070312 169.769531 262.128906 170.707031 263.25 171.597656 C 264.019531 172.210938 264.808594 172.84375 265.519531 173.527344 C 265.894531 173.890625 266.257812 174.257812 266.628906 174.628906 C 266.527344 174.542969 266.425781 174.453125 266.328125 174.367188 C 265.503906 173.632812 264.667969 172.882812 263.765625 172.234375 C 261.921875 170.921875 260.050781 169.609375 258.726562 167.777344 Z M 258.445312 167.28125 C 258.851562 167.511719 259.265625 167.738281 259.65625 168.011719 C 260.933594 168.941406 262.074219 170.035156 263.25 171.082031 C 264.441406 172.136719 265.617188 173.246094 266.675781 174.441406 L 266.695312 174.464844 C 266.34375 174.109375 265.988281 173.75 265.632812 173.402344 C 264.917969 172.710938 264.121094 172.078125 263.351562 171.460938 C 262.230469 170.570312 261.175781 169.628906 260.085938 168.703125 C 259.535156 168.246094 258.960938 167.792969 258.445312 167.28125 Z M 260.863281 171.269531 C 261.1875 171.539062 261.527344 171.796875 261.851562 172.058594 C 262.8125 172.832031 263.808594 173.570312 264.847656 174.226562 C 264.390625 174.019531 263.925781 173.796875 263.476562 173.527344 C 262.453125 172.925781 261.609375 172.148438 260.863281 171.269531 Z M 260.964844 168.828125 C 261.109375 168.910156 261.253906 168.992188 261.394531 169.074219 C 262.148438 169.640625 262.9375 170.273438 263.609375 170.902344 C 264.214844 171.472656 264.742188 172.085938 265.253906 172.710938 C 264.640625 172.109375 264.003906 171.527344 263.355469 170.957031 C 262.5625 170.25 261.777344 169.515625 260.964844 168.828125 Z M 267.257812 158.523438 C 267.253906 159.363281 267.304688 160.207031 267.402344 161.046875 C 267.554688 162.320312 267.761719 163.558594 267.992188 164.832031 C 268.09375 165.375 268.191406 165.933594 268.230469 166.492188 C 268.019531 165.6875 267.703125 164.898438 267.511719 164.046875 C 267.097656 162.261719 267.003906 160.363281 267.257812 158.523438 Z M 269.378906 157.507812 C 269.714844 159.414062 269.742188 161.421875 269.390625 163.269531 C 269.21875 164.15625 268.964844 165.011719 268.707031 165.878906 C 268.832031 165.0625 268.933594 164.25 269.03125 163.433594 C 269.269531 161.441406 269.488281 159.480469 269.378906 157.507812 Z M 269.050781 156.074219 C 269.050781 156.078125 269.058594 156.085938 269.058594 156.09375 C 269.425781 158.546875 269.15625 160.953125 268.863281 163.414062 C 268.769531 164.199219 268.667969 164.976562 268.550781 165.757812 C 268.542969 165.671875 268.53125 165.582031 268.519531 165.5 C 268.601562 164.769531 268.71875 164.03125 268.789062 163.300781 C 268.957031 161.523438 269.015625 159.746094 269.058594 157.953125 C 269.078125 157.269531 269.089844 156.667969 269.050781 156.074219 Z M 267.535156 157.070312 C 267.527344 158.667969 267.671875 160.265625 267.90625 161.824219 C 268.03125 162.671875 268.023438 163.617188 268.167969 164.460938 C 268.207031 164.667969 268.242188 164.867188 268.28125 165.0625 C 268.28125 165.199219 268.28125 165.339844 268.273438 165.476562 C 268.238281 165.25 268.199219 165.03125 268.15625 164.804688 C 267.921875 163.535156 267.71875 162.292969 267.566406 161.027344 C 267.417969 159.78125 267.378906 158.542969 267.484375 157.289062 C 267.496094 157.238281 267.503906 157.195312 267.515625 157.152344 C 267.523438 157.125 267.527344 157.09375 267.535156 157.070312 Z M 268.0625 153.035156 C 268.570312 155.339844 268.59375 157.765625 268.542969 160.101562 C 268.519531 161.386719 268.5 162.652344 268.425781 163.929688 C 268.425781 163.855469 268.417969 163.785156 268.417969 163.710938 C 268.398438 162.53125 268.363281 161.375 268.292969 160.195312 C 268.160156 158.058594 268.105469 155.203125 268.0625 153.035156 Z M 267.921875 154.519531 C 267.96875 156.40625 268.023438 158.527344 268.125 160.207031 C 268.191406 161.378906 268.230469 162.539062 268.25 163.710938 C 268.25 163.761719 268.25 163.808594 268.25 163.859375 C 268.179688 163.175781 268.160156 162.449219 268.0625 161.792969 C 267.785156 159.925781 267.636719 157.984375 267.722656 156.074219 C 267.8125 155.566406 267.875 155.039062 267.921875 154.519531 Z M 268.40625 153.96875 C 268.542969 154.394531 268.667969 154.820312 268.808594 155.246094 C 268.925781 156.140625 268.914062 156.957031 268.886719 157.941406 C 268.84375 159.695312 268.792969 161.441406 268.632812 163.183594 C 268.675781 162.15625 268.695312 161.136719 268.714844 160.101562 C 268.75 158.085938 268.738281 155.984375 268.40625 153.96875 Z M 268.40625 153.96875 " fill-opacity="1" fill-rule="evenodd"/></g><g fill="#e8ecd7" fill-opacity="1"><g transform="translate(119.233099, 261.192308)"><g><path d="M 10.78125 -0.890625 C 11.300781 -2.046875 11.039062 -3.019531 10 -3.8125 C 9.351562 -4.3125 8.632812 -4.441406 7.84375 -4.203125 C 7.050781 -3.960938 6.300781 -3.378906 5.59375 -2.453125 C 4.914062 -1.566406 4.554688 -0.71875 4.515625 0.09375 C 4.484375 0.914062 4.800781 1.585938 5.46875 2.109375 C 6.5 2.890625 7.546875 2.835938 8.609375 1.953125 L 10.390625 3.3125 C 9.585938 4.082031 8.632812 4.53125 7.53125 4.65625 C 6.425781 4.78125 5.335938 4.429688 4.265625 3.609375 C 3.066406 2.691406 2.414062 1.570312 2.3125 0.25 C 2.207031 -1.070312 2.695312 -2.441406 3.78125 -3.859375 C 4.8125 -5.210938 5.992188 -6.035156 7.328125 -6.328125 C 8.660156 -6.617188 9.9375 -6.300781 11.15625 -5.375 C 12.226562 -4.5625 12.875 -3.613281 13.09375 -2.53125 C 13.3125 -1.445312 13.132812 -0.445312 12.5625 0.46875 Z M 10.78125 -0.890625 "/></g></g></g><g fill="#e8ecd7" fill-opacity="1"><g transform="translate(132.432872, 270.773695)"><g><path d="M 5.09375 -3.390625 C 4.5 -2.285156 4.296875 -1.320312 4.484375 -0.5 C 4.671875 0.3125 5.140625 0.921875 5.890625 1.328125 C 6.648438 1.734375 7.414062 1.78125 8.1875 1.46875 C 8.96875 1.15625 9.648438 0.460938 10.234375 -0.609375 C 10.804688 -1.671875 11.007812 -2.613281 10.84375 -3.4375 C 10.675781 -4.257812 10.207031 -4.878906 9.4375 -5.296875 C 8.65625 -5.710938 7.878906 -5.765625 7.109375 -5.453125 C 6.335938 -5.140625 5.664062 -4.453125 5.09375 -3.390625 Z M 3.109375 -4.453125 C 3.972656 -6.078125 5.054688 -7.082031 6.359375 -7.46875 C 7.671875 -7.851562 8.992188 -7.691406 10.328125 -6.984375 C 11.648438 -6.265625 12.515625 -5.253906 12.921875 -3.953125 C 13.328125 -2.648438 13.09375 -1.179688 12.21875 0.453125 C 11.34375 2.066406 10.25 3.078125 8.9375 3.484375 C 7.632812 3.890625 6.3125 3.726562 4.96875 3 C 3.675781 2.3125 2.8125 1.320312 2.375 0.03125 C 1.9375 -1.25 2.179688 -2.742188 3.109375 -4.453125 Z M 3.109375 -4.453125 "/></g></g></g><g fill="#e8ecd7" fill-opacity="1"><g transform="translate(147.66573, 278.452325)"><g><path d="M 10.875 -7.625 L 12.859375 -6.9375 L 9.328125 3.234375 L 7.203125 2.5 L 5.59375 -6.203125 L 5.5625 -6.21875 L 3.03125 1.046875 L 1.03125 0.359375 L 4.5625 -9.8125 L 6.8125 -9.03125 L 8.40625 -0.53125 L 8.421875 -0.53125 Z M 10.875 -7.625 "/></g></g></g><g fill="#e8ecd7" fill-opacity="1"><g transform="translate(163.285535, 283.4093)"><g><path d="M 3.34375 -2.75 C 3.238281 -2.226562 3.351562 -1.773438 3.6875 -1.390625 C 4.019531 -1.015625 4.546875 -0.757812 5.265625 -0.625 C 5.972656 -0.488281 6.539062 -0.503906 6.96875 -0.671875 C 7.394531 -0.835938 7.648438 -1.144531 7.734375 -1.59375 C 7.773438 -1.863281 7.71875 -2.113281 7.5625 -2.34375 C 7.40625 -2.582031 6.976562 -2.851562 6.28125 -3.15625 L 4.546875 -3.90625 C 3.460938 -4.382812 2.757812 -4.894531 2.4375 -5.4375 C 2.113281 -5.976562 2.023438 -6.65625 2.171875 -7.46875 C 2.347656 -8.425781 2.832031 -9.144531 3.625 -9.625 C 4.425781 -10.101562 5.503906 -10.21875 6.859375 -9.96875 C 8.210938 -9.71875 9.171875 -9.1875 9.734375 -8.375 C 10.304688 -7.5625 10.507812 -6.703125 10.34375 -5.796875 L 8.234375 -6.1875 C 8.273438 -6.707031 8.144531 -7.132812 7.84375 -7.46875 C 7.539062 -7.800781 7.046875 -8.035156 6.359375 -8.171875 C 5.804688 -8.265625 5.335938 -8.226562 4.953125 -8.0625 C 4.578125 -7.90625 4.351562 -7.632812 4.28125 -7.25 C 4.226562 -6.976562 4.257812 -6.738281 4.375 -6.53125 C 4.488281 -6.332031 4.703125 -6.160156 5.015625 -6.015625 L 7.71875 -4.78125 C 8.695312 -4.351562 9.335938 -3.867188 9.640625 -3.328125 C 9.941406 -2.785156 10.03125 -2.164062 9.90625 -1.46875 C 9.6875 -0.3125 9.125 0.476562 8.21875 0.90625 C 7.320312 1.34375 6.28125 1.453125 5.09375 1.234375 C 3.570312 0.953125 2.492188 0.414062 1.859375 -0.375 C 1.234375 -1.164062 1.019531 -2.085938 1.21875 -3.140625 Z M 3.34375 -2.75 "/></g></g></g><g fill="#e8ecd7" fill-opacity="1"><g transform="translate(178.562538, 285.84756)"><g><path d="M 9.875 -3.453125 C 9.832031 -2.128906 9.429688 -1.132812 8.671875 -0.46875 C 7.910156 0.1875 6.789062 0.492188 5.3125 0.453125 C 4.007812 0.410156 2.984375 0.046875 2.234375 -0.640625 C 1.484375 -1.328125 1.128906 -2.316406 1.171875 -3.609375 L 1.40625 -10.734375 L 3.703125 -10.65625 L 3.484375 -3.671875 C 3.460938 -2.960938 3.617188 -2.421875 3.953125 -2.046875 C 4.285156 -1.671875 4.773438 -1.472656 5.421875 -1.453125 C 6.078125 -1.429688 6.59375 -1.582031 6.96875 -1.90625 C 7.34375 -2.238281 7.546875 -2.75 7.578125 -3.4375 L 7.796875 -10.53125 L 10.09375 -10.453125 Z M 9.875 -3.453125 "/></g></g></g><g fill="#e8ecd7" fill-opacity="1"><g transform="translate(194.747929, 285.907073)"><g><path d="M 3.109375 -2.3125 L 8.421875 -2.921875 L 8.640625 -0.984375 L 1.09375 -0.125 L -0.125 -10.828125 L 2.109375 -11.078125 Z M 3.109375 -2.3125 "/></g></g></g><g fill="#e8ecd7" fill-opacity="1"><g transform="translate(208.897531, 283.936057)"><g><path d="M 5.546875 -1.421875 L 3.359375 -0.859375 L 1.15625 -9.4375 L -1.984375 -8.625 L -2.453125 -10.46875 L 6.03125 -12.65625 L 6.5 -10.8125 L 3.34375 -10 Z M 5.546875 -1.421875 "/></g></g></g><g fill="#e8ecd7" fill-opacity="1"><g transform="translate(222.718825, 279.954109)"><g><path d="M 3.125 -1.1875 L 1.015625 -0.390625 L -2.828125 -10.453125 L -0.71875 -11.25 Z M 3.125 -1.1875 "/></g></g></g><g fill="#e8ecd7" fill-opacity="1"><g transform="translate(231.73457, 276.379306)"><g><path d="M 1.828125 -13.15625 L 3.671875 -14.125 L 8.71875 -4.625 L 6.734375 -3.578125 L -0.75 -8.3125 L -0.78125 -8.296875 L 2.828125 -1.5 L 0.96875 -0.515625 L -4.078125 -10.015625 L -1.984375 -11.125 L 5.3125 -6.53125 L 5.34375 -6.546875 Z M 1.828125 -13.15625 "/></g></g></g><g fill="#e8ecd7" fill-opacity="1"><g transform="translate(246.059946, 268.305604)"><g><path d="M 1.421875 -8.390625 L 5 -11.09375 L 8.515625 -6.453125 L 7.328125 -5.546875 L 6.34375 -6.5 C 6.34375 -5.132812 5.765625 -4.015625 4.609375 -3.140625 C 3.460938 -2.273438 2.210938 -1.972656 0.859375 -2.234375 C -0.492188 -2.492188 -1.6875 -3.300781 -2.71875 -4.65625 C -3.75 -6.007812 -4.203125 -7.390625 -4.078125 -8.796875 C -3.953125 -10.210938 -3.242188 -11.410156 -1.953125 -12.390625 C -0.835938 -13.234375 0.257812 -13.625 1.34375 -13.5625 C 2.425781 -13.507812 3.316406 -13.109375 4.015625 -12.359375 L 2.21875 -11 C 1.78125 -11.34375 1.289062 -11.507812 0.75 -11.5 C 0.21875 -11.5 -0.273438 -11.328125 -0.734375 -10.984375 C -1.503906 -10.398438 -1.894531 -9.664062 -1.90625 -8.78125 C -1.925781 -7.894531 -1.578125 -6.976562 -0.859375 -6.03125 C -0.140625 -5.082031 0.617188 -4.515625 1.421875 -4.328125 C 2.234375 -4.140625 3.050781 -4.351562 3.875 -4.96875 C 4.332031 -5.320312 4.640625 -5.789062 4.796875 -6.375 C 4.960938 -6.96875 4.875 -7.648438 4.53125 -8.421875 L 2.53125 -6.921875 Z M 1.421875 -8.390625 "/></g></g></g></svg>