<svg xmlns="http://www.w3.org/2000/svg" xmlns:xlink="http://www.w3.org/1999/xlink" width="500" zoomAndPan="magnify" viewBox="0 0 375 374.999991" height="500" preserveAspectRatio="xMidYMid meet" version="1.0"><defs><g/><clipPath id="cfbfd10f97"><path d="M 76.777344 88.277344 L 299.527344 88.277344 L 299.527344 283.277344 L 76.777344 283.277344 Z M 76.777344 88.277344 " clip-rule="nonzero"/></clipPath><clipPath id="5c5b8599dc"><path d="M 1.351562 121 L 59.101562 121 L 59.101562 250.722656 L 1.351562 250.722656 Z M 1.351562 121 " clip-rule="nonzero"/></clipPath><clipPath id="c36c39114f"><path d="M 317.246094 121 L 374.914062 121 L 374.914062 250.722656 L 317.246094 250.722656 Z M 317.246094 121 " clip-rule="nonzero"/></clipPath></defs><g fill="#000000" fill-opacity="1"><g transform="translate(41.046852, 97.928475)"><g><path d="M 0.078125 -17.453125 L 6.421875 -24.171875 L 15.09375 -15.96875 L 12.96875 -13.71875 L 10.65625 -15.296875 C 11.113281 -12.515625 10.328125 -10.050781 8.296875 -7.90625 C 6.265625 -5.75 3.832031 -4.710938 1 -4.796875 C -1.820312 -4.890625 -4.503906 -6.140625 -7.046875 -8.546875 C -9.597656 -10.953125 -10.988281 -13.59375 -11.21875 -16.46875 C -11.457031 -19.351562 -10.429688 -22.007812 -8.140625 -24.4375 C -6.171875 -26.507812 -4.078125 -27.671875 -1.859375 -27.921875 C 0.359375 -28.179688 2.296875 -27.664062 3.953125 -26.375 L 0.78125 -23.03125 C -0.207031 -23.570312 -1.242188 -23.75 -2.328125 -23.5625 C -3.421875 -23.375 -4.375 -22.847656 -5.1875 -21.984375 C -6.539062 -20.554688 -7.09375 -18.945312 -6.84375 -17.15625 C -6.59375 -15.363281 -5.570312 -13.625 -3.78125 -11.9375 C -2.007812 -10.25 -0.273438 -9.347656 1.421875 -9.234375 C 3.128906 -9.117188 4.710938 -9.828125 6.171875 -11.359375 C 6.992188 -12.234375 7.460938 -13.296875 7.578125 -14.546875 C 7.703125 -15.796875 7.285156 -17.15625 6.328125 -18.625 L 2.796875 -14.890625 Z M 0.078125 -17.453125 "/></g></g></g><g fill="#000000" fill-opacity="1"><g transform="translate(63.545048, 75.541814)"><g><path d="M 5.3125 -4.359375 L 1.734375 -1.421875 L -12.265625 -18.53125 L -8.6875 -21.46875 Z M 5.3125 -4.359375 "/></g></g></g><g fill="#000000" fill-opacity="1"><g transform="translate(76.685733, 64.896724)"><g><path d="M 2.28125 -11.375 L 7.046875 -14.390625 L 0.046875 -20.328125 L -0.015625 -20.28125 Z M 4.4375 -2.8125 L 0.3125 -0.203125 L -4.84375 -23.09375 L -0.34375 -25.953125 L 18.0625 -11.453125 L 13.828125 -8.765625 L 10.1875 -11.859375 L 3.296875 -7.484375 Z M 4.4375 -2.8125 "/></g></g></g><g fill="#000000" fill-opacity="1"><g transform="translate(101.586799, 49.760645)"><g><path d="M 5.84375 -26.65625 L 9.78125 -28.375 L 18.59375 -8.09375 L 14.359375 -6.25 L -0.203125 -17.125 L -0.265625 -17.09375 L 6.03125 -2.625 L 2.0625 -0.890625 L -6.75 -21.171875 L -2.28125 -23.125 L 11.921875 -12.484375 L 11.984375 -12.515625 Z M 5.84375 -26.65625 "/></g></g></g><g fill="#000000" fill-opacity="1"><g transform="translate(129.344481, 38.432747)"><g><path d="M 11.34375 -3.046875 L 6.875 -1.84375 L 2.140625 -19.421875 L -4.296875 -17.703125 L -5.3125 -21.46875 L 12.0625 -26.140625 L 13.078125 -22.375 L 6.609375 -20.625 Z M 11.34375 -3.046875 "/></g></g></g><g fill="#000000" fill-opacity="1"><g transform="translate(155.360078, 32.198499)"><g/></g></g><g fill="#000000" fill-opacity="1"><g transform="translate(171.302252, 29.876469)"><g><path d="M 5.484375 -7 C 5.523438 -5.90625 5.957031 -5.050781 6.78125 -4.4375 C 7.613281 -3.820312 8.78125 -3.539062 10.28125 -3.59375 C 11.789062 -3.632812 12.925781 -3.910156 13.6875 -4.421875 C 14.457031 -4.941406 14.828125 -5.675781 14.796875 -6.625 C 14.773438 -7.1875 14.550781 -7.664062 14.125 -8.0625 C 13.707031 -8.457031 12.738281 -8.804688 11.21875 -9.109375 L 7.421875 -9.859375 C 5.023438 -10.335938 3.378906 -11.046875 2.484375 -11.984375 C 1.597656 -12.921875 1.125 -14.238281 1.0625 -15.9375 C 1 -17.925781 1.65625 -19.582031 3.03125 -20.90625 C 4.414062 -22.226562 6.523438 -22.9375 9.359375 -23.03125 C 12.171875 -23.125 14.328125 -22.484375 15.828125 -21.109375 C 17.335938 -19.742188 18.128906 -18.101562 18.203125 -16.1875 L 13.765625 -16.03125 C 13.628906 -17.113281 13.179688 -17.921875 12.421875 -18.453125 C 11.671875 -18.992188 10.578125 -19.238281 9.140625 -19.1875 C 7.984375 -19.144531 7.054688 -18.875 6.359375 -18.375 C 5.671875 -17.882812 5.34375 -17.234375 5.375 -16.421875 C 5.394531 -15.859375 5.566406 -15.394531 5.890625 -15.03125 C 6.210938 -14.675781 6.726562 -14.421875 7.4375 -14.265625 L 13.375 -13.03125 C 15.519531 -12.582031 17.015625 -11.878906 17.859375 -10.921875 C 18.710938 -9.972656 19.164062 -8.769531 19.21875 -7.3125 C 19.289062 -4.90625 18.507812 -3.066406 16.875 -1.796875 C 15.25 -0.523438 13.210938 0.148438 10.765625 0.234375 C 7.566406 0.335938 5.164062 -0.257812 3.5625 -1.5625 C 1.957031 -2.875 1.117188 -4.640625 1.046875 -6.859375 Z M 5.484375 -7 "/></g></g></g><g fill="#000000" fill-opacity="1"><g transform="translate(199.418493, 29.480223)"><g><path d="M 12.40625 -10.46875 C 13.582031 -10.332031 14.476562 -10.503906 15.09375 -10.984375 C 15.707031 -11.472656 16.082031 -12.285156 16.21875 -13.421875 C 16.34375 -14.554688 16.113281 -15.398438 15.53125 -15.953125 C 14.957031 -16.503906 14.046875 -16.847656 12.796875 -16.984375 L 8.875 -17.4375 L 8.15625 -10.953125 Z M 6.828125 0.765625 L 2.234375 0.25 L 4.71875 -21.71875 L 14.765625 -20.578125 C 16.859375 -20.347656 18.445312 -19.535156 19.53125 -18.140625 C 20.625 -16.753906 21.046875 -14.96875 20.796875 -12.78125 C 20.578125 -10.894531 19.785156 -9.320312 18.421875 -8.0625 C 17.066406 -6.800781 15.253906 -6.300781 12.984375 -6.5625 L 7.71875 -7.15625 Z M 6.828125 0.765625 "/></g></g></g><g fill="#000000" fill-opacity="1"><g transform="translate(226.969826, 33.090417)"><g><path d="M 14.984375 -8.796875 C 16.148438 -8.484375 17.078125 -8.472656 17.765625 -8.765625 C 18.460938 -9.066406 18.953125 -9.742188 19.234375 -10.796875 C 19.472656 -11.671875 19.390625 -12.425781 18.984375 -13.0625 C 18.585938 -13.707031 17.878906 -14.164062 16.859375 -14.4375 L 11.28125 -15.9375 L 9.75 -10.203125 Z M 7.890625 -20.78125 L 18.703125 -17.875 C 20.890625 -17.289062 22.398438 -16.253906 23.234375 -14.765625 C 24.078125 -13.285156 24.273438 -11.710938 23.828125 -10.046875 C 23.160156 -7.566406 21.601562 -6.171875 19.15625 -5.859375 C 20.070312 -5.191406 20.625 -4.4375 20.8125 -3.59375 C 21.007812 -2.757812 20.851562 -1.390625 20.34375 0.515625 C 19.832031 2.410156 19.601562 3.546875 19.65625 3.921875 C 19.707031 4.296875 19.894531 4.585938 20.21875 4.796875 L 20.0625 5.375 L 15.125 4.046875 C 15.070312 3.003906 15.285156 1.578125 15.765625 -0.234375 C 16.179688 -1.753906 16.34375 -2.757812 16.25 -3.25 C 16.15625 -3.738281 15.898438 -4.144531 15.484375 -4.46875 C 15.066406 -4.800781 14.375 -5.097656 13.40625 -5.359375 L 8.78125 -6.609375 L 6.546875 1.75 L 2.171875 0.578125 Z M 7.890625 -20.78125 "/></g></g></g><g fill="#000000" fill-opacity="1"><g transform="translate(255.352683, 41.585843)"><g><path d="M 6.375 2.578125 L 2.09375 0.84375 L 10.375 -19.65625 L 14.65625 -17.921875 Z M 6.375 2.578125 "/></g></g></g><g fill="#000000" fill-opacity="1"><g transform="translate(270.992284, 47.967012)"><g><path d="M 24.703125 -11.5625 L 28.46875 -9.484375 L 17.734375 9.84375 L 13.6875 7.59375 L 13.46875 -10.578125 L 13.40625 -10.609375 L 5.75 3.1875 L 1.96875 1.09375 L 12.703125 -18.234375 L 16.96875 -15.875 L 17.171875 1.875 L 17.21875 1.90625 Z M 24.703125 -11.5625 "/></g></g></g><g fill="#000000" fill-opacity="1"><g transform="translate(296.824207, 62.913552)"><g><path d="M 17.390625 -1.5 L 24.65625 4.21875 L 17.265625 13.59375 L 14.828125 11.671875 L 16.1875 9.234375 C 13.457031 9.941406 10.929688 9.378906 8.609375 7.546875 C 6.285156 5.710938 5.039062 3.382812 4.875 0.5625 C 4.707031 -2.257812 5.707031 -5.046875 7.875 -7.796875 C 10.03125 -10.546875 12.535156 -12.171875 15.390625 -12.671875 C 18.242188 -13.171875 20.984375 -12.382812 23.609375 -10.3125 C 25.847656 -8.550781 27.191406 -6.578125 27.640625 -4.390625 C 28.097656 -2.203125 27.757812 -0.222656 26.625 1.546875 L 23 -1.296875 C 23.457031 -2.335938 23.539062 -3.390625 23.25 -4.453125 C 22.957031 -5.515625 22.347656 -6.414062 21.421875 -7.15625 C 19.867188 -8.375 18.210938 -8.773438 16.453125 -8.359375 C 14.703125 -7.953125 13.066406 -6.785156 11.546875 -4.859375 C 10.023438 -2.929688 9.285156 -1.113281 9.328125 0.59375 C 9.367188 2.300781 10.222656 3.8125 11.890625 5.125 C 12.828125 5.863281 13.921875 6.234375 15.171875 6.234375 C 16.421875 6.242188 17.738281 5.707031 19.125 4.625 L 15.078125 1.4375 Z M 17.390625 -1.5 "/></g></g></g><g fill="#000000" fill-opacity="1"><g transform="translate(321.067411, 82.899606)"><g><path d="M 8.890625 -0.453125 C 8.085938 0.296875 7.722656 1.1875 7.796875 2.21875 C 7.867188 3.25 8.414062 4.3125 9.4375 5.40625 C 10.46875 6.519531 11.425781 7.195312 12.3125 7.4375 C 13.207031 7.6875 14.003906 7.488281 14.703125 6.84375 C 15.109375 6.457031 15.320312 5.972656 15.34375 5.390625 C 15.375 4.816406 15 3.851562 14.21875 2.5 L 12.296875 -0.859375 C 11.097656 -2.984375 10.5625 -4.6875 10.6875 -5.96875 C 10.8125 -7.257812 11.5 -8.488281 12.75 -9.65625 C 14.207031 -11.007812 15.882812 -11.59375 17.78125 -11.40625 C 19.6875 -11.226562 21.601562 -10.101562 23.53125 -8.03125 C 25.445312 -5.96875 26.378906 -3.914062 26.328125 -1.875 C 26.285156 0.164062 25.5625 1.835938 24.15625 3.140625 L 21.140625 -0.109375 C 21.859375 -0.910156 22.171875 -1.773438 22.078125 -2.703125 C 21.992188 -3.628906 21.460938 -4.617188 20.484375 -5.671875 C 19.691406 -6.523438 18.882812 -7.046875 18.0625 -7.234375 C 17.238281 -7.429688 16.523438 -7.253906 15.921875 -6.703125 C 15.515625 -6.316406 15.28125 -5.882812 15.21875 -5.40625 C 15.164062 -4.925781 15.304688 -4.367188 15.640625 -3.734375 L 18.59375 1.578125 C 19.675781 3.492188 20.132812 5.082031 19.96875 6.34375 C 19.800781 7.601562 19.179688 8.726562 18.109375 9.71875 C 16.347656 11.351562 14.453125 11.972656 12.421875 11.578125 C 10.398438 11.179688 8.550781 10.082031 6.875 8.28125 C 4.695312 5.9375 3.578125 3.726562 3.515625 1.65625 C 3.453125 -0.40625 4.238281 -2.191406 5.875 -3.703125 Z M 8.890625 -0.453125 "/></g></g></g><g clip-path="url(#cfbfd10f97)"><path fill="#000000" d="M 87.210938 185.789062 L 137.671875 236.242188 L 132.445312 241.46875 L 76.777344 185.789062 L 132.464844 130.105469 L 137.695312 135.332031 Z M 205.566406 88.332031 L 212.519531 90.082031 L 170.742188 283.222656 L 163.789062 281.472656 Z M 243.839844 130.105469 L 299.527344 185.789062 L 243.839844 241.46875 L 238.613281 236.242188 L 289.074219 185.789062 L 238.613281 135.332031 Z M 243.839844 130.105469 " fill-opacity="1" fill-rule="nonzero"/></g><g clip-path="url(#5c5b8599dc)"><path fill="#000000" d="M 38.976562 152.0625 C 38.917969 152.015625 38.882812 151.945312 38.871094 151.863281 C 38.835938 151.597656 38.824219 151.332031 38.8125 151.066406 C 38.179688 148.09375 37.035156 145.238281 36.472656 142.253906 C 35.570312 137.476562 35.984375 132.125 37.441406 127.507812 C 37.925781 125.960938 38.351562 124.410156 38.964844 122.894531 C 39.054688 122.652344 39.171875 122.214844 39.308594 121.832031 C 39.425781 121.519531 39.574219 121.253906 39.738281 121.101562 C 39.839844 121.011719 39.933594 121.023438 40.003906 121.023438 C 40.09375 121.035156 40.164062 121.078125 40.222656 121.171875 C 40.246094 121.207031 40.269531 121.265625 40.269531 121.34375 C 40.269531 121.390625 40.257812 121.472656 40.257812 121.519531 C 40.246094 121.808594 40.234375 122.097656 40.222656 122.386719 C 40.1875 123.09375 40.199219 123.808594 40.257812 124.515625 C 40.441406 126.5625 40.636719 128.675781 41.121094 130.679688 C 42.136719 134.921875 42.101562 139.46875 41.132812 143.722656 C 40.683594 145.675781 39.875 147.445312 39.550781 149.34375 L 39.550781 149.355469 C 39.863281 151.574219 40.070312 153.820312 40.128906 156.074219 C 40.175781 158.191406 40.082031 160.304688 39.78125 162.410156 C 39.679688 163.175781 39.539062 163.925781 39.378906 164.679688 C 39.992188 163.601562 40.636719 162.5625 41.304688 161.566406 C 42.183594 160.273438 43.039062 158.859375 44.144531 157.738281 C 45.957031 155.898438 48.046875 154.582031 50.136719 153.125 C 51.023438 152.511719 52.015625 152.050781 52.929688 151.472656 C 53.933594 150.835938 54.890625 150.09375 55.90625 149.457031 C 56.527344 149.066406 57.128906 148.648438 57.742188 148.246094 C 57.925781 148.117188 58.097656 148 58.269531 147.863281 C 58.339844 147.804688 58.433594 147.667969 58.503906 147.609375 C 58.570312 147.550781 58.640625 147.515625 58.6875 147.503906 C 58.789062 147.480469 58.871094 147.503906 58.941406 147.5625 C 59 147.609375 59.066406 147.679688 59.078125 147.816406 C 59.101562 148.035156 59.011719 148.300781 58.859375 148.578125 C 58.6875 148.890625 58.433594 149.226562 58.304688 149.4375 C 57.589844 150.695312 56.957031 152.003906 56.183594 153.230469 C 54.09375 156.523438 51.679688 159.589844 48.265625 161.613281 C 46.222656 162.828125 44.078125 163.542969 42.207031 164.597656 C 40.523438 165.546875 39.066406 166.769531 38.15625 168.910156 C 37.046875 171.941406 35.546875 174.65625 33.839844 177.421875 C 30.769531 182.382812 26.996094 187.484375 23.613281 194.894531 C 22.425781 197.496094 21.480469 200.144531 20.765625 202.816406 C 20.808594 202.738281 20.855469 202.65625 20.902344 202.574219 C 22.320312 200.191406 24.664062 197.035156 26.960938 195.449219 C 29.683594 193.589844 33.886719 192.179688 36.898438 190.640625 C 38.121094 190.015625 39.183594 189.230469 40.246094 188.375 C 40.476562 188.1875 40.777344 187.863281 41.085938 187.597656 C 41.328125 187.390625 41.582031 187.226562 41.8125 187.160156 C 41.964844 187.113281 42.054688 187.160156 42.113281 187.195312 C 42.207031 187.25 42.265625 187.34375 42.253906 187.496094 C 42.253906 187.539062 42.230469 187.609375 42.183594 187.679688 C 42.125 187.761719 42 187.898438 41.953125 187.980469 C 41.800781 188.210938 41.652344 188.429688 41.515625 188.664062 C 41.085938 189.34375 40.753906 190.085938 40.371094 190.789062 C 40.222656 191.066406 40.058594 191.34375 39.910156 191.613281 C 39.945312 191.667969 39.945312 191.75 39.886719 191.796875 C 39.792969 191.890625 39.714844 191.980469 39.621094 192.074219 C 38.976562 193.101562 38.28125 194.0625 37.507812 195 C 37.542969 195.058594 37.542969 195.136719 37.488281 195.183594 C 37.09375 195.613281 36.691406 196.027344 36.261719 196.410156 C 36.125 196.5625 35.976562 196.722656 35.824219 196.875 C 33.019531 199.832031 29.695312 201.453125 26.097656 203.222656 C 24.847656 203.835938 23.511719 204.378906 22.332031 205.117188 C 21.203125 205.835938 20.234375 206.726562 19.679688 208.054688 C 19.632812 208.171875 19.585938 208.300781 19.550781 208.414062 C 18.558594 214.878906 18.734375 221.492188 19.761719 228.144531 C 20.152344 222.742188 23.546875 216.902344 26.800781 213.039062 C 26.867188 212.960938 26.9375 212.878906 27.007812 212.796875 C 28.3125 211.246094 29.789062 209.964844 31.4375 208.796875 C 31.542969 208.714844 31.703125 208.554688 31.878906 208.425781 C 32.027344 208.3125 32.179688 208.207031 32.316406 208.171875 C 32.441406 208.136719 32.558594 208.136719 32.664062 208.183594 C 32.765625 208.230469 32.871094 208.308594 32.9375 208.460938 C 33.757812 210.359375 33.308594 213.15625 32.222656 216.023438 C 30.632812 220.257812 27.6875 224.640625 25.691406 226.433594 C 24.769531 227.265625 23.453125 227.878906 22.320312 228.628906 C 21.398438 229.242188 20.601562 229.949219 20.300781 230.988281 C 21.675781 236.804688 25.195312 245.8125 28.65625 249.550781 C 28.832031 249.734375 28.820312 250.023438 28.632812 250.195312 C 28.484375 250.335938 28.277344 250.359375 28.105469 250.265625 C 28.082031 250.289062 28.046875 250.289062 28.023438 250.300781 C 28.058594 250.335938 28.082031 250.371094 28.117188 250.40625 C 28.171875 250.476562 28.160156 250.566406 28.105469 250.625 C 28.035156 250.683594 27.941406 250.671875 27.882812 250.613281 C 27.492188 250.175781 27.15625 249.699219 26.824219 249.214844 C 26.789062 249.167969 26.789062 249.097656 26.824219 249.050781 C 26.582031 248.726562 26.339844 248.394531 26.128906 248.058594 C 26.085938 247.988281 26.105469 247.882812 26.175781 247.847656 C 26.1875 247.847656 26.1875 247.839844 26.199219 247.839844 C 24.882812 245.800781 23.601562 243.210938 22.496094 240.527344 C 22.425781 240.496094 22.367188 240.425781 22.34375 240.34375 C 22.21875 239.929688 22.089844 239.523438 21.941406 239.128906 C 21.894531 239.027344 21.859375 238.910156 21.8125 238.804688 C 21.582031 238.226562 21.328125 237.660156 21.039062 237.105469 C 20.554688 236.828125 20.003906 236.679688 19.449219 236.5625 C 18.824219 236.433594 18.203125 236.332031 17.613281 236.132812 C 12.960938 234.574219 9.375 232.699219 6.210938 228.804688 C 5.851562 228.351562 3.9375 225.585938 3.488281 224.28125 C 3.382812 223.992188 3.347656 223.75 3.382812 223.597656 C 3.40625 223.460938 3.476562 223.367188 3.566406 223.296875 C 3.71875 223.183594 3.9375 223.125 4.226562 223.125 C 4.550781 223.125 4.976562 223.21875 5.460938 223.355469 C 7.214844 223.886719 9.683594 225.207031 10.226562 225.53125 C 14.164062 227.902344 17.902344 230.976562 20.441406 234.828125 L 20.429688 234.804688 C 20.164062 233.960938 19.910156 233.105469 19.691406 232.238281 C 19.507812 231.53125 19.332031 230.816406 19.183594 230.097656 C 19.136719 229.867188 19.089844 229.636719 19.042969 229.394531 C 19.019531 229.277344 19.007812 229.160156 18.988281 229.035156 C 18.964844 228.894531 18.941406 228.757812 18.917969 228.617188 C 18.847656 228.179688 18.777344 227.738281 18.722656 227.3125 C 18.582031 226.304688 18.457031 225.289062 18.351562 224.269531 C 18.304688 223.773438 18.257812 223.273438 18.214844 222.789062 C 18.179688 222.652344 18.144531 222.511719 18.109375 222.363281 C 18.085938 222.363281 18.074219 222.351562 18.050781 222.339844 C 10.113281 218.660156 3.765625 211.929688 2.289062 203.09375 C 2.207031 202.585938 1.558594 199.289062 1.398438 197.730469 C 1.351562 197.265625 1.363281 196.941406 1.410156 196.816406 C 1.46875 196.652344 1.570312 196.585938 1.6875 196.5625 C 1.78125 196.539062 1.882812 196.539062 2 196.605469 C 2.078125 196.652344 2.183594 196.734375 2.289062 196.839844 C 2.390625 196.941406 2.496094 197.070312 2.574219 197.128906 C 3.117188 197.53125 3.625 197.960938 4.203125 198.296875 C 6.027344 199.359375 7.503906 200.445312 8.945312 201.996094 C 14.207031 207.664062 18.027344 219.691406 18.027344 219.691406 C 17.773438 212.726562 18.59375 205.859375 20.867188 199.210938 C 20.867188 199.199219 20.867188 199.199219 20.867188 199.1875 C 20.878906 197.117188 20.09375 195.105469 19.054688 193.171875 C 17.992188 191.207031 16.679688 189.320312 15.640625 187.585938 C 13.816406 184.535156 12.652344 181.179688 12.269531 177.640625 C 12.0625 175.675781 12.109375 173.734375 12.292969 171.753906 C 12.351562 171.164062 12.421875 170.585938 12.488281 169.996094 C 12.511719 169.753906 12.546875 169.511719 12.582031 169.269531 C 12.582031 169.257812 12.570312 169.082031 12.570312 169.015625 C 12.582031 168.921875 12.605469 168.863281 12.640625 168.816406 C 12.683594 168.75 12.753906 168.703125 12.824219 168.691406 C 12.894531 168.667969 12.984375 168.667969 13.089844 168.726562 C 13.214844 168.804688 13.34375 168.96875 13.445312 169.1875 C 13.597656 169.535156 13.699219 170.054688 13.804688 170.273438 C 14.265625 171.28125 14.855469 172.320312 15.488281 173.234375 C 16.679688 174.925781 17.855469 176.371094 18.605469 178.324219 C 20.3125 182.8125 20.105469 187.367188 20.523438 192.0625 C 20.683594 193.914062 21.15625 195.695312 21.492188 197.519531 C 21.882812 196.480469 22.320312 195.449219 22.785156 194.421875 C 25.230469 189.054688 27.882812 184.890625 30.332031 181.121094 C 30.332031 181.085938 30.332031 181.042969 30.34375 181.007812 C 31.011719 178.496094 30.621094 176.113281 29.835938 173.789062 C 29.039062 171.417969 27.839844 169.117188 26.914062 166.839844 C 25.609375 163.613281 25.414062 159.460938 26.210938 156.109375 C 26.453125 155.089844 26.925781 153.101562 27.503906 152.1875 C 27.527344 152.105469 27.539062 152.039062 27.5625 151.957031 C 27.585938 151.875 27.664062 151.828125 27.746094 151.839844 C 27.828125 151.863281 27.871094 151.945312 27.863281 152.027344 C 27.929688 152.039062 27.988281 152.085938 28.046875 152.152344 C 28.070312 152.1875 28.105469 152.246094 28.117188 152.339844 C 28.125 152.417969 28.117188 152.582031 28.136719 152.664062 C 28.183594 152.90625 28.265625 153.136719 28.324219 153.367188 C 28.507812 154.0625 28.773438 154.699219 29.050781 155.355469 C 29.882812 157.347656 31.140625 159.09375 31.601562 161.230469 C 32.429688 165.140625 31.4375 168.851562 31.164062 172.738281 C 31 175.003906 31.449219 177.238281 31.382812 179.492188 C 31.957031 178.601562 32.523438 177.722656 33.054688 176.855469 C 37.625 169.476562 40.648438 162.421875 38.492188 148.488281 Z M 20.164062 235.902344 C 20.164062 235.902344 20.152344 235.914062 20.152344 235.914062 C 20.175781 235.925781 20.1875 235.925781 20.210938 235.9375 Z M 6.015625 227.4375 C 6.347656 227.925781 6.625 228.304688 6.730469 228.457031 C 9.8125 232.25 13.320312 234.066406 17.84375 235.589844 C 18.015625 235.648438 18.203125 235.695312 18.386719 235.742188 C 18.109375 235.625 17.832031 235.5 17.566406 235.371094 C 16.621094 234.945312 15.675781 234.539062 14.761719 234.03125 C 12.144531 232.574219 9.417969 230.90625 7.238281 228.824219 C 6.789062 228.398438 6.40625 227.902344 6.015625 227.4375 Z M 5.253906 225.554688 C 5.933594 226.328125 6.695312 227.046875 7.46875 227.714844 C 9.269531 229.289062 11.21875 230.617188 13.203125 231.960938 C 15.109375 233.242188 17.152344 234.6875 19.320312 235.589844 C 18.722656 235.265625 18.144531 234.851562 17.566406 234.515625 C 16.585938 233.9375 15.59375 233.394531 14.648438 232.746094 C 13.425781 231.902344 12.269531 230.917969 11.105469 230.003906 C 9.707031 228.917969 8.335938 227.785156 6.914062 226.722656 C 6.371094 226.339844 5.773438 225.980469 5.253906 225.554688 Z M 19.886719 235.117188 C 17.394531 231.394531 13.757812 228.421875 9.925781 226.109375 C 9.40625 225.796875 7.007812 224.511719 5.300781 223.992188 C 4.894531 223.863281 4.527344 223.785156 4.25 223.785156 C 4.226562 223.785156 4.203125 223.785156 4.179688 223.785156 C 4.515625 223.875 4.824219 224.050781 5.160156 224.164062 C 5.53125 224.292969 5.933594 224.363281 6.304688 224.511719 C 7.320312 224.941406 8.242188 225.644531 9.175781 226.222656 C 9.890625 226.675781 10.644531 227.066406 11.324219 227.554688 C 12.476562 228.375 13.527344 229.335938 14.601562 230.261719 C 15.789062 231.289062 17 232.296875 18.167969 233.371094 C 18.765625 233.9375 19.308594 234.539062 19.886719 235.117188 Z M 4.261719 224.128906 C 4.316406 224.199219 4.386719 224.269531 4.445312 224.328125 C 5.011719 224.675781 5.621094 224.953125 6.1875 225.296875 C 6.753906 225.644531 7.273438 226.0625 7.828125 226.433594 C 8.425781 226.835938 9.0625 227.195312 9.648438 227.613281 C 10.941406 228.535156 12.15625 229.601562 13.414062 230.570312 C 15.304688 232.027344 17.242188 233.453125 19.195312 234.839844 C 18.789062 234.421875 18.386719 233.996094 17.960938 233.601562 C 16.804688 232.539062 15.59375 231.53125 14.40625 230.503906 C 13.34375 229.589844 12.304688 228.628906 11.152344 227.820312 C 10.46875 227.335938 9.71875 226.941406 9.015625 226.5 C 8.105469 225.921875 7.191406 225.230469 6.1875 224.8125 C 5.832031 224.664062 5.4375 224.59375 5.070312 224.464844 C 4.792969 224.375 4.527344 224.234375 4.261719 224.128906 Z M 5.21875 225.113281 C 5.785156 225.621094 6.488281 226.027344 7.101562 226.476562 C 8.519531 227.542969 9.890625 228.675781 11.289062 229.761719 C 12.453125 230.675781 13.597656 231.660156 14.820312 232.492188 C 15.753906 233.128906 16.734375 233.671875 17.71875 234.238281 C 18.015625 234.410156 18.304688 234.609375 18.605469 234.792969 C 16.78125 233.496094 14.980469 232.167969 13.214844 230.816406 C 11.957031 229.855469 10.757812 228.804688 9.453125 227.878906 C 8.867188 227.460938 8.242188 227.101562 7.640625 226.699219 C 7.101562 226.328125 6.582031 225.910156 6.015625 225.578125 C 5.761719 225.414062 5.484375 225.265625 5.21875 225.113281 Z M 5.265625 226.039062 C 5.542969 226.398438 5.832031 226.757812 6.128906 227.089844 C 6.570312 227.601562 6.972656 228.144531 7.457031 228.605469 C 9.617188 230.664062 12.316406 232.320312 14.914062 233.765625 C 15.546875 234.109375 16.195312 234.410156 16.839844 234.710938 C 15.511719 233.9375 14.230469 233.058594 13.019531 232.238281 C 11.035156 230.894531 9.074219 229.542969 7.261719 227.96875 C 6.570312 227.355469 5.886719 226.722656 5.265625 226.039062 Z M 31.914062 209.59375 C 30.964844 210.878906 30.226562 212.40625 29.339844 213.675781 C 25.992188 218.488281 22.992188 223.609375 20.84375 229.082031 C 23.511719 225.03125 25.84375 220.683594 28.289062 216.507812 C 29.640625 214.207031 31.152344 212.125 31.914062 209.59375 Z M 27.851562 212.867188 C 27.746094 212.984375 27.628906 213.109375 27.527344 213.238281 C 27.457031 213.316406 27.386719 213.398438 27.320312 213.480469 C 24.019531 217.386719 20.554688 223.378906 20.394531 228.8125 C 20.890625 226.917969 21.710938 225.125 22.414062 223.285156 C 23.789062 219.757812 25.449219 215.976562 27.851562 212.867188 Z M 32.441406 208.921875 C 32.421875 208.945312 32.410156 208.957031 32.386719 208.980469 C 31.703125 211.859375 30.03125 214.128906 28.542969 216.660156 C 26.351562 220.394531 24.261719 224.269531 21.929688 227.933594 C 25.289062 223.773438 28.65625 219.320312 30.644531 214.371094 C 31.382812 212.589844 32.1875 210.84375 32.441406 208.921875 Z M 31.542969 209.570312 C 27.167969 212.914062 24.628906 218.40625 22.714844 223.402344 C 22.136719 224.90625 21.480469 226.375 20.984375 227.902344 C 23.105469 222.800781 25.945312 218.011719 29.085938 213.492188 C 29.9375 212.265625 30.65625 210.820312 31.542969 209.570312 Z M 32.765625 211.628906 C 32.523438 212.726562 32.074219 213.839844 31.75 214.773438 C 30.792969 217.644531 27.617188 222.800781 25.484375 225.066406 C 24.699219 225.886719 23.902344 226.675781 23.128906 227.484375 C 23.925781 227.023438 24.722656 226.570312 25.335938 226.015625 C 27.273438 224.257812 30.148438 219.96875 31.703125 215.839844 C 32.246094 214.371094 32.640625 212.925781 32.765625 211.628906 Z M 32.605469 209.800781 C 32.257812 211.421875 31.566406 212.949219 30.941406 214.496094 C 29.0625 219.167969 25.96875 223.414062 22.796875 227.367188 C 23.601562 226.523438 24.433594 225.714844 25.242188 224.859375 C 27.355469 222.628906 30.492188 217.527344 31.4375 214.683594 C 31.714844 213.863281 32.097656 212.925781 32.351562 211.964844 C 32.558594 211.238281 32.675781 210.496094 32.605469 209.800781 Z M 17.707031 221.503906 C 17.707031 221.503906 17.707031 221.515625 17.707031 221.515625 L 17.738281 221.527344 Z M 3.246094 204.539062 C 3.40625 205.234375 3.601562 205.90625 3.832031 206.574219 C 5.761719 210.367188 9.628906 214.253906 12.222656 216.925781 C 13.863281 218.601562 15.144531 220.269531 17.300781 221.214844 C 13.160156 218.453125 10.480469 214.164062 7.421875 210.335938 C 5.875 208.425781 4.296875 206.65625 3.246094 204.539062 Z M 2.449219 200.320312 C 2.667969 201.578125 2.898438 202.769531 2.945312 203.046875 L 2.945312 203.058594 C 3.914062 205.789062 5.832031 207.859375 7.664062 210.136719 C 10.46875 213.628906 12.9375 217.515625 16.503906 220.257812 C 15.085938 218.8125 13.65625 217.34375 12.410156 215.769531 C 10.101562 212.855469 8.265625 209.582031 6.257812 206.449219 C 4.804688 204.183594 3.417969 202.503906 2.449219 200.320312 Z M 3.890625 198.875 C 6.394531 201.789062 8.035156 205.375 9.925781 208.714844 C 12.210938 212.761719 14.820312 216.507812 17.566406 220.246094 C 17.53125 220.105469 17.488281 219.96875 17.441406 219.816406 C 17.09375 219.46875 16.769531 219.042969 16.472656 218.566406 C 15.699219 217.34375 15.0625 215.851562 14.484375 214.949219 C 12.605469 212.023438 10.78125 209.121094 9.175781 206.03125 C 8.046875 203.835938 7.167969 201.683594 5.53125 199.902344 C 5.023438 199.554688 4.492188 199.222656 3.9375 198.898438 C 3.914062 198.886719 3.902344 198.886719 3.890625 198.875 Z M 2.574219 197.949219 C 6.625 205.039062 10.320312 212.3125 15.753906 218.453125 C 16.226562 218.984375 16.644531 219.5625 17.082031 220.117188 C 14.417969 216.476562 11.890625 212.808594 9.648438 208.867188 C 7.539062 205.128906 5.75 201.117188 2.714844 198.054688 C 2.667969 198.019531 2.621094 197.984375 2.574219 197.949219 Z M 4.5625 208.449219 C 6.625 213.121094 10.203125 216.960938 14.542969 219.746094 C 13.667969 218.960938 12.882812 218.058594 11.992188 217.144531 C 9.777344 214.855469 6.636719 211.699219 4.5625 208.449219 Z M 2.042969 197.648438 C 2.066406 197.855469 2.089844 198.097656 2.125 198.375 C 2.148438 198.515625 2.160156 198.652344 2.183594 198.792969 C 3.117188 201.71875 4.757812 203.570312 6.5 206.285156 C 8.496094 209.410156 10.332031 212.671875 12.628906 215.585938 C 13.746094 216.996094 15.015625 218.3125 16.285156 219.621094 C 16.03125 219.296875 15.777344 218.972656 15.5 218.660156 C 9.777344 212.160156 5.96875 204.402344 1.628906 196.929688 Z M 6.546875 200.65625 C 7.734375 202.25 8.507812 204.054688 9.453125 205.90625 C 11.046875 208.992188 12.871094 211.882812 14.738281 214.796875 C 15.316406 215.699219 15.953125 217.191406 16.726562 218.417969 C 16.863281 218.636719 17 218.847656 17.152344 219.042969 C 16.226562 216.949219 15.074219 214.972656 14.046875 212.9375 C 12.027344 208.878906 10.066406 204.851562 7.296875 201.28125 C 7.054688 201.058594 6.800781 200.851562 6.546875 200.65625 Z M 8.691406 202.65625 C 10.898438 205.835938 12.582031 209.292969 14.335938 212.773438 C 15.074219 214.230469 15.871094 215.664062 16.609375 217.132812 C 14.84375 211.859375 12.351562 206.667969 8.691406 202.65625 Z M 39.761719 190.109375 C 37.75 191.738281 35.257812 192.6875 33.066406 194.027344 C 28.992188 196.503906 25.335938 199.636719 22.355469 203.371094 C 21.792969 204.089844 21.085938 204.773438 20.5 205.511719 C 20.476562 205.558594 20.441406 205.59375 20.417969 205.640625 C 20.523438 205.523438 20.625 205.417969 20.730469 205.304688 C 21.503906 204.460938 22.308594 203.660156 23.117188 202.851562 C 26.328125 199.660156 29.789062 196.929688 33.574219 194.445312 C 35.605469 193.101562 38.039062 191.914062 39.761719 190.109375 Z M 29.050781 194.941406 C 28.4375 195.265625 27.863281 195.613281 27.34375 195.960938 C 25.113281 197.496094 22.839844 200.5625 21.457031 202.886719 C 21.109375 203.464844 20.765625 204.066406 20.441406 204.703125 C 21.074219 203.683594 21.8125 202.726562 22.507812 201.777344 C 24.328125 199.3125 26.523438 196.851562 29.050781 194.941406 Z M 37.105469 194.570312 C 36.285156 195.3125 35.433594 196.015625 34.554688 196.675781 C 32.375 198.332031 29.871094 199.660156 27.539062 201.082031 C 26.085938 201.972656 24.675781 202.886719 23.3125 203.917969 C 24.066406 203.511719 24.816406 203.105469 25.542969 202.65625 C 27.296875 201.558594 28.96875 200.320312 30.757812 199.277344 C 31.96875 198.574219 33.296875 198.085938 34.519531 197.371094 C 34.832031 197.082031 35.132812 196.792969 35.433594 196.46875 C 36.019531 195.84375 36.585938 195.207031 37.105469 194.570312 Z M 39.054688 191.878906 C 38.777344 192.191406 38.492188 192.492188 38.191406 192.746094 C 37.300781 193.53125 36.285156 194.203125 35.339844 194.917969 C 32.535156 197.070312 29.617188 199.023438 26.671875 200.980469 C 25.519531 201.753906 24.433594 202.574219 23.382812 203.453125 C 24.675781 202.503906 25.992188 201.648438 27.363281 200.804688 C 29.695312 199.382812 32.175781 198.054688 34.359375 196.410156 C 35.722656 195.382812 37.023438 194.25 38.257812 193.046875 C 38.535156 192.675781 38.800781 192.28125 39.054688 191.878906 Z M 39.644531 190.652344 C 37.9375 192.28125 35.664062 193.425781 33.746094 194.6875 C 29.984375 197.164062 26.535156 199.867188 23.347656 203.058594 C 23.257812 203.152344 23.164062 203.246094 23.070312 203.328125 C 24.167969 202.402344 25.300781 201.535156 26.511719 200.722656 C 29.441406 198.757812 32.363281 196.816406 35.167969 194.675781 C 36.101562 193.960938 37.117188 193.300781 37.996094 192.511719 C 38.570312 191.992188 39.136719 191.34375 39.644531 190.652344 Z M 33.101562 193.058594 C 32.410156 193.359375 31.703125 193.660156 31.023438 193.96875 C 27.757812 195.960938 24.988281 198.964844 22.785156 201.949219 C 22.632812 202.160156 22.484375 202.355469 22.320312 202.5625 C 22.414062 202.449219 22.496094 202.34375 22.585938 202.238281 C 25.460938 198.652344 29.152344 195.484375 33.101562 193.058594 Z M 33.445312 198.285156 C 32.59375 198.699219 31.726562 199.070312 30.910156 199.542969 C 29.417969 200.402344 28.011719 201.40625 26.582031 202.34375 C 29.039062 201.128906 31.359375 199.949219 33.445312 198.285156 Z M 40.488281 189.019531 C 39.75 189.609375 39 190.164062 38.203125 190.652344 C 38.203125 190.652344 38.214844 190.664062 38.214844 190.664062 C 38.25 190.742188 38.226562 190.835938 38.144531 190.871094 C 36.738281 191.589844 35.269531 192.121094 33.910156 192.929688 C 30.804688 194.757812 27.839844 197.070312 25.277344 199.683594 C 27.585938 197.417969 30.15625 195.425781 32.929688 193.75 C 35.363281 192.269531 38.179688 191.265625 40.269531 189.253906 C 40.335938 189.183594 40.40625 189.101562 40.488281 189.019531 Z M 13.261719 170.621094 C 13.332031 171.175781 13.425781 171.730469 13.585938 172.265625 C 13.816406 173.015625 14.230469 173.6875 14.417969 174.449219 C 15.476562 178.914062 16.597656 183.414062 18.027344 187.773438 C 18.457031 189.089844 18.964844 190.375 19.484375 191.65625 C 19.550781 191.832031 19.632812 192.015625 19.714844 192.191406 C 19.414062 191.3125 19.285156 190.375 19.066406 189.484375 C 18.605469 187.597656 18.109375 185.738281 17.648438 183.851562 C 16.886719 180.742188 16.125 177.582031 15.050781 174.566406 C 14.636719 173.398438 14.011719 172.265625 13.503906 171.128906 C 13.414062 170.945312 13.34375 170.785156 13.261719 170.621094 Z M 15.0625 173.765625 C 15.15625 174 15.246094 174.21875 15.328125 174.449219 C 16.402344 177.480469 17.164062 180.648438 17.9375 183.769531 C 18.398438 185.65625 18.894531 187.519531 19.355469 189.402344 C 19.472656 189.855469 19.550781 190.328125 19.65625 190.789062 C 19.527344 189.863281 19.425781 188.941406 19.253906 188.027344 C 18.8125 185.726562 18.179688 183.457031 17.71875 181.15625 C 17.335938 179.25 17.09375 176.972656 16.113281 175.222656 C 15.765625 174.738281 15.421875 174.265625 15.0625 173.765625 Z M 12.996094 178.230469 C 13.425781 181.46875 14.53125 184.535156 16.207031 187.34375 C 16.839844 188.40625 17.566406 189.507812 18.28125 190.652344 C 17.992188 190.003906 17.707031 189.355469 17.40625 188.71875 C 16.425781 186.707031 15.476562 184.695312 14.601562 182.625 C 13.976562 181.179688 13.414062 179.722656 12.996094 178.230469 Z M 13.019531 171.140625 L 12.996094 171.328125 C 12.984375 171.824219 12.996094 172.332031 13.042969 172.832031 C 13.160156 173.988281 13.527344 175.039062 13.804688 176.148438 C 14.175781 177.570312 14.472656 179.027344 14.925781 180.441406 C 15.304688 181.621094 15.8125 182.742188 16.207031 183.921875 C 16.839844 185.851562 17.554688 187.75 18.339844 189.609375 C 18.121094 189.03125 17.925781 188.453125 17.730469 187.863281 C 16.296875 183.492188 15.179688 178.984375 14.105469 174.519531 C 13.921875 173.765625 13.503906 173.097656 13.285156 172.355469 C 13.160156 171.953125 13.078125 171.535156 13.019531 171.121094 Z M 17.046875 176.625 C 17.519531 178.082031 17.738281 179.675781 18.015625 181.085938 C 18.480469 183.390625 19.113281 185.65625 19.550781 187.957031 C 19.609375 188.246094 19.65625 188.535156 19.703125 188.835938 C 19.515625 185.378906 19.332031 181.988281 18.050781 178.636719 C 17.773438 177.90625 17.429688 177.25 17.046875 176.625 Z M 12.824219 173.523438 C 12.789062 174.34375 12.777344 175.167969 12.800781 175.988281 C 13.171875 178.242188 13.964844 180.382812 14.878906 182.511719 C 15.605469 184.210938 16.367188 185.863281 17.164062 187.527344 C 16.714844 186.371094 16.296875 185.203125 15.90625 184.011719 C 15.511719 182.84375 15.003906 181.710938 14.625 180.53125 C 14.175781 179.121094 13.863281 177.664062 13.503906 176.230469 C 13.273438 175.316406 12.984375 174.4375 12.824219 173.523438 Z M 26.417969 159.136719 C 26.246094 161.695312 26.605469 164.421875 27.515625 166.679688 C 28.21875 168.425781 29.085938 170.183594 29.8125 171.976562 C 29.742188 171.699219 29.660156 171.429688 29.570312 171.175781 C 28.265625 167.535156 26.730469 163.671875 26.453125 159.773438 C 26.441406 159.566406 26.429688 159.347656 26.417969 159.136719 Z M 29.925781 158.535156 C 30.089844 159.578125 30.078125 160.652344 30.101562 161.730469 C 30.125 163.164062 30.238281 164.621094 30.167969 166.054688 C 30.136719 166.851562 30.078125 167.671875 30.054688 168.484375 C 30.179688 169.429688 30.308594 170.390625 30.445312 171.339844 C 30.445312 171.328125 30.445312 171.304688 30.445312 171.292969 C 30.433594 169.683594 30.675781 168.113281 30.78125 166.515625 C 30.941406 164.191406 30.917969 161.761719 30.378906 159.484375 C 30.226562 159.160156 30.078125 158.847656 29.925781 158.535156 Z M 31.023438 161.460938 C 31.21875 163.152344 31.195312 164.863281 31.082031 166.527344 C 30.976562 167.996094 30.769531 169.453125 30.746094 170.921875 C 31.117188 167.765625 31.703125 164.679688 31.023438 161.460938 Z M 27.078125 155.332031 C 26.996094 155.644531 26.925781 155.921875 26.867188 156.179688 C 26.730469 157.359375 26.671875 158.535156 26.753906 159.761719 C 27.03125 163.578125 28.507812 167.347656 29.800781 170.921875 C 29.777344 170.738281 29.765625 170.550781 29.753906 170.355469 C 29.582031 169.59375 29.386719 168.828125 29.199219 168.066406 C 28.644531 165.835938 27.871094 163.625 27.480469 161.347656 C 27.15625 159.371094 26.960938 157.335938 27.078125 155.332031 Z M 27.585938 153.621094 L 27.574219 153.65625 C 27.179688 156.179688 27.363281 158.78125 27.792969 161.289062 C 28.171875 163.554688 28.945312 165.753906 29.5 167.984375 C 29.570312 168.285156 29.648438 168.585938 29.730469 168.886719 C 29.730469 168.761719 29.730469 168.632812 29.742188 168.503906 C 29.339844 165.511719 28.957031 162.515625 28.519531 159.53125 C 28.378906 158.605469 28.277344 157.667969 28.117188 156.746094 C 27.917969 155.714844 27.675781 154.664062 27.597656 153.597656 Z M 27.976562 154.316406 C 28.09375 155.113281 28.265625 155.898438 28.402344 156.6875 C 28.578125 157.613281 28.679688 158.546875 28.820312 159.484375 C 29.175781 161.902344 29.488281 164.332031 29.8125 166.746094 C 29.824219 166.503906 29.835938 166.273438 29.847656 166.03125 C 29.914062 164.609375 29.800781 163.152344 29.777344 161.71875 C 29.753906 160.261719 29.789062 158.78125 29.339844 157.414062 C 29.039062 156.835938 28.75 156.257812 28.496094 155.65625 C 28.324219 155.21875 28.136719 154.777344 27.976562 154.316406 Z M 40.164062 165.082031 C 40.140625 165.105469 40.128906 165.117188 40.105469 165.140625 C 40.015625 165.257812 39.921875 165.382812 39.828125 165.5 C 39.816406 165.511719 39.804688 165.523438 39.792969 165.535156 C 39.78125 165.558594 39.773438 165.578125 39.761719 165.589844 C 39.921875 165.441406 40.082031 165.300781 40.257812 165.164062 C 40.234375 165.152344 40.210938 165.140625 40.1875 165.128906 C 40.175781 165.117188 40.164062 165.105469 40.164062 165.082031 Z M 49.027344 154.664062 C 47.46875 155.726562 45.957031 156.8125 44.605469 158.179688 C 43.535156 159.277344 42.691406 160.652344 41.835938 161.914062 C 41.296875 162.722656 40.765625 163.566406 40.257812 164.421875 L 40.289062 164.378906 C 40.789062 163.753906 41.304688 163.152344 41.824219 162.550781 C 42.148438 162.15625 42.484375 161.761719 42.808594 161.371094 C 44.351562 159.496094 45.738281 157.65625 47.515625 155.992188 C 48 155.554688 48.507812 155.101562 49.027344 154.664062 Z M 56.4375 151.632812 C 54.496094 154.476562 52.027344 156.917969 49.246094 158.964844 C 47.515625 160.226562 45.726562 161.460938 43.949219 162.664062 C 43.335938 163.070312 42.714844 163.488281 42.136719 163.949219 C 42.449219 163.777344 42.773438 163.613281 43.09375 163.464844 C 43.394531 163.277344 43.695312 163.09375 43.996094 162.910156 C 46.382812 161.507812 48.636719 159.867188 50.78125 158.132812 C 51.933594 157.195312 53.195312 156.304688 54.164062 155.171875 C 54.695312 154.433594 55.203125 153.667969 55.699219 152.90625 C 55.953125 152.476562 56.195312 152.0625 56.4375 151.632812 Z M 55.304688 152.664062 C 53.066406 155.066406 50.332031 157 47.628906 158.953125 C 45.992188 160.132812 44.445312 161.507812 42.945312 162.863281 C 42.714844 163.070312 42.484375 163.265625 42.242188 163.476562 C 42.738281 163.105469 43.257812 162.757812 43.777344 162.410156 C 45.554688 161.21875 47.34375 159.984375 49.074219 158.722656 C 51.417969 156.988281 53.539062 154.964844 55.304688 152.664062 Z M 56.726562 150.453125 C 55.976562 151.136719 55.191406 151.761719 54.417969 152.417969 C 52.410156 154.132812 50.457031 155.867188 48.390625 157.507812 C 46.972656 158.640625 45.519531 159.808594 44.214844 161.070312 C 43.523438 161.742188 42.851562 162.421875 42.171875 163.105469 C 42.355469 162.941406 42.542969 162.78125 42.726562 162.621094 C 44.238281 161.265625 45.785156 159.878906 47.445312 158.6875 C 50.839844 156.257812 54.289062 153.84375 56.726562 150.453125 Z M 57.246094 149.539062 C 56.492188 149.96875 55.734375 150.382812 55.015625 150.894531 C 52.664062 152.605469 50.5625 154.628906 48.390625 156.558594 C 46.199219 158.503906 44.03125 160.550781 42.078125 162.757812 L 42.046875 162.804688 C 42.691406 162.144531 43.347656 161.484375 44.007812 160.839844 C 45.324219 159.566406 46.789062 158.398438 48.207031 157.253906 C 50.273438 155.609375 52.210938 153.875 54.21875 152.164062 C 55.234375 151.320312 56.296875 150.488281 57.246094 149.539062 Z M 52.789062 156.90625 C 52.1875 157.402344 51.566406 157.878906 50.964844 158.363281 C 49.199219 159.785156 47.367188 161.152344 45.449219 162.363281 C 46.292969 161.984375 47.144531 161.566406 47.976562 161.070312 C 49.859375 159.960938 51.417969 158.527344 52.789062 156.90625 Z M 52.605469 152.394531 C 52.339844 152.546875 52.074219 152.695312 51.808594 152.847656 C 50.421875 153.898438 48.96875 155.066406 47.734375 156.222656 C 46.613281 157.277344 45.644531 158.410156 44.699219 159.566406 C 45.832031 158.457031 47.007812 157.378906 48.195312 156.328125 C 49.660156 155.019531 51.105469 153.667969 52.605469 152.394531 Z M 41.007812 133.371094 C 41.019531 134.921875 40.925781 136.484375 40.742188 138.035156 C 40.464844 140.378906 40.082031 142.671875 39.65625 145.019531 C 39.472656 146.023438 39.285156 147.054688 39.21875 148.082031 C 39.609375 146.601562 40.1875 145.144531 40.542969 143.574219 C 41.304688 140.277344 41.480469 136.773438 41.007812 133.371094 Z M 37.105469 131.5 C 36.484375 135.015625 36.4375 138.726562 37.082031 142.136719 C 37.394531 143.769531 37.867188 145.355469 38.339844 146.949219 C 38.109375 145.445312 37.925781 143.941406 37.742188 142.4375 C 37.300781 138.761719 36.898438 135.140625 37.105469 131.5 Z M 37.707031 128.851562 C 37.707031 128.863281 37.695312 128.875 37.695312 128.886719 C 37.011719 133.417969 37.507812 137.859375 38.050781 142.40625 C 38.226562 143.851562 38.410156 145.285156 38.628906 146.730469 C 38.640625 146.566406 38.664062 146.40625 38.6875 146.253906 C 38.535156 144.902344 38.316406 143.539062 38.191406 142.195312 C 37.878906 138.914062 37.773438 135.628906 37.695312 132.320312 C 37.660156 131.058594 37.636719 129.949219 37.707031 128.851562 Z M 40.5 130.691406 C 40.511719 133.640625 40.246094 136.585938 39.816406 139.46875 C 39.585938 141.027344 39.597656 142.773438 39.332031 144.335938 C 39.265625 144.71875 39.195312 145.085938 39.125 145.445312 C 39.125 145.699219 39.125 145.953125 39.136719 146.210938 C 39.207031 145.792969 39.273438 145.386719 39.355469 144.972656 C 39.78125 142.625 40.164062 140.335938 40.441406 138 C 40.71875 135.695312 40.789062 133.40625 40.589844 131.09375 C 40.566406 131.003906 40.554688 130.921875 40.535156 130.839844 C 40.523438 130.792969 40.511719 130.734375 40.5 130.691406 Z M 39.527344 123.242188 C 38.59375 127.496094 38.546875 131.972656 38.640625 136.285156 C 38.6875 138.65625 38.722656 140.992188 38.859375 143.351562 C 38.859375 143.214844 38.871094 143.085938 38.871094 142.949219 C 38.90625 140.773438 38.976562 138.632812 39.101562 136.460938 C 39.34375 132.515625 39.449219 127.242188 39.527344 123.242188 Z M 39.78125 125.984375 C 39.703125 129.464844 39.597656 133.382812 39.414062 136.484375 C 39.285156 138.644531 39.21875 140.785156 39.183594 142.949219 C 39.183594 143.039062 39.183594 143.132812 39.183594 143.226562 C 39.308594 141.964844 39.34375 140.625 39.527344 139.410156 C 40.035156 135.964844 40.3125 132.378906 40.152344 128.851562 C 39.992188 127.914062 39.875 126.941406 39.78125 125.984375 Z M 38.894531 124.964844 C 38.640625 125.75 38.410156 126.539062 38.15625 127.324219 C 37.9375 128.976562 37.960938 130.480469 38.003906 132.296875 C 38.085938 135.535156 38.179688 138.761719 38.480469 141.976562 C 38.398438 140.082031 38.363281 138.195312 38.328125 136.285156 C 38.257812 132.5625 38.28125 128.6875 38.894531 124.964844 Z M 38.894531 124.964844 " fill-opacity="1" fill-rule="evenodd"/></g><g clip-path="url(#c36c39114f)"><path fill="#000000" d="M 337.375 152.0625 C 337.429688 152.015625 337.464844 151.945312 337.476562 151.863281 C 337.511719 151.597656 337.523438 151.332031 337.535156 151.066406 C 338.167969 148.09375 339.3125 145.238281 339.878906 142.253906 C 340.777344 137.476562 340.363281 132.125 338.90625 127.507812 C 338.421875 125.960938 337.996094 124.410156 337.382812 122.894531 C 337.292969 122.652344 337.175781 122.214844 337.039062 121.832031 C 336.921875 121.519531 336.773438 121.253906 336.613281 121.101562 C 336.507812 121.011719 336.414062 121.023438 336.347656 121.023438 C 336.253906 121.035156 336.183594 121.078125 336.125 121.171875 C 336.105469 121.207031 336.082031 121.265625 336.082031 121.34375 C 336.082031 121.390625 336.09375 121.472656 336.09375 121.519531 C 336.105469 121.808594 336.113281 122.097656 336.125 122.386719 C 336.160156 123.09375 336.148438 123.808594 336.09375 124.515625 C 335.90625 126.5625 335.710938 128.675781 335.226562 130.679688 C 334.210938 134.921875 334.246094 139.46875 335.214844 143.722656 C 335.664062 145.675781 336.472656 147.445312 336.796875 149.34375 L 336.796875 149.355469 C 336.484375 151.574219 336.277344 153.820312 336.21875 156.074219 C 336.171875 158.191406 336.265625 160.304688 336.566406 162.410156 C 336.667969 163.175781 336.808594 163.925781 336.96875 164.679688 C 336.359375 163.601562 335.710938 162.5625 335.042969 161.566406 C 334.164062 160.273438 333.3125 158.859375 332.203125 157.738281 C 330.390625 155.898438 328.300781 154.582031 326.214844 153.125 C 325.324219 152.511719 324.332031 152.050781 323.421875 151.472656 C 322.417969 150.835938 321.457031 150.09375 320.441406 149.457031 C 319.820312 149.066406 319.21875 148.648438 318.609375 148.246094 C 318.421875 148.117188 318.25 148 318.078125 147.863281 C 318.007812 147.804688 317.914062 147.667969 317.847656 147.609375 C 317.777344 147.550781 317.707031 147.515625 317.660156 147.503906 C 317.558594 147.480469 317.476562 147.503906 317.40625 147.5625 C 317.351562 147.609375 317.28125 147.679688 317.269531 147.816406 C 317.246094 148.035156 317.339844 148.300781 317.488281 148.578125 C 317.660156 148.890625 317.914062 149.226562 318.042969 149.4375 C 318.757812 150.695312 319.394531 152.003906 320.164062 153.230469 C 322.253906 156.523438 324.667969 159.589844 328.082031 161.613281 C 330.125 162.828125 332.273438 163.542969 334.140625 164.597656 C 335.828125 165.546875 337.28125 166.769531 338.191406 168.910156 C 339.300781 171.941406 340.800781 174.65625 342.507812 177.421875 C 345.578125 182.382812 349.351562 187.484375 352.734375 194.894531 C 353.921875 197.496094 354.867188 200.144531 355.585938 202.816406 C 355.539062 202.738281 355.492188 202.65625 355.445312 202.574219 C 354.027344 200.191406 351.683594 197.035156 349.386719 195.449219 C 346.664062 193.589844 342.460938 192.179688 339.449219 190.640625 C 338.226562 190.015625 337.164062 189.230469 336.105469 188.375 C 335.871094 188.1875 335.574219 187.863281 335.261719 187.597656 C 335.019531 187.390625 334.765625 187.226562 334.535156 187.160156 C 334.382812 187.113281 334.292969 187.160156 334.234375 187.195312 C 334.140625 187.25 334.085938 187.34375 334.09375 187.496094 C 334.09375 187.539062 334.117188 187.609375 334.164062 187.679688 C 334.222656 187.761719 334.347656 187.898438 334.394531 187.980469 C 334.546875 188.210938 334.695312 188.429688 334.835938 188.664062 C 335.261719 189.34375 335.597656 190.085938 335.976562 190.789062 C 336.125 191.066406 336.289062 191.34375 336.4375 191.613281 C 336.402344 191.667969 336.402344 191.75 336.460938 191.796875 C 336.554688 191.890625 336.632812 191.980469 336.726562 192.074219 C 337.375 193.101562 338.066406 194.0625 338.839844 195 C 338.804688 195.058594 338.804688 195.136719 338.863281 195.183594 C 339.253906 195.613281 339.65625 196.027344 340.085938 196.410156 C 340.222656 196.5625 340.375 196.722656 340.523438 196.875 C 343.328125 199.832031 346.652344 201.453125 350.253906 203.222656 C 351.5 203.835938 352.835938 204.378906 354.015625 205.117188 C 355.144531 205.835938 356.117188 206.726562 356.667969 208.054688 C 356.714844 208.171875 356.761719 208.300781 356.796875 208.414062 C 357.789062 214.878906 357.617188 221.492188 356.589844 228.144531 C 356.195312 222.742188 352.804688 216.902344 349.546875 213.039062 C 349.480469 212.960938 349.410156 212.878906 349.339844 212.796875 C 348.035156 211.246094 346.558594 209.964844 344.910156 208.796875 C 344.804688 208.714844 344.644531 208.554688 344.46875 208.425781 C 344.320312 208.3125 344.171875 208.207031 344.03125 208.171875 C 343.90625 208.136719 343.789062 208.136719 343.6875 208.183594 C 343.582031 208.230469 343.476562 208.308594 343.410156 208.460938 C 342.589844 210.359375 343.039062 213.15625 344.125 216.023438 C 345.71875 220.257812 348.660156 224.640625 350.65625 226.433594 C 351.578125 227.265625 352.894531 227.878906 354.027344 228.628906 C 354.949219 229.242188 355.746094 229.949219 356.046875 230.988281 C 354.671875 236.804688 351.152344 245.8125 347.691406 249.550781 C 347.515625 249.734375 347.527344 250.023438 347.714844 250.195312 C 347.863281 250.335938 348.070312 250.359375 348.246094 250.265625 C 348.269531 250.289062 348.300781 250.289062 348.324219 250.300781 C 348.289062 250.335938 348.269531 250.371094 348.234375 250.40625 C 348.175781 250.476562 348.1875 250.566406 348.246094 250.625 C 348.3125 250.683594 348.40625 250.671875 348.464844 250.613281 C 348.855469 250.175781 349.191406 249.699219 349.527344 249.214844 C 349.558594 249.167969 349.558594 249.097656 349.527344 249.050781 C 349.769531 248.726562 350.011719 248.394531 350.21875 248.058594 C 350.265625 247.988281 350.242188 247.882812 350.171875 247.847656 C 350.160156 247.847656 350.160156 247.839844 350.148438 247.839844 C 351.464844 245.800781 352.746094 243.210938 353.851562 240.527344 C 353.921875 240.496094 353.980469 240.425781 354.003906 240.34375 C 354.128906 239.929688 354.257812 239.523438 354.40625 239.128906 C 354.453125 239.027344 354.488281 238.910156 354.535156 238.804688 C 354.765625 238.226562 355.019531 237.660156 355.308594 237.105469 C 355.792969 236.828125 356.347656 236.679688 356.898438 236.5625 C 357.523438 236.433594 358.148438 236.332031 358.734375 236.132812 C 363.386719 234.574219 366.976562 232.699219 370.136719 228.804688 C 370.496094 228.351562 372.410156 225.585938 372.859375 224.28125 C 372.964844 223.992188 373 223.75 372.964844 223.597656 C 372.941406 223.460938 372.871094 223.367188 372.78125 223.296875 C 372.628906 223.183594 372.410156 223.125 372.121094 223.125 C 371.800781 223.125 371.371094 223.21875 370.886719 223.355469 C 369.132812 223.886719 366.664062 225.207031 366.121094 225.53125 C 362.1875 227.902344 358.445312 230.976562 355.90625 234.828125 L 355.917969 234.804688 C 356.183594 233.960938 356.4375 233.105469 356.65625 232.238281 C 356.84375 231.53125 357.015625 230.816406 357.164062 230.097656 C 357.210938 229.867188 357.257812 229.636719 357.304688 229.394531 C 357.328125 229.277344 357.339844 229.160156 357.363281 229.035156 C 357.386719 228.894531 357.40625 228.757812 357.429688 228.617188 C 357.5 228.179688 357.570312 227.738281 357.628906 227.3125 C 357.765625 226.304688 357.894531 225.289062 357.996094 224.269531 C 358.042969 223.773438 358.089844 223.273438 358.136719 222.789062 C 358.167969 222.652344 358.203125 222.511719 358.238281 222.363281 C 358.261719 222.363281 358.273438 222.351562 358.296875 222.339844 C 366.238281 218.660156 372.585938 211.929688 374.0625 203.09375 C 374.140625 202.585938 374.789062 199.289062 374.949219 197.730469 C 374.996094 197.265625 374.984375 196.941406 374.9375 196.816406 C 374.878906 196.652344 374.777344 196.585938 374.660156 196.5625 C 374.570312 196.539062 374.464844 196.539062 374.351562 196.605469 C 374.269531 196.652344 374.164062 196.734375 374.0625 196.839844 C 373.957031 196.941406 373.851562 197.070312 373.773438 197.128906 C 373.230469 197.53125 372.722656 197.960938 372.144531 198.296875 C 370.320312 199.359375 368.84375 200.445312 367.402344 201.996094 C 362.140625 207.664062 358.320312 219.691406 358.320312 219.691406 C 358.574219 212.726562 357.753906 205.859375 355.480469 199.210938 C 355.480469 199.199219 355.480469 199.199219 355.480469 199.1875 C 355.46875 197.117188 356.253906 195.105469 357.292969 193.171875 C 358.355469 191.207031 359.667969 189.320312 360.707031 187.585938 C 362.53125 184.535156 363.699219 181.179688 364.078125 177.640625 C 364.285156 175.675781 364.238281 173.734375 364.054688 171.753906 C 363.996094 171.164062 363.929688 170.585938 363.859375 169.996094 C 363.835938 169.753906 363.800781 169.511719 363.765625 169.269531 C 363.765625 169.257812 363.777344 169.082031 363.777344 169.015625 C 363.765625 168.921875 363.742188 168.863281 363.710938 168.816406 C 363.664062 168.75 363.59375 168.703125 363.523438 168.691406 C 363.457031 168.667969 363.363281 168.667969 363.257812 168.726562 C 363.132812 168.804688 363.003906 168.96875 362.902344 169.1875 C 362.75 169.535156 362.648438 170.054688 362.542969 170.273438 C 362.082031 171.28125 361.492188 172.320312 360.859375 173.234375 C 359.667969 174.925781 358.492188 176.371094 357.742188 178.324219 C 356.035156 182.8125 356.242188 187.367188 355.828125 192.0625 C 355.664062 193.914062 355.191406 195.695312 354.855469 197.519531 C 354.464844 196.480469 354.027344 195.449219 353.566406 194.421875 C 351.117188 189.054688 348.464844 184.890625 346.015625 181.121094 C 346.015625 181.085938 346.015625 181.042969 346.003906 181.007812 C 345.335938 178.496094 345.730469 176.113281 346.511719 173.789062 C 347.308594 171.417969 348.511719 169.117188 349.433594 166.839844 C 350.738281 163.613281 350.933594 159.460938 350.136719 156.109375 C 349.894531 155.089844 349.421875 153.101562 348.84375 152.1875 C 348.820312 152.105469 348.808594 152.039062 348.785156 151.957031 C 348.765625 151.875 348.683594 151.828125 348.601562 151.839844 C 348.523438 151.863281 348.476562 151.945312 348.488281 152.027344 C 348.417969 152.039062 348.359375 152.085938 348.300781 152.152344 C 348.277344 152.1875 348.246094 152.246094 348.234375 152.339844 C 348.222656 152.417969 348.234375 152.582031 348.210938 152.664062 C 348.164062 152.90625 348.082031 153.136719 348.023438 153.367188 C 347.839844 154.0625 347.574219 154.699219 347.296875 155.355469 C 346.46875 157.347656 345.210938 159.09375 344.746094 161.230469 C 343.917969 165.140625 344.910156 168.851562 345.1875 172.738281 C 345.347656 175.003906 344.898438 177.238281 344.96875 179.492188 C 344.390625 178.601562 343.824219 177.722656 343.292969 176.855469 C 338.722656 169.476562 335.699219 162.421875 337.859375 148.488281 Z M 356.183594 235.902344 C 356.183594 235.902344 356.195312 235.914062 356.195312 235.914062 C 356.171875 235.925781 356.160156 235.925781 356.136719 235.9375 Z M 370.332031 227.4375 C 370 227.925781 369.722656 228.304688 369.617188 228.457031 C 366.535156 232.25 363.027344 234.066406 358.503906 235.589844 C 358.332031 235.648438 358.148438 235.695312 357.960938 235.742188 C 358.238281 235.625 358.515625 235.5 358.78125 235.371094 C 359.726562 234.945312 360.675781 234.539062 361.585938 234.03125 C 364.207031 232.574219 366.929688 230.90625 369.109375 228.824219 C 369.558594 228.398438 369.941406 227.902344 370.332031 227.4375 Z M 371.09375 225.554688 C 370.414062 226.328125 369.652344 227.046875 368.878906 227.714844 C 367.078125 229.289062 365.128906 230.617188 363.144531 231.960938 C 361.238281 233.242188 359.195312 234.6875 357.027344 235.589844 C 357.628906 235.265625 358.203125 234.851562 358.78125 234.515625 C 359.761719 233.9375 360.753906 233.394531 361.699219 232.746094 C 362.925781 231.902344 364.078125 230.917969 365.242188 230.003906 C 366.640625 228.917969 368.015625 227.785156 369.433594 226.722656 C 369.976562 226.339844 370.574219 225.980469 371.09375 225.554688 Z M 356.460938 235.117188 C 358.953125 231.394531 362.589844 228.421875 366.421875 226.109375 C 366.941406 225.796875 369.339844 224.511719 371.050781 223.992188 C 371.453125 223.863281 371.824219 223.785156 372.097656 223.785156 C 372.121094 223.785156 372.144531 223.785156 372.167969 223.785156 C 371.832031 223.875 371.523438 224.050781 371.1875 224.164062 C 370.816406 224.292969 370.414062 224.363281 370.046875 224.511719 C 369.03125 224.941406 368.105469 225.644531 367.171875 226.222656 C 366.457031 226.675781 365.707031 227.066406 365.023438 227.554688 C 363.871094 228.375 362.820312 229.335938 361.746094 230.261719 C 360.558594 231.289062 359.347656 232.296875 358.179688 233.371094 C 357.582031 233.9375 357.039062 234.539062 356.460938 235.117188 Z M 372.085938 224.128906 C 372.03125 224.199219 371.960938 224.269531 371.902344 224.328125 C 371.335938 224.675781 370.726562 224.953125 370.160156 225.296875 C 369.59375 225.644531 369.074219 226.0625 368.523438 226.433594 C 367.921875 226.835938 367.285156 227.195312 366.699219 227.613281 C 365.40625 228.535156 364.195312 229.601562 362.9375 230.570312 C 361.042969 232.027344 359.105469 233.453125 357.152344 234.839844 C 357.558594 234.421875 357.960938 233.996094 358.390625 233.601562 C 359.542969 232.539062 360.753906 231.53125 361.945312 230.503906 C 363.003906 229.589844 364.042969 228.628906 365.199219 227.820312 C 365.878906 227.335938 366.628906 226.941406 367.332031 226.5 C 368.246094 225.921875 369.15625 225.230469 370.160156 224.8125 C 370.519531 224.664062 370.910156 224.59375 371.28125 224.464844 C 371.558594 224.375 371.824219 224.234375 372.085938 224.128906 Z M 371.128906 225.113281 C 370.5625 225.621094 369.859375 226.027344 369.25 226.476562 C 367.828125 227.542969 366.457031 228.675781 365.058594 229.761719 C 363.894531 230.675781 362.75 231.660156 361.527344 232.492188 C 360.59375 233.128906 359.613281 233.671875 358.632812 234.238281 C 358.332031 234.410156 358.042969 234.609375 357.742188 234.792969 C 359.566406 233.496094 361.367188 232.167969 363.132812 230.816406 C 364.390625 229.855469 365.589844 228.804688 366.894531 227.878906 C 367.484375 227.460938 368.105469 227.101562 368.707031 226.699219 C 369.25 226.328125 369.769531 225.910156 370.332031 225.578125 C 370.585938 225.414062 370.863281 225.265625 371.128906 225.113281 Z M 371.082031 226.039062 C 370.808594 226.398438 370.519531 226.757812 370.21875 227.089844 C 369.78125 227.601562 369.375 228.144531 368.890625 228.605469 C 366.734375 230.664062 364.03125 232.320312 361.4375 233.765625 C 360.800781 234.109375 360.15625 234.410156 359.507812 234.710938 C 360.835938 233.9375 362.117188 233.058594 363.328125 232.238281 C 365.3125 230.894531 367.273438 229.542969 369.085938 227.96875 C 369.78125 227.355469 370.460938 226.722656 371.082031 226.039062 Z M 344.4375 209.59375 C 345.382812 210.878906 346.121094 212.40625 347.007812 213.675781 C 350.355469 218.488281 353.355469 223.609375 355.503906 229.082031 C 352.835938 225.03125 350.507812 220.683594 348.058594 216.507812 C 346.710938 214.207031 345.199219 212.125 344.4375 209.59375 Z M 348.5 212.867188 C 348.601562 212.984375 348.71875 213.109375 348.820312 213.238281 C 348.890625 213.316406 348.960938 213.398438 349.027344 213.480469 C 352.328125 217.386719 355.792969 223.378906 355.953125 228.8125 C 355.457031 226.917969 354.636719 225.125 353.933594 223.285156 C 352.5625 219.757812 350.898438 215.976562 348.5 212.867188 Z M 343.90625 208.921875 C 343.929688 208.945312 343.941406 208.957031 343.964844 208.980469 C 344.644531 211.859375 346.316406 214.128906 347.804688 216.660156 C 350 220.394531 352.085938 224.269531 354.417969 227.933594 C 351.058594 223.773438 347.691406 219.320312 345.707031 214.371094 C 344.96875 212.589844 344.160156 210.84375 343.90625 208.921875 Z M 344.804688 209.570312 C 349.179688 212.914062 351.71875 218.40625 353.632812 223.402344 C 354.210938 224.90625 354.867188 226.375 355.363281 227.902344 C 353.242188 222.800781 350.402344 218.011719 347.261719 213.492188 C 346.410156 212.265625 345.695312 210.820312 344.804688 209.570312 Z M 343.582031 211.628906 C 343.824219 212.726562 344.273438 213.839844 344.597656 214.773438 C 345.554688 217.644531 348.730469 222.800781 350.863281 225.066406 C 351.648438 225.886719 352.445312 226.675781 353.21875 227.484375 C 352.421875 227.023438 351.625 226.570312 351.015625 226.015625 C 349.074219 224.257812 346.203125 219.96875 344.644531 215.839844 C 344.101562 214.371094 343.710938 212.925781 343.582031 211.628906 Z M 343.742188 209.800781 C 344.089844 211.421875 344.78125 212.949219 345.40625 214.496094 C 347.285156 219.167969 350.378906 223.414062 353.554688 227.367188 C 352.746094 226.523438 351.914062 225.714844 351.105469 224.859375 C 348.996094 222.628906 345.855469 217.527344 344.910156 214.683594 C 344.632812 213.863281 344.25 212.925781 343.996094 211.964844 C 343.789062 211.238281 343.675781 210.496094 343.742188 209.800781 Z M 358.644531 221.503906 C 358.644531 221.503906 358.644531 221.515625 358.644531 221.515625 L 358.609375 221.527344 Z M 373.101562 204.539062 C 372.941406 205.234375 372.746094 205.90625 372.515625 206.574219 C 370.585938 210.367188 366.722656 214.253906 364.125 216.925781 C 362.484375 218.601562 361.203125 220.269531 359.046875 221.214844 C 363.191406 218.453125 365.867188 214.164062 368.925781 210.335938 C 370.472656 208.425781 372.054688 206.65625 373.101562 204.539062 Z M 373.898438 200.320312 C 373.679688 201.578125 373.449219 202.769531 373.402344 203.046875 L 373.402344 203.058594 C 372.433594 205.789062 370.519531 207.859375 368.683594 210.136719 C 365.878906 213.628906 363.410156 217.515625 359.84375 220.257812 C 361.261719 218.8125 362.695312 217.34375 363.941406 215.769531 C 366.25 212.855469 368.082031 209.582031 370.089844 206.449219 C 371.546875 204.183594 372.929688 202.503906 373.898438 200.320312 Z M 372.457031 198.875 C 369.953125 201.789062 368.3125 205.375 366.421875 208.714844 C 364.136719 212.761719 361.527344 216.507812 358.78125 220.246094 C 358.816406 220.105469 358.863281 219.96875 358.90625 219.816406 C 359.253906 219.46875 359.578125 219.042969 359.878906 218.566406 C 360.652344 217.34375 361.285156 215.851562 361.863281 214.949219 C 363.742188 212.023438 365.566406 209.121094 367.171875 206.03125 C 368.300781 203.835938 369.179688 201.683594 370.816406 199.902344 C 371.324219 199.554688 371.855469 199.222656 372.410156 198.898438 C 372.433594 198.886719 372.445312 198.886719 372.457031 198.875 Z M 373.773438 197.949219 C 369.722656 205.039062 366.027344 212.3125 360.59375 218.453125 C 360.121094 218.984375 359.703125 219.5625 359.265625 220.117188 C 361.933594 216.476562 364.460938 212.808594 366.699219 208.867188 C 368.808594 205.128906 370.597656 201.117188 373.632812 198.054688 C 373.679688 198.019531 373.726562 197.984375 373.773438 197.949219 Z M 371.789062 208.449219 C 369.722656 213.121094 366.144531 216.960938 361.804688 219.746094 C 362.683594 218.960938 363.464844 218.058594 364.355469 217.144531 C 366.570312 214.855469 369.710938 211.699219 371.789062 208.449219 Z M 374.304688 197.648438 C 374.28125 197.855469 374.257812 198.097656 374.222656 198.375 C 374.199219 198.515625 374.1875 198.652344 374.164062 198.792969 C 373.230469 201.71875 371.589844 203.570312 369.847656 206.285156 C 367.851562 209.410156 366.015625 212.671875 363.71875 215.585938 C 362.601562 216.996094 361.332031 218.3125 360.0625 219.621094 C 360.316406 219.296875 360.570312 218.972656 360.847656 218.660156 C 366.570312 212.160156 370.378906 204.402344 374.71875 196.929688 Z M 369.800781 200.65625 C 368.613281 202.25 367.839844 204.054688 366.894531 205.90625 C 365.300781 208.992188 363.476562 211.882812 361.609375 214.796875 C 361.03125 215.699219 360.398438 217.191406 359.625 218.417969 C 359.484375 218.636719 359.347656 218.847656 359.195312 219.042969 C 360.121094 216.949219 361.273438 214.972656 362.300781 212.9375 C 364.320312 208.878906 366.28125 204.851562 369.050781 201.28125 C 369.292969 201.058594 369.546875 200.851562 369.800781 200.65625 Z M 367.65625 202.65625 C 365.453125 205.835938 363.765625 209.292969 362.011719 212.773438 C 361.273438 214.230469 360.476562 215.664062 359.738281 217.132812 C 361.503906 211.859375 363.996094 206.667969 367.65625 202.65625 Z M 336.589844 190.109375 C 338.597656 191.738281 341.089844 192.6875 343.28125 194.027344 C 347.355469 196.503906 351.015625 199.636719 353.992188 203.371094 C 354.558594 204.089844 355.261719 204.773438 355.851562 205.511719 C 355.871094 205.558594 355.90625 205.59375 355.929688 205.640625 C 355.828125 205.523438 355.722656 205.417969 355.617188 205.304688 C 354.847656 204.460938 354.039062 203.660156 353.230469 202.851562 C 350.023438 199.660156 346.558594 196.929688 342.773438 194.445312 C 340.742188 193.101562 338.308594 191.914062 336.589844 190.109375 Z M 347.296875 194.941406 C 347.910156 195.265625 348.488281 195.613281 349.007812 195.960938 C 351.234375 197.496094 353.507812 200.5625 354.890625 202.886719 C 355.238281 203.464844 355.585938 204.066406 355.90625 204.703125 C 355.273438 203.683594 354.535156 202.726562 353.839844 201.777344 C 352.019531 199.3125 349.824219 196.851562 347.296875 194.941406 Z M 339.242188 194.570312 C 340.0625 195.3125 340.917969 196.015625 341.792969 196.675781 C 343.972656 198.332031 346.480469 199.660156 348.808594 201.082031 C 350.265625 201.972656 351.671875 202.886719 353.035156 203.917969 C 352.285156 203.511719 351.535156 203.105469 350.804688 202.65625 C 349.050781 201.558594 347.378906 200.320312 345.589844 199.277344 C 344.378906 198.574219 343.050781 198.085938 341.828125 197.371094 C 341.515625 197.082031 341.214844 196.792969 340.917969 196.46875 C 340.328125 195.84375 339.761719 195.207031 339.242188 194.570312 Z M 337.292969 191.878906 C 337.570312 192.191406 337.859375 192.492188 338.15625 192.746094 C 339.046875 193.53125 340.0625 194.203125 341.007812 194.917969 C 343.8125 197.070312 346.734375 199.023438 349.675781 200.980469 C 350.828125 201.753906 351.914062 202.574219 352.964844 203.453125 C 351.671875 202.503906 350.355469 201.648438 348.984375 200.804688 C 346.652344 199.382812 344.171875 198.054688 341.988281 196.410156 C 340.628906 195.382812 339.324219 194.25 338.089844 193.046875 C 337.8125 192.675781 337.546875 192.28125 337.292969 191.878906 Z M 336.703125 190.652344 C 338.410156 192.28125 340.683594 193.425781 342.601562 194.6875 C 346.363281 197.164062 349.8125 199.867188 353 203.058594 C 353.089844 203.152344 353.183594 203.246094 353.277344 203.328125 C 352.179688 202.402344 351.050781 201.535156 349.835938 200.722656 C 346.90625 198.757812 343.984375 196.816406 341.179688 194.675781 C 340.246094 193.960938 339.230469 193.300781 338.355469 192.511719 C 337.777344 191.992188 337.210938 191.34375 336.703125 190.652344 Z M 343.246094 193.058594 C 343.941406 193.359375 344.644531 193.660156 345.324219 193.96875 C 348.589844 195.960938 351.359375 198.964844 353.566406 201.949219 C 353.714844 202.160156 353.863281 202.355469 354.027344 202.5625 C 353.933594 202.449219 353.851562 202.34375 353.761719 202.238281 C 350.886719 198.652344 347.195312 195.484375 343.246094 193.058594 Z M 342.902344 198.285156 C 343.753906 198.699219 344.621094 199.070312 345.441406 199.542969 C 346.929688 200.402344 348.335938 201.40625 349.769531 202.34375 C 347.308594 201.128906 344.988281 199.949219 342.902344 198.285156 Z M 335.859375 189.019531 C 336.601562 189.609375 337.351562 190.164062 338.144531 190.652344 C 338.144531 190.652344 338.136719 190.664062 338.136719 190.664062 C 338.101562 190.742188 338.125 190.835938 338.203125 190.871094 C 339.613281 191.589844 341.078125 192.121094 342.441406 192.929688 C 345.542969 194.757812 348.511719 197.070312 351.070312 199.683594 C 348.765625 197.417969 346.191406 195.425781 343.421875 193.75 C 340.984375 192.269531 338.167969 191.265625 336.082031 189.253906 C 336.011719 189.183594 335.941406 189.101562 335.859375 189.019531 Z M 363.085938 170.621094 C 363.015625 171.175781 362.925781 171.730469 362.761719 172.265625 C 362.53125 173.015625 362.117188 173.6875 361.933594 174.449219 C 360.871094 178.914062 359.75 183.414062 358.320312 187.773438 C 357.894531 189.089844 357.386719 190.375 356.867188 191.65625 C 356.796875 191.832031 356.714844 192.015625 356.632812 192.191406 C 356.933594 191.3125 357.0625 190.375 357.28125 189.484375 C 357.742188 187.597656 358.238281 185.738281 358.699219 183.851562 C 359.460938 180.742188 360.222656 177.582031 361.296875 174.566406 C 361.710938 173.398438 362.335938 172.265625 362.84375 171.128906 C 362.9375 170.945312 363.003906 170.785156 363.085938 170.621094 Z M 361.285156 173.765625 C 361.191406 174 361.101562 174.21875 361.019531 174.449219 C 359.945312 177.480469 359.183594 180.648438 358.410156 183.769531 C 357.949219 185.65625 357.453125 187.519531 356.992188 189.402344 C 356.878906 189.855469 356.796875 190.328125 356.691406 190.789062 C 356.820312 189.863281 356.921875 188.941406 357.097656 188.027344 C 357.535156 185.726562 358.167969 183.457031 358.632812 181.15625 C 359.011719 179.25 359.253906 176.972656 360.234375 175.222656 C 360.582031 174.738281 360.929688 174.265625 361.285156 173.765625 Z M 363.351562 178.230469 C 362.925781 181.46875 361.816406 184.535156 360.144531 187.34375 C 359.507812 188.40625 358.78125 189.507812 358.066406 190.652344 C 358.355469 190.003906 358.644531 189.355469 358.941406 188.71875 C 359.921875 186.707031 360.871094 184.695312 361.746094 182.625 C 362.371094 181.179688 362.9375 179.722656 363.351562 178.230469 Z M 363.328125 171.140625 L 363.351562 171.328125 C 363.363281 171.824219 363.351562 172.332031 363.304688 172.832031 C 363.191406 173.988281 362.820312 175.039062 362.542969 176.148438 C 362.175781 177.570312 361.875 179.027344 361.425781 180.441406 C 361.042969 181.621094 360.535156 182.742188 360.144531 183.921875 C 359.507812 185.851562 358.792969 187.75 358.007812 189.609375 C 358.226562 189.03125 358.421875 188.453125 358.621094 187.863281 C 360.050781 183.492188 361.171875 178.984375 362.242188 174.519531 C 362.429688 173.765625 362.84375 173.097656 363.0625 172.355469 C 363.191406 171.953125 363.269531 171.535156 363.328125 171.121094 Z M 359.300781 176.625 C 358.828125 178.082031 358.609375 179.675781 358.332031 181.085938 C 357.871094 183.390625 357.234375 185.65625 356.796875 187.957031 C 356.738281 188.246094 356.691406 188.535156 356.644531 188.835938 C 356.832031 185.378906 357.015625 181.988281 358.296875 178.636719 C 358.574219 177.90625 358.917969 177.25 359.300781 176.625 Z M 363.523438 173.523438 C 363.558594 174.34375 363.570312 175.167969 363.546875 175.988281 C 363.179688 178.242188 362.382812 180.382812 361.46875 182.511719 C 360.742188 184.210938 359.980469 185.863281 359.183594 187.527344 C 359.636719 186.371094 360.050781 185.203125 360.441406 184.011719 C 360.835938 182.84375 361.34375 181.710938 361.722656 180.53125 C 362.175781 179.121094 362.484375 177.664062 362.84375 176.230469 C 363.074219 175.316406 363.363281 174.4375 363.523438 173.523438 Z M 349.929688 159.136719 C 350.101562 161.695312 349.746094 164.421875 348.832031 166.679688 C 348.128906 168.425781 347.261719 170.183594 346.535156 171.976562 C 346.605469 171.699219 346.6875 171.429688 346.777344 171.175781 C 348.082031 167.535156 349.617188 163.671875 349.894531 159.773438 C 349.90625 159.566406 349.917969 159.347656 349.929688 159.136719 Z M 346.421875 158.535156 C 346.257812 159.578125 346.269531 160.652344 346.246094 161.730469 C 346.226562 163.164062 346.109375 164.621094 346.179688 166.054688 C 346.214844 166.851562 346.269531 167.671875 346.292969 168.484375 C 346.167969 169.429688 346.039062 170.390625 345.902344 171.339844 C 345.902344 171.328125 345.902344 171.304688 345.902344 171.292969 C 345.914062 169.683594 345.671875 168.113281 345.566406 166.515625 C 345.40625 164.191406 345.429688 161.761719 345.972656 159.484375 C 346.121094 159.160156 346.269531 158.847656 346.421875 158.535156 Z M 345.324219 161.460938 C 345.128906 163.152344 345.152344 164.863281 345.265625 166.527344 C 345.371094 167.996094 345.578125 169.453125 345.601562 170.921875 C 345.230469 167.765625 344.644531 164.679688 345.324219 161.460938 Z M 349.273438 155.332031 C 349.351562 155.644531 349.421875 155.921875 349.480469 156.179688 C 349.617188 157.359375 349.675781 158.535156 349.59375 159.761719 C 349.316406 163.578125 347.839844 167.347656 346.546875 170.921875 C 346.570312 170.738281 346.582031 170.550781 346.59375 170.355469 C 346.765625 169.59375 346.964844 168.828125 347.148438 168.066406 C 347.703125 165.835938 348.476562 163.625 348.867188 161.347656 C 349.191406 159.371094 349.386719 157.335938 349.273438 155.332031 Z M 348.765625 153.621094 L 348.777344 153.65625 C 349.167969 156.179688 348.984375 158.78125 348.554688 161.289062 C 348.175781 163.554688 347.402344 165.753906 346.847656 167.984375 C 346.777344 168.285156 346.699219 168.585938 346.617188 168.886719 C 346.617188 168.761719 346.617188 168.632812 346.605469 168.503906 C 347.007812 165.511719 347.390625 162.515625 347.828125 159.53125 C 347.96875 158.605469 348.070312 157.667969 348.234375 156.746094 C 348.429688 155.714844 348.671875 154.664062 348.753906 153.597656 Z M 348.371094 154.316406 C 348.257812 155.113281 348.082031 155.898438 347.945312 156.6875 C 347.769531 157.613281 347.667969 158.546875 347.527344 159.484375 C 347.171875 161.902344 346.859375 164.332031 346.535156 166.746094 C 346.523438 166.503906 346.511719 166.273438 346.5 166.03125 C 346.433594 164.609375 346.546875 163.152344 346.570312 161.71875 C 346.59375 160.261719 346.558594 158.78125 347.007812 157.414062 C 347.308594 156.835938 347.597656 156.257812 347.851562 155.65625 C 348.023438 155.21875 348.210938 154.777344 348.371094 154.316406 Z M 336.183594 165.082031 C 336.207031 165.105469 336.21875 165.117188 336.242188 165.140625 C 336.335938 165.257812 336.425781 165.382812 336.519531 165.5 C 336.53125 165.511719 336.542969 165.523438 336.554688 165.535156 C 336.566406 165.558594 336.578125 165.578125 336.589844 165.589844 C 336.425781 165.441406 336.265625 165.300781 336.09375 165.164062 C 336.113281 165.152344 336.136719 165.140625 336.160156 165.128906 C 336.171875 165.117188 336.183594 165.105469 336.183594 165.082031 Z M 327.320312 154.664062 C 328.878906 155.726562 330.390625 156.8125 331.742188 158.179688 C 332.816406 159.277344 333.65625 160.652344 334.511719 161.914062 C 335.054688 162.722656 335.585938 163.566406 336.09375 164.421875 L 336.058594 164.378906 C 335.5625 163.753906 335.042969 163.152344 334.523438 162.550781 C 334.199219 162.15625 333.863281 161.761719 333.542969 161.371094 C 331.996094 159.496094 330.609375 157.65625 328.832031 155.992188 C 328.347656 155.554688 327.839844 155.101562 327.320312 154.664062 Z M 319.910156 151.632812 C 321.851562 154.476562 324.320312 156.917969 327.101562 158.964844 C 328.832031 160.226562 330.621094 161.460938 332.398438 162.664062 C 333.011719 163.070312 333.632812 163.488281 334.210938 163.949219 C 333.898438 163.777344 333.578125 163.613281 333.253906 163.464844 C 332.953125 163.277344 332.652344 163.09375 332.351562 162.910156 C 329.964844 161.507812 327.714844 159.867188 325.566406 158.132812 C 324.414062 157.195312 323.15625 156.304688 322.183594 155.171875 C 321.65625 154.433594 321.148438 153.667969 320.652344 152.90625 C 320.398438 152.476562 320.152344 152.0625 319.910156 151.632812 Z M 321.042969 152.664062 C 323.28125 155.066406 326.015625 157 328.71875 158.953125 C 330.355469 160.132812 331.902344 161.507812 333.402344 162.863281 C 333.632812 163.070312 333.863281 163.265625 334.105469 163.476562 C 333.609375 163.105469 333.089844 162.757812 332.570312 162.410156 C 330.792969 161.21875 329.007812 159.984375 327.273438 158.722656 C 324.933594 156.988281 322.808594 154.964844 321.042969 152.664062 Z M 319.625 150.453125 C 320.375 151.136719 321.160156 151.761719 321.929688 152.417969 C 323.941406 154.132812 325.890625 155.867188 327.957031 157.507812 C 329.375 158.640625 330.828125 159.808594 332.132812 161.070312 C 332.824219 161.742188 333.496094 162.421875 334.175781 163.105469 C 333.992188 162.941406 333.808594 162.78125 333.621094 162.621094 C 332.109375 161.265625 330.5625 159.878906 328.902344 158.6875 C 325.507812 156.257812 322.058594 153.84375 319.625 150.453125 Z M 319.105469 149.539062 C 319.855469 149.96875 320.617188 150.382812 321.332031 150.894531 C 323.6875 152.605469 325.785156 154.628906 327.957031 156.558594 C 330.148438 158.503906 332.316406 160.550781 334.269531 162.757812 L 334.304688 162.804688 C 333.65625 162.144531 333 161.484375 332.339844 160.839844 C 331.027344 159.566406 329.558594 158.398438 328.140625 157.253906 C 326.074219 155.609375 324.136719 153.875 322.128906 152.164062 C 321.113281 151.320312 320.050781 150.488281 319.105469 149.539062 Z M 323.558594 156.90625 C 324.160156 157.402344 324.78125 157.878906 325.382812 158.363281 C 327.148438 159.785156 328.984375 161.152344 330.898438 162.363281 C 330.054688 161.984375 329.203125 161.566406 328.371094 161.070312 C 326.488281 159.960938 324.933594 158.527344 323.558594 156.90625 Z M 323.742188 152.394531 C 324.007812 152.546875 324.273438 152.695312 324.539062 152.847656 C 325.925781 153.898438 327.378906 155.066406 328.613281 156.222656 C 329.734375 157.277344 330.703125 158.410156 331.648438 159.566406 C 330.519531 158.457031 329.339844 157.378906 328.152344 156.328125 C 326.6875 155.019531 325.242188 153.667969 323.742188 152.394531 Z M 335.34375 133.371094 C 335.332031 134.921875 335.421875 136.484375 335.605469 138.035156 C 335.882812 140.378906 336.265625 142.671875 336.691406 145.019531 C 336.875 146.023438 337.0625 147.054688 337.128906 148.082031 C 336.738281 146.601562 336.160156 145.144531 335.804688 143.574219 C 335.042969 140.277344 334.867188 136.773438 335.34375 133.371094 Z M 339.242188 131.5 C 339.867188 135.015625 339.910156 138.726562 339.265625 142.136719 C 338.953125 143.769531 338.480469 145.355469 338.007812 146.949219 C 338.238281 145.445312 338.421875 143.941406 338.609375 142.4375 C 339.046875 138.761719 339.449219 135.140625 339.242188 131.5 Z M 338.644531 128.851562 C 338.644531 128.863281 338.652344 128.875 338.652344 128.886719 C 339.335938 133.417969 338.839844 137.859375 338.296875 142.40625 C 338.125 143.851562 337.9375 145.285156 337.71875 146.730469 C 337.707031 146.566406 337.683594 146.40625 337.660156 146.253906 C 337.8125 144.902344 338.03125 143.539062 338.15625 142.195312 C 338.46875 138.914062 338.574219 135.628906 338.652344 132.320312 C 338.6875 131.058594 338.710938 129.949219 338.644531 128.851562 Z M 335.851562 130.691406 C 335.839844 133.640625 336.105469 136.585938 336.53125 139.46875 C 336.761719 141.027344 336.75 142.773438 337.015625 144.335938 C 337.085938 144.71875 337.152344 145.085938 337.222656 145.445312 C 337.222656 145.699219 337.222656 145.953125 337.210938 146.210938 C 337.140625 145.792969 337.074219 145.386719 336.992188 144.972656 C 336.566406 142.625 336.183594 140.335938 335.90625 138 C 335.628906 135.695312 335.5625 133.40625 335.757812 131.09375 C 335.78125 131.003906 335.792969 130.921875 335.816406 130.839844 C 335.828125 130.792969 335.839844 130.734375 335.851562 130.691406 Z M 336.820312 123.242188 C 337.753906 127.496094 337.800781 131.972656 337.707031 136.285156 C 337.660156 138.65625 337.628906 140.992188 337.488281 143.351562 C 337.488281 143.214844 337.476562 143.085938 337.476562 142.949219 C 337.441406 140.773438 337.375 138.632812 337.246094 136.460938 C 337.003906 132.515625 336.898438 127.242188 336.820312 123.242188 Z M 336.566406 125.984375 C 336.644531 129.464844 336.75 133.382812 336.933594 136.484375 C 337.0625 138.644531 337.128906 140.785156 337.164062 142.949219 C 337.164062 143.039062 337.164062 143.132812 337.164062 143.226562 C 337.039062 141.964844 337.003906 140.625 336.820312 139.410156 C 336.3125 135.964844 336.035156 132.378906 336.195312 128.851562 C 336.359375 127.914062 336.472656 126.941406 336.566406 125.984375 Z M 337.453125 124.964844 C 337.707031 125.75 337.9375 126.539062 338.191406 127.324219 C 338.410156 128.976562 338.390625 130.480469 338.34375 132.296875 C 338.261719 135.535156 338.167969 138.761719 337.871094 141.976562 C 337.949219 140.082031 337.984375 138.195312 338.019531 136.285156 C 338.089844 132.5625 338.066406 128.6875 337.453125 124.964844 Z M 337.453125 124.964844 " fill-opacity="1" fill-rule="evenodd"/></g><g fill="#000000" fill-opacity="1"><g transform="translate(62.268482, 322.732922)"><g><path d="M 19.859375 -1.625 C 20.847656 -3.757812 20.378906 -5.566406 18.453125 -7.046875 C 17.253906 -7.953125 15.925781 -8.191406 14.46875 -7.765625 C 13.007812 -7.335938 11.617188 -6.253906 10.296875 -4.515625 C 9.054688 -2.898438 8.40625 -1.335938 8.34375 0.171875 C 8.28125 1.691406 8.867188 2.921875 10.109375 3.859375 C 11.992188 5.304688 13.921875 5.210938 15.890625 3.578125 L 19.1875 6.09375 C 17.707031 7.519531 15.941406 8.347656 13.890625 8.578125 C 11.835938 8.816406 9.828125 8.179688 7.859375 6.671875 C 5.648438 4.992188 4.453125 2.925781 4.265625 0.46875 C 4.078125 -1.988281 4.984375 -4.523438 6.984375 -7.140625 C 8.890625 -9.640625 11.078125 -11.15625 13.546875 -11.6875 C 16.015625 -12.226562 18.367188 -11.640625 20.609375 -9.921875 C 22.578125 -8.410156 23.757812 -6.660156 24.15625 -4.671875 C 24.550781 -2.679688 24.21875 -0.828125 23.15625 0.890625 Z M 19.859375 -1.625 "/></g></g></g><g fill="#000000" fill-opacity="1"><g transform="translate(86.61342, 340.404439)"><g><path d="M 9.375 -6.234375 C 8.269531 -4.203125 7.894531 -2.429688 8.25 -0.921875 C 8.613281 0.585938 9.488281 1.71875 10.875 2.46875 C 12.269531 3.21875 13.6875 3.296875 15.125 2.703125 C 16.570312 2.117188 17.828125 0.84375 18.890625 -1.125 C 19.941406 -3.082031 20.316406 -4.820312 20.015625 -6.34375 C 19.710938 -7.863281 18.84375 -9.015625 17.40625 -9.796875 C 15.96875 -10.566406 14.53125 -10.65625 13.09375 -10.0625 C 11.664062 -9.476562 10.425781 -8.203125 9.375 -6.234375 Z M 5.734375 -8.203125 C 7.335938 -11.191406 9.34375 -13.050781 11.75 -13.78125 C 14.164062 -14.519531 16.597656 -14.226562 19.046875 -12.90625 C 21.503906 -11.582031 23.101562 -9.71875 23.84375 -7.3125 C 24.59375 -4.90625 24.15625 -2.1875 22.53125 0.84375 C 20.925781 3.8125 18.921875 5.671875 16.515625 6.421875 C 14.109375 7.171875 11.660156 6.878906 9.171875 5.546875 C 6.796875 4.265625 5.203125 2.4375 4.390625 0.0625 C 3.585938 -2.3125 4.035156 -5.066406 5.734375 -8.203125 Z M 5.734375 -8.203125 "/></g></g></g><g fill="#000000" fill-opacity="1"><g transform="translate(114.708041, 354.566353)"><g><path d="M 20.0625 -14.0625 L 23.71875 -12.78125 L 17.203125 5.984375 L 13.28125 4.609375 L 10.28125 -11.4375 L 10.234375 -11.453125 L 5.578125 1.9375 L 1.921875 0.671875 L 8.4375 -18.09375 L 12.5625 -16.65625 L 15.484375 -1.015625 L 15.53125 -1 Z M 20.0625 -14.0625 "/></g></g></g><g fill="#000000" fill-opacity="1"><g transform="translate(143.516345, 363.708699)"><g><path d="M 6.171875 -5.078125 C 5.992188 -4.109375 6.207031 -3.273438 6.8125 -2.578125 C 7.414062 -1.878906 8.382812 -1.40625 9.71875 -1.15625 C 11.039062 -0.914062 12.085938 -0.945312 12.859375 -1.25 C 13.640625 -1.550781 14.109375 -2.113281 14.265625 -2.9375 C 14.359375 -3.4375 14.253906 -3.898438 13.953125 -4.328125 C 13.660156 -4.753906 12.875 -5.257812 11.59375 -5.84375 L 8.40625 -7.21875 C 6.394531 -8.09375 5.085938 -9.023438 4.484375 -10.015625 C 3.890625 -11.015625 3.734375 -12.269531 4.015625 -13.78125 C 4.335938 -15.539062 5.226562 -16.863281 6.6875 -17.75 C 8.144531 -18.644531 10.128906 -18.859375 12.640625 -18.390625 C 15.128906 -17.929688 16.90625 -16.953125 17.96875 -15.453125 C 19.03125 -13.953125 19.40625 -12.359375 19.09375 -10.671875 L 15.171875 -11.40625 C 15.265625 -12.382812 15.03125 -13.179688 14.46875 -13.796875 C 13.90625 -14.410156 12.988281 -14.835938 11.71875 -15.078125 C 10.695312 -15.265625 9.832031 -15.203125 9.125 -14.890625 C 8.425781 -14.585938 8.015625 -14.078125 7.890625 -13.359375 C 7.796875 -12.867188 7.851562 -12.429688 8.0625 -12.046875 C 8.269531 -11.671875 8.671875 -11.351562 9.265625 -11.09375 L 14.25 -8.84375 C 16.050781 -8.03125 17.226562 -7.125 17.78125 -6.125 C 18.332031 -5.132812 18.488281 -3.992188 18.25 -2.703125 C 17.863281 -0.578125 16.832031 0.878906 15.15625 1.671875 C 13.488281 2.472656 11.566406 2.671875 9.390625 2.265625 C 6.566406 1.742188 4.582031 0.753906 3.4375 -0.703125 C 2.289062 -2.160156 1.894531 -3.863281 2.25 -5.8125 Z M 6.171875 -5.078125 "/></g></g></g><g fill="#000000" fill-opacity="1"><g transform="translate(171.69242, 368.205902)"><g><path d="M 18.1875 -6.359375 C 18.113281 -3.921875 17.378906 -2.085938 15.984375 -0.859375 C 14.597656 0.359375 12.539062 0.925781 9.8125 0.84375 C 7.414062 0.769531 5.519531 0.0976562 4.125 -1.171875 C 2.738281 -2.441406 2.085938 -4.273438 2.171875 -6.671875 L 2.59375 -19.78125 L 6.84375 -19.640625 L 6.421875 -6.765625 C 6.378906 -5.472656 6.664062 -4.472656 7.28125 -3.765625 C 7.90625 -3.066406 8.816406 -2.703125 10.015625 -2.671875 C 11.222656 -2.628906 12.171875 -2.910156 12.859375 -3.515625 C 13.554688 -4.128906 13.925781 -5.070312 13.96875 -6.34375 L 14.390625 -19.40625 L 18.609375 -19.265625 Z M 18.1875 -6.359375 "/></g></g></g><g fill="#000000" fill-opacity="1"><g transform="translate(201.543844, 368.315552)"><g><path d="M 5.71875 -4.28125 L 15.53125 -5.390625 L 15.9375 -1.8125 L 2.015625 -0.234375 L -0.234375 -19.96875 L 3.875 -20.4375 Z M 5.71875 -4.28125 "/></g></g></g><g fill="#000000" fill-opacity="1"><g transform="translate(227.640567, 364.680381)"><g><path d="M 10.21875 -2.609375 L 6.203125 -1.59375 L 2.15625 -17.421875 L -3.65625 -15.921875 L -4.53125 -19.328125 L 11.125 -23.34375 L 12 -19.9375 L 6.171875 -18.4375 Z M 10.21875 -2.609375 "/></g></g></g><g fill="#000000" fill-opacity="1"><g transform="translate(253.131811, 357.336191)"><g><path d="M 5.765625 -2.203125 L 1.890625 -0.71875 L -5.203125 -19.265625 L -1.328125 -20.75 Z M 5.765625 -2.203125 "/></g></g></g><g fill="#000000" fill-opacity="1"><g transform="translate(269.759949, 350.743009)"><g><path d="M 3.359375 -24.265625 L 6.78125 -26.078125 L 16.09375 -8.546875 L 12.421875 -6.59375 L -1.390625 -15.3125 L -1.421875 -15.28125 L 5.21875 -2.765625 L 1.796875 -0.953125 L -7.515625 -18.484375 L -3.65625 -20.53125 L 9.796875 -12.03125 L 9.84375 -12.0625 Z M 3.359375 -24.265625 "/></g></g></g><g fill="#000000" fill-opacity="1"><g transform="translate(296.180925, 335.852383)"><g><path d="M 2.640625 -15.453125 L 9.265625 -20.46875 L 15.734375 -11.921875 L 13.515625 -10.234375 L 11.6875 -11.96875 C 11.6875 -9.445312 10.628906 -7.382812 8.515625 -5.78125 C 6.390625 -4.175781 4.082031 -3.617188 1.59375 -4.109375 C -0.894531 -4.597656 -3.09375 -6.097656 -5 -8.609375 C -6.894531 -11.109375 -7.734375 -13.65625 -7.515625 -16.25 C -7.296875 -18.84375 -5.988281 -21.046875 -3.59375 -22.859375 C -1.550781 -24.398438 0.46875 -25.117188 2.46875 -25.015625 C 4.46875 -24.921875 6.101562 -24.175781 7.375 -22.78125 L 4.09375 -20.296875 C 3.289062 -20.929688 2.394531 -21.238281 1.40625 -21.21875 C 0.414062 -21.207031 -0.503906 -20.882812 -1.359375 -20.25 C -2.765625 -19.175781 -3.488281 -17.820312 -3.53125 -16.1875 C -3.582031 -14.5625 -2.941406 -12.875 -1.609375 -11.125 C -0.285156 -9.375 1.125 -8.320312 2.625 -7.96875 C 4.125 -7.613281 5.632812 -8.007812 7.15625 -9.15625 C 8.007812 -9.800781 8.582031 -10.671875 8.875 -11.765625 C 9.164062 -12.859375 8.992188 -14.117188 8.359375 -15.546875 L 4.671875 -12.765625 Z M 2.640625 -15.453125 "/></g></g></g></svg>