<svg xmlns="http://www.w3.org/2000/svg" xmlns:xlink="http://www.w3.org/1999/xlink" width="500" zoomAndPan="magnify" viewBox="0 0 375 374.999991" height="500" preserveAspectRatio="xMidYMid meet" version="1.0"><defs><g/><clipPath id="3cc0584c4c"><path d="M 69.984375 69.984375 L 305.015625 69.984375 L 305.015625 305.015625 L 69.984375 305.015625 Z M 69.984375 69.984375 " clip-rule="nonzero"/></clipPath><clipPath id="e68453b767"><path d="M 187.5 69.984375 C 122.597656 69.984375 69.984375 122.597656 69.984375 187.5 C 69.984375 252.402344 122.597656 305.015625 187.5 305.015625 C 252.402344 305.015625 305.015625 252.402344 305.015625 187.5 C 305.015625 122.597656 252.402344 69.984375 187.5 69.984375 Z M 187.5 69.984375 " clip-rule="nonzero"/></clipPath><clipPath id="11e72c6b3f"><path d="M 127.101562 134.621094 L 247.851562 134.621094 L 247.851562 240.371094 L 127.101562 240.371094 Z M 127.101562 134.621094 " clip-rule="nonzero"/></clipPath><clipPath id="0c0280eb13"><path d="M 86.203125 152.347656 L 117.703125 152.347656 L 117.703125 222.847656 L 86.203125 222.847656 Z M 86.203125 152.347656 " clip-rule="nonzero"/></clipPath><clipPath id="514845418d"><path d="M 257.4375 152.347656 L 288.785156 152.347656 L 288.785156 222.847656 L 257.4375 222.847656 Z M 257.4375 152.347656 " clip-rule="nonzero"/></clipPath></defs><rect x="-37.5" width="450" fill="#ffffff" y="-37.499999" height="449.999989" fill-opacity="1"/><rect x="-37.5" width="450" fill="#e8ecd7" y="-37.499999" height="449.999989" fill-opacity="1"/><g clip-path="url(#3cc0584c4c)"><g clip-path="url(#e68453b767)"><path fill="#e8ecd7" d="M 69.984375 69.984375 L 305.015625 69.984375 L 305.015625 305.015625 L 69.984375 305.015625 Z M 69.984375 69.984375 " fill-opacity="1" fill-rule="nonzero"/></g></g><g fill="#1f4529" fill-opacity="1"><g transform="translate(107.726781, 139.853125)"><g><path d="M 0.046875 -9.453125 L 3.484375 -13.09375 L 8.1875 -8.65625 L 7.03125 -7.4375 L 5.765625 -8.28125 C 6.023438 -6.78125 5.601562 -5.445312 4.5 -4.28125 C 3.394531 -3.125 2.070312 -2.566406 0.53125 -2.609375 C -1 -2.648438 -2.457031 -3.320312 -3.84375 -4.625 C -5.21875 -5.9375 -5.96875 -7.367188 -6.09375 -8.921875 C -6.226562 -10.484375 -5.671875 -11.925781 -4.421875 -13.25 C -3.359375 -14.375 -2.222656 -15.003906 -1.015625 -15.140625 C 0.191406 -15.273438 1.242188 -14.988281 2.140625 -14.28125 L 0.4375 -12.46875 C -0.101562 -12.78125 -0.671875 -12.878906 -1.265625 -12.765625 C -1.859375 -12.660156 -2.375 -12.378906 -2.8125 -11.921875 C -3.550781 -11.140625 -3.851562 -10.265625 -3.71875 -9.296875 C -3.582031 -8.328125 -3.03125 -7.382812 -2.0625 -6.46875 C -1.101562 -5.5625 -0.160156 -5.070312 0.765625 -5 C 1.703125 -4.9375 2.5625 -5.320312 3.34375 -6.15625 C 3.789062 -6.625 4.046875 -7.195312 4.109375 -7.875 C 4.179688 -8.5625 3.957031 -9.296875 3.4375 -10.078125 L 1.53125 -8.0625 Z M 0.046875 -9.453125 "/></g></g></g><g fill="#1f4529" fill-opacity="1"><g transform="translate(119.925254, 127.71512)"><g><path d="M 2.890625 -2.359375 L 0.9375 -0.765625 L -6.65625 -10.03125 L -4.703125 -11.625 Z M 2.890625 -2.359375 "/></g></g></g><g fill="#1f4529" fill-opacity="1"><g transform="translate(127.050101, 121.943311)"><g><path d="M 1.234375 -6.171875 L 3.8125 -7.8125 L 0.015625 -11.015625 L 0 -11 Z M 2.40625 -1.515625 L 0.171875 -0.109375 L -2.625 -12.53125 L -0.171875 -14.078125 L 9.796875 -6.203125 L 7.5 -4.75 L 5.515625 -6.421875 L 1.78125 -4.046875 Z M 2.40625 -1.515625 "/></g></g></g><g fill="#1f4529" fill-opacity="1"><g transform="translate(140.551417, 113.736632)"><g><path d="M 3.15625 -14.4375 L 5.3125 -15.375 L 10.09375 -4.390625 L 7.78125 -3.390625 L -0.125 -9.296875 L -0.15625 -9.28125 L 3.265625 -1.421875 L 1.125 -0.484375 L -3.65625 -11.46875 L -1.234375 -12.53125 L 6.453125 -6.78125 L 6.484375 -6.796875 Z M 3.15625 -14.4375 "/></g></g></g><g fill="#1f4529" fill-opacity="1"><g transform="translate(155.601574, 107.594644)"><g><path d="M 6.15625 -1.65625 L 3.734375 -1 L 1.171875 -10.53125 L -2.328125 -9.59375 L -2.875 -11.640625 L 6.546875 -14.171875 L 7.09375 -12.125 L 3.59375 -11.1875 Z M 6.15625 -1.65625 "/></g></g></g><g fill="#1f4529" fill-opacity="1"><g transform="translate(169.707183, 104.214435)"><g/></g></g><g fill="#1f4529" fill-opacity="1"><g transform="translate(178.350982, 102.955472)"><g><path d="M 2.96875 -3.796875 C 2.988281 -3.210938 3.222656 -2.75 3.671875 -2.40625 C 4.117188 -2.070312 4.753906 -1.914062 5.578125 -1.9375 C 6.390625 -1.96875 7.003906 -2.125 7.421875 -2.40625 C 7.835938 -2.6875 8.039062 -3.082031 8.03125 -3.59375 C 8.019531 -3.894531 7.898438 -4.148438 7.671875 -4.359375 C 7.441406 -4.578125 6.910156 -4.773438 6.078125 -4.953125 L 4.03125 -5.34375 C 2.726562 -5.601562 1.832031 -5.988281 1.34375 -6.5 C 0.863281 -7.007812 0.609375 -7.726562 0.578125 -8.65625 C 0.546875 -9.738281 0.898438 -10.632812 1.640625 -11.34375 C 2.390625 -12.0625 3.53125 -12.445312 5.0625 -12.5 C 6.59375 -12.550781 7.765625 -12.203125 8.578125 -11.453125 C 9.398438 -10.703125 9.832031 -9.8125 9.875 -8.78125 L 7.46875 -8.703125 C 7.394531 -9.285156 7.148438 -9.722656 6.734375 -10.015625 C 6.328125 -10.304688 5.734375 -10.4375 4.953125 -10.40625 C 4.328125 -10.382812 3.828125 -10.238281 3.453125 -9.96875 C 3.078125 -9.695312 2.898438 -9.34375 2.921875 -8.90625 C 2.929688 -8.601562 3.019531 -8.351562 3.1875 -8.15625 C 3.363281 -7.957031 3.644531 -7.816406 4.03125 -7.734375 L 7.25 -7.0625 C 8.414062 -6.820312 9.226562 -6.441406 9.6875 -5.921875 C 10.15625 -5.410156 10.398438 -4.757812 10.421875 -3.96875 C 10.460938 -2.65625 10.039062 -1.65625 9.15625 -0.96875 C 8.28125 -0.289062 7.175781 0.0664062 5.84375 0.109375 C 4.113281 0.171875 2.8125 -0.144531 1.9375 -0.84375 C 1.0625 -1.550781 0.601562 -2.503906 0.5625 -3.703125 Z M 2.96875 -3.796875 "/></g></g></g><g fill="#1f4529" fill-opacity="1"><g transform="translate(193.595565, 102.740689)"><g><path d="M 6.734375 -5.671875 C 7.359375 -5.597656 7.835938 -5.691406 8.171875 -5.953125 C 8.515625 -6.210938 8.722656 -6.65625 8.796875 -7.28125 C 8.867188 -7.894531 8.742188 -8.347656 8.421875 -8.640625 C 8.109375 -8.941406 7.613281 -9.128906 6.9375 -9.203125 L 4.8125 -9.4375 L 4.421875 -5.921875 Z M 3.703125 0.421875 L 1.21875 0.140625 L 2.5625 -11.765625 L 8 -11.15625 C 9.132812 -11.03125 9.992188 -10.585938 10.578125 -9.828125 C 11.171875 -9.078125 11.398438 -8.109375 11.265625 -6.921875 C 11.148438 -5.898438 10.722656 -5.046875 9.984375 -4.359375 C 9.253906 -3.679688 8.269531 -3.414062 7.03125 -3.5625 L 4.1875 -3.875 Z M 3.703125 0.421875 "/></g></g></g><g fill="#1f4529" fill-opacity="1"><g transform="translate(208.533835, 104.698057)"><g><path d="M 8.125 -4.78125 C 8.75 -4.601562 9.25 -4.59375 9.625 -4.75 C 10.007812 -4.914062 10.273438 -5.285156 10.421875 -5.859375 C 10.546875 -6.316406 10.5 -6.71875 10.28125 -7.0625 C 10.070312 -7.414062 9.6875 -7.664062 9.125 -7.8125 L 6.109375 -8.625 L 5.28125 -5.53125 Z M 4.265625 -11.265625 L 10.125 -9.6875 C 11.320312 -9.375 12.144531 -8.8125 12.59375 -8 C 13.050781 -7.195312 13.160156 -6.347656 12.921875 -5.453125 C 12.554688 -4.109375 11.707031 -3.347656 10.375 -3.171875 C 10.875 -2.804688 11.175781 -2.394531 11.28125 -1.9375 C 11.382812 -1.488281 11.300781 -0.742188 11.03125 0.296875 C 10.75 1.316406 10.625 1.925781 10.65625 2.125 C 10.6875 2.332031 10.78125 2.492188 10.9375 2.609375 L 10.859375 2.90625 L 8.1875 2.203125 C 8.15625 1.628906 8.273438 0.851562 8.546875 -0.125 C 8.765625 -0.945312 8.847656 -1.492188 8.796875 -1.765625 C 8.753906 -2.035156 8.625 -2.257812 8.40625 -2.4375 C 8.1875 -2.613281 7.804688 -2.769531 7.265625 -2.90625 L 4.765625 -3.578125 L 3.546875 0.953125 L 1.171875 0.3125 Z M 4.265625 -11.265625 "/></g></g></g><g fill="#1f4529" fill-opacity="1"><g transform="translate(223.922962, 109.304311)"><g><path d="M 3.46875 1.390625 L 1.125 0.453125 L 5.609375 -10.65625 L 7.953125 -9.71875 Z M 3.46875 1.390625 "/></g></g></g><g fill="#1f4529" fill-opacity="1"><g transform="translate(232.402736, 112.764102)"><g><path d="M 13.375 -6.28125 L 15.421875 -5.140625 L 9.609375 5.34375 L 7.421875 4.125 L 7.296875 -5.734375 L 7.265625 -5.75 L 3.109375 1.734375 L 1.0625 0.59375 L 6.875 -9.890625 L 9.1875 -8.609375 L 9.3125 1 L 9.328125 1.015625 Z M 13.375 -6.28125 "/></g></g></g><g fill="#1f4529" fill-opacity="1"><g transform="translate(246.408731, 120.868087)"><g><path d="M 9.421875 -0.8125 L 13.359375 2.28125 L 9.359375 7.359375 L 8.046875 6.328125 L 8.765625 5 C 7.304688 5.382812 5.945312 5.082031 4.6875 4.09375 C 3.425781 3.09375 2.742188 1.828125 2.640625 0.296875 C 2.546875 -1.222656 3.085938 -2.734375 4.265625 -4.234375 C 5.441406 -5.722656 6.800781 -6.601562 8.34375 -6.875 C 9.882812 -7.144531 11.367188 -6.71875 12.796875 -5.59375 C 14.015625 -4.632812 14.742188 -3.5625 14.984375 -2.375 C 15.234375 -1.1875 15.046875 -0.113281 14.421875 0.84375 L 12.46875 -0.703125 C 12.726562 -1.265625 12.773438 -1.835938 12.609375 -2.421875 C 12.453125 -3.003906 12.125 -3.488281 11.625 -3.875 C 10.78125 -4.539062 9.878906 -4.757812 8.921875 -4.53125 C 7.960938 -4.3125 7.070312 -3.679688 6.25 -2.640625 C 5.4375 -1.597656 5.039062 -0.613281 5.0625 0.3125 C 5.082031 1.25 5.539062 2.070312 6.4375 2.78125 C 6.945312 3.1875 7.539062 3.390625 8.21875 3.390625 C 8.90625 3.390625 9.617188 3.097656 10.359375 2.515625 L 8.171875 0.78125 Z M 9.421875 -0.8125 "/></g></g></g><g fill="#1f4529" fill-opacity="1"><g transform="translate(259.553358, 131.704542)"><g><path d="M 4.8125 -0.25 C 4.382812 0.15625 4.1875 0.640625 4.21875 1.203125 C 4.257812 1.765625 4.5625 2.347656 5.125 2.953125 C 5.675781 3.546875 6.191406 3.90625 6.671875 4.03125 C 7.148438 4.164062 7.578125 4.0625 7.953125 3.71875 C 8.179688 3.507812 8.300781 3.25 8.3125 2.9375 C 8.332031 2.625 8.128906 2.09375 7.703125 1.34375 L 6.671875 -0.46875 C 6.015625 -1.613281 5.71875 -2.535156 5.78125 -3.234375 C 5.851562 -3.929688 6.234375 -4.597656 6.921875 -5.234375 C 7.710938 -5.960938 8.617188 -6.28125 9.640625 -6.1875 C 10.671875 -6.09375 11.707031 -5.484375 12.75 -4.359375 C 13.789062 -3.234375 14.296875 -2.117188 14.265625 -1.015625 C 14.234375 0.0859375 13.84375 0.992188 13.09375 1.703125 L 11.453125 -0.0625 C 11.847656 -0.5 12.019531 -0.96875 11.96875 -1.46875 C 11.925781 -1.976562 11.640625 -2.519531 11.109375 -3.09375 C 10.679688 -3.550781 10.238281 -3.828125 9.78125 -3.921875 C 9.332031 -4.023438 8.953125 -3.925781 8.640625 -3.625 C 8.410156 -3.414062 8.28125 -3.179688 8.25 -2.921875 C 8.21875 -2.671875 8.289062 -2.375 8.46875 -2.03125 L 10.09375 0.84375 C 10.664062 1.882812 10.90625 2.75 10.8125 3.4375 C 10.726562 4.125 10.394531 4.738281 9.8125 5.28125 C 8.851562 6.175781 7.828125 6.507812 6.734375 6.28125 C 5.640625 6.0625 4.640625 5.460938 3.734375 4.484375 C 2.554688 3.222656 1.945312 2.03125 1.90625 0.90625 C 1.875 -0.21875 2.296875 -1.191406 3.171875 -2.015625 Z M 4.8125 -0.25 "/></g></g></g><g clip-path="url(#11e72c6b3f)"><path fill="#1f4529" d="M 132.757812 187.5 L 160.121094 214.863281 L 157.289062 217.699219 L 127.101562 187.5 L 157.300781 157.300781 L 160.136719 160.136719 Z M 196.941406 134.644531 L 200.710938 135.59375 L 178.058594 240.34375 L 174.285156 239.394531 Z M 217.699219 157.300781 L 247.898438 187.5 L 217.699219 217.699219 L 214.863281 214.863281 L 242.226562 187.5 L 214.863281 160.136719 Z M 217.699219 157.300781 " fill-opacity="1" fill-rule="nonzero"/></g><g clip-path="url(#0c0280eb13)"><path fill="#1f4529" d="M 106.625 169.195312 C 106.59375 169.171875 106.578125 169.132812 106.570312 169.089844 C 106.550781 168.945312 106.546875 168.800781 106.539062 168.65625 C 106.195312 167.046875 105.574219 165.5 105.265625 163.882812 C 104.777344 161.296875 105.003906 158.394531 105.792969 155.894531 C 106.058594 155.054688 106.289062 154.21875 106.621094 153.398438 C 106.671875 153.265625 106.734375 153.027344 106.808594 152.820312 C 106.871094 152.652344 106.953125 152.507812 107.039062 152.425781 C 107.097656 152.375 107.148438 152.382812 107.183594 152.382812 C 107.234375 152.386719 107.273438 152.414062 107.304688 152.464844 C 107.316406 152.480469 107.328125 152.511719 107.328125 152.558594 C 107.328125 152.582031 107.320312 152.625 107.320312 152.652344 C 107.316406 152.808594 107.308594 152.964844 107.304688 153.121094 C 107.285156 153.503906 107.289062 153.890625 107.320312 154.273438 C 107.421875 155.382812 107.527344 156.527344 107.792969 157.613281 C 108.34375 159.910156 108.324219 162.375 107.796875 164.679688 C 107.554688 165.738281 107.117188 166.695312 106.941406 167.722656 L 106.941406 167.730469 C 107.109375 168.933594 107.222656 170.148438 107.253906 171.371094 C 107.277344 172.515625 107.226562 173.664062 107.066406 174.800781 C 107.007812 175.214844 106.933594 175.621094 106.847656 176.03125 C 107.179688 175.449219 107.527344 174.882812 107.890625 174.34375 C 108.367188 173.644531 108.832031 172.878906 109.433594 172.273438 C 110.417969 171.277344 111.550781 170.5625 112.683594 169.773438 C 113.167969 169.441406 113.707031 169.1875 114.199219 168.875 C 114.746094 168.53125 115.265625 168.128906 115.816406 167.785156 C 116.15625 167.574219 116.480469 167.347656 116.8125 167.128906 C 116.914062 167.058594 117.007812 166.996094 117.101562 166.921875 C 117.140625 166.890625 117.1875 166.816406 117.226562 166.785156 C 117.265625 166.753906 117.300781 166.734375 117.328125 166.726562 C 117.382812 166.714844 117.425781 166.726562 117.464844 166.757812 C 117.496094 166.785156 117.535156 166.820312 117.539062 166.898438 C 117.550781 167.015625 117.503906 167.160156 117.421875 167.308594 C 117.328125 167.480469 117.1875 167.660156 117.121094 167.773438 C 116.730469 168.457031 116.386719 169.164062 115.96875 169.828125 C 114.832031 171.613281 113.523438 173.273438 111.667969 174.371094 C 110.5625 175.027344 109.394531 175.417969 108.382812 175.988281 C 107.464844 176.5 106.675781 177.164062 106.183594 178.324219 C 105.582031 179.964844 104.765625 181.4375 103.839844 182.933594 C 102.171875 185.621094 100.125 188.382812 98.289062 192.398438 C 97.644531 193.808594 97.128906 195.242188 96.742188 196.691406 C 96.765625 196.648438 96.792969 196.601562 96.816406 196.558594 C 97.585938 195.269531 98.859375 193.558594 100.105469 192.699219 C 101.582031 191.691406 103.863281 190.925781 105.5 190.09375 C 106.164062 189.753906 106.738281 189.328125 107.316406 188.867188 C 107.441406 188.765625 107.605469 188.589844 107.773438 188.445312 C 107.90625 188.332031 108.042969 188.246094 108.167969 188.207031 C 108.25 188.183594 108.300781 188.207031 108.332031 188.226562 C 108.382812 188.257812 108.414062 188.308594 108.40625 188.390625 C 108.40625 188.414062 108.394531 188.453125 108.367188 188.492188 C 108.335938 188.535156 108.269531 188.609375 108.242188 188.652344 C 108.160156 188.777344 108.082031 188.898438 108.003906 189.023438 C 107.773438 189.390625 107.589844 189.792969 107.386719 190.175781 C 107.304688 190.324219 107.214844 190.476562 107.132812 190.621094 C 107.152344 190.652344 107.152344 190.695312 107.121094 190.71875 C 107.070312 190.769531 107.027344 190.820312 106.976562 190.871094 C 106.625 191.429688 106.25 191.949219 105.832031 192.457031 C 105.851562 192.488281 105.851562 192.53125 105.820312 192.554688 C 105.605469 192.789062 105.386719 193.011719 105.15625 193.21875 C 105.078125 193.300781 105 193.390625 104.917969 193.46875 C 103.394531 195.074219 101.589844 195.953125 99.636719 196.910156 C 98.960938 197.242188 98.230469 197.535156 97.59375 197.9375 C 96.980469 198.324219 96.453125 198.808594 96.152344 199.527344 C 96.128906 199.589844 96.101562 199.660156 96.082031 199.722656 C 95.542969 203.222656 95.640625 206.808594 96.195312 210.410156 C 96.410156 207.484375 98.25 204.320312 100.019531 202.226562 C 100.054688 202.183594 100.09375 202.140625 100.128906 202.097656 C 100.839844 201.257812 101.640625 200.5625 102.535156 199.929688 C 102.59375 199.886719 102.679688 199.796875 102.773438 199.730469 C 102.855469 199.667969 102.9375 199.609375 103.011719 199.589844 C 103.082031 199.574219 103.144531 199.574219 103.199219 199.597656 C 103.257812 199.621094 103.3125 199.667969 103.351562 199.746094 C 103.796875 200.773438 103.550781 202.292969 102.960938 203.84375 C 102.097656 206.136719 100.5 208.511719 99.417969 209.484375 C 98.914062 209.933594 98.199219 210.265625 97.585938 210.671875 C 97.085938 211.003906 96.652344 211.386719 96.492188 211.949219 C 97.234375 215.101562 99.148438 219.980469 101.027344 222.003906 C 101.121094 222.105469 101.113281 222.261719 101.015625 222.355469 C 100.933594 222.429688 100.820312 222.445312 100.726562 222.394531 C 100.714844 222.40625 100.695312 222.40625 100.683594 222.414062 C 100.699219 222.429688 100.714844 222.449219 100.730469 222.46875 C 100.761719 222.507812 100.757812 222.558594 100.726562 222.589844 C 100.6875 222.621094 100.636719 222.613281 100.605469 222.582031 C 100.394531 222.34375 100.210938 222.085938 100.03125 221.824219 C 100.011719 221.796875 100.011719 221.761719 100.03125 221.734375 C 99.898438 221.5625 99.765625 221.378906 99.65625 221.199219 C 99.628906 221.160156 99.640625 221.101562 99.679688 221.085938 C 99.6875 221.085938 99.6875 221.078125 99.691406 221.078125 C 98.976562 219.976562 98.28125 218.574219 97.679688 217.121094 C 97.644531 217.101562 97.613281 217.0625 97.601562 217.019531 C 97.53125 216.792969 97.460938 216.574219 97.378906 216.359375 C 97.355469 216.304688 97.335938 216.242188 97.3125 216.1875 C 97.1875 215.871094 97.046875 215.566406 96.890625 215.265625 C 96.628906 215.113281 96.328125 215.03125 96.027344 214.96875 C 95.6875 214.902344 95.351562 214.84375 95.03125 214.738281 C 92.507812 213.894531 90.558594 212.878906 88.84375 210.765625 C 88.648438 210.523438 87.609375 209.027344 87.363281 208.316406 C 87.308594 208.160156 87.289062 208.03125 87.308594 207.949219 C 87.320312 207.871094 87.355469 207.824219 87.40625 207.785156 C 87.488281 207.722656 87.609375 207.691406 87.765625 207.691406 C 87.941406 207.691406 88.171875 207.742188 88.433594 207.816406 C 89.386719 208.105469 90.726562 208.820312 91.023438 208.992188 C 93.15625 210.277344 95.1875 211.945312 96.566406 214.03125 L 96.558594 214.019531 C 96.414062 213.5625 96.277344 213.097656 96.160156 212.628906 C 96.058594 212.246094 95.964844 211.855469 95.882812 211.46875 C 95.859375 211.34375 95.832031 211.21875 95.808594 211.085938 C 95.796875 211.023438 95.789062 210.960938 95.777344 210.890625 C 95.765625 210.816406 95.75 210.742188 95.738281 210.667969 C 95.703125 210.429688 95.664062 210.191406 95.632812 209.957031 C 95.558594 209.414062 95.488281 208.863281 95.433594 208.3125 C 95.40625 208.042969 95.382812 207.773438 95.355469 207.507812 C 95.339844 207.433594 95.320312 207.359375 95.300781 207.277344 C 95.289062 207.277344 95.28125 207.269531 95.269531 207.265625 C 90.960938 205.273438 87.515625 201.628906 86.710938 196.839844 C 86.667969 196.566406 86.316406 194.78125 86.230469 193.933594 C 86.203125 193.683594 86.210938 193.507812 86.234375 193.4375 C 86.265625 193.351562 86.324219 193.3125 86.386719 193.300781 C 86.4375 193.289062 86.492188 193.289062 86.554688 193.328125 C 86.597656 193.351562 86.65625 193.394531 86.710938 193.453125 C 86.769531 193.507812 86.824219 193.578125 86.867188 193.609375 C 87.164062 193.828125 87.4375 194.058594 87.75 194.242188 C 88.742188 194.816406 89.542969 195.40625 90.328125 196.246094 C 93.183594 199.316406 95.257812 205.832031 95.257812 205.832031 C 95.117188 202.058594 95.5625 198.339844 96.796875 194.734375 C 96.796875 194.730469 96.796875 194.730469 96.796875 194.722656 C 96.804688 193.601562 96.378906 192.511719 95.8125 191.464844 C 95.238281 190.402344 94.523438 189.378906 93.960938 188.441406 C 92.96875 186.785156 92.335938 184.96875 92.128906 183.054688 C 92.019531 181.988281 92.042969 180.933594 92.144531 179.863281 C 92.175781 179.542969 92.210938 179.230469 92.25 178.910156 C 92.261719 178.78125 92.28125 178.648438 92.300781 178.515625 C 92.300781 178.511719 92.292969 178.417969 92.292969 178.378906 C 92.300781 178.328125 92.3125 178.296875 92.332031 178.273438 C 92.355469 178.234375 92.394531 178.210938 92.429688 178.203125 C 92.46875 178.191406 92.519531 178.191406 92.574219 178.222656 C 92.644531 178.265625 92.714844 178.355469 92.769531 178.472656 C 92.851562 178.660156 92.90625 178.941406 92.964844 179.0625 C 93.214844 179.605469 93.535156 180.171875 93.878906 180.664062 C 94.523438 181.582031 95.164062 182.363281 95.570312 183.421875 C 96.496094 185.851562 96.382812 188.320312 96.609375 190.863281 C 96.699219 191.867188 96.953125 192.832031 97.136719 193.820312 C 97.347656 193.257812 97.585938 192.699219 97.835938 192.140625 C 99.164062 189.234375 100.605469 186.980469 101.933594 184.9375 C 101.933594 184.917969 101.933594 184.894531 101.941406 184.875 C 102.304688 183.515625 102.089844 182.226562 101.664062 180.964844 C 101.234375 179.683594 100.582031 178.4375 100.082031 177.203125 C 99.371094 175.453125 99.265625 173.203125 99.699219 171.386719 C 99.828125 170.835938 100.085938 169.757812 100.398438 169.265625 C 100.414062 169.21875 100.417969 169.183594 100.429688 169.140625 C 100.445312 169.09375 100.488281 169.070312 100.53125 169.078125 C 100.574219 169.089844 100.601562 169.132812 100.59375 169.175781 C 100.632812 169.183594 100.664062 169.207031 100.695312 169.246094 C 100.707031 169.265625 100.726562 169.296875 100.730469 169.347656 C 100.738281 169.390625 100.730469 169.476562 100.746094 169.519531 C 100.769531 169.652344 100.8125 169.777344 100.84375 169.902344 C 100.945312 170.28125 101.089844 170.625 101.238281 170.980469 C 101.691406 172.058594 102.375 173.003906 102.625 174.164062 C 103.074219 176.28125 102.535156 178.292969 102.386719 180.398438 C 102.296875 181.625 102.542969 182.832031 102.503906 184.054688 C 102.816406 183.574219 103.125 183.097656 103.414062 182.625 C 105.894531 178.628906 107.535156 174.808594 106.363281 167.261719 Z M 96.414062 214.613281 C 96.414062 214.613281 96.410156 214.621094 96.410156 214.621094 C 96.421875 214.625 96.429688 214.625 96.441406 214.632812 Z M 88.734375 210.027344 C 88.917969 210.289062 89.066406 210.496094 89.125 210.578125 C 90.796875 212.632812 92.699219 213.617188 95.15625 214.445312 C 95.25 214.476562 95.351562 214.5 95.449219 214.527344 C 95.300781 214.464844 95.148438 214.394531 95.007812 214.324219 C 94.492188 214.09375 93.980469 213.875 93.484375 213.597656 C 92.0625 212.808594 90.582031 211.90625 89.398438 210.78125 C 89.15625 210.546875 88.949219 210.277344 88.734375 210.027344 Z M 88.320312 209.007812 C 88.691406 209.425781 89.105469 209.816406 89.523438 210.179688 C 90.503906 211.03125 91.5625 211.75 92.636719 212.476562 C 93.671875 213.171875 94.78125 213.957031 95.957031 214.445312 C 95.632812 214.269531 95.320312 214.042969 95.007812 213.863281 C 94.472656 213.546875 93.933594 213.253906 93.421875 212.902344 C 92.757812 212.445312 92.128906 211.914062 91.496094 211.417969 C 90.738281 210.828125 89.996094 210.214844 89.222656 209.640625 C 88.929688 209.433594 88.605469 209.238281 88.320312 209.007812 Z M 96.265625 214.1875 C 94.914062 212.171875 92.9375 210.558594 90.859375 209.308594 C 90.578125 209.136719 89.273438 208.441406 88.347656 208.160156 C 88.128906 208.09375 87.925781 208.046875 87.777344 208.046875 C 87.765625 208.046875 87.75 208.046875 87.738281 208.046875 C 87.921875 208.097656 88.089844 208.191406 88.273438 208.253906 C 88.472656 208.324219 88.691406 208.363281 88.890625 208.441406 C 89.441406 208.675781 89.945312 209.058594 90.453125 209.371094 C 90.839844 209.613281 91.246094 209.828125 91.617188 210.089844 C 92.242188 210.535156 92.8125 211.054688 93.394531 211.554688 C 94.042969 212.113281 94.699219 212.660156 95.332031 213.242188 C 95.65625 213.546875 95.953125 213.875 96.265625 214.1875 Z M 87.78125 208.234375 C 87.816406 208.273438 87.851562 208.3125 87.882812 208.34375 C 88.191406 208.53125 88.523438 208.679688 88.828125 208.867188 C 89.136719 209.058594 89.417969 209.28125 89.71875 209.484375 C 90.042969 209.703125 90.390625 209.894531 90.707031 210.121094 C 91.410156 210.621094 92.066406 211.199219 92.75 211.726562 C 93.777344 212.515625 94.832031 213.285156 95.890625 214.035156 C 95.671875 213.8125 95.449219 213.578125 95.21875 213.367188 C 94.59375 212.789062 93.933594 212.246094 93.289062 211.6875 C 92.714844 211.191406 92.148438 210.671875 91.523438 210.234375 C 91.152344 209.972656 90.746094 209.757812 90.363281 209.519531 C 89.871094 209.207031 89.375 208.832031 88.828125 208.605469 C 88.636719 208.523438 88.421875 208.488281 88.222656 208.417969 C 88.070312 208.367188 87.925781 208.292969 87.78125 208.234375 Z M 88.304688 208.769531 C 88.609375 209.042969 88.992188 209.261719 89.324219 209.507812 C 90.09375 210.085938 90.839844 210.699219 91.597656 211.285156 C 92.230469 211.78125 92.851562 212.3125 93.515625 212.765625 C 94.023438 213.109375 94.554688 213.40625 95.085938 213.710938 C 95.25 213.804688 95.40625 213.910156 95.570312 214.011719 C 94.582031 213.308594 93.601562 212.589844 92.644531 211.855469 C 91.960938 211.335938 91.308594 210.765625 90.601562 210.265625 C 90.28125 210.039062 89.945312 209.847656 89.617188 209.625 C 89.324219 209.425781 89.042969 209.199219 88.734375 209.019531 C 88.597656 208.929688 88.445312 208.851562 88.304688 208.769531 Z M 88.328125 209.269531 C 88.480469 209.464844 88.636719 209.65625 88.796875 209.839844 C 89.035156 210.117188 89.253906 210.410156 89.519531 210.660156 C 90.691406 211.777344 92.15625 212.671875 93.566406 213.453125 C 93.910156 213.640625 94.261719 213.804688 94.613281 213.96875 C 93.890625 213.546875 93.195312 213.074219 92.539062 212.628906 C 91.460938 211.902344 90.394531 211.167969 89.410156 210.316406 C 89.035156 209.984375 88.667969 209.640625 88.328125 209.269531 Z M 102.792969 200.363281 C 102.277344 201.058594 101.878906 201.882812 101.394531 202.574219 C 99.578125 205.179688 97.949219 207.953125 96.785156 210.917969 C 98.230469 208.726562 99.496094 206.371094 100.824219 204.109375 C 101.558594 202.859375 102.378906 201.734375 102.792969 200.363281 Z M 100.585938 202.132812 C 100.53125 202.195312 100.46875 202.265625 100.414062 202.335938 C 100.375 202.378906 100.335938 202.421875 100.300781 202.464844 C 98.507812 204.582031 96.628906 207.828125 96.539062 210.773438 C 96.808594 209.746094 97.253906 208.773438 97.636719 207.777344 C 98.382812 205.867188 99.285156 203.820312 100.585938 202.132812 Z M 103.082031 200 C 103.070312 200.011719 103.0625 200.015625 103.050781 200.03125 C 102.679688 201.589844 101.773438 202.816406 100.964844 204.1875 C 99.773438 206.210938 98.640625 208.3125 97.375 210.296875 C 99.195312 208.042969 101.027344 205.628906 102.105469 202.949219 C 102.503906 201.984375 102.941406 201.039062 103.082031 200 Z M 102.59375 200.347656 C 100.21875 202.160156 98.839844 205.136719 97.800781 207.839844 C 97.488281 208.65625 97.128906 209.453125 96.859375 210.277344 C 98.011719 207.515625 99.554688 204.921875 101.257812 202.472656 C 101.722656 201.808594 102.109375 201.027344 102.59375 200.347656 Z M 103.257812 201.464844 C 103.125 202.058594 102.878906 202.660156 102.707031 203.167969 C 102.183594 204.722656 100.460938 207.515625 99.304688 208.742188 C 98.878906 209.1875 98.445312 209.613281 98.027344 210.054688 C 98.457031 209.800781 98.890625 209.558594 99.222656 209.257812 C 100.273438 208.304688 101.835938 205.980469 102.679688 203.746094 C 102.976562 202.949219 103.1875 202.164062 103.257812 201.464844 Z M 103.167969 200.472656 C 102.980469 201.351562 102.605469 202.179688 102.265625 203.019531 C 101.246094 205.546875 99.566406 207.847656 97.84375 209.988281 C 98.28125 209.53125 98.734375 209.09375 99.171875 208.628906 C 100.320312 207.421875 102.023438 204.660156 102.535156 203.117188 C 102.6875 202.671875 102.894531 202.164062 103.03125 201.644531 C 103.144531 201.25 103.207031 200.851562 103.167969 200.472656 Z M 95.082031 206.8125 C 95.082031 206.8125 95.082031 206.820312 95.082031 206.820312 L 95.101562 206.828125 Z M 87.230469 197.625 C 87.320312 198 87.425781 198.363281 87.550781 198.726562 C 88.597656 200.78125 90.695312 202.886719 92.105469 204.332031 C 92.996094 205.242188 93.691406 206.144531 94.863281 206.65625 C 92.613281 205.160156 91.160156 202.835938 89.5 200.761719 C 88.660156 199.730469 87.800781 198.769531 87.230469 197.625 Z M 86.800781 195.335938 C 86.917969 196.019531 87.042969 196.664062 87.070312 196.816406 L 87.070312 196.820312 C 87.59375 198.300781 88.636719 199.421875 89.632812 200.65625 C 91.152344 202.546875 92.492188 204.652344 94.429688 206.136719 C 93.660156 205.355469 92.882812 204.558594 92.207031 203.707031 C 90.953125 202.128906 89.957031 200.355469 88.867188 198.65625 C 88.078125 197.429688 87.324219 196.519531 86.800781 195.335938 Z M 87.582031 194.554688 C 88.941406 196.132812 89.832031 198.074219 90.859375 199.886719 C 92.097656 202.078125 93.515625 204.109375 95.007812 206.132812 C 94.988281 206.054688 94.960938 205.980469 94.9375 205.898438 C 94.75 205.710938 94.574219 205.480469 94.410156 205.222656 C 93.992188 204.558594 93.648438 203.75 93.332031 203.261719 C 92.3125 201.675781 91.324219 200.105469 90.453125 198.433594 C 89.839844 197.242188 89.363281 196.078125 88.472656 195.113281 C 88.195312 194.925781 87.910156 194.742188 87.609375 194.566406 C 87.59375 194.5625 87.589844 194.5625 87.582031 194.554688 Z M 86.867188 194.054688 C 89.066406 197.894531 91.070312 201.832031 94.023438 205.160156 C 94.28125 205.449219 94.503906 205.761719 94.742188 206.0625 C 93.296875 204.089844 91.925781 202.101562 90.707031 199.96875 C 89.5625 197.945312 88.589844 195.769531 86.945312 194.109375 C 86.917969 194.089844 86.894531 194.070312 86.867188 194.054688 Z M 87.945312 199.742188 C 89.066406 202.273438 91.007812 204.351562 93.363281 205.863281 C 92.890625 205.4375 92.460938 204.945312 91.980469 204.453125 C 90.777344 203.210938 89.074219 201.5 87.945312 199.742188 Z M 86.582031 193.890625 C 86.59375 194.003906 86.605469 194.132812 86.625 194.285156 C 86.636719 194.359375 86.644531 194.433594 86.65625 194.511719 C 87.164062 196.09375 88.050781 197.097656 89 198.570312 C 90.082031 200.261719 91.078125 202.027344 92.324219 203.605469 C 92.933594 204.371094 93.621094 205.085938 94.3125 205.792969 C 94.171875 205.617188 94.035156 205.441406 93.886719 205.273438 C 90.777344 201.753906 88.710938 197.550781 86.355469 193.5 Z M 89.023438 195.519531 C 89.667969 196.382812 90.089844 197.359375 90.601562 198.363281 C 91.464844 200.035156 92.457031 201.601562 93.472656 203.179688 C 93.785156 203.667969 94.128906 204.476562 94.550781 205.140625 C 94.625 205.261719 94.699219 205.375 94.78125 205.480469 C 94.28125 204.347656 93.652344 203.273438 93.09375 202.171875 C 92 199.972656 90.933594 197.792969 89.429688 195.855469 C 89.300781 195.738281 89.160156 195.625 89.023438 195.519531 Z M 90.1875 196.601562 C 91.386719 198.324219 92.300781 200.199219 93.253906 202.085938 C 93.652344 202.875 94.085938 203.652344 94.484375 204.445312 C 93.527344 201.589844 92.175781 198.777344 90.1875 196.601562 Z M 107.054688 189.804688 C 105.960938 190.6875 104.609375 191.203125 103.417969 191.929688 C 101.207031 193.269531 99.222656 194.96875 97.605469 196.992188 C 97.300781 197.378906 96.917969 197.75 96.597656 198.148438 C 96.585938 198.175781 96.566406 198.195312 96.554688 198.21875 C 96.609375 198.15625 96.667969 198.101562 96.722656 198.039062 C 97.140625 197.582031 97.582031 197.148438 98.019531 196.710938 C 99.761719 194.980469 101.640625 193.5 103.695312 192.15625 C 104.796875 191.429688 106.121094 190.78125 107.054688 189.804688 Z M 101.238281 192.425781 C 100.90625 192.601562 100.59375 192.789062 100.3125 192.976562 C 99.101562 193.808594 97.867188 195.46875 97.117188 196.726562 C 96.929688 197.042969 96.742188 197.367188 96.566406 197.710938 C 96.910156 197.160156 97.3125 196.640625 97.6875 196.125 C 98.675781 194.792969 99.867188 193.457031 101.238281 192.425781 Z M 105.613281 192.222656 C 105.167969 192.625 104.703125 193.007812 104.226562 193.363281 C 103.042969 194.261719 101.683594 194.980469 100.417969 195.75 C 99.628906 196.234375 98.863281 196.726562 98.125 197.285156 C 98.53125 197.066406 98.941406 196.847656 99.335938 196.601562 C 100.289062 196.007812 101.195312 195.335938 102.167969 194.773438 C 102.824219 194.390625 103.542969 194.128906 104.207031 193.738281 C 104.378906 193.582031 104.539062 193.425781 104.703125 193.25 C 105.023438 192.914062 105.332031 192.570312 105.613281 192.222656 Z M 106.671875 190.765625 C 106.519531 190.933594 106.363281 191.097656 106.199219 191.234375 C 105.71875 191.660156 105.167969 192.023438 104.652344 192.410156 C 103.132812 193.578125 101.546875 194.636719 99.949219 195.695312 C 99.324219 196.113281 98.734375 196.558594 98.164062 197.035156 C 98.863281 196.519531 99.578125 196.058594 100.324219 195.601562 C 101.589844 194.828125 102.9375 194.109375 104.121094 193.21875 C 104.859375 192.664062 105.566406 192.046875 106.238281 191.398438 C 106.390625 191.195312 106.53125 190.984375 106.671875 190.765625 Z M 106.988281 190.101562 C 106.0625 190.984375 104.828125 191.605469 103.789062 192.285156 C 101.746094 193.628906 99.875 195.09375 98.144531 196.820312 C 98.09375 196.871094 98.042969 196.921875 97.996094 196.964844 C 98.589844 196.464844 99.203125 195.996094 99.859375 195.558594 C 101.453125 194.492188 103.039062 193.4375 104.558594 192.28125 C 105.066406 191.890625 105.617188 191.535156 106.09375 191.109375 C 106.40625 190.828125 106.714844 190.476562 106.988281 190.101562 Z M 103.4375 191.402344 C 103.0625 191.566406 102.679688 191.730469 102.3125 191.898438 C 100.539062 192.976562 99.035156 194.605469 97.835938 196.222656 C 97.757812 196.332031 97.675781 196.441406 97.585938 196.554688 C 97.636719 196.488281 97.679688 196.433594 97.730469 196.378906 C 99.292969 194.433594 101.296875 192.71875 103.4375 191.402344 Z M 103.625 194.234375 C 103.164062 194.460938 102.691406 194.660156 102.246094 194.917969 C 101.441406 195.382812 100.675781 195.925781 99.898438 196.433594 C 101.234375 195.777344 102.492188 195.136719 103.625 194.234375 Z M 107.449219 189.21875 C 107.046875 189.535156 106.640625 189.835938 106.207031 190.101562 C 106.207031 190.101562 106.214844 190.105469 106.214844 190.105469 C 106.230469 190.152344 106.21875 190.199219 106.175781 190.21875 C 105.410156 190.609375 104.617188 190.894531 103.875 191.335938 C 102.191406 192.324219 100.582031 193.578125 99.191406 194.992188 C 100.445312 193.765625 101.839844 192.6875 103.34375 191.777344 C 104.667969 190.976562 106.195312 190.433594 107.328125 189.34375 C 107.367188 189.304688 107.402344 189.261719 107.449219 189.21875 Z M 92.667969 179.25 C 92.707031 179.550781 92.757812 179.851562 92.84375 180.140625 C 92.96875 180.546875 93.195312 180.910156 93.296875 181.324219 C 93.871094 183.742188 94.480469 186.179688 95.257812 188.539062 C 95.488281 189.253906 95.765625 189.949219 96.046875 190.644531 C 96.082031 190.738281 96.128906 190.839844 96.171875 190.933594 C 96.007812 190.457031 95.941406 189.949219 95.820312 189.46875 C 95.570312 188.445312 95.300781 187.4375 95.050781 186.417969 C 94.636719 184.730469 94.222656 183.019531 93.640625 181.386719 C 93.414062 180.753906 93.078125 180.140625 92.800781 179.527344 C 92.75 179.425781 92.714844 179.335938 92.667969 179.25 Z M 93.648438 180.953125 C 93.695312 181.078125 93.746094 181.199219 93.789062 181.324219 C 94.375 182.964844 94.785156 184.679688 95.207031 186.371094 C 95.457031 187.394531 95.726562 188.402344 95.976562 189.421875 C 96.039062 189.667969 96.082031 189.925781 96.140625 190.175781 C 96.070312 189.675781 96.015625 189.171875 95.921875 188.679688 C 95.683594 187.429688 95.339844 186.203125 95.085938 184.957031 C 94.882812 183.921875 94.75 182.6875 94.21875 181.742188 C 94.027344 181.480469 93.839844 181.222656 93.648438 180.953125 Z M 92.527344 183.371094 C 92.757812 185.125 93.359375 186.785156 94.265625 188.308594 C 94.613281 188.886719 95.007812 189.480469 95.394531 190.101562 C 95.238281 189.75 95.082031 189.398438 94.917969 189.054688 C 94.386719 187.964844 93.871094 186.875 93.394531 185.753906 C 93.058594 184.96875 92.75 184.179688 92.527344 183.371094 Z M 92.539062 179.53125 L 92.527344 179.632812 C 92.519531 179.902344 92.527344 180.175781 92.550781 180.445312 C 92.613281 181.074219 92.8125 181.644531 92.964844 182.246094 C 93.164062 183.015625 93.328125 183.804688 93.570312 184.570312 C 93.777344 185.207031 94.054688 185.816406 94.265625 186.453125 C 94.613281 187.5 95 188.527344 95.425781 189.535156 C 95.308594 189.222656 95.199219 188.910156 95.09375 188.589844 C 94.316406 186.222656 93.710938 183.78125 93.125 181.359375 C 93.027344 180.953125 92.800781 180.589844 92.683594 180.191406 C 92.613281 179.96875 92.570312 179.746094 92.539062 179.519531 Z M 94.722656 182.5 C 94.980469 183.289062 95.101562 184.15625 95.25 184.917969 C 95.5 186.167969 95.84375 187.394531 96.082031 188.640625 C 96.113281 188.796875 96.140625 188.953125 96.164062 189.117188 C 96.066406 187.242188 95.964844 185.40625 95.269531 183.589844 C 95.117188 183.195312 94.929688 182.839844 94.722656 182.5 Z M 92.429688 180.824219 C 92.414062 181.265625 92.40625 181.710938 92.417969 182.15625 C 92.621094 183.378906 93.050781 184.539062 93.546875 185.691406 C 93.941406 186.609375 94.355469 187.507812 94.785156 188.410156 C 94.542969 187.78125 94.316406 187.148438 94.105469 186.503906 C 93.890625 185.871094 93.617188 185.257812 93.410156 184.617188 C 93.164062 183.855469 92.996094 183.066406 92.800781 182.289062 C 92.675781 181.792969 92.519531 181.316406 92.429688 180.824219 Z M 99.8125 173.03125 C 99.71875 174.414062 99.910156 175.890625 100.40625 177.113281 C 100.789062 178.058594 101.257812 179.011719 101.652344 179.984375 C 101.613281 179.832031 101.570312 179.6875 101.519531 179.550781 C 100.8125 177.578125 99.980469 175.484375 99.828125 173.375 C 99.824219 173.261719 99.816406 173.140625 99.8125 173.03125 Z M 101.714844 172.703125 C 101.804688 173.265625 101.796875 173.851562 101.808594 174.433594 C 101.820312 175.210938 101.882812 176 101.847656 176.777344 C 101.828125 177.207031 101.796875 177.652344 101.785156 178.089844 C 101.851562 178.605469 101.921875 179.125 101.996094 179.636719 C 101.996094 179.632812 101.996094 179.621094 101.996094 179.613281 C 101.992188 178.742188 102.121094 177.890625 102.179688 177.027344 C 102.265625 175.765625 102.253906 174.453125 101.960938 173.21875 C 101.878906 173.042969 101.796875 172.871094 101.714844 172.703125 Z M 102.3125 174.289062 C 102.417969 175.203125 102.40625 176.128906 102.34375 177.03125 C 102.285156 177.828125 102.171875 178.617188 102.160156 179.414062 C 102.359375 177.703125 102.679688 176.03125 102.3125 174.289062 Z M 100.167969 170.96875 C 100.125 171.136719 100.085938 171.289062 100.054688 171.425781 C 99.980469 172.066406 99.949219 172.703125 99.992188 173.367188 C 100.144531 175.433594 100.945312 177.476562 101.648438 179.414062 C 101.632812 179.3125 101.628906 179.210938 101.621094 179.105469 C 101.527344 178.691406 101.421875 178.277344 101.320312 177.867188 C 101.019531 176.65625 100.601562 175.460938 100.386719 174.226562 C 100.210938 173.15625 100.105469 172.050781 100.167969 170.96875 Z M 100.445312 170.042969 L 100.4375 170.058594 C 100.222656 171.425781 100.324219 172.835938 100.554688 174.195312 C 100.761719 175.421875 101.183594 176.613281 101.484375 177.820312 C 101.519531 177.984375 101.566406 178.148438 101.609375 178.308594 C 101.609375 178.242188 101.609375 178.171875 101.613281 178.105469 C 101.394531 176.480469 101.1875 174.859375 100.953125 173.242188 C 100.875 172.742188 100.820312 172.234375 100.730469 171.734375 C 100.625 171.175781 100.492188 170.605469 100.449219 170.027344 Z M 100.65625 170.417969 C 100.71875 170.847656 100.8125 171.277344 100.886719 171.703125 C 100.984375 172.203125 101.039062 172.710938 101.113281 173.21875 C 101.308594 174.527344 101.476562 175.84375 101.652344 177.152344 C 101.660156 177.019531 101.664062 176.894531 101.671875 176.761719 C 101.710938 175.992188 101.648438 175.203125 101.632812 174.425781 C 101.621094 173.636719 101.640625 172.835938 101.394531 172.097656 C 101.234375 171.78125 101.078125 171.46875 100.9375 171.144531 C 100.84375 170.90625 100.746094 170.667969 100.65625 170.417969 Z M 107.273438 176.25 C 107.257812 176.261719 107.253906 176.269531 107.242188 176.28125 C 107.191406 176.34375 107.140625 176.414062 107.089844 176.476562 C 107.085938 176.480469 107.078125 176.488281 107.070312 176.492188 C 107.066406 176.507812 107.058594 176.519531 107.054688 176.523438 C 107.140625 176.445312 107.226562 176.367188 107.320312 176.292969 C 107.308594 176.285156 107.296875 176.28125 107.285156 176.273438 C 107.277344 176.269531 107.273438 176.261719 107.273438 176.25 Z M 112.082031 170.605469 C 111.238281 171.179688 110.417969 171.769531 109.683594 172.507812 C 109.101562 173.105469 108.644531 173.851562 108.179688 174.53125 C 107.886719 174.972656 107.597656 175.429688 107.320312 175.890625 L 107.339844 175.867188 C 107.609375 175.527344 107.890625 175.203125 108.175781 174.878906 C 108.347656 174.664062 108.53125 174.453125 108.707031 174.238281 C 109.546875 173.222656 110.296875 172.226562 111.261719 171.324219 C 111.527344 171.085938 111.800781 170.84375 112.082031 170.605469 Z M 116.105469 168.964844 C 115.050781 170.503906 113.710938 171.828125 112.203125 172.933594 C 111.261719 173.617188 110.292969 174.289062 109.328125 174.941406 C 108.996094 175.160156 108.65625 175.386719 108.34375 175.636719 C 108.511719 175.542969 108.6875 175.453125 108.863281 175.371094 C 109.027344 175.273438 109.1875 175.171875 109.351562 175.070312 C 110.648438 174.3125 111.871094 173.425781 113.035156 172.484375 C 113.660156 171.976562 114.34375 171.496094 114.871094 170.878906 C 115.160156 170.480469 115.433594 170.066406 115.703125 169.652344 C 115.84375 169.421875 115.972656 169.195312 116.105469 168.964844 Z M 115.492188 169.519531 C 114.277344 170.824219 112.792969 171.871094 111.324219 172.929688 C 110.4375 173.566406 109.597656 174.3125 108.78125 175.046875 C 108.65625 175.160156 108.53125 175.265625 108.398438 175.378906 C 108.667969 175.179688 108.949219 174.992188 109.234375 174.800781 C 110.199219 174.15625 111.167969 173.488281 112.109375 172.804688 C 113.378906 171.863281 114.53125 170.769531 115.492188 169.519531 Z M 116.261719 168.324219 C 115.855469 168.695312 115.429688 169.03125 115.007812 169.390625 C 113.917969 170.316406 112.859375 171.257812 111.738281 172.144531 C 110.96875 172.761719 110.179688 173.394531 109.472656 174.074219 C 109.09375 174.4375 108.730469 174.808594 108.363281 175.179688 C 108.460938 175.089844 108.5625 175.003906 108.664062 174.914062 C 109.484375 174.183594 110.324219 173.429688 111.226562 172.785156 C 113.066406 171.46875 114.941406 170.160156 116.261719 168.324219 Z M 116.542969 167.828125 C 116.136719 168.0625 115.722656 168.289062 115.335938 168.5625 C 114.054688 169.488281 112.917969 170.585938 111.738281 171.632812 C 110.546875 172.683594 109.371094 173.792969 108.3125 174.992188 L 108.292969 175.015625 C 108.644531 174.660156 109 174.300781 109.359375 173.949219 C 110.074219 173.261719 110.867188 172.628906 111.636719 172.007812 C 112.761719 171.117188 113.8125 170.179688 114.902344 169.253906 C 115.453125 168.792969 116.03125 168.34375 116.542969 167.828125 Z M 114.125 171.820312 C 113.800781 172.089844 113.460938 172.347656 113.136719 172.609375 C 112.175781 173.378906 111.179688 174.121094 110.140625 174.777344 C 110.597656 174.570312 111.0625 174.34375 111.511719 174.074219 C 112.535156 173.472656 113.378906 172.699219 114.125 171.820312 Z M 114.023438 169.378906 C 113.882812 169.457031 113.738281 169.539062 113.59375 169.621094 C 112.839844 170.191406 112.050781 170.824219 111.382812 171.449219 C 110.773438 172.019531 110.246094 172.636719 109.734375 173.261719 C 110.347656 172.660156 110.988281 172.078125 111.632812 171.507812 C 112.429688 170.800781 113.210938 170.066406 114.023438 169.378906 Z M 107.730469 159.070312 C 107.734375 159.910156 107.683594 160.757812 107.585938 161.597656 C 107.433594 162.867188 107.226562 164.109375 106.996094 165.378906 C 106.894531 165.925781 106.796875 166.484375 106.757812 167.039062 C 106.972656 166.238281 107.285156 165.449219 107.480469 164.597656 C 107.890625 162.8125 107.984375 160.914062 107.730469 159.070312 Z M 105.613281 158.058594 C 105.273438 159.960938 105.25 161.972656 105.597656 163.820312 C 105.769531 164.703125 106.027344 165.5625 106.28125 166.425781 C 106.15625 165.613281 106.058594 164.796875 105.957031 163.984375 C 105.71875 161.992188 105.5 160.03125 105.613281 158.058594 Z M 105.9375 156.621094 C 105.9375 156.628906 105.929688 156.636719 105.929688 156.640625 C 105.5625 159.097656 105.832031 161.503906 106.125 163.964844 C 106.21875 164.746094 106.320312 165.523438 106.4375 166.308594 C 106.445312 166.21875 106.457031 166.132812 106.46875 166.050781 C 106.390625 165.316406 106.269531 164.578125 106.199219 163.851562 C 106.03125 162.074219 105.976562 160.292969 105.929688 158.503906 C 105.914062 157.820312 105.898438 157.21875 105.9375 156.621094 Z M 107.453125 157.617188 C 107.460938 159.214844 107.316406 160.8125 107.085938 162.375 C 106.957031 163.21875 106.964844 164.164062 106.820312 165.011719 C 106.785156 165.21875 106.746094 165.417969 106.707031 165.613281 C 106.707031 165.75 106.707031 165.886719 106.714844 166.027344 C 106.753906 165.800781 106.789062 165.582031 106.832031 165.355469 C 107.066406 164.082031 107.273438 162.84375 107.421875 161.578125 C 107.574219 160.332031 107.609375 159.089844 107.503906 157.839844 C 107.492188 157.789062 107.484375 157.742188 107.472656 157.699219 C 107.464844 157.675781 107.460938 157.644531 107.453125 157.617188 Z M 106.925781 153.585938 C 106.421875 155.890625 106.394531 158.3125 106.445312 160.652344 C 106.46875 161.933594 106.488281 163.199219 106.5625 164.476562 C 106.5625 164.402344 106.570312 164.335938 106.570312 164.257812 C 106.589844 163.082031 106.625 161.921875 106.695312 160.746094 C 106.828125 158.609375 106.882812 155.75 106.925781 153.585938 Z M 107.066406 155.070312 C 107.023438 156.953125 106.964844 159.078125 106.863281 160.757812 C 106.796875 161.929688 106.757812 163.085938 106.738281 164.257812 C 106.738281 164.308594 106.738281 164.359375 106.738281 164.410156 C 106.808594 163.726562 106.828125 163 106.925781 162.34375 C 107.203125 160.476562 107.355469 158.535156 107.265625 156.621094 C 107.179688 156.117188 107.117188 155.589844 107.066406 155.070312 Z M 106.582031 154.519531 C 106.445312 154.945312 106.320312 155.371094 106.183594 155.796875 C 106.0625 156.691406 106.074219 157.507812 106.101562 158.488281 C 106.144531 160.242188 106.195312 161.992188 106.359375 163.734375 C 106.3125 162.707031 106.292969 161.683594 106.277344 160.652344 C 106.238281 158.632812 106.25 156.535156 106.582031 154.519531 Z M 106.582031 154.519531 " fill-opacity="1" fill-rule="evenodd"/></g><g clip-path="url(#514845418d)"><path fill="#1f4529" d="M 268.363281 169.195312 C 268.394531 169.171875 268.414062 169.132812 268.417969 169.089844 C 268.4375 168.945312 268.445312 168.800781 268.449219 168.65625 C 268.792969 167.046875 269.414062 165.5 269.722656 163.882812 C 270.210938 161.296875 269.984375 158.394531 269.195312 155.894531 C 268.933594 155.054688 268.699219 154.21875 268.367188 153.398438 C 268.320312 153.265625 268.253906 153.027344 268.179688 152.820312 C 268.117188 152.652344 268.035156 152.507812 267.949219 152.425781 C 267.890625 152.375 267.84375 152.382812 267.804688 152.382812 C 267.753906 152.386719 267.71875 152.414062 267.6875 152.464844 C 267.671875 152.480469 267.660156 152.511719 267.660156 152.558594 C 267.660156 152.582031 267.667969 152.625 267.667969 152.652344 C 267.671875 152.808594 267.679688 152.964844 267.6875 153.121094 C 267.703125 153.503906 267.699219 153.890625 267.667969 154.273438 C 267.566406 155.382812 267.460938 156.527344 267.195312 157.613281 C 266.644531 159.910156 266.664062 162.375 267.191406 164.679688 C 267.433594 165.738281 267.875 166.695312 268.050781 167.722656 L 268.050781 167.730469 C 267.878906 168.933594 267.765625 170.148438 267.734375 171.371094 C 267.710938 172.515625 267.761719 173.664062 267.921875 174.800781 C 267.980469 175.214844 268.054688 175.621094 268.144531 176.03125 C 267.8125 175.449219 267.460938 174.882812 267.097656 174.34375 C 266.621094 173.644531 266.15625 172.878906 265.554688 172.273438 C 264.570312 171.277344 263.4375 170.5625 262.304688 169.773438 C 261.820312 169.441406 261.285156 169.1875 260.789062 168.875 C 260.242188 168.53125 259.722656 168.128906 259.171875 167.785156 C 258.832031 167.574219 258.507812 167.347656 258.175781 167.128906 C 258.074219 167.058594 257.980469 166.996094 257.886719 166.921875 C 257.851562 166.890625 257.800781 166.816406 257.761719 166.785156 C 257.726562 166.753906 257.6875 166.734375 257.664062 166.726562 C 257.605469 166.714844 257.5625 166.726562 257.523438 166.757812 C 257.492188 166.785156 257.457031 166.820312 257.449219 166.898438 C 257.4375 167.015625 257.488281 167.160156 257.570312 167.308594 C 257.664062 167.480469 257.800781 167.660156 257.871094 167.773438 C 258.257812 168.457031 258.601562 169.164062 259.023438 169.828125 C 260.15625 171.613281 261.464844 173.273438 263.320312 174.371094 C 264.429688 175.027344 265.59375 175.417969 266.609375 175.988281 C 267.523438 176.5 268.3125 177.164062 268.808594 178.324219 C 269.410156 179.964844 270.222656 181.4375 271.148438 182.933594 C 272.816406 185.621094 274.863281 188.382812 276.699219 192.398438 C 277.34375 193.808594 277.859375 195.242188 278.246094 196.691406 C 278.222656 196.648438 278.199219 196.601562 278.171875 196.558594 C 277.402344 195.269531 276.128906 193.558594 274.882812 192.699219 C 273.40625 191.691406 271.125 190.925781 269.488281 190.09375 C 268.824219 189.753906 268.25 189.328125 267.671875 188.867188 C 267.546875 188.765625 267.386719 188.589844 267.214844 188.445312 C 267.085938 188.332031 266.945312 188.246094 266.820312 188.207031 C 266.738281 188.183594 266.691406 188.207031 266.660156 188.226562 C 266.609375 188.257812 266.578125 188.308594 266.582031 188.390625 C 266.582031 188.414062 266.59375 188.453125 266.621094 188.492188 C 266.652344 188.535156 266.722656 188.609375 266.746094 188.652344 C 266.828125 188.777344 266.910156 188.898438 266.984375 189.023438 C 267.214844 189.390625 267.398438 189.792969 267.605469 190.175781 C 267.6875 190.324219 267.773438 190.476562 267.855469 190.621094 C 267.835938 190.652344 267.835938 190.695312 267.867188 190.71875 C 267.917969 190.769531 267.960938 190.820312 268.011719 190.871094 C 268.363281 191.429688 268.738281 191.949219 269.15625 192.457031 C 269.140625 192.488281 269.140625 192.53125 269.171875 192.554688 C 269.382812 192.789062 269.601562 193.011719 269.835938 193.21875 C 269.910156 193.300781 269.992188 193.390625 270.074219 193.46875 C 271.59375 195.074219 273.398438 195.953125 275.351562 196.910156 C 276.03125 197.242188 276.757812 197.535156 277.394531 197.9375 C 278.007812 198.324219 278.535156 198.808594 278.835938 199.527344 C 278.863281 199.589844 278.886719 199.660156 278.90625 199.722656 C 279.445312 203.222656 279.351562 206.808594 278.792969 210.410156 C 278.578125 207.484375 276.738281 204.320312 274.972656 202.226562 C 274.933594 202.183594 274.894531 202.140625 274.859375 202.097656 C 274.152344 201.257812 273.347656 200.5625 272.453125 199.929688 C 272.398438 199.886719 272.308594 199.796875 272.214844 199.730469 C 272.132812 199.667969 272.050781 199.609375 271.976562 199.589844 C 271.90625 199.574219 271.84375 199.574219 271.789062 199.597656 C 271.734375 199.621094 271.675781 199.667969 271.636719 199.746094 C 271.195312 200.773438 271.4375 202.292969 272.027344 203.84375 C 272.890625 206.136719 274.488281 208.511719 275.574219 209.484375 C 276.074219 209.933594 276.789062 210.265625 277.402344 210.671875 C 277.902344 211.003906 278.335938 211.386719 278.5 211.949219 C 277.753906 215.101562 275.84375 219.980469 273.960938 222.003906 C 273.867188 222.105469 273.875 222.261719 273.976562 222.355469 C 274.058594 222.429688 274.167969 222.445312 274.261719 222.394531 C 274.277344 222.40625 274.292969 222.40625 274.308594 222.414062 C 274.289062 222.429688 274.277344 222.449219 274.257812 222.46875 C 274.226562 222.507812 274.230469 222.558594 274.261719 222.589844 C 274.300781 222.621094 274.351562 222.613281 274.382812 222.582031 C 274.59375 222.34375 274.777344 222.085938 274.957031 221.824219 C 274.976562 221.796875 274.976562 221.761719 274.957031 221.734375 C 275.089844 221.5625 275.222656 221.378906 275.335938 221.199219 C 275.359375 221.160156 275.347656 221.101562 275.308594 221.085938 C 275.304688 221.085938 275.304688 221.078125 275.296875 221.078125 C 276.011719 219.976562 276.707031 218.574219 277.308594 217.121094 C 277.34375 217.101562 277.375 217.0625 277.390625 217.019531 C 277.457031 216.792969 277.527344 216.574219 277.609375 216.359375 C 277.632812 216.304688 277.652344 216.242188 277.675781 216.1875 C 277.804688 215.871094 277.941406 215.566406 278.097656 215.265625 C 278.359375 215.113281 278.660156 215.03125 278.960938 214.96875 C 279.300781 214.902344 279.636719 214.84375 279.957031 214.738281 C 282.484375 213.894531 284.429688 212.878906 286.148438 210.765625 C 286.339844 210.523438 287.382812 209.027344 287.625 208.316406 C 287.683594 208.160156 287.699219 208.03125 287.683594 207.949219 C 287.667969 207.871094 287.632812 207.824219 287.582031 207.785156 C 287.5 207.722656 287.382812 207.691406 287.226562 207.691406 C 287.050781 207.691406 286.816406 207.742188 286.554688 207.816406 C 285.601562 208.105469 284.261719 208.820312 283.96875 208.992188 C 281.832031 210.277344 279.800781 211.945312 278.421875 214.03125 L 278.429688 214.019531 C 278.574219 213.5625 278.710938 213.097656 278.832031 212.628906 C 278.929688 212.246094 279.023438 211.855469 279.105469 211.46875 C 279.132812 211.34375 279.15625 211.21875 279.179688 211.085938 C 279.195312 211.023438 279.199219 210.960938 279.210938 210.890625 C 279.226562 210.816406 279.238281 210.742188 279.25 210.667969 C 279.289062 210.429688 279.324219 210.191406 279.355469 209.957031 C 279.433594 209.414062 279.5 208.863281 279.558594 208.3125 C 279.582031 208.042969 279.605469 207.773438 279.632812 207.507812 C 279.652344 207.433594 279.667969 207.359375 279.6875 207.277344 C 279.699219 207.277344 279.707031 207.269531 279.71875 207.265625 C 284.03125 205.273438 287.476562 201.628906 288.277344 196.839844 C 288.320312 196.566406 288.671875 194.78125 288.757812 193.933594 C 288.785156 193.683594 288.777344 193.507812 288.753906 193.4375 C 288.722656 193.351562 288.664062 193.3125 288.601562 193.300781 C 288.554688 193.289062 288.496094 193.289062 288.433594 193.328125 C 288.390625 193.351562 288.332031 193.394531 288.277344 193.453125 C 288.222656 193.507812 288.164062 193.578125 288.121094 193.609375 C 287.824219 193.828125 287.550781 194.058594 287.238281 194.242188 C 286.246094 194.816406 285.445312 195.40625 284.664062 196.246094 C 281.804688 199.316406 279.730469 205.832031 279.730469 205.832031 C 279.871094 202.058594 279.425781 198.339844 278.191406 194.734375 C 278.191406 194.730469 278.191406 194.730469 278.191406 194.722656 C 278.183594 193.601562 278.609375 192.511719 279.175781 191.464844 C 279.75 190.402344 280.464844 189.378906 281.027344 188.441406 C 282.019531 186.785156 282.652344 184.96875 282.859375 183.054688 C 282.972656 181.988281 282.945312 180.933594 282.847656 179.863281 C 282.816406 179.542969 282.777344 179.230469 282.738281 178.910156 C 282.726562 178.78125 282.707031 178.648438 282.6875 178.515625 C 282.6875 178.511719 282.695312 178.417969 282.695312 178.378906 C 282.6875 178.328125 282.675781 178.296875 282.65625 178.273438 C 282.632812 178.234375 282.59375 178.210938 282.558594 178.203125 C 282.519531 178.191406 282.46875 178.191406 282.414062 178.222656 C 282.34375 178.265625 282.277344 178.355469 282.21875 178.472656 C 282.136719 178.660156 282.082031 178.941406 282.023438 179.0625 C 281.773438 179.605469 281.457031 180.171875 281.109375 180.664062 C 280.464844 181.582031 279.828125 182.363281 279.417969 183.421875 C 278.492188 185.851562 278.605469 188.320312 278.378906 190.863281 C 278.292969 191.867188 278.035156 192.832031 277.851562 193.820312 C 277.640625 193.257812 277.402344 192.699219 277.152344 192.140625 C 275.824219 189.234375 274.382812 186.980469 273.054688 184.9375 C 273.054688 184.917969 273.054688 184.894531 273.046875 184.875 C 272.683594 183.515625 272.898438 182.226562 273.324219 180.964844 C 273.757812 179.683594 274.40625 178.4375 274.910156 177.203125 C 275.617188 175.453125 275.722656 173.203125 275.289062 171.386719 C 275.160156 170.835938 274.902344 169.757812 274.589844 169.265625 C 274.578125 169.21875 274.570312 169.183594 274.558594 169.140625 C 274.546875 169.09375 274.5 169.070312 274.457031 169.078125 C 274.414062 169.089844 274.390625 169.132812 274.394531 169.175781 C 274.355469 169.183594 274.324219 169.207031 274.292969 169.246094 C 274.28125 169.265625 274.261719 169.296875 274.257812 169.347656 C 274.25 169.390625 274.257812 169.476562 274.246094 169.519531 C 274.21875 169.652344 274.175781 169.777344 274.144531 169.902344 C 274.042969 170.28125 273.898438 170.625 273.75 170.980469 C 273.296875 172.058594 272.617188 173.003906 272.367188 174.164062 C 271.914062 176.28125 272.453125 178.292969 272.601562 180.398438 C 272.691406 181.625 272.445312 182.832031 272.484375 184.054688 C 272.171875 183.574219 271.863281 183.097656 271.574219 182.625 C 269.09375 178.628906 267.453125 174.808594 268.625 167.261719 Z M 278.574219 214.613281 C 278.574219 214.613281 278.578125 214.621094 278.578125 214.621094 C 278.566406 214.625 278.5625 214.625 278.546875 214.632812 Z M 286.253906 210.027344 C 286.070312 210.289062 285.921875 210.496094 285.867188 210.578125 C 284.191406 212.632812 282.289062 213.617188 279.832031 214.445312 C 279.738281 214.476562 279.636719 214.5 279.539062 214.527344 C 279.6875 214.464844 279.839844 214.394531 279.984375 214.324219 C 280.496094 214.09375 281.011719 213.875 281.503906 213.597656 C 282.925781 212.808594 284.40625 211.90625 285.589844 210.78125 C 285.835938 210.546875 286.039062 210.277344 286.253906 210.027344 Z M 286.667969 209.007812 C 286.296875 209.425781 285.882812 209.816406 285.464844 210.179688 C 284.488281 211.03125 283.429688 211.75 282.351562 212.476562 C 281.316406 213.171875 280.207031 213.957031 279.03125 214.445312 C 279.355469 214.269531 279.667969 214.042969 279.984375 213.863281 C 280.515625 213.546875 281.054688 213.253906 281.566406 212.902344 C 282.230469 212.445312 282.859375 211.914062 283.492188 211.417969 C 284.25 210.828125 284.996094 210.214844 285.765625 209.640625 C 286.058594 209.433594 286.386719 209.238281 286.667969 209.007812 Z M 278.722656 214.1875 C 280.078125 212.171875 282.050781 210.558594 284.128906 209.308594 C 284.410156 209.136719 285.714844 208.441406 286.640625 208.160156 C 286.863281 208.09375 287.0625 208.046875 287.210938 208.046875 C 287.226562 208.046875 287.238281 208.046875 287.25 208.046875 C 287.066406 208.097656 286.898438 208.191406 286.71875 208.253906 C 286.515625 208.324219 286.296875 208.363281 286.097656 208.441406 C 285.546875 208.675781 285.042969 209.058594 284.539062 209.371094 C 284.148438 209.613281 283.742188 209.828125 283.371094 210.089844 C 282.746094 210.535156 282.175781 211.054688 281.59375 211.554688 C 280.949219 212.113281 280.289062 212.660156 279.65625 213.242188 C 279.332031 213.546875 279.035156 213.875 278.722656 214.1875 Z M 287.207031 208.234375 C 287.175781 208.273438 287.136719 208.3125 287.105469 208.34375 C 286.796875 208.53125 286.464844 208.679688 286.160156 208.867188 C 285.851562 209.058594 285.570312 209.28125 285.269531 209.484375 C 284.945312 209.703125 284.601562 209.894531 284.28125 210.121094 C 283.578125 210.621094 282.921875 211.199219 282.238281 211.726562 C 281.210938 212.515625 280.160156 213.285156 279.101562 214.035156 C 279.320312 213.8125 279.539062 213.578125 279.769531 213.367188 C 280.394531 212.789062 281.054688 212.246094 281.699219 211.6875 C 282.277344 211.191406 282.839844 210.671875 283.464844 210.234375 C 283.835938 209.972656 284.242188 209.757812 284.625 209.519531 C 285.121094 209.207031 285.613281 208.832031 286.160156 208.605469 C 286.355469 208.523438 286.566406 208.488281 286.765625 208.417969 C 286.917969 208.367188 287.0625 208.292969 287.207031 208.234375 Z M 286.6875 208.769531 C 286.378906 209.042969 285.996094 209.261719 285.664062 209.507812 C 284.894531 210.085938 284.148438 210.699219 283.390625 211.285156 C 282.757812 211.78125 282.136719 212.3125 281.472656 212.765625 C 280.964844 213.109375 280.433594 213.40625 279.902344 213.710938 C 279.738281 213.804688 279.582031 213.910156 279.417969 214.011719 C 280.410156 213.308594 281.386719 212.589844 282.34375 211.855469 C 283.027344 211.335938 283.679688 210.765625 284.386719 210.265625 C 284.707031 210.039062 285.042969 209.847656 285.371094 209.625 C 285.664062 209.425781 285.945312 209.199219 286.253906 209.019531 C 286.390625 208.929688 286.542969 208.851562 286.6875 208.769531 Z M 286.660156 209.269531 C 286.511719 209.464844 286.355469 209.65625 286.191406 209.839844 C 285.953125 210.117188 285.734375 210.410156 285.46875 210.660156 C 284.300781 211.777344 282.832031 212.671875 281.421875 213.453125 C 281.078125 213.640625 280.726562 213.804688 280.378906 213.96875 C 281.097656 213.546875 281.792969 213.074219 282.449219 212.628906 C 283.527344 211.902344 284.59375 211.167969 285.578125 210.316406 C 285.953125 209.984375 286.324219 209.640625 286.660156 209.269531 Z M 272.195312 200.363281 C 272.710938 201.058594 273.109375 201.882812 273.59375 202.574219 C 275.410156 205.179688 277.039062 207.953125 278.203125 210.917969 C 276.757812 208.726562 275.492188 206.371094 274.164062 204.109375 C 273.429688 202.859375 272.609375 201.734375 272.195312 200.363281 Z M 274.402344 202.132812 C 274.457031 202.195312 274.519531 202.265625 274.578125 202.335938 C 274.613281 202.378906 274.652344 202.421875 274.6875 202.464844 C 276.480469 204.582031 278.359375 207.828125 278.449219 210.773438 C 278.179688 209.746094 277.734375 208.773438 277.351562 207.777344 C 276.605469 205.867188 275.703125 203.820312 274.402344 202.132812 Z M 271.90625 200 C 271.921875 200.011719 271.925781 200.015625 271.9375 200.03125 C 272.308594 201.589844 273.21875 202.816406 274.023438 204.1875 C 275.214844 206.210938 276.347656 208.3125 277.613281 210.296875 C 275.792969 208.042969 273.960938 205.628906 272.886719 202.949219 C 272.484375 201.984375 272.046875 201.039062 271.90625 200 Z M 272.398438 200.347656 C 274.769531 202.160156 276.148438 205.136719 277.1875 207.839844 C 277.503906 208.65625 277.859375 209.453125 278.128906 210.277344 C 276.976562 207.515625 275.433594 204.921875 273.730469 202.472656 C 273.265625 201.808594 272.878906 201.027344 272.398438 200.347656 Z M 271.734375 201.464844 C 271.863281 202.058594 272.109375 202.660156 272.285156 203.167969 C 272.804688 204.722656 274.527344 207.515625 275.683594 208.742188 C 276.113281 209.1875 276.542969 209.613281 276.964844 210.054688 C 276.53125 209.800781 276.097656 209.558594 275.765625 209.257812 C 274.714844 208.304688 273.15625 205.980469 272.308594 203.746094 C 272.015625 202.949219 271.800781 202.164062 271.734375 201.464844 Z M 271.820312 200.472656 C 272.007812 201.351562 272.382812 202.179688 272.722656 203.019531 C 273.742188 205.546875 275.421875 207.847656 277.144531 209.988281 C 276.707031 209.53125 276.253906 209.09375 275.816406 208.628906 C 274.671875 207.421875 272.964844 204.660156 272.453125 203.117188 C 272.300781 202.671875 272.097656 202.164062 271.957031 201.644531 C 271.84375 201.25 271.78125 200.851562 271.820312 200.472656 Z M 279.90625 206.8125 C 279.90625 206.8125 279.90625 206.820312 279.90625 206.820312 L 279.890625 206.828125 Z M 287.757812 197.625 C 287.667969 198 287.5625 198.363281 287.4375 198.726562 C 286.390625 200.78125 284.292969 202.886719 282.882812 204.332031 C 281.992188 205.242188 281.296875 206.144531 280.128906 206.65625 C 282.375 205.160156 283.828125 202.835938 285.488281 200.761719 C 286.328125 199.730469 287.1875 198.769531 287.757812 197.625 Z M 288.191406 195.335938 C 288.070312 196.019531 287.945312 196.664062 287.921875 196.816406 L 287.921875 196.820312 C 287.394531 198.300781 286.355469 199.421875 285.359375 200.65625 C 283.835938 202.546875 282.496094 204.652344 280.558594 206.136719 C 281.328125 205.355469 282.105469 204.558594 282.78125 203.707031 C 284.035156 202.128906 285.03125 200.355469 286.121094 198.65625 C 286.910156 197.429688 287.664062 196.519531 288.191406 195.335938 Z M 287.40625 194.554688 C 286.046875 196.132812 285.15625 198.074219 284.128906 199.886719 C 282.890625 202.078125 281.472656 204.109375 279.984375 206.132812 C 280 206.054688 280.027344 205.980469 280.050781 205.898438 C 280.238281 205.710938 280.414062 205.480469 280.578125 205.222656 C 280.996094 204.558594 281.34375 203.75 281.65625 203.261719 C 282.675781 201.675781 283.667969 200.105469 284.539062 198.433594 C 285.152344 197.242188 285.628906 196.078125 286.515625 195.113281 C 286.792969 194.925781 287.082031 194.742188 287.382812 194.566406 C 287.394531 194.5625 287.398438 194.5625 287.40625 194.554688 Z M 288.121094 194.054688 C 285.921875 197.894531 283.917969 201.832031 280.964844 205.160156 C 280.710938 205.449219 280.484375 205.761719 280.246094 206.0625 C 281.691406 204.089844 283.066406 202.101562 284.28125 199.96875 C 285.425781 197.945312 286.398438 195.769531 288.046875 194.109375 C 288.070312 194.089844 288.09375 194.070312 288.121094 194.054688 Z M 287.042969 199.742188 C 285.921875 202.273438 283.980469 204.351562 281.625 205.863281 C 282.101562 205.4375 282.527344 204.945312 283.007812 204.453125 C 284.210938 203.210938 285.914062 201.5 287.042969 199.742188 Z M 288.410156 193.890625 C 288.394531 194.003906 288.382812 194.132812 288.363281 194.285156 C 288.351562 194.359375 288.347656 194.433594 288.332031 194.511719 C 287.824219 196.09375 286.9375 197.097656 285.992188 198.570312 C 284.90625 200.261719 283.910156 202.027344 282.664062 203.605469 C 282.054688 204.371094 281.367188 205.085938 280.679688 205.792969 C 280.816406 205.617188 280.953125 205.441406 281.105469 205.273438 C 284.210938 201.753906 286.277344 197.550781 288.632812 193.5 Z M 285.964844 195.519531 C 285.320312 196.382812 284.902344 197.359375 284.386719 198.363281 C 283.523438 200.035156 282.53125 201.601562 281.519531 203.179688 C 281.203125 203.667969 280.859375 204.476562 280.441406 205.140625 C 280.363281 205.261719 280.289062 205.375 280.207031 205.480469 C 280.710938 204.347656 281.335938 203.273438 281.894531 202.171875 C 282.988281 199.972656 284.054688 197.792969 285.558594 195.855469 C 285.691406 195.738281 285.828125 195.625 285.964844 195.519531 Z M 284.800781 196.601562 C 283.605469 198.324219 282.6875 200.199219 281.738281 202.085938 C 281.335938 202.875 280.902344 203.652344 280.503906 204.445312 C 281.460938 201.589844 282.816406 198.777344 284.800781 196.601562 Z M 267.9375 189.804688 C 269.027344 190.6875 270.378906 191.203125 271.570312 191.929688 C 273.78125 193.269531 275.765625 194.96875 277.382812 196.992188 C 277.691406 197.378906 278.070312 197.75 278.390625 198.148438 C 278.402344 198.175781 278.421875 198.195312 278.4375 198.21875 C 278.378906 198.15625 278.324219 198.101562 278.265625 198.039062 C 277.847656 197.582031 277.410156 197.148438 276.96875 196.710938 C 275.226562 194.980469 273.347656 193.5 271.292969 192.15625 C 270.191406 191.429688 268.871094 190.78125 267.9375 189.804688 Z M 273.75 192.425781 C 274.082031 192.601562 274.394531 192.789062 274.675781 192.976562 C 275.886719 193.808594 277.121094 195.46875 277.871094 196.726562 C 278.058594 197.042969 278.246094 197.367188 278.421875 197.710938 C 278.078125 197.160156 277.675781 196.640625 277.300781 196.125 C 276.3125 194.792969 275.121094 193.457031 273.75 192.425781 Z M 269.378906 192.222656 C 269.820312 192.625 270.285156 193.007812 270.761719 193.363281 C 271.945312 194.261719 273.304688 194.980469 274.570312 195.75 C 275.359375 196.234375 276.125 196.726562 276.863281 197.285156 C 276.457031 197.066406 276.046875 196.847656 275.652344 196.601562 C 274.703125 196.007812 273.792969 195.335938 272.824219 194.773438 C 272.164062 194.390625 271.445312 194.128906 270.78125 193.738281 C 270.609375 193.582031 270.449219 193.425781 270.285156 193.25 C 269.964844 192.914062 269.660156 192.570312 269.378906 192.222656 Z M 268.320312 190.765625 C 268.46875 190.933594 268.625 191.097656 268.789062 191.234375 C 269.269531 191.660156 269.820312 192.023438 270.335938 192.410156 C 271.859375 193.578125 273.441406 194.636719 275.039062 195.695312 C 275.667969 196.113281 276.253906 196.558594 276.824219 197.035156 C 276.125 196.519531 275.410156 196.058594 274.664062 195.601562 C 273.398438 194.828125 272.050781 194.109375 270.867188 193.21875 C 270.128906 192.664062 269.421875 192.046875 268.75 191.398438 C 268.601562 191.195312 268.457031 190.984375 268.320312 190.765625 Z M 268 190.101562 C 268.925781 190.984375 270.160156 191.605469 271.199219 192.285156 C 273.242188 193.628906 275.117188 195.09375 276.84375 196.820312 C 276.894531 196.871094 276.945312 196.921875 276.996094 196.964844 C 276.398438 196.464844 275.785156 195.996094 275.128906 195.558594 C 273.535156 194.492188 271.953125 193.4375 270.429688 192.28125 C 269.921875 191.890625 269.371094 191.535156 268.894531 191.109375 C 268.582031 190.828125 268.273438 190.476562 268 190.101562 Z M 271.550781 191.402344 C 271.925781 191.566406 272.308594 191.730469 272.679688 191.898438 C 274.453125 192.976562 275.953125 194.605469 277.152344 196.222656 C 277.234375 196.332031 277.3125 196.441406 277.402344 196.554688 C 277.351562 196.488281 277.308594 196.433594 277.257812 196.378906 C 275.699219 194.433594 273.695312 192.71875 271.550781 191.402344 Z M 271.363281 194.234375 C 271.828125 194.460938 272.296875 194.660156 272.742188 194.917969 C 273.550781 195.382812 274.3125 195.925781 275.089844 196.433594 C 273.757812 195.777344 272.496094 195.136719 271.363281 194.234375 Z M 267.542969 189.21875 C 267.941406 189.535156 268.351562 189.835938 268.78125 190.101562 C 268.78125 190.101562 268.777344 190.105469 268.777344 190.105469 C 268.757812 190.152344 268.769531 190.199219 268.8125 190.21875 C 269.578125 190.609375 270.375 190.894531 271.113281 191.335938 C 272.796875 192.324219 274.40625 193.578125 275.796875 194.992188 C 274.546875 193.765625 273.148438 192.6875 271.644531 191.777344 C 270.324219 190.976562 268.792969 190.433594 267.660156 189.34375 C 267.621094 189.304688 267.585938 189.261719 267.542969 189.21875 Z M 282.320312 179.25 C 282.28125 179.550781 282.230469 179.851562 282.144531 180.140625 C 282.019531 180.546875 281.792969 180.910156 281.691406 181.324219 C 281.117188 183.742188 280.507812 186.179688 279.730469 188.539062 C 279.5 189.253906 279.226562 189.949219 278.941406 190.644531 C 278.90625 190.738281 278.863281 190.839844 278.816406 190.933594 C 278.980469 190.457031 279.050781 189.949219 279.167969 189.46875 C 279.417969 188.445312 279.6875 187.4375 279.9375 186.417969 C 280.351562 184.730469 280.765625 183.019531 281.347656 181.386719 C 281.574219 180.753906 281.914062 180.140625 282.1875 179.527344 C 282.238281 179.425781 282.277344 179.335938 282.320312 179.25 Z M 281.34375 180.953125 C 281.292969 181.078125 281.242188 181.199219 281.199219 181.324219 C 280.617188 182.964844 280.203125 184.679688 279.78125 186.371094 C 279.53125 187.394531 279.261719 188.402344 279.011719 189.421875 C 278.949219 189.667969 278.90625 189.925781 278.847656 190.175781 C 278.917969 189.675781 278.972656 189.171875 279.066406 188.679688 C 279.304688 187.429688 279.652344 186.203125 279.902344 184.957031 C 280.109375 183.921875 280.238281 182.6875 280.773438 181.742188 C 280.960938 181.480469 281.148438 181.222656 281.34375 180.953125 Z M 282.464844 183.371094 C 282.230469 185.125 281.628906 186.785156 280.722656 188.308594 C 280.378906 188.886719 279.984375 189.480469 279.59375 190.101562 C 279.75 189.75 279.90625 189.398438 280.070312 189.054688 C 280.601562 187.964844 281.117188 186.875 281.59375 185.753906 C 281.929688 184.96875 282.238281 184.179688 282.464844 183.371094 Z M 282.449219 179.53125 L 282.464844 179.632812 C 282.46875 179.902344 282.464844 180.175781 282.4375 180.445312 C 282.375 181.074219 282.175781 181.644531 282.023438 182.246094 C 281.824219 183.015625 281.660156 183.804688 281.417969 184.570312 C 281.210938 185.207031 280.933594 185.816406 280.722656 186.453125 C 280.378906 187.5 279.988281 188.527344 279.5625 189.535156 C 279.683594 189.222656 279.789062 188.910156 279.894531 188.589844 C 280.671875 186.222656 281.28125 183.78125 281.863281 181.359375 C 281.960938 180.953125 282.1875 180.589844 282.308594 180.191406 C 282.375 179.96875 282.417969 179.746094 282.449219 179.519531 Z M 280.265625 182.5 C 280.007812 183.289062 279.890625 184.15625 279.738281 184.917969 C 279.488281 186.167969 279.144531 187.394531 278.90625 188.640625 C 278.875 188.796875 278.847656 188.953125 278.824219 189.117188 C 278.925781 187.242188 279.023438 185.40625 279.71875 183.589844 C 279.871094 183.195312 280.058594 182.839844 280.265625 182.5 Z M 282.558594 180.824219 C 282.578125 181.265625 282.582031 181.710938 282.570312 182.15625 C 282.371094 183.378906 281.9375 184.539062 281.441406 185.691406 C 281.046875 186.609375 280.632812 187.507812 280.203125 188.410156 C 280.445312 187.78125 280.671875 187.148438 280.886719 186.503906 C 281.097656 185.871094 281.375 185.257812 281.582031 184.617188 C 281.824219 183.855469 281.992188 183.066406 282.1875 182.289062 C 282.3125 181.792969 282.46875 181.316406 282.558594 180.824219 Z M 275.179688 173.03125 C 275.273438 174.414062 275.078125 175.890625 274.582031 177.113281 C 274.199219 178.058594 273.730469 179.011719 273.335938 179.984375 C 273.375 179.832031 273.417969 179.6875 273.46875 179.550781 C 274.175781 177.578125 275.007812 175.484375 275.160156 173.375 C 275.164062 173.261719 275.171875 173.140625 275.179688 173.03125 Z M 273.273438 172.703125 C 273.1875 173.265625 273.191406 173.851562 273.179688 174.433594 C 273.167969 175.210938 273.105469 176 273.140625 176.777344 C 273.160156 177.207031 273.191406 177.652344 273.203125 178.089844 C 273.136719 178.605469 273.066406 179.125 272.992188 179.636719 C 272.992188 179.632812 272.992188 179.621094 272.992188 179.613281 C 272.996094 178.742188 272.867188 177.890625 272.808594 177.027344 C 272.722656 175.765625 272.734375 174.453125 273.03125 173.21875 C 273.109375 173.042969 273.191406 172.871094 273.273438 172.703125 Z M 272.679688 174.289062 C 272.570312 175.203125 272.585938 176.128906 272.648438 177.03125 C 272.703125 177.828125 272.816406 178.617188 272.828125 179.414062 C 272.628906 177.703125 272.308594 176.03125 272.679688 174.289062 Z M 274.820312 170.96875 C 274.863281 171.136719 274.902344 171.289062 274.933594 171.425781 C 275.007812 172.066406 275.039062 172.703125 274.996094 173.367188 C 274.847656 175.433594 274.042969 177.476562 273.34375 179.414062 C 273.355469 179.3125 273.363281 179.210938 273.367188 179.105469 C 273.460938 178.691406 273.566406 178.277344 273.667969 177.867188 C 273.96875 176.65625 274.390625 175.460938 274.601562 174.226562 C 274.777344 173.15625 274.882812 172.050781 274.820312 170.96875 Z M 274.546875 170.042969 L 274.550781 170.058594 C 274.765625 171.425781 274.664062 172.835938 274.433594 174.195312 C 274.226562 175.421875 273.804688 176.613281 273.503906 177.820312 C 273.46875 177.984375 273.425781 178.148438 273.378906 178.308594 C 273.378906 178.242188 273.378906 178.171875 273.375 178.105469 C 273.59375 176.480469 273.800781 174.859375 274.039062 173.242188 C 274.113281 172.742188 274.167969 172.234375 274.257812 171.734375 C 274.363281 171.175781 274.496094 170.605469 274.539062 170.027344 Z M 274.332031 170.417969 C 274.269531 170.847656 274.175781 171.277344 274.101562 171.703125 C 274.007812 172.203125 273.949219 172.710938 273.875 173.21875 C 273.679688 174.527344 273.511719 175.84375 273.335938 177.152344 C 273.328125 177.019531 273.324219 176.894531 273.316406 176.761719 C 273.28125 175.992188 273.34375 175.203125 273.355469 174.425781 C 273.367188 173.636719 273.347656 172.835938 273.59375 172.097656 C 273.757812 171.78125 273.914062 171.46875 274.050781 171.144531 C 274.144531 170.90625 274.246094 170.667969 274.332031 170.417969 Z M 267.71875 176.25 C 267.730469 176.261719 267.734375 176.269531 267.75 176.28125 C 267.796875 176.34375 267.847656 176.414062 267.898438 176.476562 C 267.90625 176.480469 267.910156 176.488281 267.917969 176.492188 C 267.921875 176.507812 267.929688 176.519531 267.9375 176.523438 C 267.847656 176.445312 267.761719 176.367188 267.667969 176.292969 C 267.679688 176.285156 267.691406 176.28125 267.703125 176.273438 C 267.710938 176.269531 267.71875 176.261719 267.71875 176.25 Z M 262.90625 170.605469 C 263.75 171.179688 264.570312 171.769531 265.304688 172.507812 C 265.886719 173.105469 266.34375 173.851562 266.808594 174.53125 C 267.101562 174.972656 267.390625 175.429688 267.667969 175.890625 L 267.648438 175.867188 C 267.378906 175.527344 267.097656 175.203125 266.816406 174.878906 C 266.640625 174.664062 266.457031 174.453125 266.28125 174.238281 C 265.441406 173.222656 264.691406 172.226562 263.726562 171.324219 C 263.464844 171.085938 263.1875 170.84375 262.90625 170.605469 Z M 258.882812 168.964844 C 259.9375 170.503906 261.277344 171.828125 262.785156 172.933594 C 263.726562 173.617188 264.699219 174.289062 265.664062 174.941406 C 265.996094 175.160156 266.332031 175.386719 266.644531 175.636719 C 266.476562 175.542969 266.300781 175.453125 266.125 175.371094 C 265.964844 175.273438 265.800781 175.171875 265.636719 175.070312 C 264.339844 174.3125 263.117188 173.425781 261.953125 172.484375 C 261.328125 171.976562 260.644531 171.496094 260.117188 170.878906 C 259.828125 170.480469 259.554688 170.066406 259.285156 169.652344 C 259.148438 169.421875 259.015625 169.195312 258.882812 168.964844 Z M 259.496094 169.519531 C 260.714844 170.824219 262.199219 171.871094 263.664062 172.929688 C 264.554688 173.566406 265.394531 174.3125 266.207031 175.046875 C 266.332031 175.160156 266.457031 175.265625 266.589844 175.378906 C 266.320312 175.179688 266.039062 174.992188 265.757812 174.800781 C 264.792969 174.15625 263.820312 173.488281 262.878906 172.804688 C 261.609375 171.863281 260.457031 170.769531 259.496094 169.519531 Z M 258.726562 168.324219 C 259.132812 168.695312 259.5625 169.03125 259.980469 169.390625 C 261.070312 170.316406 262.128906 171.257812 263.25 172.144531 C 264.019531 172.761719 264.808594 173.394531 265.519531 174.074219 C 265.894531 174.4375 266.257812 174.808594 266.628906 175.179688 C 266.527344 175.089844 266.425781 175.003906 266.328125 174.914062 C 265.503906 174.183594 264.667969 173.429688 263.765625 172.785156 C 261.921875 171.46875 260.050781 170.160156 258.726562 168.324219 Z M 258.445312 167.828125 C 258.851562 168.0625 259.265625 168.289062 259.65625 168.5625 C 260.933594 169.488281 262.074219 170.585938 263.25 171.632812 C 264.441406 172.683594 265.617188 173.792969 266.675781 174.992188 L 266.695312 175.015625 C 266.34375 174.660156 265.988281 174.300781 265.632812 173.949219 C 264.917969 173.261719 264.121094 172.628906 263.351562 172.007812 C 262.230469 171.117188 261.175781 170.179688 260.085938 169.253906 C 259.535156 168.792969 258.960938 168.34375 258.445312 167.828125 Z M 260.863281 171.820312 C 261.1875 172.089844 261.527344 172.347656 261.851562 172.609375 C 262.8125 173.378906 263.808594 174.121094 264.847656 174.777344 C 264.390625 174.570312 263.925781 174.34375 263.476562 174.074219 C 262.453125 173.472656 261.609375 172.699219 260.863281 171.820312 Z M 260.964844 169.378906 C 261.109375 169.457031 261.253906 169.539062 261.394531 169.621094 C 262.148438 170.191406 262.9375 170.824219 263.609375 171.449219 C 264.214844 172.019531 264.742188 172.636719 265.253906 173.261719 C 264.640625 172.660156 264.003906 172.078125 263.355469 171.507812 C 262.5625 170.800781 261.777344 170.066406 260.964844 169.378906 Z M 267.257812 159.070312 C 267.253906 159.910156 267.304688 160.757812 267.402344 161.597656 C 267.554688 162.867188 267.761719 164.109375 267.992188 165.378906 C 268.09375 165.925781 268.191406 166.484375 268.230469 167.039062 C 268.019531 166.238281 267.703125 165.449219 267.511719 164.597656 C 267.097656 162.8125 267.003906 160.914062 267.257812 159.070312 Z M 269.378906 158.058594 C 269.714844 159.960938 269.742188 161.972656 269.390625 163.820312 C 269.21875 164.703125 268.964844 165.5625 268.707031 166.425781 C 268.832031 165.613281 268.933594 164.796875 269.03125 163.984375 C 269.269531 161.992188 269.488281 160.03125 269.378906 158.058594 Z M 269.050781 156.621094 C 269.050781 156.628906 269.058594 156.636719 269.058594 156.640625 C 269.425781 159.097656 269.15625 161.503906 268.863281 163.964844 C 268.769531 164.746094 268.667969 165.523438 268.550781 166.308594 C 268.542969 166.21875 268.53125 166.132812 268.519531 166.050781 C 268.601562 165.316406 268.71875 164.578125 268.789062 163.851562 C 268.957031 162.074219 269.015625 160.292969 269.058594 158.503906 C 269.078125 157.820312 269.089844 157.21875 269.050781 156.621094 Z M 267.535156 157.617188 C 267.527344 159.214844 267.671875 160.8125 267.90625 162.375 C 268.03125 163.21875 268.023438 164.164062 268.167969 165.011719 C 268.207031 165.21875 268.242188 165.417969 268.28125 165.613281 C 268.28125 165.75 268.28125 165.886719 268.273438 166.027344 C 268.238281 165.800781 268.199219 165.582031 268.15625 165.355469 C 267.921875 164.082031 267.71875 162.84375 267.566406 161.578125 C 267.417969 160.332031 267.378906 159.089844 267.484375 157.839844 C 267.496094 157.789062 267.503906 157.742188 267.515625 157.699219 C 267.523438 157.675781 267.527344 157.644531 267.535156 157.617188 Z M 268.0625 153.585938 C 268.570312 155.890625 268.59375 158.3125 268.542969 160.652344 C 268.519531 161.933594 268.5 163.199219 268.425781 164.476562 C 268.425781 164.402344 268.417969 164.335938 268.417969 164.257812 C 268.398438 163.082031 268.363281 161.921875 268.292969 160.746094 C 268.160156 158.609375 268.105469 155.75 268.0625 153.585938 Z M 267.921875 155.070312 C 267.96875 156.953125 268.023438 159.078125 268.125 160.757812 C 268.191406 161.929688 268.230469 163.085938 268.25 164.257812 C 268.25 164.308594 268.25 164.359375 268.25 164.410156 C 268.179688 163.726562 268.160156 163 268.0625 162.34375 C 267.785156 160.476562 267.636719 158.535156 267.722656 156.621094 C 267.8125 156.117188 267.875 155.589844 267.921875 155.070312 Z M 268.40625 154.519531 C 268.542969 154.945312 268.667969 155.371094 268.808594 155.796875 C 268.925781 156.691406 268.914062 157.507812 268.886719 158.488281 C 268.84375 160.242188 268.792969 161.992188 268.632812 163.734375 C 268.675781 162.707031 268.695312 161.683594 268.714844 160.652344 C 268.75 158.632812 268.738281 156.535156 268.40625 154.519531 Z M 268.40625 154.519531 " fill-opacity="1" fill-rule="evenodd"/></g><g fill="#1f4529" fill-opacity="1"><g transform="translate(119.233099, 261.741682)"><g><path d="M 10.78125 -0.890625 C 11.300781 -2.046875 11.039062 -3.019531 10 -3.8125 C 9.351562 -4.3125 8.632812 -4.441406 7.84375 -4.203125 C 7.050781 -3.960938 6.300781 -3.378906 5.59375 -2.453125 C 4.914062 -1.566406 4.554688 -0.71875 4.515625 0.09375 C 4.484375 0.914062 4.800781 1.585938 5.46875 2.109375 C 6.5 2.890625 7.546875 2.835938 8.609375 1.953125 L 10.390625 3.3125 C 9.585938 4.082031 8.632812 4.53125 7.53125 4.65625 C 6.425781 4.78125 5.335938 4.429688 4.265625 3.609375 C 3.066406 2.691406 2.414062 1.570312 2.3125 0.25 C 2.207031 -1.070312 2.695312 -2.441406 3.78125 -3.859375 C 4.8125 -5.210938 5.992188 -6.035156 7.328125 -6.328125 C 8.660156 -6.617188 9.9375 -6.300781 11.15625 -5.375 C 12.226562 -4.5625 12.875 -3.613281 13.09375 -2.53125 C 13.3125 -1.445312 13.132812 -0.445312 12.5625 0.46875 Z M 10.78125 -0.890625 "/></g></g></g><g fill="#1f4529" fill-opacity="1"><g transform="translate(132.432872, 271.323069)"><g><path d="M 5.09375 -3.390625 C 4.5 -2.285156 4.296875 -1.320312 4.484375 -0.5 C 4.671875 0.3125 5.140625 0.921875 5.890625 1.328125 C 6.648438 1.734375 7.414062 1.78125 8.1875 1.46875 C 8.96875 1.15625 9.648438 0.460938 10.234375 -0.609375 C 10.804688 -1.671875 11.007812 -2.613281 10.84375 -3.4375 C 10.675781 -4.257812 10.207031 -4.878906 9.4375 -5.296875 C 8.65625 -5.710938 7.878906 -5.765625 7.109375 -5.453125 C 6.335938 -5.140625 5.664062 -4.453125 5.09375 -3.390625 Z M 3.109375 -4.453125 C 3.972656 -6.078125 5.054688 -7.082031 6.359375 -7.46875 C 7.671875 -7.851562 8.992188 -7.691406 10.328125 -6.984375 C 11.648438 -6.265625 12.515625 -5.253906 12.921875 -3.953125 C 13.328125 -2.648438 13.09375 -1.179688 12.21875 0.453125 C 11.34375 2.066406 10.25 3.078125 8.9375 3.484375 C 7.632812 3.890625 6.3125 3.726562 4.96875 3 C 3.675781 2.3125 2.8125 1.320312 2.375 0.03125 C 1.9375 -1.25 2.179688 -2.742188 3.109375 -4.453125 Z M 3.109375 -4.453125 "/></g></g></g><g fill="#1f4529" fill-opacity="1"><g transform="translate(147.66573, 279.001699)"><g><path d="M 10.875 -7.625 L 12.859375 -6.9375 L 9.328125 3.234375 L 7.203125 2.5 L 5.59375 -6.203125 L 5.5625 -6.21875 L 3.03125 1.046875 L 1.03125 0.359375 L 4.5625 -9.8125 L 6.8125 -9.03125 L 8.40625 -0.53125 L 8.421875 -0.53125 Z M 10.875 -7.625 "/></g></g></g><g fill="#1f4529" fill-opacity="1"><g transform="translate(163.285535, 283.958677)"><g><path d="M 3.34375 -2.75 C 3.238281 -2.226562 3.351562 -1.773438 3.6875 -1.390625 C 4.019531 -1.015625 4.546875 -0.757812 5.265625 -0.625 C 5.972656 -0.488281 6.539062 -0.503906 6.96875 -0.671875 C 7.394531 -0.835938 7.648438 -1.144531 7.734375 -1.59375 C 7.773438 -1.863281 7.71875 -2.113281 7.5625 -2.34375 C 7.40625 -2.582031 6.976562 -2.851562 6.28125 -3.15625 L 4.546875 -3.90625 C 3.460938 -4.382812 2.757812 -4.894531 2.4375 -5.4375 C 2.113281 -5.976562 2.023438 -6.65625 2.171875 -7.46875 C 2.347656 -8.425781 2.832031 -9.144531 3.625 -9.625 C 4.425781 -10.101562 5.503906 -10.21875 6.859375 -9.96875 C 8.210938 -9.71875 9.171875 -9.1875 9.734375 -8.375 C 10.304688 -7.5625 10.507812 -6.703125 10.34375 -5.796875 L 8.234375 -6.1875 C 8.273438 -6.707031 8.144531 -7.132812 7.84375 -7.46875 C 7.539062 -7.800781 7.046875 -8.035156 6.359375 -8.171875 C 5.804688 -8.265625 5.335938 -8.226562 4.953125 -8.0625 C 4.578125 -7.90625 4.351562 -7.632812 4.28125 -7.25 C 4.226562 -6.976562 4.257812 -6.738281 4.375 -6.53125 C 4.488281 -6.332031 4.703125 -6.160156 5.015625 -6.015625 L 7.71875 -4.78125 C 8.695312 -4.351562 9.335938 -3.867188 9.640625 -3.328125 C 9.941406 -2.785156 10.03125 -2.164062 9.90625 -1.46875 C 9.6875 -0.3125 9.125 0.476562 8.21875 0.90625 C 7.320312 1.34375 6.28125 1.453125 5.09375 1.234375 C 3.570312 0.953125 2.492188 0.414062 1.859375 -0.375 C 1.234375 -1.164062 1.019531 -2.085938 1.21875 -3.140625 Z M 3.34375 -2.75 "/></g></g></g><g fill="#1f4529" fill-opacity="1"><g transform="translate(178.562538, 286.397052)"><g><path d="M 9.875 -3.453125 C 9.832031 -2.128906 9.429688 -1.132812 8.671875 -0.46875 C 7.910156 0.1875 6.789062 0.492188 5.3125 0.453125 C 4.007812 0.410156 2.984375 0.046875 2.234375 -0.640625 C 1.484375 -1.328125 1.128906 -2.316406 1.171875 -3.609375 L 1.40625 -10.734375 L 3.703125 -10.65625 L 3.484375 -3.671875 C 3.460938 -2.960938 3.617188 -2.421875 3.953125 -2.046875 C 4.285156 -1.671875 4.773438 -1.472656 5.421875 -1.453125 C 6.078125 -1.429688 6.59375 -1.582031 6.96875 -1.90625 C 7.34375 -2.238281 7.546875 -2.75 7.578125 -3.4375 L 7.796875 -10.53125 L 10.09375 -10.453125 Z M 9.875 -3.453125 "/></g></g></g><g fill="#1f4529" fill-opacity="1"><g transform="translate(194.747929, 286.45645)"><g><path d="M 3.109375 -2.3125 L 8.421875 -2.921875 L 8.640625 -0.984375 L 1.09375 -0.125 L -0.125 -10.828125 L 2.109375 -11.078125 Z M 3.109375 -2.3125 "/></g></g></g><g fill="#1f4529" fill-opacity="1"><g transform="translate(208.897531, 284.485431)"><g><path d="M 5.546875 -1.421875 L 3.359375 -0.859375 L 1.15625 -9.4375 L -1.984375 -8.625 L -2.453125 -10.46875 L 6.03125 -12.65625 L 6.5 -10.8125 L 3.34375 -10 Z M 5.546875 -1.421875 "/></g></g></g><g fill="#1f4529" fill-opacity="1"><g transform="translate(222.718825, 280.503483)"><g><path d="M 3.125 -1.1875 L 1.015625 -0.390625 L -2.828125 -10.453125 L -0.71875 -11.25 Z M 3.125 -1.1875 "/></g></g></g><g fill="#1f4529" fill-opacity="1"><g transform="translate(231.73457, 276.928565)"><g><path d="M 1.828125 -13.15625 L 3.671875 -14.125 L 8.71875 -4.625 L 6.734375 -3.578125 L -0.75 -8.3125 L -0.78125 -8.296875 L 2.828125 -1.5 L 0.96875 -0.515625 L -4.078125 -10.015625 L -1.984375 -11.125 L 5.3125 -6.53125 L 5.34375 -6.546875 Z M 1.828125 -13.15625 "/></g></g></g><g fill="#1f4529" fill-opacity="1"><g transform="translate(246.059946, 268.854981)"><g><path d="M 1.421875 -8.390625 L 5 -11.09375 L 8.515625 -6.453125 L 7.328125 -5.546875 L 6.34375 -6.5 C 6.34375 -5.132812 5.765625 -4.015625 4.609375 -3.140625 C 3.460938 -2.273438 2.210938 -1.972656 0.859375 -2.234375 C -0.492188 -2.492188 -1.6875 -3.300781 -2.71875 -4.65625 C -3.75 -6.007812 -4.203125 -7.390625 -4.078125 -8.796875 C -3.953125 -10.210938 -3.242188 -11.410156 -1.953125 -12.390625 C -0.835938 -13.234375 0.257812 -13.625 1.34375 -13.5625 C 2.425781 -13.507812 3.316406 -13.109375 4.015625 -12.359375 L 2.21875 -11 C 1.78125 -11.34375 1.289062 -11.507812 0.75 -11.5 C 0.21875 -11.5 -0.273438 -11.328125 -0.734375 -10.984375 C -1.503906 -10.398438 -1.894531 -9.664062 -1.90625 -8.78125 C -1.925781 -7.894531 -1.578125 -6.976562 -0.859375 -6.03125 C -0.140625 -5.082031 0.617188 -4.515625 1.421875 -4.328125 C 2.234375 -4.140625 3.050781 -4.351562 3.875 -4.96875 C 4.332031 -5.320312 4.640625 -5.789062 4.796875 -6.375 C 4.960938 -6.96875 4.875 -7.648438 4.53125 -8.421875 L 2.53125 -6.921875 Z M 1.421875 -8.390625 "/></g></g></g></svg>