<svg xmlns="http://www.w3.org/2000/svg" xmlns:xlink="http://www.w3.org/1999/xlink" width="500" zoomAndPan="magnify" viewBox="0 0 375 374.999991" height="500" preserveAspectRatio="xMidYMid meet" version="1.0"><defs><g/><clipPath id="a0a035972f"><path d="M 127.101562 134.070312 L 247.851562 134.070312 L 247.851562 239.820312 L 127.101562 239.820312 Z M 127.101562 134.070312 " clip-rule="nonzero"/></clipPath><clipPath id="394d3eb2e0"><path d="M 86.203125 151.796875 L 117.703125 151.796875 L 117.703125 222.296875 L 86.203125 222.296875 Z M 86.203125 151.796875 " clip-rule="nonzero"/></clipPath><clipPath id="713552af2c"><path d="M 257.4375 151.796875 L 288.785156 151.796875 L 288.785156 222.296875 L 257.4375 222.296875 Z M 257.4375 151.796875 " clip-rule="nonzero"/></clipPath></defs><rect x="-37.5" width="450" fill="#ffffff" y="-37.499999" height="449.999989" fill-opacity="1"/><rect x="-37.5" width="450" fill="#ffffff" y="-37.499999" height="449.999989" fill-opacity="1"/><g fill="#000000" fill-opacity="1"><g transform="translate(107.726781, 139.303751)"><g><path d="M 0.046875 -9.453125 L 3.484375 -13.09375 L 8.1875 -8.65625 L 7.03125 -7.4375 L 5.765625 -8.28125 C 6.023438 -6.78125 5.601562 -5.445312 4.5 -4.28125 C 3.394531 -3.125 2.070312 -2.566406 0.53125 -2.609375 C -1 -2.648438 -2.457031 -3.320312 -3.84375 -4.625 C -5.21875 -5.9375 -5.96875 -7.367188 -6.09375 -8.921875 C -6.226562 -10.484375 -5.671875 -11.925781 -4.421875 -13.25 C -3.359375 -14.375 -2.222656 -15.003906 -1.015625 -15.140625 C 0.191406 -15.273438 1.242188 -14.988281 2.140625 -14.28125 L 0.4375 -12.46875 C -0.101562 -12.78125 -0.671875 -12.878906 -1.265625 -12.765625 C -1.859375 -12.660156 -2.375 -12.378906 -2.8125 -11.921875 C -3.550781 -11.140625 -3.851562 -10.265625 -3.71875 -9.296875 C -3.582031 -8.328125 -3.03125 -7.382812 -2.0625 -6.46875 C -1.101562 -5.5625 -0.160156 -5.070312 0.765625 -5 C 1.703125 -4.9375 2.5625 -5.320312 3.34375 -6.15625 C 3.789062 -6.625 4.046875 -7.195312 4.109375 -7.875 C 4.179688 -8.5625 3.957031 -9.296875 3.4375 -10.078125 L 1.53125 -8.0625 Z M 0.046875 -9.453125 "/></g></g></g><g fill="#000000" fill-opacity="1"><g transform="translate(119.925254, 127.165743)"><g><path d="M 2.890625 -2.359375 L 0.9375 -0.765625 L -6.65625 -10.03125 L -4.703125 -11.625 Z M 2.890625 -2.359375 "/></g></g></g><g fill="#000000" fill-opacity="1"><g transform="translate(127.050101, 121.394052)"><g><path d="M 1.234375 -6.171875 L 3.8125 -7.8125 L 0.015625 -11.015625 L 0 -11 Z M 2.40625 -1.515625 L 0.171875 -0.109375 L -2.625 -12.53125 L -0.171875 -14.078125 L 9.796875 -6.203125 L 7.5 -4.75 L 5.515625 -6.421875 L 1.78125 -4.046875 Z M 2.40625 -1.515625 "/></g></g></g><g fill="#000000" fill-opacity="1"><g transform="translate(140.551417, 113.187287)"><g><path d="M 3.15625 -14.4375 L 5.3125 -15.375 L 10.09375 -4.390625 L 7.78125 -3.390625 L -0.125 -9.296875 L -0.15625 -9.28125 L 3.265625 -1.421875 L 1.125 -0.484375 L -3.65625 -11.46875 L -1.234375 -12.53125 L 6.453125 -6.78125 L 6.484375 -6.796875 Z M 3.15625 -14.4375 "/></g></g></g><g fill="#000000" fill-opacity="1"><g transform="translate(155.601574, 107.045299)"><g><path d="M 6.15625 -1.65625 L 3.734375 -1 L 1.171875 -10.53125 L -2.328125 -9.59375 L -2.875 -11.640625 L 6.546875 -14.171875 L 7.09375 -12.125 L 3.59375 -11.1875 Z M 6.15625 -1.65625 "/></g></g></g><g fill="#000000" fill-opacity="1"><g transform="translate(169.707183, 103.66515)"><g/></g></g><g fill="#000000" fill-opacity="1"><g transform="translate(178.350982, 102.406098)"><g><path d="M 2.96875 -3.796875 C 2.988281 -3.210938 3.222656 -2.75 3.671875 -2.40625 C 4.117188 -2.070312 4.753906 -1.914062 5.578125 -1.9375 C 6.390625 -1.96875 7.003906 -2.125 7.421875 -2.40625 C 7.835938 -2.6875 8.039062 -3.082031 8.03125 -3.59375 C 8.019531 -3.894531 7.898438 -4.148438 7.671875 -4.359375 C 7.441406 -4.578125 6.910156 -4.773438 6.078125 -4.953125 L 4.03125 -5.34375 C 2.726562 -5.601562 1.832031 -5.988281 1.34375 -6.5 C 0.863281 -7.007812 0.609375 -7.726562 0.578125 -8.65625 C 0.546875 -9.738281 0.898438 -10.632812 1.640625 -11.34375 C 2.390625 -12.0625 3.53125 -12.445312 5.0625 -12.5 C 6.59375 -12.550781 7.765625 -12.203125 8.578125 -11.453125 C 9.398438 -10.703125 9.832031 -9.8125 9.875 -8.78125 L 7.46875 -8.703125 C 7.394531 -9.285156 7.148438 -9.722656 6.734375 -10.015625 C 6.328125 -10.304688 5.734375 -10.4375 4.953125 -10.40625 C 4.328125 -10.382812 3.828125 -10.238281 3.453125 -9.96875 C 3.078125 -9.695312 2.898438 -9.34375 2.921875 -8.90625 C 2.929688 -8.601562 3.019531 -8.351562 3.1875 -8.15625 C 3.363281 -7.957031 3.644531 -7.816406 4.03125 -7.734375 L 7.25 -7.0625 C 8.414062 -6.820312 9.226562 -6.441406 9.6875 -5.921875 C 10.15625 -5.410156 10.398438 -4.757812 10.421875 -3.96875 C 10.460938 -2.65625 10.039062 -1.65625 9.15625 -0.96875 C 8.28125 -0.289062 7.175781 0.0664062 5.84375 0.109375 C 4.113281 0.171875 2.8125 -0.144531 1.9375 -0.84375 C 1.0625 -1.550781 0.601562 -2.503906 0.5625 -3.703125 Z M 2.96875 -3.796875 "/></g></g></g><g fill="#000000" fill-opacity="1"><g transform="translate(193.595565, 102.191286)"><g><path d="M 6.734375 -5.671875 C 7.359375 -5.597656 7.835938 -5.691406 8.171875 -5.953125 C 8.515625 -6.210938 8.722656 -6.65625 8.796875 -7.28125 C 8.867188 -7.894531 8.742188 -8.347656 8.421875 -8.640625 C 8.109375 -8.941406 7.613281 -9.128906 6.9375 -9.203125 L 4.8125 -9.4375 L 4.421875 -5.921875 Z M 3.703125 0.421875 L 1.21875 0.140625 L 2.5625 -11.765625 L 8 -11.15625 C 9.132812 -11.03125 9.992188 -10.585938 10.578125 -9.828125 C 11.171875 -9.078125 11.398438 -8.109375 11.265625 -6.921875 C 11.148438 -5.898438 10.722656 -5.046875 9.984375 -4.359375 C 9.253906 -3.679688 8.269531 -3.414062 7.03125 -3.5625 L 4.1875 -3.875 Z M 3.703125 0.421875 "/></g></g></g><g fill="#000000" fill-opacity="1"><g transform="translate(208.533835, 104.14874)"><g><path d="M 8.125 -4.78125 C 8.75 -4.601562 9.25 -4.59375 9.625 -4.75 C 10.007812 -4.914062 10.273438 -5.285156 10.421875 -5.859375 C 10.546875 -6.316406 10.5 -6.71875 10.28125 -7.0625 C 10.070312 -7.414062 9.6875 -7.664062 9.125 -7.8125 L 6.109375 -8.625 L 5.28125 -5.53125 Z M 4.265625 -11.265625 L 10.125 -9.6875 C 11.320312 -9.375 12.144531 -8.8125 12.59375 -8 C 13.050781 -7.195312 13.160156 -6.347656 12.921875 -5.453125 C 12.554688 -4.109375 11.707031 -3.347656 10.375 -3.171875 C 10.875 -2.804688 11.175781 -2.394531 11.28125 -1.9375 C 11.382812 -1.488281 11.300781 -0.742188 11.03125 0.296875 C 10.75 1.316406 10.625 1.925781 10.65625 2.125 C 10.6875 2.332031 10.78125 2.492188 10.9375 2.609375 L 10.859375 2.90625 L 8.1875 2.203125 C 8.15625 1.628906 8.273438 0.851562 8.546875 -0.125 C 8.765625 -0.945312 8.847656 -1.492188 8.796875 -1.765625 C 8.753906 -2.035156 8.625 -2.257812 8.40625 -2.4375 C 8.1875 -2.613281 7.804688 -2.769531 7.265625 -2.90625 L 4.765625 -3.578125 L 3.546875 0.953125 L 1.171875 0.3125 Z M 4.265625 -11.265625 "/></g></g></g><g fill="#000000" fill-opacity="1"><g transform="translate(223.922962, 108.754936)"><g><path d="M 3.46875 1.390625 L 1.125 0.453125 L 5.609375 -10.65625 L 7.953125 -9.71875 Z M 3.46875 1.390625 "/></g></g></g><g fill="#000000" fill-opacity="1"><g transform="translate(232.402736, 112.214756)"><g><path d="M 13.375 -6.28125 L 15.421875 -5.140625 L 9.609375 5.34375 L 7.421875 4.125 L 7.296875 -5.734375 L 7.265625 -5.75 L 3.109375 1.734375 L 1.0625 0.59375 L 6.875 -9.890625 L 9.1875 -8.609375 L 9.3125 1 L 9.328125 1.015625 Z M 13.375 -6.28125 "/></g></g></g><g fill="#000000" fill-opacity="1"><g transform="translate(246.408731, 120.31877)"><g><path d="M 9.421875 -0.8125 L 13.359375 2.28125 L 9.359375 7.359375 L 8.046875 6.328125 L 8.765625 5 C 7.304688 5.382812 5.945312 5.082031 4.6875 4.09375 C 3.425781 3.09375 2.742188 1.828125 2.640625 0.296875 C 2.546875 -1.222656 3.085938 -2.734375 4.265625 -4.234375 C 5.441406 -5.722656 6.800781 -6.601562 8.34375 -6.875 C 9.882812 -7.144531 11.367188 -6.71875 12.796875 -5.59375 C 14.015625 -4.632812 14.742188 -3.5625 14.984375 -2.375 C 15.234375 -1.1875 15.046875 -0.113281 14.421875 0.84375 L 12.46875 -0.703125 C 12.726562 -1.265625 12.773438 -1.835938 12.609375 -2.421875 C 12.453125 -3.003906 12.125 -3.488281 11.625 -3.875 C 10.78125 -4.539062 9.878906 -4.757812 8.921875 -4.53125 C 7.960938 -4.3125 7.070312 -3.679688 6.25 -2.640625 C 5.4375 -1.597656 5.039062 -0.613281 5.0625 0.3125 C 5.082031 1.25 5.539062 2.070312 6.4375 2.78125 C 6.945312 3.1875 7.539062 3.390625 8.21875 3.390625 C 8.90625 3.390625 9.617188 3.097656 10.359375 2.515625 L 8.171875 0.78125 Z M 9.421875 -0.8125 "/></g></g></g><g fill="#000000" fill-opacity="1"><g transform="translate(259.553358, 131.155168)"><g><path d="M 4.8125 -0.25 C 4.382812 0.15625 4.1875 0.640625 4.21875 1.203125 C 4.257812 1.765625 4.5625 2.347656 5.125 2.953125 C 5.675781 3.546875 6.191406 3.90625 6.671875 4.03125 C 7.148438 4.164062 7.578125 4.0625 7.953125 3.71875 C 8.179688 3.507812 8.300781 3.25 8.3125 2.9375 C 8.332031 2.625 8.128906 2.09375 7.703125 1.34375 L 6.671875 -0.46875 C 6.015625 -1.613281 5.71875 -2.535156 5.78125 -3.234375 C 5.851562 -3.929688 6.234375 -4.597656 6.921875 -5.234375 C 7.710938 -5.960938 8.617188 -6.28125 9.640625 -6.1875 C 10.671875 -6.09375 11.707031 -5.484375 12.75 -4.359375 C 13.789062 -3.234375 14.296875 -2.117188 14.265625 -1.015625 C 14.234375 0.0859375 13.84375 0.992188 13.09375 1.703125 L 11.453125 -0.0625 C 11.847656 -0.5 12.019531 -0.96875 11.96875 -1.46875 C 11.925781 -1.976562 11.640625 -2.519531 11.109375 -3.09375 C 10.679688 -3.550781 10.238281 -3.828125 9.78125 -3.921875 C 9.332031 -4.023438 8.953125 -3.925781 8.640625 -3.625 C 8.410156 -3.414062 8.28125 -3.179688 8.25 -2.921875 C 8.21875 -2.671875 8.289062 -2.375 8.46875 -2.03125 L 10.09375 0.84375 C 10.664062 1.882812 10.90625 2.75 10.8125 3.4375 C 10.726562 4.125 10.394531 4.738281 9.8125 5.28125 C 8.851562 6.175781 7.828125 6.507812 6.734375 6.28125 C 5.640625 6.0625 4.640625 5.460938 3.734375 4.484375 C 2.554688 3.222656 1.945312 2.03125 1.90625 0.90625 C 1.875 -0.21875 2.296875 -1.191406 3.171875 -2.015625 Z M 4.8125 -0.25 "/></g></g></g><g clip-path="url(#a0a035972f)"><path fill="#000000" d="M 132.757812 186.953125 L 160.109375 214.316406 L 157.277344 217.152344 L 127.101562 186.953125 L 157.289062 156.753906 L 160.121094 159.585938 Z M 196.914062 134.097656 L 200.683594 135.046875 L 178.039062 239.792969 L 174.265625 238.84375 Z M 217.664062 156.753906 L 247.851562 186.953125 L 217.664062 217.152344 L 214.828125 214.316406 L 242.183594 186.953125 L 214.828125 159.585938 Z M 217.664062 156.753906 " fill-opacity="1" fill-rule="nonzero"/></g><g clip-path="url(#394d3eb2e0)"><path fill="#000000" d="M 106.726562 168.695312 C 106.695312 168.667969 106.675781 168.632812 106.667969 168.585938 C 106.652344 168.441406 106.644531 168.296875 106.636719 168.152344 C 106.292969 166.539062 105.667969 164.988281 105.359375 163.367188 C 104.867188 160.773438 105.09375 157.863281 105.890625 155.355469 C 106.152344 154.515625 106.386719 153.671875 106.71875 152.851562 C 106.769531 152.71875 106.832031 152.480469 106.910156 152.273438 C 106.972656 152.101562 107.054688 151.957031 107.140625 151.875 C 107.199219 151.824219 107.25 151.832031 107.285156 151.832031 C 107.335938 151.839844 107.375 151.863281 107.40625 151.914062 C 107.417969 151.933594 107.429688 151.964844 107.429688 152.007812 C 107.429688 152.035156 107.425781 152.078125 107.425781 152.101562 C 107.417969 152.257812 107.414062 152.417969 107.40625 152.574219 C 107.386719 152.957031 107.394531 153.347656 107.425781 153.730469 C 107.527344 154.839844 107.632812 155.992188 107.898438 157.078125 C 108.449219 159.382812 108.433594 161.851562 107.902344 164.164062 C 107.65625 165.226562 107.21875 166.1875 107.039062 167.21875 L 107.039062 167.222656 C 107.210938 168.429688 107.324219 169.648438 107.355469 170.875 C 107.378906 172.023438 107.332031 173.171875 107.167969 174.316406 C 107.109375 174.730469 107.035156 175.140625 106.945312 175.546875 C 107.28125 174.964844 107.632812 174.398438 107.996094 173.859375 C 108.476562 173.15625 108.941406 172.386719 109.546875 171.777344 C 110.535156 170.78125 111.675781 170.0625 112.8125 169.273438 C 113.296875 168.9375 113.839844 168.6875 114.335938 168.375 C 114.882812 168.027344 115.40625 167.625 115.960938 167.28125 C 116.300781 167.066406 116.628906 166.839844 116.960938 166.621094 C 117.0625 166.550781 117.15625 166.488281 117.25 166.414062 C 117.289062 166.382812 117.339844 166.308594 117.378906 166.273438 C 117.414062 166.242188 117.453125 166.226562 117.476562 166.21875 C 117.535156 166.207031 117.578125 166.21875 117.617188 166.25 C 117.648438 166.273438 117.6875 166.3125 117.691406 166.386719 C 117.703125 166.507812 117.652344 166.652344 117.574219 166.804688 C 117.476562 166.972656 117.339844 167.15625 117.269531 167.269531 C 116.878906 167.953125 116.535156 168.664062 116.113281 169.328125 C 114.972656 171.117188 113.65625 172.785156 111.792969 173.882812 C 110.679688 174.542969 109.507812 174.933594 108.488281 175.503906 C 107.570312 176.019531 106.777344 176.683594 106.277344 177.847656 C 105.675781 179.492188 104.855469 180.96875 103.925781 182.472656 C 102.25 185.167969 100.191406 187.9375 98.347656 191.964844 C 97.699219 193.378906 97.183594 194.816406 96.792969 196.265625 C 96.816406 196.222656 96.84375 196.179688 96.867188 196.136719 C 97.640625 194.839844 98.921875 193.125 100.171875 192.265625 C 101.660156 191.253906 103.949219 190.488281 105.59375 189.652344 C 106.261719 189.3125 106.839844 188.886719 107.417969 188.421875 C 107.542969 188.320312 107.707031 188.144531 107.878906 188 C 108.011719 187.886719 108.148438 187.796875 108.273438 187.761719 C 108.355469 187.734375 108.40625 187.761719 108.4375 187.78125 C 108.488281 187.8125 108.519531 187.859375 108.515625 187.941406 C 108.515625 187.96875 108.5 188.003906 108.476562 188.042969 C 108.445312 188.085938 108.375 188.164062 108.351562 188.207031 C 108.269531 188.332031 108.1875 188.453125 108.109375 188.578125 C 107.878906 188.949219 107.695312 189.351562 107.488281 189.734375 C 107.40625 189.882812 107.316406 190.035156 107.234375 190.179688 C 107.253906 190.210938 107.253906 190.253906 107.222656 190.28125 C 107.171875 190.332031 107.128906 190.378906 107.078125 190.429688 C 106.726562 190.988281 106.347656 191.511719 105.925781 192.019531 C 105.945312 192.050781 105.945312 192.09375 105.914062 192.121094 C 105.699219 192.351562 105.480469 192.578125 105.246094 192.785156 C 105.171875 192.867188 105.089844 192.957031 105.007812 193.039062 C 103.476562 194.644531 101.664062 195.527344 99.699219 196.488281 C 99.019531 196.820312 98.289062 197.113281 97.648438 197.515625 C 97.03125 197.90625 96.503906 198.390625 96.199219 199.113281 C 96.175781 199.175781 96.152344 199.246094 96.132812 199.308594 C 95.589844 202.820312 95.683594 206.414062 96.246094 210.023438 C 96.460938 207.089844 98.308594 203.917969 100.085938 201.820312 C 100.121094 201.777344 100.160156 201.734375 100.199219 201.6875 C 100.910156 200.847656 101.714844 200.148438 102.617188 199.515625 C 102.671875 199.472656 102.761719 199.382812 102.855469 199.3125 C 102.9375 199.25 103.019531 199.195312 103.09375 199.175781 C 103.164062 199.15625 103.226562 199.15625 103.28125 199.183594 C 103.339844 199.207031 103.394531 199.25 103.433594 199.332031 C 103.878906 200.363281 103.636719 201.882812 103.042969 203.441406 C 102.175781 205.742188 100.570312 208.121094 99.480469 209.09375 C 98.976562 209.546875 98.257812 209.878906 97.640625 210.289062 C 97.140625 210.621094 96.703125 211.003906 96.539062 211.570312 C 97.289062 214.730469 99.210938 219.625 101.097656 221.652344 C 101.191406 221.753906 101.1875 221.910156 101.085938 222.003906 C 101.003906 222.082031 100.890625 222.09375 100.796875 222.042969 C 100.785156 222.054688 100.765625 222.054688 100.753906 222.0625 C 100.769531 222.082031 100.785156 222.097656 100.800781 222.117188 C 100.835938 222.15625 100.828125 222.207031 100.796875 222.238281 C 100.757812 222.269531 100.707031 222.261719 100.675781 222.230469 C 100.460938 221.992188 100.28125 221.734375 100.097656 221.472656 C 100.078125 221.445312 100.078125 221.410156 100.097656 221.382812 C 99.964844 221.207031 99.832031 221.023438 99.71875 220.84375 C 99.695312 220.804688 99.707031 220.75 99.746094 220.730469 C 99.75 220.730469 99.75 220.722656 99.757812 220.722656 C 99.039062 219.617188 98.339844 218.210938 97.738281 216.753906 C 97.699219 216.734375 97.667969 216.695312 97.65625 216.652344 C 97.585938 216.425781 97.515625 216.207031 97.433594 215.992188 C 97.410156 215.9375 97.390625 215.875 97.367188 215.816406 C 97.238281 215.503906 97.101562 215.195312 96.945312 214.894531 C 96.679688 214.742188 96.378906 214.660156 96.074219 214.597656 C 95.734375 214.53125 95.394531 214.472656 95.074219 214.367188 C 92.539062 213.519531 90.578125 212.5 88.855469 210.382812 C 88.660156 210.136719 87.613281 208.636719 87.367188 207.925781 C 87.3125 207.769531 87.292969 207.636719 87.3125 207.554688 C 87.324219 207.480469 87.363281 207.429688 87.414062 207.394531 C 87.496094 207.328125 87.613281 207.296875 87.773438 207.296875 C 87.949219 207.296875 88.179688 207.347656 88.445312 207.425781 C 89.402344 207.714844 90.75 208.429688 91.046875 208.605469 C 93.191406 209.894531 95.230469 211.5625 96.617188 213.65625 L 96.609375 213.644531 C 96.464844 213.183594 96.328125 212.71875 96.207031 212.25 C 96.105469 211.867188 96.011719 211.476562 95.929688 211.085938 C 95.90625 210.960938 95.878906 210.835938 95.855469 210.703125 C 95.84375 210.640625 95.835938 210.578125 95.824219 210.507812 C 95.8125 210.433594 95.796875 210.359375 95.785156 210.28125 C 95.746094 210.042969 95.710938 209.804688 95.679688 209.574219 C 95.601562 209.027344 95.535156 208.472656 95.476562 207.921875 C 95.453125 207.648438 95.425781 207.378906 95.402344 207.117188 C 95.382812 207.039062 95.363281 206.964844 95.34375 206.882812 C 95.332031 206.882812 95.324219 206.878906 95.3125 206.871094 C 90.980469 204.875 87.519531 201.21875 86.714844 196.417969 C 86.671875 196.140625 86.316406 194.351562 86.230469 193.503906 C 86.203125 193.25 86.210938 193.074219 86.234375 193.007812 C 86.265625 192.917969 86.324219 192.878906 86.386719 192.867188 C 86.4375 192.855469 86.492188 192.855469 86.558594 192.894531 C 86.601562 192.917969 86.65625 192.960938 86.714844 193.019531 C 86.769531 193.074219 86.828125 193.144531 86.871094 193.175781 C 87.167969 193.394531 87.445312 193.628906 87.757812 193.808594 C 88.753906 194.386719 89.558594 194.980469 90.347656 195.820312 C 93.21875 198.898438 95.300781 205.433594 95.300781 205.433594 C 95.164062 201.652344 95.609375 197.917969 96.847656 194.308594 C 96.847656 194.300781 96.847656 194.300781 96.847656 194.292969 C 96.855469 193.167969 96.425781 192.078125 95.859375 191.027344 C 95.28125 189.960938 94.5625 188.933594 93.996094 187.992188 C 93.003906 186.335938 92.367188 184.511719 92.160156 182.589844 C 92.046875 181.523438 92.070312 180.46875 92.171875 179.394531 C 92.203125 179.074219 92.242188 178.757812 92.277344 178.4375 C 92.292969 178.304688 92.3125 178.175781 92.328125 178.042969 C 92.328125 178.035156 92.324219 177.941406 92.324219 177.902344 C 92.328125 177.855469 92.34375 177.820312 92.359375 177.796875 C 92.386719 177.757812 92.425781 177.734375 92.460938 177.726562 C 92.5 177.714844 92.550781 177.714844 92.605469 177.746094 C 92.675781 177.789062 92.746094 177.878906 92.800781 177.996094 C 92.882812 178.1875 92.941406 178.46875 92.996094 178.589844 C 93.25 179.136719 93.570312 179.699219 93.914062 180.195312 C 94.5625 181.113281 95.207031 181.898438 95.617188 182.960938 C 96.546875 185.398438 96.433594 187.875 96.660156 190.425781 C 96.75 191.429688 97.007812 192.398438 97.1875 193.390625 C 97.402344 192.824219 97.640625 192.265625 97.894531 191.707031 C 99.230469 188.789062 100.675781 186.53125 102.011719 184.480469 C 102.011719 184.460938 102.011719 184.4375 102.015625 184.417969 C 102.382812 183.054688 102.167969 181.761719 101.742188 180.5 C 101.304688 179.210938 100.652344 177.960938 100.148438 176.722656 C 99.4375 174.96875 99.328125 172.714844 99.765625 170.894531 C 99.894531 170.339844 100.152344 169.257812 100.46875 168.761719 C 100.480469 168.71875 100.488281 168.679688 100.5 168.636719 C 100.511719 168.59375 100.558594 168.566406 100.601562 168.574219 C 100.644531 168.585938 100.671875 168.632812 100.664062 168.675781 C 100.703125 168.679688 100.734375 168.707031 100.765625 168.746094 C 100.777344 168.761719 100.796875 168.792969 100.800781 168.84375 C 100.808594 168.890625 100.800781 168.976562 100.816406 169.019531 C 100.839844 169.152344 100.882812 169.277344 100.914062 169.402344 C 101.015625 169.78125 101.160156 170.125 101.3125 170.484375 C 101.765625 171.566406 102.453125 172.511719 102.703125 173.675781 C 103.15625 175.800781 102.617188 177.816406 102.464844 179.925781 C 102.375 181.15625 102.621094 182.371094 102.585938 183.59375 C 102.898438 183.113281 103.207031 182.632812 103.496094 182.164062 C 105.988281 178.15625 107.640625 174.324219 106.460938 166.753906 Z M 96.464844 214.242188 C 96.464844 214.242188 96.460938 214.246094 96.460938 214.246094 C 96.472656 214.253906 96.476562 214.253906 96.492188 214.257812 Z M 88.746094 209.640625 C 88.929688 209.90625 89.082031 210.113281 89.136719 210.195312 C 90.820312 212.253906 92.730469 213.242188 95.199219 214.070312 C 95.292969 214.101562 95.394531 214.128906 95.496094 214.152344 C 95.34375 214.089844 95.195312 214.019531 95.050781 213.953125 C 94.53125 213.71875 94.015625 213.5 93.519531 213.222656 C 92.089844 212.429688 90.605469 211.527344 89.414062 210.394531 C 89.167969 210.164062 88.960938 209.894531 88.746094 209.640625 Z M 88.332031 208.617188 C 88.703125 209.039062 89.117188 209.429688 89.539062 209.792969 C 90.523438 210.648438 91.585938 211.371094 92.667969 212.097656 C 93.707031 212.796875 94.824219 213.582031 96.003906 214.070312 C 95.679688 213.894531 95.363281 213.667969 95.050781 213.488281 C 94.515625 213.171875 93.972656 212.878906 93.457031 212.527344 C 92.789062 212.066406 92.160156 211.53125 91.523438 211.035156 C 90.761719 210.445312 90.011719 209.832031 89.238281 209.253906 C 88.941406 209.046875 88.617188 208.851562 88.332031 208.617188 Z M 96.3125 213.8125 C 94.953125 211.789062 92.972656 210.175781 90.882812 208.917969 C 90.597656 208.75 89.289062 208.050781 88.355469 207.769531 C 88.136719 207.699219 87.9375 207.65625 87.785156 207.65625 C 87.773438 207.65625 87.757812 207.65625 87.746094 207.65625 C 87.929688 207.707031 88.097656 207.800781 88.28125 207.863281 C 88.484375 207.933594 88.703125 207.972656 88.90625 208.050781 C 89.460938 208.285156 89.960938 208.667969 90.472656 208.980469 C 90.863281 209.226562 91.273438 209.441406 91.644531 209.703125 C 92.273438 210.152344 92.84375 210.671875 93.429688 211.175781 C 94.078125 211.734375 94.742188 212.28125 95.375 212.863281 C 95.703125 213.171875 96 213.5 96.3125 213.8125 Z M 87.789062 207.84375 C 87.824219 207.882812 87.859375 207.921875 87.890625 207.953125 C 88.199219 208.140625 88.535156 208.292969 88.84375 208.480469 C 89.152344 208.667969 89.433594 208.894531 89.734375 209.09375 C 90.0625 209.316406 90.410156 209.511719 90.730469 209.734375 C 91.4375 210.238281 92.097656 210.816406 92.78125 211.34375 C 93.816406 212.136719 94.871094 212.910156 95.9375 213.664062 C 95.714844 213.4375 95.496094 213.203125 95.261719 212.992188 C 94.632812 212.414062 93.972656 211.867188 93.324219 211.304688 C 92.746094 210.808594 92.179688 210.289062 91.550781 209.847656 C 91.175781 209.585938 90.769531 209.371094 90.382812 209.132812 C 89.886719 208.820312 89.390625 208.441406 88.84375 208.214844 C 88.648438 208.132812 88.433594 208.097656 88.230469 208.027344 C 88.082031 207.976562 87.9375 207.902344 87.789062 207.84375 Z M 88.3125 208.378906 C 88.621094 208.65625 89.003906 208.875 89.339844 209.121094 C 90.113281 209.699219 90.863281 210.3125 91.625 210.90625 C 92.261719 211.402344 92.882812 211.933594 93.550781 212.386719 C 94.0625 212.734375 94.59375 213.027344 95.128906 213.335938 C 95.292969 213.429688 95.453125 213.535156 95.617188 213.636719 C 94.621094 212.933594 93.640625 212.210938 92.675781 211.476562 C 91.988281 210.953125 91.335938 210.382812 90.625 209.878906 C 90.300781 209.65625 89.960938 209.460938 89.636719 209.238281 C 89.339844 209.039062 89.054688 208.8125 88.746094 208.628906 C 88.609375 208.542969 88.457031 208.460938 88.3125 208.378906 Z M 88.339844 208.882812 C 88.488281 209.078125 88.648438 209.269531 88.8125 209.453125 C 89.050781 209.730469 89.269531 210.023438 89.535156 210.277344 C 90.710938 211.394531 92.183594 212.292969 93.601562 213.078125 C 93.949219 213.265625 94.300781 213.429688 94.652344 213.59375 C 93.929688 213.171875 93.230469 212.695312 92.570312 212.25 C 91.484375 211.519531 90.414062 210.785156 89.425781 209.929688 C 89.050781 209.597656 88.679688 209.253906 88.339844 208.882812 Z M 102.875 199.949219 C 102.355469 200.644531 101.953125 201.476562 101.46875 202.164062 C 99.644531 204.78125 98.007812 207.5625 96.835938 210.535156 C 98.289062 208.335938 99.5625 205.972656 100.898438 203.707031 C 101.632812 202.453125 102.457031 201.324219 102.875 199.949219 Z M 100.65625 201.726562 C 100.601562 201.789062 100.539062 201.859375 100.480469 201.925781 C 100.445312 201.972656 100.40625 202.015625 100.367188 202.058594 C 98.566406 204.183594 96.679688 207.4375 96.589844 210.390625 C 96.863281 209.359375 97.308594 208.386719 97.691406 207.386719 C 98.441406 205.46875 99.347656 203.417969 100.65625 201.726562 Z M 103.164062 199.582031 C 103.152344 199.597656 103.144531 199.601562 103.132812 199.617188 C 102.761719 201.179688 101.847656 202.410156 101.035156 203.785156 C 99.839844 205.816406 98.699219 207.921875 97.429688 209.910156 C 99.261719 207.648438 101.097656 205.230469 102.179688 202.542969 C 102.585938 201.574219 103.023438 200.625 103.164062 199.582031 Z M 102.671875 199.9375 C 100.285156 201.75 98.902344 204.734375 97.855469 207.449219 C 97.542969 208.265625 97.183594 209.0625 96.914062 209.894531 C 98.070312 207.121094 99.617188 204.523438 101.332031 202.066406 C 101.796875 201.398438 102.1875 200.613281 102.671875 199.9375 Z M 103.339844 201.054688 C 103.207031 201.652344 102.960938 202.253906 102.785156 202.761719 C 102.261719 204.320312 100.53125 207.121094 99.367188 208.355469 C 98.9375 208.800781 98.503906 209.226562 98.082031 209.667969 C 98.515625 209.414062 98.953125 209.171875 99.285156 208.867188 C 100.34375 207.914062 101.910156 205.582031 102.761719 203.339844 C 103.054688 202.542969 103.269531 201.757812 103.339844 201.054688 Z M 103.25 200.0625 C 103.0625 200.941406 102.683594 201.769531 102.34375 202.613281 C 101.320312 205.148438 99.632812 207.457031 97.902344 209.605469 C 98.339844 209.144531 98.792969 208.707031 99.234375 208.242188 C 100.386719 207.027344 102.097656 204.257812 102.617188 202.710938 C 102.765625 202.265625 102.972656 201.757812 103.113281 201.234375 C 103.226562 200.839844 103.289062 200.4375 103.25 200.0625 Z M 95.125 206.417969 C 95.125 206.417969 95.125 206.425781 95.125 206.425781 L 95.144531 206.429688 Z M 87.238281 197.203125 C 87.324219 197.578125 87.433594 197.945312 87.558594 198.308594 C 88.609375 200.371094 90.71875 202.480469 92.132812 203.929688 C 93.027344 204.84375 93.726562 205.746094 94.902344 206.261719 C 92.644531 204.761719 91.183594 202.429688 89.515625 200.351562 C 88.671875 199.3125 87.808594 198.351562 87.238281 197.203125 Z M 86.800781 194.910156 C 86.921875 195.59375 87.046875 196.242188 87.074219 196.390625 L 87.074219 196.398438 C 87.601562 197.882812 88.648438 199.007812 89.648438 200.242188 C 91.175781 202.140625 92.523438 204.25 94.46875 205.742188 C 93.695312 204.957031 92.914062 204.15625 92.234375 203.304688 C 90.976562 201.71875 89.976562 199.941406 88.878906 198.238281 C 88.085938 197.007812 87.332031 196.097656 86.800781 194.910156 Z M 87.589844 194.125 C 88.957031 195.707031 89.847656 197.65625 90.882812 199.472656 C 92.128906 201.667969 93.550781 203.707031 95.050781 205.734375 C 95.03125 205.660156 95.003906 205.582031 94.980469 205.5 C 94.789062 205.3125 94.613281 205.082031 94.449219 204.824219 C 94.027344 204.15625 93.683594 203.347656 93.367188 202.855469 C 92.34375 201.265625 91.347656 199.691406 90.472656 198.011719 C 89.855469 196.820312 89.378906 195.652344 88.484375 194.683594 C 88.207031 194.496094 87.917969 194.3125 87.613281 194.136719 C 87.601562 194.132812 87.59375 194.132812 87.589844 194.125 Z M 86.871094 193.621094 C 89.082031 197.472656 91.09375 201.425781 94.0625 204.761719 C 94.320312 205.050781 94.546875 205.363281 94.785156 205.664062 C 93.332031 203.6875 91.953125 201.695312 90.730469 199.550781 C 89.578125 197.523438 88.601562 195.34375 86.949219 193.679688 C 86.921875 193.660156 86.898438 193.640625 86.871094 193.621094 Z M 87.953125 199.328125 C 89.082031 201.863281 91.03125 203.949219 93.398438 205.464844 C 92.921875 205.035156 92.492188 204.546875 92.007812 204.050781 C 90.800781 202.808594 89.085938 201.089844 87.953125 199.328125 Z M 86.582031 193.457031 C 86.59375 193.570312 86.605469 193.703125 86.625 193.855469 C 86.640625 193.929688 86.644531 194.003906 86.65625 194.082031 C 87.167969 195.671875 88.0625 196.675781 89.011719 198.152344 C 90.101562 199.847656 91.101562 201.621094 92.355469 203.203125 C 92.964844 203.96875 93.65625 204.683594 94.351562 205.394531 C 94.210938 205.21875 94.074219 205.042969 93.921875 204.875 C 90.800781 201.34375 88.722656 197.128906 86.355469 193.070312 Z M 89.039062 195.09375 C 89.6875 195.960938 90.105469 196.9375 90.625 197.945312 C 91.492188 199.621094 92.488281 201.191406 93.507812 202.773438 C 93.820312 203.265625 94.167969 204.074219 94.589844 204.742188 C 94.664062 204.859375 94.742188 204.972656 94.824219 205.082031 C 94.320312 203.945312 93.6875 202.871094 93.128906 201.765625 C 92.027344 199.558594 90.957031 197.371094 89.445312 195.429688 C 89.3125 195.3125 89.175781 195.199219 89.039062 195.09375 Z M 90.207031 196.179688 C 91.410156 197.90625 92.328125 199.785156 93.285156 201.675781 C 93.6875 202.46875 94.125 203.246094 94.527344 204.042969 C 93.5625 201.179688 92.203125 198.359375 90.207031 196.179688 Z M 107.152344 189.363281 C 106.058594 190.25 104.699219 190.761719 103.503906 191.492188 C 101.28125 192.835938 99.285156 194.539062 97.660156 196.570312 C 97.351562 196.957031 96.96875 197.328125 96.648438 197.730469 C 96.636719 197.753906 96.617188 197.773438 96.605469 197.800781 C 96.660156 197.738281 96.71875 197.679688 96.773438 197.617188 C 97.195312 197.160156 97.636719 196.726562 98.078125 196.285156 C 99.828125 194.550781 101.714844 193.070312 103.78125 191.71875 C 104.886719 190.988281 106.214844 190.34375 107.152344 189.363281 Z M 101.3125 191.988281 C 100.980469 192.164062 100.664062 192.351562 100.378906 192.542969 C 99.164062 193.378906 97.925781 195.042969 97.171875 196.304688 C 96.980469 196.617188 96.792969 196.945312 96.617188 197.289062 C 96.960938 196.738281 97.367188 196.214844 97.742188 195.703125 C 98.738281 194.363281 99.933594 193.023438 101.3125 191.988281 Z M 105.707031 191.789062 C 105.257812 192.191406 104.792969 192.574219 104.316406 192.929688 C 103.125 193.828125 101.757812 194.550781 100.488281 195.324219 C 99.695312 195.808594 98.925781 196.304688 98.183594 196.863281 C 98.59375 196.644531 99.003906 196.425781 99.398438 196.179688 C 100.355469 195.582031 101.269531 194.910156 102.242188 194.34375 C 102.90625 193.960938 103.628906 193.699219 104.296875 193.308594 C 104.464844 193.152344 104.628906 192.992188 104.792969 192.816406 C 105.113281 192.480469 105.421875 192.132812 105.707031 191.789062 Z M 106.769531 190.324219 C 106.617188 190.492188 106.460938 190.65625 106.296875 190.796875 C 105.8125 191.222656 105.257812 191.585938 104.742188 191.976562 C 103.214844 193.144531 101.621094 194.207031 100.015625 195.269531 C 99.386719 195.6875 98.792969 196.136719 98.222656 196.613281 C 98.925781 196.097656 99.644531 195.632812 100.394531 195.171875 C 101.664062 194.402344 103.019531 193.679688 104.207031 192.785156 C 104.949219 192.226562 105.664062 191.613281 106.335938 190.957031 C 106.488281 190.757812 106.632812 190.542969 106.769531 190.324219 Z M 107.089844 189.65625 C 106.160156 190.542969 104.917969 191.164062 103.875 191.851562 C 101.824219 193.195312 99.941406 194.664062 98.203125 196.398438 C 98.152344 196.449219 98.101562 196.5 98.050781 196.542969 C 98.648438 196.039062 99.265625 195.570312 99.925781 195.128906 C 101.527344 194.0625 103.117188 193.007812 104.648438 191.84375 C 105.160156 191.453125 105.710938 191.097656 106.191406 190.667969 C 106.503906 190.386719 106.8125 190.035156 107.089844 189.65625 Z M 103.523438 190.964844 C 103.144531 191.128906 102.761719 191.292969 102.390625 191.460938 C 100.605469 192.542969 99.097656 194.175781 97.894531 195.796875 C 97.8125 195.910156 97.730469 196.015625 97.640625 196.128906 C 97.691406 196.066406 97.738281 196.007812 97.789062 195.953125 C 99.355469 194.003906 101.367188 192.285156 103.523438 190.964844 Z M 103.710938 193.804688 C 103.246094 194.03125 102.773438 194.230469 102.324219 194.488281 C 101.515625 194.953125 100.746094 195.5 99.964844 196.007812 C 101.304688 195.351562 102.570312 194.707031 103.710938 193.804688 Z M 107.550781 188.773438 C 107.148438 189.09375 106.738281 189.394531 106.304688 189.65625 C 106.304688 189.65625 106.3125 189.664062 106.3125 189.664062 C 106.328125 189.707031 106.316406 189.757812 106.273438 189.777344 C 105.503906 190.167969 104.707031 190.457031 103.960938 190.894531 C 102.269531 191.886719 100.652344 193.144531 99.253906 194.5625 C 100.511719 193.332031 101.917969 192.253906 103.425781 191.339844 C 104.753906 190.539062 106.292969 189.992188 107.429688 188.898438 C 107.46875 188.859375 107.507812 188.816406 107.550781 188.773438 Z M 92.699219 178.777344 C 92.738281 179.078125 92.789062 179.378906 92.878906 179.667969 C 93.003906 180.078125 93.230469 180.441406 93.332031 180.855469 C 93.910156 183.28125 94.519531 185.726562 95.300781 188.09375 C 95.535156 188.808594 95.8125 189.507812 96.09375 190.203125 C 96.132812 190.296875 96.175781 190.398438 96.21875 190.492188 C 96.054688 190.015625 95.988281 189.507812 95.867188 189.023438 C 95.617188 188 95.34375 186.988281 95.09375 185.964844 C 94.675781 184.273438 94.261719 182.558594 93.675781 180.917969 C 93.449219 180.285156 93.109375 179.667969 92.832031 179.054688 C 92.78125 178.953125 92.746094 178.863281 92.699219 178.777344 Z M 93.683594 180.484375 C 93.734375 180.613281 93.785156 180.730469 93.828125 180.855469 C 94.414062 182.503906 94.828125 184.222656 95.25 185.921875 C 95.503906 186.945312 95.773438 187.957031 96.023438 188.980469 C 96.085938 189.222656 96.132812 189.480469 96.1875 189.734375 C 96.117188 189.230469 96.0625 188.726562 95.96875 188.230469 C 95.730469 186.980469 95.382812 185.75 95.128906 184.5 C 94.921875 183.464844 94.789062 182.226562 94.253906 181.277344 C 94.066406 181.011719 93.878906 180.757812 93.683594 180.484375 Z M 92.554688 182.910156 C 92.789062 184.667969 93.394531 186.335938 94.304688 187.859375 C 94.652344 188.4375 95.050781 189.035156 95.4375 189.65625 C 95.28125 189.304688 95.125 188.953125 94.960938 188.609375 C 94.425781 187.515625 93.910156 186.421875 93.429688 185.296875 C 93.089844 184.511719 92.78125 183.722656 92.554688 182.910156 Z M 92.570312 179.058594 L 92.554688 179.160156 C 92.550781 179.429688 92.554688 179.707031 92.582031 179.976562 C 92.644531 180.605469 92.84375 181.175781 92.996094 181.78125 C 93.199219 182.550781 93.363281 183.34375 93.605469 184.109375 C 93.816406 184.75 94.09375 185.359375 94.304688 186 C 94.652344 187.050781 95.042969 188.082031 95.46875 189.09375 C 95.351562 188.777344 95.242188 188.464844 95.136719 188.144531 C 94.355469 185.769531 93.746094 183.320312 93.160156 180.894531 C 93.058594 180.484375 92.832031 180.121094 92.714844 179.71875 C 92.644531 179.5 92.601562 179.273438 92.570312 179.046875 Z M 94.765625 182.039062 C 95.023438 182.828125 95.144531 183.695312 95.292969 184.460938 C 95.546875 185.710938 95.890625 186.945312 96.132812 188.195312 C 96.164062 188.351562 96.1875 188.507812 96.214844 188.671875 C 96.113281 186.792969 96.011719 184.953125 95.3125 183.128906 C 95.164062 182.734375 94.972656 182.375 94.765625 182.039062 Z M 92.460938 180.355469 C 92.441406 180.800781 92.4375 181.246094 92.449219 181.691406 C 92.652344 182.917969 93.085938 184.078125 93.582031 185.234375 C 93.980469 186.160156 94.394531 187.058594 94.828125 187.960938 C 94.582031 187.332031 94.355469 186.699219 94.140625 186.050781 C 93.929688 185.417969 93.652344 184.800781 93.445312 184.160156 C 93.199219 183.394531 93.027344 182.601562 92.832031 181.824219 C 92.707031 181.328125 92.550781 180.851562 92.460938 180.355469 Z M 99.878906 172.539062 C 99.78125 173.925781 99.976562 175.410156 100.476562 176.636719 C 100.859375 177.582031 101.332031 178.539062 101.726562 179.511719 C 101.691406 179.359375 101.644531 179.214844 101.59375 179.078125 C 100.882812 177.101562 100.046875 175 99.894531 172.882812 C 99.890625 172.769531 99.882812 172.652344 99.878906 172.539062 Z M 101.789062 172.210938 C 101.878906 172.777344 101.871094 173.363281 101.886719 173.945312 C 101.898438 174.726562 101.960938 175.515625 101.921875 176.296875 C 101.902344 176.730469 101.871094 177.175781 101.859375 177.613281 C 101.929688 178.128906 102 178.652344 102.074219 179.167969 C 102.074219 179.160156 102.074219 179.148438 102.074219 179.140625 C 102.066406 178.269531 102.199219 177.414062 102.257812 176.546875 C 102.34375 175.285156 102.332031 173.964844 102.035156 172.726562 C 101.953125 172.550781 101.871094 172.382812 101.789062 172.210938 Z M 102.390625 173.800781 C 102.496094 174.71875 102.484375 175.648438 102.421875 176.554688 C 102.363281 177.351562 102.25 178.140625 102.238281 178.941406 C 102.4375 177.226562 102.761719 175.546875 102.390625 173.800781 Z M 100.234375 170.472656 C 100.191406 170.640625 100.152344 170.792969 100.121094 170.929688 C 100.046875 171.570312 100.015625 172.210938 100.058594 172.878906 C 100.210938 174.949219 101.015625 177 101.722656 178.941406 C 101.710938 178.839844 101.703125 178.738281 101.695312 178.632812 C 101.601562 178.21875 101.496094 177.804688 101.394531 177.386719 C 101.09375 176.175781 100.671875 174.976562 100.457031 173.738281 C 100.28125 172.664062 100.171875 171.558594 100.234375 170.472656 Z M 100.511719 169.542969 L 100.507812 169.5625 C 100.292969 170.929688 100.394531 172.34375 100.625 173.707031 C 100.835938 174.9375 101.253906 176.132812 101.558594 177.34375 C 101.59375 177.507812 101.640625 177.671875 101.683594 177.835938 C 101.683594 177.765625 101.683594 177.695312 101.691406 177.628906 C 101.46875 176 101.261719 174.375 101.023438 172.753906 C 100.949219 172.25 100.890625 171.742188 100.800781 171.238281 C 100.695312 170.679688 100.5625 170.109375 100.519531 169.53125 Z M 100.726562 169.917969 C 100.789062 170.351562 100.882812 170.78125 100.960938 171.207031 C 101.054688 171.710938 101.109375 172.21875 101.1875 172.726562 C 101.382812 174.039062 101.550781 175.359375 101.726562 176.671875 C 101.734375 176.539062 101.742188 176.414062 101.746094 176.28125 C 101.785156 175.511719 101.722656 174.71875 101.710938 173.941406 C 101.695312 173.148438 101.714844 172.34375 101.46875 171.601562 C 101.304688 171.289062 101.148438 170.972656 101.011719 170.648438 C 100.914062 170.410156 100.816406 170.171875 100.726562 169.917969 Z M 107.375 175.769531 C 107.363281 175.78125 107.355469 175.785156 107.34375 175.800781 C 107.292969 175.863281 107.242188 175.929688 107.191406 175.992188 C 107.1875 176 107.179688 176.007812 107.171875 176.011719 C 107.167969 176.027344 107.160156 176.039062 107.152344 176.042969 C 107.242188 175.960938 107.332031 175.886719 107.425781 175.8125 C 107.414062 175.804688 107.398438 175.800781 107.386719 175.792969 C 107.378906 175.785156 107.375 175.78125 107.375 175.769531 Z M 112.210938 170.109375 C 111.359375 170.683594 110.535156 171.277344 109.796875 172.015625 C 109.210938 172.613281 108.753906 173.363281 108.289062 174.046875 C 107.992188 174.484375 107.703125 174.945312 107.425781 175.410156 L 107.445312 175.382812 C 107.714844 175.046875 107.996094 174.71875 108.28125 174.390625 C 108.457031 174.179688 108.640625 173.964844 108.816406 173.75 C 109.660156 172.734375 110.414062 171.734375 111.382812 170.828125 C 111.648438 170.589844 111.925781 170.347656 112.210938 170.109375 Z M 116.25 168.460938 C 115.191406 170.007812 113.84375 171.332031 112.328125 172.445312 C 111.382812 173.128906 110.410156 173.800781 109.4375 174.453125 C 109.105469 174.675781 108.765625 174.902344 108.449219 175.152344 C 108.621094 175.058594 108.796875 174.96875 108.972656 174.886719 C 109.136719 174.789062 109.300781 174.6875 109.464844 174.585938 C 110.765625 173.828125 111.996094 172.933594 113.164062 171.992188 C 113.796875 171.484375 114.480469 171 115.011719 170.382812 C 115.300781 169.980469 115.578125 169.566406 115.847656 169.152344 C 115.984375 168.921875 116.117188 168.695312 116.25 168.460938 Z M 115.632812 169.019531 C 114.414062 170.328125 112.921875 171.375 111.449219 172.4375 C 110.554688 173.078125 109.710938 173.828125 108.890625 174.5625 C 108.765625 174.675781 108.640625 174.78125 108.507812 174.894531 C 108.777344 174.695312 109.0625 174.503906 109.34375 174.316406 C 110.3125 173.667969 111.289062 172.996094 112.234375 172.3125 C 113.511719 171.371094 114.671875 170.269531 115.632812 169.019531 Z M 116.40625 167.820312 C 116 168.191406 115.570312 168.53125 115.148438 168.890625 C 114.054688 169.820312 112.988281 170.761719 111.863281 171.652344 C 111.089844 172.269531 110.296875 172.902344 109.585938 173.585938 C 109.207031 173.953125 108.839844 174.324219 108.46875 174.695312 C 108.570312 174.605469 108.671875 174.519531 108.773438 174.429688 C 109.597656 173.695312 110.441406 172.941406 111.347656 172.292969 C 113.199219 170.972656 115.078125 169.660156 116.40625 167.820312 Z M 116.691406 167.324219 C 116.28125 167.558594 115.867188 167.78125 115.476562 168.058594 C 114.191406 168.988281 113.046875 170.089844 111.863281 171.136719 C 110.667969 172.191406 109.484375 173.304688 108.417969 174.503906 L 108.402344 174.53125 C 108.753906 174.171875 109.113281 173.8125 109.46875 173.460938 C 110.1875 172.769531 110.988281 172.136719 111.761719 171.515625 C 112.890625 170.621094 113.945312 169.679688 115.042969 168.75 C 115.59375 168.292969 116.175781 167.839844 116.691406 167.324219 Z M 114.261719 171.328125 C 113.933594 171.597656 113.59375 171.855469 113.265625 172.117188 C 112.304688 172.890625 111.300781 173.632812 110.257812 174.292969 C 110.71875 174.085938 111.183594 173.859375 111.636719 173.585938 C 112.664062 172.984375 113.511719 172.207031 114.261719 171.328125 Z M 114.160156 168.875 C 114.015625 168.957031 113.871094 169.039062 113.726562 169.121094 C 112.96875 169.691406 112.175781 170.328125 111.503906 170.957031 C 110.894531 171.527344 110.363281 172.144531 109.847656 172.769531 C 110.464844 172.167969 111.105469 171.582031 111.753906 171.011719 C 112.554688 170.300781 113.34375 169.566406 114.160156 168.875 Z M 107.835938 158.542969 C 107.839844 159.382812 107.789062 160.230469 107.6875 161.074219 C 107.539062 162.347656 107.332031 163.59375 107.097656 164.867188 C 106.996094 165.414062 106.894531 165.972656 106.859375 166.53125 C 107.074219 165.730469 107.386719 164.9375 107.582031 164.082031 C 107.996094 162.292969 108.09375 160.390625 107.835938 158.542969 Z M 105.707031 157.523438 C 105.367188 159.433594 105.339844 161.449219 105.695312 163.304688 C 105.863281 164.191406 106.121094 165.050781 106.378906 165.917969 C 106.253906 165.101562 106.152344 164.285156 106.050781 163.46875 C 105.8125 161.46875 105.59375 159.503906 105.707031 157.523438 Z M 106.035156 156.085938 C 106.035156 156.089844 106.027344 156.097656 106.027344 156.105469 C 105.65625 158.566406 105.925781 160.980469 106.222656 163.449219 C 106.316406 164.234375 106.417969 165.011719 106.539062 165.796875 C 106.542969 165.710938 106.554688 165.621094 106.570312 165.539062 C 106.488281 164.804688 106.367188 164.0625 106.296875 163.335938 C 106.128906 161.550781 106.070312 159.765625 106.027344 157.96875 C 106.007812 157.285156 105.996094 156.683594 106.035156 156.085938 Z M 107.558594 157.085938 C 107.5625 158.6875 107.417969 160.289062 107.1875 161.851562 C 107.058594 162.699219 107.066406 163.648438 106.921875 164.496094 C 106.882812 164.703125 106.84375 164.90625 106.808594 165.101562 C 106.808594 165.238281 106.808594 165.375 106.8125 165.515625 C 106.851562 165.289062 106.890625 165.070312 106.933594 164.84375 C 107.167969 163.566406 107.375 162.324219 107.527344 161.054688 C 107.675781 159.804688 107.714844 158.5625 107.605469 157.304688 C 107.59375 157.253906 107.589844 157.210938 107.574219 157.164062 C 107.570312 157.140625 107.5625 157.109375 107.558594 157.085938 Z M 107.027344 153.039062 C 106.519531 155.351562 106.492188 157.78125 106.542969 160.125 C 106.570312 161.414062 106.585938 162.683594 106.664062 163.964844 C 106.664062 163.886719 106.667969 163.820312 106.667969 163.742188 C 106.6875 162.5625 106.726562 161.398438 106.796875 160.21875 C 106.925781 158.078125 106.984375 155.210938 107.027344 153.039062 Z M 107.167969 154.527344 C 107.121094 156.417969 107.066406 158.546875 106.964844 160.230469 C 106.894531 161.40625 106.859375 162.570312 106.839844 163.742188 C 106.839844 163.792969 106.839844 163.84375 106.839844 163.894531 C 106.910156 163.210938 106.925781 162.480469 107.027344 161.820312 C 107.304688 159.949219 107.457031 158 107.367188 156.085938 C 107.28125 155.578125 107.21875 155.050781 107.167969 154.527344 Z M 106.683594 153.976562 C 106.542969 154.402344 106.417969 154.828125 106.277344 155.257812 C 106.160156 156.15625 106.171875 156.972656 106.199219 157.957031 C 106.242188 159.714844 106.292969 161.46875 106.457031 163.214844 C 106.410156 162.1875 106.390625 161.160156 106.375 160.125 C 106.335938 158.101562 106.347656 155.996094 106.683594 153.976562 Z M 106.683594 153.976562 " fill-opacity="1" fill-rule="evenodd"/></g><g clip-path="url(#713552af2c)"><path fill="#000000" d="M 268.261719 168.695312 C 268.292969 168.667969 268.3125 168.632812 268.320312 168.585938 C 268.339844 168.441406 268.34375 168.296875 268.351562 168.152344 C 268.699219 166.539062 269.320312 164.988281 269.628906 163.367188 C 270.121094 160.773438 269.894531 157.863281 269.101562 155.355469 C 268.835938 154.515625 268.601562 153.671875 268.269531 152.851562 C 268.21875 152.71875 268.15625 152.480469 268.082031 152.273438 C 268.015625 152.101562 267.9375 151.957031 267.847656 151.875 C 267.789062 151.824219 267.742188 151.832031 267.703125 151.832031 C 267.652344 151.839844 267.613281 151.863281 267.582031 151.914062 C 267.570312 151.933594 267.558594 151.964844 267.558594 152.007812 C 267.558594 152.035156 267.5625 152.078125 267.5625 152.101562 C 267.570312 152.257812 267.578125 152.417969 267.582031 152.574219 C 267.601562 152.957031 267.597656 153.347656 267.5625 153.730469 C 267.464844 154.839844 267.355469 155.992188 267.09375 157.078125 C 266.539062 159.382812 266.558594 161.851562 267.085938 164.164062 C 267.332031 165.226562 267.773438 166.1875 267.949219 167.21875 L 267.949219 167.222656 C 267.777344 168.429688 267.664062 169.648438 267.632812 170.875 C 267.609375 172.023438 267.660156 173.171875 267.824219 174.316406 C 267.878906 174.730469 267.953125 175.140625 268.042969 175.546875 C 267.710938 174.964844 267.355469 174.398438 266.992188 173.859375 C 266.511719 173.15625 266.046875 172.386719 265.441406 171.777344 C 264.453125 170.78125 263.316406 170.0625 262.175781 169.273438 C 261.691406 168.9375 261.148438 168.6875 260.652344 168.375 C 260.105469 168.027344 259.582031 167.625 259.027344 167.28125 C 258.6875 167.066406 258.359375 166.839844 258.027344 166.621094 C 257.925781 166.550781 257.832031 166.488281 257.738281 166.414062 C 257.699219 166.382812 257.648438 166.308594 257.613281 166.273438 C 257.574219 166.242188 257.535156 166.226562 257.511719 166.21875 C 257.453125 166.207031 257.410156 166.21875 257.371094 166.25 C 257.339844 166.273438 257.304688 166.3125 257.296875 166.386719 C 257.285156 166.507812 257.335938 166.652344 257.417969 166.804688 C 257.511719 166.972656 257.648438 167.15625 257.71875 167.269531 C 258.109375 167.953125 258.457031 168.664062 258.878906 169.328125 C 260.015625 171.117188 261.332031 172.785156 263.195312 173.882812 C 264.308594 174.542969 265.480469 174.933594 266.5 175.503906 C 267.417969 176.019531 268.210938 176.683594 268.710938 177.847656 C 269.3125 179.492188 270.132812 180.96875 271.0625 182.472656 C 272.738281 185.167969 274.796875 187.9375 276.640625 191.964844 C 277.289062 193.378906 277.804688 194.816406 278.195312 196.265625 C 278.171875 196.222656 278.144531 196.179688 278.121094 196.136719 C 277.347656 194.839844 276.070312 193.125 274.816406 192.265625 C 273.332031 191.253906 271.039062 190.488281 269.394531 189.652344 C 268.730469 189.3125 268.148438 188.886719 267.570312 188.421875 C 267.445312 188.320312 267.28125 188.144531 267.109375 188 C 266.980469 187.886719 266.839844 187.796875 266.714844 187.761719 C 266.632812 187.734375 266.582031 187.761719 266.550781 187.78125 C 266.5 187.8125 266.46875 187.859375 266.476562 187.941406 C 266.476562 187.96875 266.488281 188.003906 266.511719 188.042969 C 266.542969 188.085938 266.613281 188.164062 266.640625 188.207031 C 266.722656 188.332031 266.800781 188.453125 266.878906 188.578125 C 267.109375 188.949219 267.292969 189.351562 267.5 189.734375 C 267.582031 189.882812 267.671875 190.035156 267.753906 190.179688 C 267.734375 190.210938 267.734375 190.253906 267.765625 190.28125 C 267.816406 190.332031 267.859375 190.378906 267.910156 190.429688 C 268.261719 190.988281 268.640625 191.511719 269.0625 192.019531 C 269.042969 192.050781 269.042969 192.09375 269.074219 192.121094 C 269.289062 192.351562 269.507812 192.578125 269.742188 192.785156 C 269.816406 192.867188 269.898438 192.957031 269.980469 193.039062 C 271.511719 194.644531 273.324219 195.527344 275.289062 196.488281 C 275.96875 196.820312 276.699219 197.113281 277.339844 197.515625 C 277.957031 197.90625 278.484375 198.390625 278.789062 199.113281 C 278.8125 199.175781 278.839844 199.246094 278.859375 199.308594 C 279.398438 202.820312 279.304688 206.414062 278.742188 210.023438 C 278.53125 207.089844 276.679688 203.917969 274.902344 201.820312 C 274.867188 201.777344 274.828125 201.734375 274.789062 201.6875 C 274.078125 200.847656 273.273438 200.148438 272.375 199.515625 C 272.316406 199.472656 272.230469 199.382812 272.132812 199.3125 C 272.050781 199.25 271.972656 199.195312 271.894531 199.175781 C 271.824219 199.15625 271.761719 199.15625 271.707031 199.183594 C 271.648438 199.207031 271.59375 199.25 271.554688 199.332031 C 271.109375 200.363281 271.355469 201.882812 271.945312 203.441406 C 272.8125 205.742188 274.417969 208.121094 275.507812 209.09375 C 276.011719 209.546875 276.730469 209.878906 277.347656 210.289062 C 277.851562 210.621094 278.285156 211.003906 278.449219 211.570312 C 277.699219 214.730469 275.777344 219.625 273.890625 221.652344 C 273.796875 221.753906 273.800781 221.910156 273.902344 222.003906 C 273.984375 222.082031 274.097656 222.09375 274.191406 222.042969 C 274.207031 222.054688 274.222656 222.054688 274.238281 222.0625 C 274.21875 222.082031 274.207031 222.097656 274.1875 222.117188 C 274.15625 222.15625 274.160156 222.207031 274.191406 222.238281 C 274.230469 222.269531 274.28125 222.261719 274.3125 222.230469 C 274.527344 221.992188 274.710938 221.734375 274.890625 221.472656 C 274.910156 221.445312 274.910156 221.410156 274.890625 221.382812 C 275.023438 221.207031 275.15625 221.023438 275.269531 220.84375 C 275.292969 220.804688 275.28125 220.75 275.242188 220.730469 C 275.238281 220.730469 275.238281 220.722656 275.230469 220.722656 C 275.949219 219.617188 276.648438 218.210938 277.253906 216.753906 C 277.289062 216.734375 277.320312 216.695312 277.335938 216.652344 C 277.402344 216.425781 277.472656 216.207031 277.554688 215.992188 C 277.578125 215.9375 277.597656 215.875 277.625 215.816406 C 277.75 215.503906 277.886719 215.195312 278.046875 214.894531 C 278.308594 214.742188 278.613281 214.660156 278.914062 214.597656 C 279.253906 214.53125 279.59375 214.472656 279.914062 214.367188 C 282.453125 213.519531 284.410156 212.5 286.132812 210.382812 C 286.328125 210.136719 287.375 208.636719 287.621094 207.925781 C 287.675781 207.769531 287.695312 207.636719 287.675781 207.554688 C 287.664062 207.480469 287.625 207.429688 287.574219 207.394531 C 287.492188 207.328125 287.375 207.296875 287.21875 207.296875 C 287.039062 207.296875 286.808594 207.347656 286.542969 207.425781 C 285.585938 207.714844 284.238281 208.429688 283.945312 208.605469 C 281.796875 209.894531 279.757812 211.5625 278.371094 213.65625 L 278.378906 213.644531 C 278.523438 213.183594 278.664062 212.71875 278.78125 212.25 C 278.882812 211.867188 278.976562 211.476562 279.058594 211.085938 C 279.085938 210.960938 279.109375 210.835938 279.132812 210.703125 C 279.148438 210.640625 279.152344 210.578125 279.164062 210.507812 C 279.179688 210.433594 279.191406 210.359375 279.203125 210.28125 C 279.242188 210.042969 279.277344 209.804688 279.3125 209.574219 C 279.386719 209.027344 279.457031 208.472656 279.511719 207.921875 C 279.539062 207.648438 279.5625 207.378906 279.585938 207.117188 C 279.605469 207.039062 279.625 206.964844 279.644531 206.882812 C 279.65625 206.882812 279.664062 206.878906 279.675781 206.871094 C 284.007812 204.875 287.46875 201.21875 288.273438 196.417969 C 288.320312 196.140625 288.671875 194.351562 288.757812 193.503906 C 288.785156 193.25 288.777344 193.074219 288.753906 193.007812 C 288.722656 192.917969 288.664062 192.878906 288.601562 192.867188 C 288.550781 192.855469 288.496094 192.855469 288.433594 192.894531 C 288.386719 192.917969 288.332031 192.960938 288.273438 193.019531 C 288.21875 193.074219 288.160156 193.144531 288.117188 193.175781 C 287.820312 193.394531 287.542969 193.628906 287.230469 193.808594 C 286.234375 194.386719 285.429688 194.980469 284.640625 195.820312 C 281.773438 198.898438 279.6875 205.433594 279.6875 205.433594 C 279.828125 201.652344 279.378906 197.917969 278.140625 194.308594 C 278.140625 194.300781 278.140625 194.300781 278.140625 194.292969 C 278.132812 193.167969 278.5625 192.078125 279.128906 191.027344 C 279.707031 189.960938 280.425781 188.933594 280.992188 187.992188 C 281.984375 186.335938 282.621094 184.511719 282.828125 182.589844 C 282.941406 181.523438 282.917969 180.46875 282.816406 179.394531 C 282.785156 179.074219 282.746094 178.757812 282.710938 178.4375 C 282.699219 178.304688 282.679688 178.175781 282.660156 178.042969 C 282.660156 178.035156 282.664062 177.941406 282.664062 177.902344 C 282.660156 177.855469 282.648438 177.820312 282.628906 177.796875 C 282.601562 177.757812 282.566406 177.734375 282.527344 177.726562 C 282.488281 177.714844 282.4375 177.714844 282.382812 177.746094 C 282.3125 177.789062 282.242188 177.878906 282.1875 177.996094 C 282.105469 178.1875 282.050781 178.46875 281.992188 178.589844 C 281.742188 179.136719 281.417969 179.699219 281.074219 180.195312 C 280.425781 181.113281 279.78125 181.898438 279.375 182.960938 C 278.441406 185.398438 278.554688 187.875 278.328125 190.425781 C 278.242188 191.429688 277.984375 192.398438 277.800781 193.390625 C 277.585938 192.824219 277.347656 192.265625 277.09375 191.707031 C 275.761719 188.789062 274.3125 186.53125 272.976562 184.480469 C 272.976562 184.460938 272.976562 184.4375 272.972656 184.417969 C 272.605469 183.054688 272.820312 181.761719 273.25 180.5 C 273.683594 179.210938 274.335938 177.960938 274.839844 176.722656 C 275.550781 174.96875 275.660156 172.714844 275.226562 170.894531 C 275.09375 170.339844 274.835938 169.257812 274.519531 168.761719 C 274.507812 168.71875 274.5 168.679688 274.488281 168.636719 C 274.476562 168.59375 274.433594 168.566406 274.386719 168.574219 C 274.34375 168.585938 274.320312 168.632812 274.324219 168.675781 C 274.289062 168.679688 274.253906 168.707031 274.222656 168.746094 C 274.210938 168.761719 274.191406 168.792969 274.1875 168.84375 C 274.179688 168.890625 274.1875 168.976562 274.175781 169.019531 C 274.148438 169.152344 274.105469 169.277344 274.074219 169.402344 C 273.972656 169.78125 273.828125 170.125 273.675781 170.484375 C 273.222656 171.566406 272.539062 172.511719 272.285156 173.675781 C 271.832031 175.800781 272.375 177.816406 272.523438 179.925781 C 272.613281 181.15625 272.367188 182.371094 272.40625 183.59375 C 272.089844 183.113281 271.78125 182.632812 271.492188 182.164062 C 269 178.15625 267.351562 174.324219 268.527344 166.753906 Z M 278.523438 214.242188 C 278.523438 214.242188 278.53125 214.246094 278.53125 214.246094 C 278.515625 214.253906 278.511719 214.253906 278.5 214.257812 Z M 286.242188 209.640625 C 286.058594 209.90625 285.90625 210.113281 285.851562 210.195312 C 284.171875 212.253906 282.257812 213.242188 279.789062 214.070312 C 279.695312 214.101562 279.59375 214.128906 279.492188 214.152344 C 279.644531 214.089844 279.796875 214.019531 279.941406 213.953125 C 280.457031 213.71875 280.972656 213.5 281.46875 213.222656 C 282.898438 212.429688 284.382812 211.527344 285.574219 210.394531 C 285.820312 210.164062 286.027344 209.894531 286.242188 209.640625 Z M 286.65625 208.617188 C 286.285156 209.039062 285.871094 209.429688 285.449219 209.792969 C 284.464844 210.648438 283.402344 211.371094 282.320312 212.097656 C 281.28125 212.796875 280.167969 213.582031 278.984375 214.070312 C 279.3125 213.894531 279.625 213.667969 279.941406 213.488281 C 280.476562 213.171875 281.015625 212.878906 281.53125 212.527344 C 282.199219 212.066406 282.828125 211.53125 283.464844 211.035156 C 284.226562 210.445312 284.976562 209.832031 285.75 209.253906 C 286.046875 209.046875 286.375 208.851562 286.65625 208.617188 Z M 278.675781 213.8125 C 280.035156 211.789062 282.015625 210.175781 284.109375 208.917969 C 284.390625 208.75 285.699219 208.050781 286.632812 207.769531 C 286.851562 207.699219 287.054688 207.65625 287.203125 207.65625 C 287.21875 207.65625 287.230469 207.65625 287.242188 207.65625 C 287.058594 207.707031 286.890625 207.800781 286.707031 207.863281 C 286.503906 207.933594 286.285156 207.972656 286.085938 208.050781 C 285.53125 208.285156 285.027344 208.667969 284.515625 208.980469 C 284.125 209.226562 283.71875 209.441406 283.347656 209.703125 C 282.714844 210.152344 282.144531 210.671875 281.558594 211.175781 C 280.910156 211.734375 280.25 212.28125 279.613281 212.863281 C 279.285156 213.171875 278.988281 213.5 278.675781 213.8125 Z M 287.199219 207.84375 C 287.167969 207.882812 287.128906 207.921875 287.097656 207.953125 C 286.789062 208.140625 286.457031 208.292969 286.148438 208.480469 C 285.839844 208.667969 285.554688 208.894531 285.253906 209.09375 C 284.925781 209.316406 284.578125 209.511719 284.257812 209.734375 C 283.554688 210.238281 282.890625 210.816406 282.207031 211.34375 C 281.175781 212.136719 280.117188 212.910156 279.050781 213.664062 C 279.273438 213.4375 279.492188 213.203125 279.726562 212.992188 C 280.355469 212.414062 281.015625 211.867188 281.664062 211.304688 C 282.242188 210.808594 282.8125 210.289062 283.441406 209.847656 C 283.8125 209.585938 284.222656 209.371094 284.605469 209.132812 C 285.101562 208.820312 285.597656 208.441406 286.148438 208.214844 C 286.34375 208.132812 286.554688 208.097656 286.757812 208.027344 C 286.910156 207.976562 287.054688 207.902344 287.199219 207.84375 Z M 286.675781 208.378906 C 286.367188 208.65625 285.984375 208.875 285.648438 209.121094 C 284.875 209.699219 284.125 210.3125 283.363281 210.90625 C 282.730469 211.402344 282.105469 211.933594 281.4375 212.386719 C 280.929688 212.734375 280.394531 213.027344 279.859375 213.335938 C 279.695312 213.429688 279.539062 213.535156 279.375 213.636719 C 280.367188 212.933594 281.351562 212.210938 282.3125 211.476562 C 283 210.953125 283.652344 210.382812 284.367188 209.878906 C 284.6875 209.65625 285.027344 209.460938 285.355469 209.238281 C 285.648438 209.039062 285.933594 208.8125 286.242188 208.628906 C 286.378906 208.542969 286.53125 208.460938 286.675781 208.378906 Z M 286.652344 208.882812 C 286.5 209.078125 286.34375 209.269531 286.179688 209.453125 C 285.9375 209.730469 285.71875 210.023438 285.453125 210.277344 C 284.277344 211.394531 282.804688 212.292969 281.386719 213.078125 C 281.042969 213.265625 280.6875 213.429688 280.335938 213.59375 C 281.0625 213.171875 281.757812 212.695312 282.421875 212.25 C 283.503906 211.519531 284.574219 210.785156 285.5625 209.929688 C 285.9375 209.597656 286.3125 209.253906 286.652344 208.882812 Z M 272.117188 199.949219 C 272.632812 200.644531 273.035156 201.476562 273.519531 202.164062 C 275.34375 204.78125 276.980469 207.5625 278.152344 210.535156 C 276.699219 208.335938 275.425781 205.972656 274.09375 203.707031 C 273.355469 202.453125 272.53125 201.324219 272.117188 199.949219 Z M 274.332031 201.726562 C 274.386719 201.789062 274.449219 201.859375 274.507812 201.925781 C 274.546875 201.972656 274.582031 202.015625 274.621094 202.058594 C 276.421875 204.183594 278.308594 207.4375 278.398438 210.390625 C 278.128906 209.359375 277.679688 208.386719 277.296875 207.386719 C 276.546875 205.46875 275.640625 203.417969 274.332031 201.726562 Z M 271.824219 199.582031 C 271.839844 199.597656 271.84375 199.601562 271.859375 199.617188 C 272.230469 201.179688 273.140625 202.410156 273.953125 203.785156 C 275.148438 205.816406 276.289062 207.921875 277.5625 209.910156 C 275.730469 207.648438 273.890625 205.230469 272.808594 202.542969 C 272.40625 201.574219 271.964844 200.625 271.824219 199.582031 Z M 272.316406 199.9375 C 274.703125 201.75 276.085938 204.734375 277.132812 207.449219 C 277.449219 208.265625 277.804688 209.0625 278.078125 209.894531 C 276.917969 207.121094 275.371094 204.523438 273.65625 202.066406 C 273.191406 201.398438 272.800781 200.613281 272.316406 199.9375 Z M 271.648438 201.054688 C 271.78125 201.652344 272.027344 202.253906 272.203125 202.761719 C 272.726562 204.320312 274.457031 207.121094 275.621094 208.355469 C 276.050781 208.800781 276.484375 209.226562 276.90625 209.667969 C 276.472656 209.414062 276.039062 209.171875 275.703125 208.867188 C 274.644531 207.914062 273.078125 205.582031 272.230469 203.339844 C 271.933594 202.542969 271.71875 201.757812 271.648438 201.054688 Z M 271.738281 200.0625 C 271.925781 200.941406 272.304688 201.769531 272.644531 202.613281 C 273.671875 205.148438 275.359375 207.457031 277.089844 209.605469 C 276.648438 209.144531 276.195312 208.707031 275.753906 208.242188 C 274.601562 207.027344 272.890625 204.257812 272.375 202.710938 C 272.222656 202.265625 272.015625 201.757812 271.875 201.234375 C 271.761719 200.839844 271.699219 200.4375 271.738281 200.0625 Z M 279.863281 206.417969 C 279.863281 206.417969 279.863281 206.425781 279.863281 206.425781 L 279.847656 206.429688 Z M 287.753906 197.203125 C 287.664062 197.578125 287.558594 197.945312 287.429688 198.308594 C 286.378906 200.371094 284.269531 202.480469 282.855469 203.929688 C 281.960938 204.84375 281.261719 205.746094 280.085938 206.261719 C 282.34375 204.761719 283.804688 202.429688 285.472656 200.351562 C 286.316406 199.3125 287.179688 198.351562 287.753906 197.203125 Z M 288.1875 194.910156 C 288.066406 195.59375 287.941406 196.242188 287.914062 196.390625 L 287.914062 196.398438 C 287.386719 197.882812 286.34375 199.007812 285.339844 200.242188 C 283.8125 202.140625 282.464844 204.25 280.519531 205.742188 C 281.292969 204.957031 282.074219 204.15625 282.753906 203.304688 C 284.011719 201.71875 285.015625 199.941406 286.109375 198.238281 C 286.902344 197.007812 287.65625 196.097656 288.1875 194.910156 Z M 287.398438 194.125 C 286.035156 195.707031 285.140625 197.65625 284.109375 199.472656 C 282.859375 201.667969 281.4375 203.707031 279.941406 205.734375 C 279.960938 205.660156 279.984375 205.582031 280.007812 205.5 C 280.199219 205.3125 280.375 205.082031 280.539062 204.824219 C 280.960938 204.15625 281.304688 203.347656 281.621094 202.855469 C 282.648438 201.265625 283.640625 199.691406 284.515625 198.011719 C 285.132812 196.820312 285.613281 195.652344 286.503906 194.683594 C 286.78125 194.496094 287.074219 194.3125 287.375 194.136719 C 287.386719 194.132812 287.394531 194.132812 287.398438 194.125 Z M 288.117188 193.621094 C 285.90625 197.472656 283.894531 201.425781 280.929688 204.761719 C 280.671875 205.050781 280.445312 205.363281 280.203125 205.664062 C 281.660156 203.6875 283.039062 201.695312 284.257812 199.550781 C 285.410156 197.523438 286.386719 195.34375 288.042969 193.679688 C 288.066406 193.660156 288.09375 193.640625 288.117188 193.621094 Z M 287.035156 199.328125 C 285.90625 201.863281 283.957031 203.949219 281.589844 205.464844 C 282.066406 205.035156 282.496094 204.546875 282.980469 204.050781 C 284.1875 202.808594 285.902344 201.089844 287.035156 199.328125 Z M 288.40625 193.457031 C 288.394531 193.570312 288.382812 193.703125 288.363281 193.855469 C 288.351562 193.929688 288.34375 194.003906 288.332031 194.082031 C 287.820312 195.671875 286.925781 196.675781 285.976562 198.152344 C 284.886719 199.847656 283.886719 201.621094 282.632812 203.203125 C 282.023438 203.96875 281.332031 204.683594 280.640625 205.394531 C 280.777344 205.21875 280.914062 205.042969 281.066406 204.875 C 284.1875 201.34375 286.265625 197.128906 288.632812 193.070312 Z M 285.953125 195.09375 C 285.304688 195.960938 284.882812 196.9375 284.367188 197.945312 C 283.496094 199.621094 282.503906 201.191406 281.484375 202.773438 C 281.167969 203.265625 280.820312 204.074219 280.398438 204.742188 C 280.324219 204.859375 280.25 204.972656 280.167969 205.082031 C 280.671875 203.945312 281.300781 202.871094 281.859375 201.765625 C 282.960938 199.558594 284.03125 197.371094 285.542969 195.429688 C 285.675781 195.3125 285.8125 195.199219 285.953125 195.09375 Z M 284.78125 196.179688 C 283.578125 197.90625 282.660156 199.785156 281.703125 201.675781 C 281.300781 202.46875 280.867188 203.246094 280.460938 204.042969 C 281.425781 201.179688 282.785156 198.359375 284.78125 196.179688 Z M 267.835938 189.363281 C 268.929688 190.25 270.289062 190.761719 271.484375 191.492188 C 273.707031 192.835938 275.703125 194.539062 277.328125 196.570312 C 277.636719 196.957031 278.019531 197.328125 278.339844 197.730469 C 278.355469 197.753906 278.371094 197.773438 278.386719 197.800781 C 278.328125 197.738281 278.273438 197.679688 278.214844 197.617188 C 277.792969 197.160156 277.351562 196.726562 276.914062 196.285156 C 275.164062 194.550781 273.273438 193.070312 271.210938 191.71875 C 270.101562 190.988281 268.773438 190.34375 267.835938 189.363281 Z M 273.675781 191.988281 C 274.011719 192.164062 274.324219 192.351562 274.609375 192.542969 C 275.824219 193.378906 277.0625 195.042969 277.820312 196.304688 C 278.007812 196.617188 278.195312 196.945312 278.371094 197.289062 C 278.027344 196.738281 277.625 196.214844 277.246094 195.703125 C 276.25 194.363281 275.054688 193.023438 273.675781 191.988281 Z M 269.28125 191.789062 C 269.730469 192.191406 270.195312 192.574219 270.675781 192.929688 C 271.863281 193.828125 273.230469 194.550781 274.5 195.324219 C 275.292969 195.808594 276.0625 196.304688 276.804688 196.863281 C 276.394531 196.644531 275.988281 196.425781 275.589844 196.179688 C 274.632812 195.582031 273.722656 194.910156 272.746094 194.34375 C 272.085938 193.960938 271.359375 193.699219 270.691406 193.308594 C 270.523438 193.152344 270.359375 192.992188 270.195312 192.816406 C 269.875 192.480469 269.566406 192.132812 269.28125 191.789062 Z M 268.21875 190.324219 C 268.371094 190.492188 268.527344 190.65625 268.691406 190.796875 C 269.175781 191.222656 269.730469 191.585938 270.246094 191.976562 C 271.777344 193.144531 273.367188 194.207031 274.972656 195.269531 C 275.601562 195.6875 276.195312 196.136719 276.765625 196.613281 C 276.0625 196.097656 275.34375 195.632812 274.597656 195.171875 C 273.324219 194.402344 271.972656 193.679688 270.78125 192.785156 C 270.039062 192.226562 269.328125 191.613281 268.652344 190.957031 C 268.503906 190.757812 268.359375 190.542969 268.21875 190.324219 Z M 267.898438 189.65625 C 268.828125 190.542969 270.070312 191.164062 271.113281 191.851562 C 273.167969 193.195312 275.050781 194.664062 276.785156 196.398438 C 276.835938 196.449219 276.886719 196.5 276.9375 196.542969 C 276.339844 196.039062 275.722656 195.570312 275.0625 195.128906 C 273.460938 194.0625 271.871094 193.007812 270.339844 191.84375 C 269.832031 191.453125 269.277344 191.097656 268.796875 190.667969 C 268.484375 190.386719 268.175781 190.035156 267.898438 189.65625 Z M 271.46875 190.964844 C 271.84375 191.128906 272.230469 191.292969 272.601562 191.460938 C 274.382812 192.542969 275.890625 194.175781 277.09375 195.796875 C 277.175781 195.910156 277.257812 196.015625 277.347656 196.128906 C 277.296875 196.066406 277.253906 196.007812 277.203125 195.953125 C 275.632812 194.003906 273.621094 192.285156 271.46875 190.964844 Z M 271.277344 193.804688 C 271.742188 194.03125 272.214844 194.230469 272.664062 194.488281 C 273.476562 194.953125 274.242188 195.5 275.023438 196.007812 C 273.683594 195.351562 272.417969 194.707031 271.277344 193.804688 Z M 267.4375 188.773438 C 267.839844 189.09375 268.25 189.394531 268.683594 189.65625 C 268.683594 189.65625 268.679688 189.664062 268.679688 189.664062 C 268.660156 189.707031 268.671875 189.757812 268.714844 189.777344 C 269.484375 190.167969 270.285156 190.457031 271.027344 190.894531 C 272.71875 191.886719 274.335938 193.144531 275.734375 194.5625 C 274.476562 193.332031 273.074219 192.253906 271.5625 191.339844 C 270.234375 190.539062 268.699219 189.992188 267.558594 188.898438 C 267.519531 188.859375 267.484375 188.816406 267.4375 188.773438 Z M 282.289062 178.777344 C 282.25 179.078125 282.199219 179.378906 282.113281 179.667969 C 281.984375 180.078125 281.757812 180.441406 281.660156 180.855469 C 281.078125 183.28125 280.46875 185.726562 279.6875 188.09375 C 279.457031 188.808594 279.179688 189.507812 278.894531 190.203125 C 278.859375 190.296875 278.8125 190.398438 278.769531 190.492188 C 278.933594 190.015625 279.003906 189.507812 279.121094 189.023438 C 279.375 188 279.644531 186.988281 279.894531 185.964844 C 280.3125 184.273438 280.726562 182.558594 281.3125 180.917969 C 281.539062 180.285156 281.878906 179.667969 282.15625 179.054688 C 282.207031 178.953125 282.242188 178.863281 282.289062 178.777344 Z M 281.304688 180.484375 C 281.253906 180.613281 281.207031 180.730469 281.160156 180.855469 C 280.574219 182.503906 280.160156 184.222656 279.738281 185.921875 C 279.488281 186.945312 279.214844 187.957031 278.964844 188.980469 C 278.902344 189.222656 278.859375 189.480469 278.800781 189.734375 C 278.871094 189.230469 278.925781 188.726562 279.019531 188.230469 C 279.261719 186.980469 279.605469 185.75 279.859375 184.5 C 280.066406 183.464844 280.199219 182.226562 280.734375 181.277344 C 280.921875 181.011719 281.109375 180.757812 281.304688 180.484375 Z M 282.433594 182.910156 C 282.199219 184.667969 281.597656 186.335938 280.683594 187.859375 C 280.335938 188.4375 279.941406 189.035156 279.550781 189.65625 C 279.707031 189.304688 279.863281 188.953125 280.027344 188.609375 C 280.5625 187.515625 281.078125 186.421875 281.558594 185.296875 C 281.898438 184.511719 282.207031 183.722656 282.433594 182.910156 Z M 282.421875 179.058594 L 282.433594 179.160156 C 282.4375 179.429688 282.433594 179.707031 282.40625 179.976562 C 282.34375 180.605469 282.144531 181.175781 281.992188 181.78125 C 281.789062 182.550781 281.628906 183.34375 281.382812 184.109375 C 281.175781 184.75 280.898438 185.359375 280.683594 186 C 280.335938 187.050781 279.945312 188.082031 279.519531 189.09375 C 279.636719 188.777344 279.746094 188.464844 279.851562 188.144531 C 280.632812 185.769531 281.242188 183.320312 281.828125 180.894531 C 281.929688 180.484375 282.15625 180.121094 282.277344 179.71875 C 282.34375 179.5 282.390625 179.273438 282.421875 179.046875 Z M 280.222656 182.039062 C 279.964844 182.828125 279.847656 183.695312 279.695312 184.460938 C 279.441406 185.710938 279.097656 186.945312 278.859375 188.195312 C 278.824219 188.351562 278.800781 188.507812 278.777344 188.671875 C 278.875 186.792969 278.976562 184.953125 279.675781 183.128906 C 279.828125 182.734375 280.015625 182.375 280.222656 182.039062 Z M 282.527344 180.355469 C 282.546875 180.800781 282.550781 181.246094 282.539062 181.691406 C 282.339844 182.917969 281.902344 184.078125 281.40625 185.234375 C 281.011719 186.160156 280.59375 187.058594 280.160156 187.960938 C 280.40625 187.332031 280.632812 186.699219 280.847656 186.050781 C 281.0625 185.417969 281.335938 184.800781 281.546875 184.160156 C 281.789062 183.394531 281.960938 182.601562 282.15625 181.824219 C 282.28125 181.328125 282.4375 180.851562 282.527344 180.355469 Z M 275.113281 172.539062 C 275.207031 173.925781 275.011719 175.410156 274.515625 176.636719 C 274.128906 177.582031 273.65625 178.539062 273.261719 179.511719 C 273.300781 179.359375 273.34375 179.214844 273.394531 179.078125 C 274.105469 177.101562 274.941406 175 275.09375 172.882812 C 275.097656 172.769531 275.105469 172.652344 275.113281 172.539062 Z M 273.199219 172.210938 C 273.109375 172.777344 273.117188 173.363281 273.105469 173.945312 C 273.089844 174.726562 273.027344 175.515625 273.066406 176.296875 C 273.085938 176.730469 273.117188 177.175781 273.128906 177.613281 C 273.058594 178.128906 272.992188 178.652344 272.914062 179.167969 C 272.914062 179.160156 272.914062 179.148438 272.914062 179.140625 C 272.921875 178.269531 272.789062 177.414062 272.734375 176.546875 C 272.644531 175.285156 272.65625 173.964844 272.953125 172.726562 C 273.035156 172.550781 273.117188 172.382812 273.199219 172.210938 Z M 272.601562 173.800781 C 272.492188 174.71875 272.503906 175.648438 272.570312 176.554688 C 272.625 177.351562 272.738281 178.140625 272.75 178.941406 C 272.550781 177.226562 272.230469 175.546875 272.601562 173.800781 Z M 274.753906 170.472656 C 274.796875 170.640625 274.835938 170.792969 274.867188 170.929688 C 274.941406 171.570312 274.972656 172.210938 274.929688 172.878906 C 274.777344 174.949219 273.972656 177 273.265625 178.941406 C 273.28125 178.839844 273.285156 178.738281 273.292969 178.632812 C 273.386719 178.21875 273.492188 177.804688 273.59375 177.386719 C 273.898438 176.175781 274.320312 174.976562 274.53125 173.738281 C 274.710938 172.664062 274.816406 171.558594 274.753906 170.472656 Z M 274.476562 169.542969 L 274.484375 169.5625 C 274.695312 170.929688 274.597656 172.34375 274.363281 173.707031 C 274.15625 174.9375 273.734375 176.132812 273.429688 177.34375 C 273.394531 177.507812 273.347656 177.671875 273.304688 177.835938 C 273.304688 177.765625 273.304688 177.695312 273.300781 177.628906 C 273.519531 176 273.726562 174.375 273.964844 172.753906 C 274.042969 172.25 274.097656 171.742188 274.1875 171.238281 C 274.292969 170.679688 274.425781 170.109375 274.46875 169.53125 Z M 274.261719 169.917969 C 274.199219 170.351562 274.105469 170.78125 274.027344 171.207031 C 273.933594 171.710938 273.878906 172.21875 273.800781 172.726562 C 273.609375 174.039062 273.4375 175.359375 273.261719 176.671875 C 273.253906 176.539062 273.25 176.414062 273.242188 176.28125 C 273.203125 175.511719 273.265625 174.71875 273.28125 173.941406 C 273.292969 173.148438 273.273438 172.34375 273.519531 171.601562 C 273.683594 171.289062 273.839844 170.972656 273.980469 170.648438 C 274.074219 170.410156 274.175781 170.171875 274.261719 169.917969 Z M 267.613281 175.769531 C 267.628906 175.78125 267.632812 175.785156 267.644531 175.800781 C 267.695312 175.863281 267.746094 175.929688 267.796875 175.992188 C 267.804688 176 267.808594 176.007812 267.816406 176.011719 C 267.824219 176.027344 267.828125 176.039062 267.835938 176.042969 C 267.746094 175.960938 267.660156 175.886719 267.5625 175.8125 C 267.578125 175.804688 267.589844 175.800781 267.601562 175.792969 C 267.609375 175.785156 267.613281 175.78125 267.613281 175.769531 Z M 262.78125 170.109375 C 263.628906 170.683594 264.453125 171.277344 265.191406 172.015625 C 265.777344 172.613281 266.234375 173.363281 266.703125 174.046875 C 266.996094 174.484375 267.289062 174.945312 267.5625 175.410156 L 267.546875 175.382812 C 267.273438 175.046875 266.992188 174.71875 266.707031 174.390625 C 266.53125 174.179688 266.347656 173.964844 266.171875 173.75 C 265.328125 172.734375 264.574219 171.734375 263.605469 170.828125 C 263.339844 170.589844 263.0625 170.347656 262.78125 170.109375 Z M 258.738281 168.460938 C 259.796875 170.007812 261.144531 171.332031 262.660156 172.445312 C 263.605469 173.128906 264.582031 173.800781 265.550781 174.453125 C 265.882812 174.675781 266.222656 174.902344 266.539062 175.152344 C 266.367188 175.058594 266.191406 174.96875 266.015625 174.886719 C 265.851562 174.789062 265.6875 174.6875 265.523438 174.585938 C 264.222656 173.828125 262.992188 172.933594 261.824219 171.992188 C 261.195312 171.484375 260.507812 171 259.980469 170.382812 C 259.6875 169.980469 259.414062 169.566406 259.140625 169.152344 C 259.003906 168.921875 258.871094 168.695312 258.738281 168.460938 Z M 259.355469 169.019531 C 260.578125 170.328125 262.070312 171.375 263.542969 172.4375 C 264.4375 173.078125 265.277344 173.828125 266.097656 174.5625 C 266.222656 174.675781 266.347656 174.78125 266.480469 174.894531 C 266.210938 174.695312 265.925781 174.503906 265.644531 174.316406 C 264.675781 173.667969 263.699219 172.996094 262.753906 172.3125 C 261.476562 171.371094 260.320312 170.269531 259.355469 169.019531 Z M 258.582031 167.820312 C 258.992188 168.191406 259.417969 168.53125 259.839844 168.890625 C 260.9375 169.820312 262 170.761719 263.125 171.652344 C 263.902344 172.269531 264.695312 172.902344 265.40625 173.585938 C 265.78125 173.953125 266.148438 174.324219 266.519531 174.695312 C 266.417969 174.605469 266.316406 174.519531 266.21875 174.429688 C 265.390625 173.695312 264.550781 172.941406 263.640625 172.292969 C 261.792969 170.972656 259.910156 169.660156 258.582031 167.820312 Z M 258.296875 167.324219 C 258.707031 167.558594 259.121094 167.78125 259.511719 168.058594 C 260.796875 168.988281 261.941406 170.089844 263.125 171.136719 C 264.324219 172.191406 265.503906 173.304688 266.570312 174.503906 L 266.589844 174.53125 C 266.234375 174.171875 265.878906 173.8125 265.519531 173.460938 C 264.800781 172.769531 264 172.136719 263.226562 171.515625 C 262.101562 170.621094 261.042969 169.679688 259.949219 168.75 C 259.394531 168.292969 258.8125 167.839844 258.296875 167.324219 Z M 260.726562 171.328125 C 261.054688 171.597656 261.394531 171.855469 261.722656 172.117188 C 262.6875 172.890625 263.6875 173.632812 264.730469 174.292969 C 264.273438 174.085938 263.804688 173.859375 263.351562 173.585938 C 262.328125 172.984375 261.476562 172.207031 260.726562 171.328125 Z M 260.828125 168.875 C 260.972656 168.957031 261.117188 169.039062 261.261719 169.121094 C 262.019531 169.691406 262.8125 170.328125 263.484375 170.957031 C 264.097656 171.527344 264.625 172.144531 265.140625 172.769531 C 264.523438 172.167969 263.882812 171.582031 263.234375 171.011719 C 262.433594 170.300781 261.648438 169.566406 260.828125 168.875 Z M 267.15625 158.542969 C 267.148438 159.382812 267.199219 160.230469 267.300781 161.074219 C 267.449219 162.347656 267.660156 163.59375 267.890625 164.867188 C 267.992188 165.414062 268.09375 165.972656 268.128906 166.53125 C 267.917969 165.730469 267.601562 164.9375 267.40625 164.082031 C 266.992188 162.292969 266.898438 160.390625 267.15625 158.542969 Z M 269.28125 157.523438 C 269.621094 159.433594 269.648438 161.449219 269.296875 163.304688 C 269.125 164.191406 268.867188 165.050781 268.609375 165.917969 C 268.734375 165.101562 268.835938 164.285156 268.9375 163.46875 C 269.175781 161.46875 269.394531 159.503906 269.28125 157.523438 Z M 268.957031 156.085938 C 268.957031 156.089844 268.960938 156.097656 268.960938 156.105469 C 269.332031 158.566406 269.0625 160.980469 268.765625 163.449219 C 268.671875 164.234375 268.570312 165.011719 268.453125 165.796875 C 268.445312 165.710938 268.433594 165.621094 268.421875 165.539062 C 268.503906 164.804688 268.621094 164.0625 268.691406 163.335938 C 268.859375 161.550781 268.917969 159.765625 268.960938 157.96875 C 268.980469 157.285156 268.992188 156.683594 268.957031 156.085938 Z M 267.433594 157.085938 C 267.425781 158.6875 267.570312 160.289062 267.804688 161.851562 C 267.929688 162.699219 267.921875 163.648438 268.066406 164.496094 C 268.105469 164.703125 268.144531 164.90625 268.179688 165.101562 C 268.179688 165.238281 268.179688 165.375 268.175781 165.515625 C 268.136719 165.289062 268.097656 165.070312 268.054688 164.84375 C 267.824219 163.566406 267.613281 162.324219 267.464844 161.054688 C 267.3125 159.804688 267.273438 158.5625 267.382812 157.304688 C 267.394531 157.253906 267.402344 157.210938 267.414062 157.164062 C 267.417969 157.140625 267.425781 157.109375 267.433594 157.085938 Z M 267.960938 153.039062 C 268.472656 155.351562 268.496094 157.78125 268.445312 160.125 C 268.421875 161.414062 268.402344 162.683594 268.324219 163.964844 C 268.324219 163.886719 268.320312 163.820312 268.320312 163.742188 C 268.300781 162.5625 268.261719 161.398438 268.195312 160.21875 C 268.0625 158.078125 268.003906 155.210938 267.960938 153.039062 Z M 267.824219 154.527344 C 267.867188 156.417969 267.921875 158.546875 268.023438 160.230469 C 268.09375 161.40625 268.128906 162.570312 268.148438 163.742188 C 268.148438 163.792969 268.148438 163.84375 268.148438 163.894531 C 268.082031 163.210938 268.0625 162.480469 267.960938 161.820312 C 267.683594 159.949219 267.53125 158 267.621094 156.085938 C 267.710938 155.578125 267.773438 155.050781 267.824219 154.527344 Z M 268.308594 153.976562 C 268.445312 154.402344 268.570312 154.828125 268.710938 155.257812 C 268.828125 156.15625 268.816406 156.972656 268.792969 157.957031 C 268.746094 159.714844 268.699219 161.46875 268.535156 163.214844 C 268.578125 162.1875 268.597656 161.160156 268.617188 160.125 C 268.652344 158.101562 268.640625 155.996094 268.308594 153.976562 Z M 268.308594 153.976562 " fill-opacity="1" fill-rule="evenodd"/></g><g fill="#000000" fill-opacity="1"><g transform="translate(119.233099, 261.192248)"><g><path d="M 10.78125 -0.890625 C 11.300781 -2.046875 11.039062 -3.019531 10 -3.8125 C 9.351562 -4.3125 8.632812 -4.441406 7.84375 -4.203125 C 7.050781 -3.960938 6.300781 -3.378906 5.59375 -2.453125 C 4.914062 -1.566406 4.554688 -0.71875 4.515625 0.09375 C 4.484375 0.914062 4.800781 1.585938 5.46875 2.109375 C 6.5 2.890625 7.546875 2.835938 8.609375 1.953125 L 10.390625 3.3125 C 9.585938 4.082031 8.632812 4.53125 7.53125 4.65625 C 6.425781 4.78125 5.335938 4.429688 4.265625 3.609375 C 3.066406 2.691406 2.414062 1.570312 2.3125 0.25 C 2.207031 -1.070312 2.695312 -2.441406 3.78125 -3.859375 C 4.8125 -5.210938 5.992188 -6.035156 7.328125 -6.328125 C 8.660156 -6.617188 9.9375 -6.300781 11.15625 -5.375 C 12.226562 -4.5625 12.875 -3.613281 13.09375 -2.53125 C 13.3125 -1.445312 13.132812 -0.445312 12.5625 0.46875 Z M 10.78125 -0.890625 "/></g></g></g><g fill="#000000" fill-opacity="1"><g transform="translate(132.432872, 270.773752)"><g><path d="M 5.09375 -3.390625 C 4.5 -2.285156 4.296875 -1.320312 4.484375 -0.5 C 4.671875 0.3125 5.140625 0.921875 5.890625 1.328125 C 6.648438 1.734375 7.414062 1.78125 8.1875 1.46875 C 8.96875 1.15625 9.648438 0.460938 10.234375 -0.609375 C 10.804688 -1.671875 11.007812 -2.613281 10.84375 -3.4375 C 10.675781 -4.257812 10.207031 -4.878906 9.4375 -5.296875 C 8.65625 -5.710938 7.878906 -5.765625 7.109375 -5.453125 C 6.335938 -5.140625 5.664062 -4.453125 5.09375 -3.390625 Z M 3.109375 -4.453125 C 3.972656 -6.078125 5.054688 -7.082031 6.359375 -7.46875 C 7.671875 -7.851562 8.992188 -7.691406 10.328125 -6.984375 C 11.648438 -6.265625 12.515625 -5.253906 12.921875 -3.953125 C 13.328125 -2.648438 13.09375 -1.179688 12.21875 0.453125 C 11.34375 2.066406 10.25 3.078125 8.9375 3.484375 C 7.632812 3.890625 6.3125 3.726562 4.96875 3 C 3.675781 2.3125 2.8125 1.320312 2.375 0.03125 C 1.9375 -1.25 2.179688 -2.742188 3.109375 -4.453125 Z M 3.109375 -4.453125 "/></g></g></g><g fill="#000000" fill-opacity="1"><g transform="translate(147.66573, 278.452325)"><g><path d="M 10.875 -7.625 L 12.859375 -6.9375 L 9.328125 3.234375 L 7.203125 2.5 L 5.59375 -6.203125 L 5.5625 -6.21875 L 3.03125 1.046875 L 1.03125 0.359375 L 4.5625 -9.8125 L 6.8125 -9.03125 L 8.40625 -0.53125 L 8.421875 -0.53125 Z M 10.875 -7.625 "/></g></g></g><g fill="#000000" fill-opacity="1"><g transform="translate(163.285535, 283.409243)"><g><path d="M 3.34375 -2.75 C 3.238281 -2.226562 3.351562 -1.773438 3.6875 -1.390625 C 4.019531 -1.015625 4.546875 -0.757812 5.265625 -0.625 C 5.972656 -0.488281 6.539062 -0.503906 6.96875 -0.671875 C 7.394531 -0.835938 7.648438 -1.144531 7.734375 -1.59375 C 7.773438 -1.863281 7.71875 -2.113281 7.5625 -2.34375 C 7.40625 -2.582031 6.976562 -2.851562 6.28125 -3.15625 L 4.546875 -3.90625 C 3.460938 -4.382812 2.757812 -4.894531 2.4375 -5.4375 C 2.113281 -5.976562 2.023438 -6.65625 2.171875 -7.46875 C 2.347656 -8.425781 2.832031 -9.144531 3.625 -9.625 C 4.425781 -10.101562 5.503906 -10.21875 6.859375 -9.96875 C 8.210938 -9.71875 9.171875 -9.1875 9.734375 -8.375 C 10.304688 -7.5625 10.507812 -6.703125 10.34375 -5.796875 L 8.234375 -6.1875 C 8.273438 -6.707031 8.144531 -7.132812 7.84375 -7.46875 C 7.539062 -7.800781 7.046875 -8.035156 6.359375 -8.171875 C 5.804688 -8.265625 5.335938 -8.226562 4.953125 -8.0625 C 4.578125 -7.90625 4.351562 -7.632812 4.28125 -7.25 C 4.226562 -6.976562 4.257812 -6.738281 4.375 -6.53125 C 4.488281 -6.332031 4.703125 -6.160156 5.015625 -6.015625 L 7.71875 -4.78125 C 8.695312 -4.351562 9.335938 -3.867188 9.640625 -3.328125 C 9.941406 -2.785156 10.03125 -2.164062 9.90625 -1.46875 C 9.6875 -0.3125 9.125 0.476562 8.21875 0.90625 C 7.320312 1.34375 6.28125 1.453125 5.09375 1.234375 C 3.570312 0.953125 2.492188 0.414062 1.859375 -0.375 C 1.234375 -1.164062 1.019531 -2.085938 1.21875 -3.140625 Z M 3.34375 -2.75 "/></g></g></g><g fill="#000000" fill-opacity="1"><g transform="translate(178.562538, 285.847676)"><g><path d="M 9.875 -3.453125 C 9.832031 -2.128906 9.429688 -1.132812 8.671875 -0.46875 C 7.910156 0.1875 6.789062 0.492188 5.3125 0.453125 C 4.007812 0.410156 2.984375 0.046875 2.234375 -0.640625 C 1.484375 -1.328125 1.128906 -2.316406 1.171875 -3.609375 L 1.40625 -10.734375 L 3.703125 -10.65625 L 3.484375 -3.671875 C 3.460938 -2.960938 3.617188 -2.421875 3.953125 -2.046875 C 4.285156 -1.671875 4.773438 -1.472656 5.421875 -1.453125 C 6.078125 -1.429688 6.59375 -1.582031 6.96875 -1.90625 C 7.34375 -2.238281 7.546875 -2.75 7.578125 -3.4375 L 7.796875 -10.53125 L 10.09375 -10.453125 Z M 9.875 -3.453125 "/></g></g></g><g fill="#000000" fill-opacity="1"><g transform="translate(194.747929, 285.907073)"><g><path d="M 3.109375 -2.3125 L 8.421875 -2.921875 L 8.640625 -0.984375 L 1.09375 -0.125 L -0.125 -10.828125 L 2.109375 -11.078125 Z M 3.109375 -2.3125 "/></g></g></g><g fill="#000000" fill-opacity="1"><g transform="translate(208.897531, 283.936115)"><g><path d="M 5.546875 -1.421875 L 3.359375 -0.859375 L 1.15625 -9.4375 L -1.984375 -8.625 L -2.453125 -10.46875 L 6.03125 -12.65625 L 6.5 -10.8125 L 3.34375 -10 Z M 5.546875 -1.421875 "/></g></g></g><g fill="#000000" fill-opacity="1"><g transform="translate(222.718825, 279.954109)"><g><path d="M 3.125 -1.1875 L 1.015625 -0.390625 L -2.828125 -10.453125 L -0.71875 -11.25 Z M 3.125 -1.1875 "/></g></g></g><g fill="#000000" fill-opacity="1"><g transform="translate(231.73457, 276.379306)"><g><path d="M 1.828125 -13.15625 L 3.671875 -14.125 L 8.71875 -4.625 L 6.734375 -3.578125 L -0.75 -8.3125 L -0.78125 -8.296875 L 2.828125 -1.5 L 0.96875 -0.515625 L -4.078125 -10.015625 L -1.984375 -11.125 L 5.3125 -6.53125 L 5.34375 -6.546875 Z M 1.828125 -13.15625 "/></g></g></g><g fill="#000000" fill-opacity="1"><g transform="translate(246.059946, 268.305604)"><g><path d="M 1.421875 -8.390625 L 5 -11.09375 L 8.515625 -6.453125 L 7.328125 -5.546875 L 6.34375 -6.5 C 6.34375 -5.132812 5.765625 -4.015625 4.609375 -3.140625 C 3.460938 -2.273438 2.210938 -1.972656 0.859375 -2.234375 C -0.492188 -2.492188 -1.6875 -3.300781 -2.71875 -4.65625 C -3.75 -6.007812 -4.203125 -7.390625 -4.078125 -8.796875 C -3.953125 -10.210938 -3.242188 -11.410156 -1.953125 -12.390625 C -0.835938 -13.234375 0.257812 -13.625 1.34375 -13.5625 C 2.425781 -13.507812 3.316406 -13.109375 4.015625 -12.359375 L 2.21875 -11 C 1.78125 -11.34375 1.289062 -11.507812 0.75 -11.5 C 0.21875 -11.5 -0.273438 -11.328125 -0.734375 -10.984375 C -1.503906 -10.398438 -1.894531 -9.664062 -1.90625 -8.78125 C -1.925781 -7.894531 -1.578125 -6.976562 -0.859375 -6.03125 C -0.140625 -5.082031 0.617188 -4.515625 1.421875 -4.328125 C 2.234375 -4.140625 3.050781 -4.351562 3.875 -4.96875 C 4.332031 -5.320312 4.640625 -5.789062 4.796875 -6.375 C 4.960938 -6.96875 4.875 -7.648438 4.53125 -8.421875 L 2.53125 -6.921875 Z M 1.421875 -8.390625 "/></g></g></g></svg>